<svg xmlns="http://www.w3.org/2000/svg" width="749.265" height="185.021" viewBox="0 0 198.243 48.954"><path d="M-149.397 279.183c-.91.825-2.222 1.1-3.044 1.205-1.675.209-3.407-.347-4.512-1.68-.908-1.087-1.373-2.497-2.26-3.624-1.4-1.783-3.637-2.951-5.942-2.539-4.557.827-6.624 6.14-4.048 9.825 3.682 5.267 11.962 4.355 16.212.707 1.323-1.135 2.558-2.398 3.594-3.894M4.99 279.182c.91.826 2.218 1.101 3.044 1.205 1.674.21 3.407-.345 4.511-1.678.908-1.09 1.376-2.497 2.26-3.624 1.402-1.785 3.64-2.953 5.944-2.54 4.554.826 6.622 6.14 4.044 9.826-3.68 5.266-11.96 4.355-16.207.706-1.324-1.135-2.562-2.398-3.597-3.895" style="fill:#e51636;fill-opacity:1;fill-rule:nonzero;stroke:none;stroke-width:.03527778" transform="translate(171.326 -247.027)"/><path d="M-10.183 251.092c-.114-.004-10.99-.004-11.09 0-1.192.035-2.177 1.14-2.234 2.274-.06 1.207.988 2.403 2.234 2.463.115.004 10.99.004 11.09 0 1.192-.037 2.178-1.14 2.234-2.275.06-1.208-.988-2.402-2.234-2.462M-79.443 274.724a11.207 11.207 0 0 1-.276-1.873c-.007-.902-.007-2.168-.007-3.333.113-4.023.864-11.1-4.593-11.1-3.685 0-5.869 3.1-6.488 4.114-.088-2.827-2.318-4.878-5.725-4.878-2.174 0-3.465 1.73-3.465 1.73s2.12.735 2.12 3.584c.023 2.04-.003 11.974 0 12.016.084 1.76 1.314 3.41 3.514 3.41 2.2 0 3.565-1.69 3.565-3.414v-8.81c.306-1.44 1.117-2.909 2.338-2.909 1.585 0 1.674 1.762 1.681 1.762l-.007 8.528c.007.278.043.544.091.805a4.4 4.4 0 0 0 .406 1.237c.845 1.718 2.715 2.838 5.228 2.838 2.172 0 3.464-1.73 3.464-1.73s-1.275-.449-1.846-1.977M-26.986 274.724a10.786 10.786 0 0 1-.276-1.873l.006-21.107a3.717 3.717 0 1 0-7.433 0l.004 18.693c.019 1.683-.147 3.404.648 4.95.842 1.72 2.919 3.044 5.429 3.044 2.179 0 3.467-1.73 3.467-1.73s-1.272-.449-1.845-1.977M-110.043 258.233c-5.578 0-10.099 4.52-10.099 10.1 0 5.577 4.521 10.098 10.1 10.098 5.576 0 10.099-4.521 10.099-10.099 0-5.579-4.523-10.1-10.1-10.1m.074 15.91v.004c-.008 0-.015-.003-.022-.003-.008 0-.014.003-.02.003v-.005c-1.908-.035-2.864-2.226-2.864-5.809 0-3.578 1.212-5.772 2.863-5.81v-.001h.043c1.65.04 2.862 2.233 2.862 5.811 0 3.583-.954 5.775-2.862 5.81" style="fill:#472380;fill-opacity:1;fill-rule:nonzero;stroke:none;stroke-width:.03527778" transform="translate(171.326 -247.027)"/><path d="M-56.727 274.724a10.72 10.72 0 0 1-.277-1.873l.005-21.107a3.717 3.717 0 1 0-7.434 0l-.014 9.997c-.894-1.244-2.864-3.348-5.966-3.348-8.536 0-9.076 15.2-3.222 18.96 1.65 1.06 4.139 1.332 6.022.843 1.3-.34 3.35-1.617 3.68-3.142.047.112.097.223.154.334.843 1.718 2.92 3.043 5.43 3.043 2.178 0 3.467-1.73 3.467-1.73s-1.272-.449-1.845-1.977m-11.077-1.229v.003h-.044v-.003c-1.907-.028-2.861-1.94-2.861-5.06 0-3.118 1.21-5.027 2.861-5.062v-.003c.01 0 .014.003.023.003.007 0 .013-.003.02-.003v.003c1.654.035 2.864 1.944 2.864 5.062 0 3.12-.956 5.032-2.863 5.06M-37.389 272.182s-1.09 1.493-5.318 1.493c-4.23 0-5.137-3.287-5.137-3.287 6.163 0 11.332-.413 11.332-5.403 0-4.989-5.64-6.635-8.983-6.635-5.521 0-9.555 4.404-9.555 10.216 0 6.546 5.253 9.865 9.613 9.865 7.68 0 8.048-6.25 8.048-6.25zm-10.855-4.996c.217-1.592.598-3.6 2.031-4.53 1.19-.772 2.856.108 2.881 1.596.028 1.571-.989 2.642-2.403 2.94-.15.031-2.53.15-2.509-.006M-7.653 272.182s-1.09 1.493-5.319 1.493-5.136-3.287-5.136-3.287c6.162 0 11.332-.413 11.332-5.403 0-4.989-5.64-6.635-8.983-6.635-5.521 0-9.555 4.404-9.555 10.216 0 6.546 5.252 9.865 9.613 9.865 7.68 0 8.048-6.25 8.048-6.25zm-10.855-4.996c.216-1.592.598-3.6 2.03-4.53 1.19-.772 2.857.108 2.882 1.596.027 1.571-.99 2.642-2.404 2.94-.15.031-2.529.15-2.508-.006M6.293 272.722H2.058c.311 0 3.444-2.642 4.483-3.522 2.721-2.31 7.613-5.64 6.187-9.956l.004.03c-.262-1.027-1.053-1.62-1.053-1.62s-.296.839-1.302 1.214c-.41.1-.822.175-1.232.2-.338.005-11.837 0-11.837 0-1.555-.003-2.859 1.248-2.88 2.723-.018 1.488 1.212 2.682 2.788 2.703l6.709.043c-3.11 1.734-6.824 3.788-8.71 6.924-1.076 1.8-2.228 4.574-1.79 6.703 1.49-1.321 5.401-2.6 8.379-1.978 1.114.233 2.3.802 3.263 1.404 5.584 3.493 8.94-3.339 6.27-6.35 0 0-1.522 1.482-5.044 1.482M-119.596 276.97c-3.425-3.755-4.496-10-4.707-14.152-.182-3.586.012-9.797 2.838-11.605-.946-1.189-2.812-1.668-4.23-1.668-3.187 0-4.723 2.122-5.812 3.649-.36.504-5.718 7.895-5.718 7.895s-4.507-6.972-5.06-7.81c-.766-1.155-2.2-3.279-4.719-3.646-1.085-.159-3.899-.303-5.43 1.8 2.64 2.112 2.574 7.491 2 11.164-1.72 11.024-6.41 12.04-6.41 12.04 2.403 6.49 8.59 3.925 10.34-1.249 1.132-3.363 1.863-7.62 2.032-11.15l6.79 10.417s7.69-10.385 7.69-10.375c-1.266 18.365 5.041 23.572 10.557 23.572 5.52 0 7.399-5.049 7.399-5.049-2.985-.18-5.598-1.681-7.56-3.832M-102.37 282.944c.066.27.1.535.118.802 0 .08-.005 9.608 0 9.722.024.8.764 1.46 1.526 1.499.81.04 1.61-.663 1.651-1.499.004-.109 0-8.689 0-8.689-.007-.72.063-1.457-.277-2.118-.36-.736-1.25-1.303-2.323-1.303-.933 0-1.485.74-1.485.74s.545.192.79.846M-1.651 293.382c-.066-.27-.101-.535-.119-.803 0-.08.005-9.607.001-9.72-.024-.801-.764-1.462-1.526-1.5-.81-.04-1.61.664-1.652 1.5-.003.109 0 8.688 0 8.688.008.72-.062 1.456.277 2.119.361.735 1.25 1.302 2.324 1.302.933 0 1.484-.74 1.484-.74s-.544-.193-.79-.846M-59.137 286.29c-1.652 0-2.63 1.39-2.907 1.844l-.01.007c0-.46-.002-.823-.002-.842-.024-.8-.764-1.398-1.525-1.435-.809-.04-1.61.6-1.651 1.435-.002.109-.002 6.083 0 6.163.025.8.764 1.46 1.526 1.498.809.04 1.61-.663 1.65-1.498.002-.061.003-2.01.003-3.69l.013-.009c.136-.645.5-1.304 1.047-1.304.71 0 .75.79.753.79l-.007 4.213c.024.8.764 1.46 1.526 1.497.808.04 1.61-.663 1.65-1.497l-.004-2.202c0-2.263.236-4.98-2.062-4.97M-18.53 286.29c-1.653 0-2.63 1.39-2.908 1.844l-.009.007c0-.46-.002-.823-.002-.842-.024-.8-.764-1.398-1.525-1.435-.809-.04-1.611.6-1.651 1.435-.003.109-.003 6.083 0 6.163.024.8.764 1.46 1.526 1.498.808.04 1.61-.663 1.65-1.498.002-.061.003-2.01.002-3.69l.013-.009c.137-.645.5-1.304 1.048-1.304.71 0 .75.79.752.79l-.006 4.213c.024.8.764 1.46 1.525 1.497.809.04 1.61-.663 1.651-1.497l-.005-2.202c0-2.263.237-4.98-2.062-4.97M-91.39 286.29c-1.652 0-2.63 1.39-2.908 1.844l-.009.007c0-.46-.002-.823-.002-.842-.024-.8-.764-1.398-1.525-1.435-.809-.04-1.611.6-1.651 1.435-.003.109-.003 6.083 0 6.163.025.8.765 1.46 1.526 1.498.808.04 1.61-.663 1.65-1.498.002-.061.003-2.01.002-3.69l.014-.009c.136-.645.5-1.304 1.047-1.304.71 0 .75.79.753.79l-.007 4.213c.024.8.764 1.46 1.525 1.497.81.04 1.61-.663 1.651-1.497l-.004-2.202c0-2.263.236-4.98-2.063-4.97M-30.046 285.891a4.524 4.524 0 1 0-.002 9.049 4.524 4.524 0 0 0 .002-9.049m.033 7.127v.002h-.019v-.002c-.856-.017-1.283-.997-1.283-2.603 0-1.603.542-2.585 1.283-2.603H-30.014c.74.018 1.282 1 1.282 2.603 0 1.606-.427 2.586-1.281 2.603M-46.943 287.19c-.026-.837-.814-1.53-1.61-1.57-.849-.042-1.688.695-1.73 1.57-.001.06-.009.19-.009.214-.402-.558-1.283-1.5-2.674-1.5-3.824 0-4.066 6.81-1.443 8.495.74.475 1.855.596 2.699.377.477-.124 1.179-.53 1.499-1.05.195.669.858 1.178 1.539 1.212.847.042 1.686-.693 1.73-1.569.003-.114.002-6.102 0-6.179m-4.855 5.481v.001h-.019c-.855-.014-1.282-.872-1.282-2.27 0-1.396.542-2.251 1.282-2.267v-.001h.02c.74.017 1.283.872 1.283 2.269 0 1.397-.43 2.255-1.284 2.268M-6.37 287.19c-.024-.837-.812-1.53-1.61-1.57-.848-.042-1.687.695-1.73 1.57 0 .06-.009.19-.009.214-.4-.558-1.283-1.5-2.673-1.5-3.824 0-4.067 6.81-1.443 8.495.74.475 1.855.596 2.698.377.477-.124 1.18-.53 1.5-1.05.195.669.858 1.178 1.538 1.212.848.042 1.687-.693 1.73-1.569.003-.114.001-6.102 0-6.179m-4.853 5.481v.001h-.02c-.854-.014-1.282-.872-1.282-2.27 0-1.396.542-2.251 1.282-2.267v-.001h.02c.74.017 1.283.872 1.283 2.269 0 1.397-.429 2.255-1.283 2.268M-35.568 288.042a1.558 1.558 0 0 0-1.44-1.474c-.047-.005-.09-.014-.135-.014-.707 0-1.597.612-1.597 1.385l.004 2.93h-.004c.01.913-.001 2.564 0 2.582.038.79.658 1.409 1.439 1.474.047.006.09.015.135.015.707 0 1.598-.612 1.598-1.385l-.003-2.447h.003c-.01-.915.001-3.048 0-3.066M-35.58 284.08a1.574 1.574 0 1 1-3.148-.001 1.574 1.574 0 0 1 3.148.002M-67.761 286.18c-.943.04-1.41.742-2.052 1.625-.004.007 0-.408 0-.424-.024-.8-.764-1.46-1.524-1.498-.81-.04-1.61.663-1.651 1.498v6.1h-.003c.024.8.764 1.46 1.525 1.498.802.04 1.595-.65 1.649-1.475h.007l-.001-3.864c.048-.566.295-1.274.75-1.27.645.006-.02 1.565 1.458 1.565 2.121 0 2.347-3.858-.158-3.754M-74.24 292.136s-.488.67-2.385.67c-1.897 0-2.305-1.475-2.305-1.475 2.765 0 5.084-.185 5.084-2.424 0-2.238-2.53-2.976-4.03-2.976-2.476 0-4.286 1.975-4.286 4.582 0 2.937 2.356 4.426 4.313 4.426 3.445 0 3.61-2.803 3.61-2.803zm-4.87-2.242c.097-.714.27-1.615.913-2.031.533-.347 1.28.048 1.292.715.012.705-.443 1.185-1.078 1.319-.068.014-1.136.068-1.126-.002M-82.354 293.267s-.826 1.673-2.353 1.673c-1.257 0-2.803-1.11-2.868-2.717l-.015-4.258h-.426c-.223 0-.618-.133-.618-.714 0-.58.444-.703.664-.703h.377c-.002-.676-.003-1.14-.002-1.17.04-.832.84-1.534 1.647-1.493.76.038 1.517.696 1.541 1.494v1.168h1.345c.186 0 .617.122.617.713s-.43.705-.664.705h-1.298v3.548c0 1.151.991 1.749 2.057 1.753M-39.854 293.267s-.826 1.673-2.353 1.673c-1.256 0-2.803-1.11-2.867-2.717-.002-.014-.009-2.326-.015-4.258h-.427c-.223 0-.617-.133-.617-.714 0-.58.444-.703.663-.703h.377c-.002-.676-.002-1.14-.001-1.17.04-.832.84-1.534 1.646-1.493.76.038 1.517.696 1.541 1.494v1.168h1.345c.186 0 .618.122.618.713s-.432.705-.665.705h-1.298v3.548c0 1.151.992 1.749 2.057 1.753" style="fill:#472380;fill-opacity:1;fill-rule:nonzero;stroke:none;stroke-width:.03527778" transform="translate(171.326 -247.027)"/></svg>