<svg xmlns="http://www.w3.org/2000/svg" version="1.1" x="0" y="0" viewBox="0 0 316.9 51" xml:space="preserve" id="svg308" width="316.89999" height="51" aria-label="Auntie Anne's logo"><style type="text/css" id="style219">.aa-logo-st0{fill:#0061af}.aa-logo-st2{fill:#fdb913}</style><g id="BLUE" transform="matrix(.29726 0 0 .30007 -28.130106 -93.239455)"><g id="g241"><path class="aa-logo-st0" d="M971.8 446.2v-36.8c0-13.6-7-22.3-22-22.3-9.8 0-14.8 4.4-23 9.8l-1.8-9.8-33.5 3.7v5.8l4 .7c2.2.4 3 2 3 5.8v43.1c0 6.9-.7 7.5-6.9 7.9v5.9h41.7v-5.8c-4.5-.5-5.8-1.5-5.8-5.3v-35.4c0-9.9 3.4-13.4 7.9-13.4 4 0 7.4 3.2 7.4 12.6v36.2c0 3.8-1.3 4.8-5.8 5.3v5.8h42.7v-5.8c-7.1-.5-7.9-.7-7.9-8z" id="path221"/><path class="aa-logo-st0" d="M1069.6 366.4c-6.2 0-10.6 3.7-10.6 10.2 0 6.3 5.4 9.4 5.4 15.1 0 4.6-1.3 8.6-5.2 13.1l4.4 4.8c4.5-3.3 8-6.4 11.7-10.9 4.6-5.6 6.6-11.5 6.6-17.2 0-8.6-5.2-15.1-12.3-15.1z" id="path223"/><g id="g229"><g id="g227"><path class="aa-logo-st0" d="M600.3 384.7c9 0 14.6-5.3 14.6-12.3 0-7-5.6-12.3-14.6-12.3s-14.6 5.3-14.6 12.3c.1 7 5.6 12.3 14.6 12.3zm-262.5 62.5c-2.4-6.6-6.2-19.2-10.6-33.2l-14.3-45.6h-23.4l-14.9 46c-4.6 14.2-8.9 26.7-11.4 33.5-1.9 5-3 5.7-9.9 6.2v5.8h33.1v-5.8l-7.5-.7c-3-.3-3.8-1.9-2.8-5.6l4.9-17.1h21l4.8 16.4c1.2 4 .9 6.1-2.2 6.3l-6.1.5v5.8h49.3v-5.8c-7.3-.6-8.1-1.1-10-6.7zm-54.7-24.8 8.6-29.4h.8l7.7 29.4zm138.8 23.8v-58.1l-1.5-1.1-34.5 3.7v5.8l4 .7c2.2.4 3 2 3 5.8v28.3c0 13.9-4.4 17.2-8.5 17.2-3.7 0-6.6-4-6.6-12v-48.4l-1.5-1.1-34.5 3.7v5.8l4 .7c2.2.4 3 2 3 5.8v36.1c0 16.7 8.9 22.4 23.4 22.4 10.7 0 20.8-9.8 23.1-11.5l1.3 9.9h33.1v-5.8c-7-.4-7.8-.6-7.8-7.9zm149 3.8c-5.8 0-9.4-4.1-9.4-14v-38.2h13.2v-9.1h-13.2v-16.8h-11l-17.2 16.8h-7.9v9.1h7.1v45c0 13.8 10.2 18.8 22.9 18.8 7.3 0 13.3-2 20.1-5.8l-1.9-5.9c-.9 0-1.8.1-2.7.1zm44-3.8v-58.1l-1.5-1.1-34.5 3.7v5.8l4 .7c2.2.4 3 2 3 5.8v43.1c0 7.3-.8 7.5-7.9 7.9v5.8h44.8V454c-7.1-.3-7.9-.5-7.9-7.8z" id="path225"/></g></g><path class="aa-logo-st0" d="M878.9 446.2v-36.8c0-13.6-7-22.3-22-22.3-9.8 0-14.8 4.4-23 9.8l-1.8-9.8-33.5 3.7v5.8l4 .7c2.2.4 3 2 3 5.8v43.1c0 5.6-1.3 7.8-5.8 7.7-4.3-.1-7.1-1.5-8.9-6.7-2.4-6.6-6.2-19.2-10.6-33.2L766 368.4h-23.4l-15 46c-4.6 14.2-8.9 26.7-11.4 33.5-1.9 5-3 5.7-9.9 6.2v5.8h33.1v-5.8l-7.5-.7c-3-.3-3.8-1.9-2.8-5.6l4.9-17.1h21.2l4.8 16.4c1.2 4 .9 6.1-2.2 6.3l-6.1.5v5.8h88.8v-5.8c-4.5-.5-5.8-1.5-5.8-5.3v-35.4c0-9.9 3.4-13.4 7.9-13.4 4 0 7.4 3.2 7.4 12.6v36.2c0 3.8-1.3 4.8-5.8 5.3v5.8H886v-5.9c-6.3-.1-7.1-.7-7.1-7.6zm-142.6-23.8 8.6-29.4h.8l7.7 29.4z" id="path231"/><path class="aa-logo-st0" d="M1077 432.2h6.6c5.2 10.8 12.4 21.6 22.1 21.6 4.2 0 8.1-2.2 8.1-6.9 0-6.1-6.2-9.7-14.9-13.1-7-2.8-21.7-8.3-21.7-22.8 0-15.9 11.8-23.9 32.1-23.9 7.1 0 17.9 1.3 24.5 5.6v19.8h-6.1c-4.4-11.9-11.6-17.6-17.7-17.6-4 0-7.5 2.2-7.5 6.3 0 4.9 4.1 7.1 16 12.2 13.1 5.4 21.3 11.5 21.3 24.5 0 16.4-13.4 23.7-33.9 23.7-7.1 0-19.7-.9-26.6-6.2z" id="path233"/><path class="aa-logo-st0" d="m469.6 387.1 1.9 9.8c8.2-5.4 13.2-9.8 23-9.8 14.9 0 22 8.7 22 22.3v36.8c0 7.3.8 7.5 7.9 7.9v5.8h-42.7v-5.8c4.5-.5 5.8-1.5 5.8-5.3v-36.2c0-9.4-3.4-12.6-7.4-12.6-4.5 0-7.9 3.4-7.9 13.4v35.4c0 3.8 1.3 4.8 5.8 5.3v5.8h-42.7v-5.8c7.1-.4 7.9-.7 7.9-7.9v-43.1c0-3.8-.8-5.4-3-5.8l-4-.7v-5.8z" id="path235"/><path class="aa-logo-st0" d="M1014.3 424.8c.1 14.8 5.2 24.7 16.7 24.7 7.9 0 13.9-4.2 17.9-12.8l6.1 3.8c-5.3 17.2-18.4 21-33.2 21-11.9 0-21.6-3-27.8-9.3-6.3-6.5-9.9-15.7-9.9-27.6 0-11.6 3.6-22 9.9-28.2 6.3-6.2 15.2-9.4 27.9-9.4 34.9 0 34.6 25 34.6 30.4 0 3.7-2 7-6.7 7.3h-35.5zm10.2-8.5c2.6 0 3.8-1.3 3.8-4.2 0-4.8-.3-17.2-6.6-17.2-5.7 0-7.4 9.3-7.4 21.4z" id="path237"/><path class="aa-logo-st0" d="M657.8 424.8c.1 14.8 5.2 24.7 16.7 24.7 7.9 0 13.9-4.2 17.9-12.8l6.1 3.8c-5.3 17.2-18.4 21-33.2 21-11.9 0-21.6-3-27.8-9.3-6.3-6.5-9.9-15.7-9.9-27.6 0-11.6 3.6-22 9.9-28.2 6.3-6.2 15.2-9.4 27.9-9.4 34.9 0 34.6 25 34.6 30.4 0 3.7-2 7-6.7 7.3h-35.5zm10.2-8.5c2.6 0 3.8-1.3 3.8-4.2 0-4.8-.3-17.2-6.6-17.2-5.7 0-7.4 9.3-7.4 21.4z" id="path239"/></g><path d="M225.1 354.2c-5.7-5.8-14.1-8.5-25-8.2-10.4.3-22.5 3.8-32 10.7-1.9 1.3-3.1 1.3-5-.1-4.5-4-14.3-9.9-29.8-9.9-9.5 0-17.3 3.2-23.2 9.5-8.7 9.3-12.8 25.2-11.7 43.4 1.7 28.8 4.1 42.9 11.3 51.4 1.2 1.5 1.5 3.6.6 5l-.5.8c-1.5 2.7-1.4 6.9-.6 9.6.9 3.1 5.3 11.2 14.3 11.6 5.8.2 9.4-2.2 12.3-4.6 1.1-1 2.2-1.3 4.3-.7 12.5 4.4 34.8 4.5 49.6.2 1.3-.2 2.5-.4 3.7.9 4.8 4.9 9.5 6.7 15.7 6 5.4-.6 11.7-4.2 13.2-12.6.5-2.9-.5-7.1-1.5-9.1-1.2-2.4-1.5-3.7.3-6.7 5-7.5 6.8-12.7 9.4-23.5 2.5-10.3 3.7-25.5 4.2-33.7l.1-2.2c.9-17.9-2.5-30.3-9.7-37.8zm-79.5 29.6c-3.2 4.6-4.8 10.1-4.8 16.8 0 12.2 4.4 19.6 4.4 19.6.6 1 .5 2.1-.3 3.1-.5.5-4.2 3.9-8.3 7.8l-2.3 2.2c-.6.5-1.3 1.2-2.2 1.1-.8-.1-1.5-.6-2.2-1.6-2.7-3.5-5.9-10.9-7-26.4-1.1-16.1 4.2-27.4 9.9-30.2 4.6-2.3 9.4.1 12.4 3 .9.8 1.7 2.7.4 4.6zm24.8 65c-.1.4-.5.8-1 .9-1.7.4-7.2.5-9.9 0-.8-.1-1.1-.6-1.2-.9-.2-.7.4-1.4.6-1.6.4-.3 3.6-3.4 4-3.8.3-.3.8-.5 1.4-.6.6 0 1.3.1 1.6.5l3.8 3.8.3.3c.4.4.6 1 .4 1.4zm29.2-15.5-.1.1c-.6.7-1.2 1.1-1.9 1.1-1 .1-1.9-.5-2.5-1.1-.6-.5-10.3-8.9-10.8-9.5-.5-.6-.7-2 .2-3.3 1.1-1.5 6.5-11.2 6.5-21.7 0-8.6-2.4-13.7-3.4-15.9l-.4-.8c-.6-1.5-.2-2.4.2-3.1 1.1-1.7 5.1-5.1 10.5-3.8 5 1.2 10.4 10.9 10.4 29.6-.1 11.9-2.8 21.1-8.7 28.4z" id="path243" style="fill:#0061af;enable-background:new"/><g id="g247"><path class="aa-logo-st0" d="M1149.1 391.5c4.9 0 8.8 3.9 8.8 8.8s-3.9 8.8-8.8 8.8-8.8-3.9-8.8-8.8c0-4.8 3.9-8.8 8.8-8.8zm0 15.3c3.4 0 6.3-2.8 6.3-6.4 0-3.7-2.8-6.4-6.3-6.4-3.4 0-6.3 2.8-6.3 6.4 0 3.6 2.8 6.4 6.3 6.4zm-3.8-11.3h3.9c2.6 0 3.8 1.1 3.8 3.1 0 1.7-1.1 2.6-2.3 2.8l2.4 4h-2.5l-2.2-3.9h-.8v3.9h-2.2v-9.9zm2.2 4.2h1.6c.9 0 1.6-.2 1.6-1.3s-1-1.2-1.8-1.2h-1.4z" id="path245"/></g></g><g id="GOLD" transform="matrix(.29678 0 0 .3023 -27.555995 -93.905287)"><path class="aa-logo-st2" d="M417.1 392.3c-4.5.5-13.9 1.5-22.1 2.4.5.5 1 1.2 1.4 1.9 7.2-.8 14.3-1.6 18.1-2v53.1c0 2.8.6 5.7 1.4 7.4h2.9c-1.3-1.9-1.8-4.7-1.8-8.9.1 0 .1-46.6.1-53.9z" id="path250"/><path class="aa-logo-st2" d="m324.7 422.4-2.1-6.9s-9.9-31.7-13.2-42.2H293c-.2.5-.4 1.3-.7 2.3H307c3.3 10.5 13.2 42.2 13.2 42.2l2.1 6.9c3.5 11.2 6.5 20.9 8.5 26.5.6 1.6 1.2 2.8 2 3.9h3.5c-1.3-1.4-2.3-3.4-3.3-6.2-1.9-5.6-4.9-15.3-8.3-26.5z" id="path252"/><path class="aa-logo-st2" d="M373 436.5v-44.2c-4.5.5-13.9 1.5-22.1 2.4.5.5 1 1.2 1.4 1.9 7.2-.8 14.3-1.6 18.1-2v43.2c0 10.1 5.2 15.4 9.6 16.9 1.3-.5 1.6-.7 2.8-1.4-4.8-.9-9.8-5.6-9.8-16.8z" id="path254"/><path class="aa-logo-st2" d="M550.3 379h3.7v57.8c0 10.9 4.9 16.6 9.5 18.7 1.5-.4 2-.6 3.5-1.2-4.6-1.3-10.4-5.4-10.4-18.4v-59.3h-4.1z" id="path256"/><path class="aa-logo-st2" d="M1129.9 401.9v-6.7c-2.4-1.1-5.3-1.8-8.2-2.3 4.4 2.7 6.2 4.9 8.2 9z" id="path258"/><path class="aa-logo-st2" d="M607.8 374.6c0 1.4-.4 2.5-1 3.6 2-1.3 3.2-3.3 3.2-5.8 0-4.6-3.7-7.4-9.7-7.4-4.2 0-7.2 1.4-8.7 3.9 1.6-1 3.8-1.6 6.5-1.6 6-.1 9.7 2.1 9.7 7.3z" id="path260"/><path class="aa-logo-st2" d="M1070.2 397.2c.5-.5.8-1 1.3-1.5 3.7-4.4 5.5-9.1 5.5-14.1 0-5.9-3.1-10.2-7.4-10.2-2.7 0-4.4 1.2-5.3 2.8.8-.4 1.8-.5 3-.5 4.3 0 7.4 4.3 7.4 10.2 0 4.6-1.6 9.1-4.8 13.2z" id="path262"/><path class="aa-logo-st2" d="M610 392.3c-4.5.5-13.9 1.5-22.1 2.4.5.5 1 1.2 1.4 1.9 7.2-.8 14.2-1.4 18-1.8v52.9c0 2.8.7 5.6 1.6 7.5h2.8c-1.2-1.9-1.8-4.6-1.8-8.8.1-.1.1-46.8.1-54.1z" id="path264"/><path class="aa-logo-st2" d="M1116.5 417.9c-11-4.7-19-8-19-16.7 0-2.4.8-4.6 2.1-6.4-2.7 2-4.3 5-4.3 8.6 0 8.6 8 12 19 16.7 13.7 5.7 18.3 10.7 18.3 20 0 4.3-1.2 7.8-3.5 10.6 3.8-3.1 5.7-7.4 5.7-12.9 0-9.2-4.6-14.2-18.3-19.9z" id="path266"/><path class="aa-logo-st2" d="M1082.6 444.2c.2 2.2.7 6.8.8 8.3 3 2 6.5 3.1 9.9 3.9-3.8-2.1-7.4-6.2-10.7-12.2z" id="path268"/><path class="aa-logo-st2" d="M511.6 410.8c0-12.1-5.6-18.9-17.1-18.9-4.9 0-8.2 1.3-12 3.5.4.1.9.2 1.4.4 2.5-1 5.4-1.9 8.7-1.9 10.3 0 16.4 4.5 16.4 17.7V447c0 2.8.2 5.6 1.4 8h3c-1.2-1.9-1.8-4.7-1.8-8.9z" id="path270"/><path class="aa-logo-st2" d="M465.7 392.3c-4.8.5-12.8 1.4-20.5 2.3.5.5 1 1.2 1.4 1.9 6.5-.7 16.9-1.6 16.9-1.7.9 4.8 1.2 12.4 1.2 20.8v33.7c0 1.6.4 4.2 1.2 5.7l3.1.1c-1.1-1.5-1.7-3.4-1.7-6.2v-35.4c-.1-10.9-.8-17-1.6-21.2z" id="path272"/><path class="aa-logo-st2" d="M874.1 410.8c0-12.1-5.6-18.9-17.1-18.9-4.9 0-8.2 1.3-12 3.5.4.1.9.2 1.4.4 2.5-1 5.4-1.9 8.7-1.9 10.3 0 16.4 4.5 16.4 17.7V447c0 2.8.2 5.6 1.4 8h3c-1.2-1.9-1.8-4.7-1.8-8.9z" id="path274"/><path class="aa-logo-st2" d="M828.2 392.3c-4.8.5-12.8 1.4-20.5 2.3.5.5 1 1.2 1.4 1.9 6.5-.7 16.9-1.6 16.9-1.7.9 4.8 1.2 12.4 1.2 20.8v33.7c0 1.6.4 4.3 1.2 5.9h3.1c-1.1-1.5-1.7-3.4-1.7-6.2v-35.4c0-11-.8-17.1-1.6-21.3z" id="path276"/><path class="aa-logo-st2" d="M966.9 410.8c0-12.1-5.6-18.9-17.1-18.9-4.9 0-8.2 1.3-12 3.5.4.1.9.2 1.4.4 2.5-1 5.4-1.9 8.7-1.9 10.3 0 16.4 4.5 16.4 17.7V447c0 2.8.2 5.6 1.4 8h3c-1.2-1.9-1.8-4.7-1.8-8.9z" id="path278"/><path class="aa-logo-st2" d="M921 392.3c-4.8.5-12.8 1.4-20.5 2.3.5.5 1 1.2 1.4 1.9 6.5-.7 16.9-1.6 16.9-1.7.9 4.8 1.2 12.4 1.2 20.8v33.7c0 1.6.4 4.3 1.2 5.9h3.1c-1.1-1.5-1.7-3.4-1.7-6.2v-35.4c0-11-.8-17.1-1.6-21.3z" id="path280"/><path class="aa-logo-st2" d="M1027.8 392.3c.9.8 1.5 1.5 2.2 2.7 6.3.9 10.3 3.1 13.4 6.2 6.1 6.1 6 14.9 6 18.4v.2h.2c1.2-.1 2.1-.3 2.1-2.4v-.1c0-3.4-.1-11.8-6.2-18-4.1-3.9-9.7-6.2-17.7-7z" id="path282"/><path class="aa-logo-st2" d="M1040.2 452.5c-3.2 1.4-6.9 1.9-9.6 1.9-6.4 0-21.1-4.1-21.1-31.4 0-11 0-22.4 4.1-28.5h-.3l-.1.1c-6 5.3-6.3 14.9-6.3 29 0 24.6 12.4 31.9 19.5 32.7 7 .5 10.3-1.4 13.9-3.5v-.3z" id="path284"/><path class="aa-logo-st2" d="M671.3 392.3c.9.8 1.5 1.5 2.2 2.7 6.3.9 10.3 3.1 13.4 6.2 6.1 6.1 6 14.9 6 18.4v.2h.2c1.2-.1 2.1-.3 2.1-2.4v-.1c0-3.4-.1-11.8-6.2-18-4-3.9-9.7-6.2-17.7-7z" id="path286"/><path class="aa-logo-st2" d="M683.7 452.5c-3.2 1.4-6.9 1.9-9.6 1.9-6.4 0-21.1-4.1-21.1-31.4 0-11 0-22.4 4.1-28.5h-.3l-.1.1c-6 5.3-6.3 14.9-6.3 29 0 24.6 12.4 31.9 19.5 32.7 7 .5 10.3-1.4 13.9-3.5v-.3z" id="path288"/><path class="aa-logo-st2" d="m777.7 422.1-2-6.6s-9.9-31.7-13.2-42.2h-16.3c-.2.5-.4 1.3-.7 2.3h14.8c3.3 10.5 13.2 42.2 13.2 42.2l2 6.6c3.5 11.4 6.6 21.2 8.6 26.8.6 1.6 1.1 2.7 2 3.9h3.6c-1.3-1.4-2.3-3.4-3.3-6.2-2.1-5.7-5.2-15.5-8.7-26.8z" id="path290"/><g id="g298"><path class="aa-logo-st2" d="M172.2 358.2c1.9-2 10.2-5 11.9-5.5 4.5-1.5 9.6-3.2 16-3.4 22.7-.7 34 14.1 30.5 48.4-1.1 6.2-1 17.5-2.1 20.3-1.8 4.2-2.5 5.9-3.3 10.3-.7 4.1-1 6.4-3.5 8.4-1.3 1-3.6 2.4-5.1 5.7-1.9 4.3-8.2 3.7-10.7 1.1-3-3.1-3.1-6.8-.8-10.4 4.1-6.1 6.6-13.6 7.3-23.5.2-2.8 1.2-6.9 1-9.5-.1-3-1-5.4-1-7.6.1-3.2.5-4.5.2-7.3-.4-3.4-3.3-5.5-4.9-7.9-1.8-2.7-1.3-5.4-4.6-7.6-4.1-2.2-7.8-.1-12.4 2-4.3 1.7-8 1.2-10.1-.7-.7-.6-1.5-1.1-2-1.1-.7.1-1.5.7-.7 1.7 6.4 8.7 10.2 15.3 10.2 24.5 0 6-2 13.4-5.4 15.8-4.5 2.6-8.4-.5-9.7-2-.6-.7-1.6-1.9-2-3-.3-.6-.8-1.2-1.7-.8-.5.3-.6 1.2-.6 1.7.2 1.6.6 4.7 3.8 9 3.9 5.4 24.1 21.4 30.4 28.3 4.8 5.3 10.4 9.4 11.6 18.1.6 4.7-1.6 9.4-6.7 10.1-4.9.7-8.2-2.7-9.6-4.9-1.4-2.2-4.7-6.7-9-9.3-4.1-2.5-5.7-5-7.4-6.6-6.1-6.1-14.9-12.7-22.5-21.4-3.8-4.4-14.2-15.2-14.2-31.7 0-12.2 6.8-17.1 9.8-16.2.9.3 2.2 1.2 3.3 3.1.6.9.5.8 1.1 2.1.7 1.7 1.7.9 1.9.3.3-1 .2-2.9-.5-4.6-1.8-4.8-5.7-8.6-11.4-10.8-4.3-1.6-6.3 0-11.5-1.2-7.6-1.8-11.4.2-13.5 3.5-1.4 2.2-2.3 6.9-2.7 10.8-.4 3.7-1.1 6.9-1.8 10-.4 2.1-1.6 5.5-1.8 8.6-.2 3.3 1.8 9 2.1 11.8.5 3.8-.1 7.6 1.3 11.1 2.2 5.1 3.1 5.9 5.6 7.4 1.4.9 2 3 .7 4.2-2.1 2.1-7 6.9-9.2 8.9-.8.8-2.6 1.1-4 .3-.4-.2-1.7-1.1-3.4-3.2-4.5-6.4-7.5-19.9-9.1-45.5-1.8-20.5 5-49 30.8-49.8 14.5-.4 25.1 4.5 34.4 14.1.8.8 1.8 1.5 2.5 1.1.6-.3.8-1.1.6-2.3-.3-1.7.4-3.2 1.9-4.9z" id="path292"/><path class="aa-logo-st2" d="M175.3 453.2c1.6 1.5 10.5 11.2 11.5 12.3 1 1.2.7 2.9-.8 3.8-1.5.8-5.5 1.6-9 1.2-3.5-.4-8.4-2.4-10.8-2.5-2.4-.1-6.4 1.1-9.8.4-4.7-1-10.4-8.1-1.6-15.3.9-.7 1.5-.9 2.7-.7 5.2.9 9.1 1 15.2.1 1.1-.1 1.8-.1 2.6.7z" id="path294"/><path class="aa-logo-st2" d="M156.2 432.2c-1-1-4.2-4.8-5-5.8-1.1-1.3-3.2-1.1-4.6.1-6 5-20.3 19-23.9 23.1-2.9 3.4-7.8 8.7-6.9 14.2.6 3.8 3.7 6.9 7.3 7.1 2.8 0 5.3-1 7.1-3.6 1.4-2.1 3.4-4.9 6.8-6.4s5.6-4.3 6.9-7c1.4-2.7 4.5-8.6 8.6-10.5 4.2-1.8 7.1-7.8 3.7-11.2z" id="path296"/></g><path class="aa-logo-st2" d="M166.9 336.8c22.8 0 41.6-2.2 41.6-12.9 0-2.8-1.8-5.2-5-6.9l-.2-.1c-7.1-3.9-20.7-5.6-36.4-5.6s-29.4 1.6-36.5 5.6h-.1c-3.2 1.8-5 4.1-5.1 6.9.1 11.2 20.3 13 41.7 13zm0-15.3c14.3 0 26.6 1.4 32.1 3.6.4.2.7.5.7.7 0 2.5-14.7 4.3-32.8 4.3-18.1 0-32.8-1.7-32.8-4.3 0-.2.1-.3.3-.5 5.4-2.2 18-3.8 32.5-3.8z" id="path300"/><path d="M135.3 316.5c-1.3.5-1.1 1-.9 1.1.5.5 2.4 0 3.8-.2 3.2-.6 6.9-1.2 11.2-1.6 3.8-.3 6.8-.6 8.9-.7 3.1-.2 5.9-.2 10.5-.2 2.1 0 3.6 0 3.8-.6.2-.6-.7-1.1-3.2-1.2-3.3-.1-5.5-.1-11.1.1-3.3.2-6 .4-9.7.8-4.9.4-10.2 1.4-13.3 2.5z" id="path302" style="fill:#fff"/></g><g id="RING_SHADOW" transform="matrix(.29567 0 0 .305 -27.370442 -93.9589)"><path d="M166.9 318.7c-11.4 0-21.2.5-29.5 2.5-3.6.8-8.1 2.1-9.3.1-.5-.8-.9-2.3 2.4-4.4-3.3 1.8-5.2 4.1-5.2 7 0 11 20 12.9 41.6 12.9 22.8 0 41.6-2.2 41.6-12.9 0-2.9-1.9-5.3-5.2-7.1 3.3 2.1 2.9 3.6 2.5 4.4-1.1 2-5.7.8-9.3-.1-8.3-1.8-18.2-2.3-29.6-2.4m-24.5 13.4c-6.5-1.2-10.6-2.8-10.6-4.6 0-3.2 15.9-6.1 35.2-6.1 19.4 0 35.2 2.7 35.2 6.1 0 1.8-4.1 3.4-10.6 4.6-5.9 1.2-14.7 2-24.6 2-9.9 0-18.7-.8-24.6-2z" id="path305" style="fill:#ce8b3d"/></g></svg>