<svg xmlns="http://www.w3.org/2000/svg" xmlns:xlink="http://www.w3.org/1999/xlink" width="181" height="61" aria-label="carvel logo"><defs><path id="a" d="M21.56 29H.504V.523H21.56V29z"/></defs><g fill="none" fill-rule="evenodd"><path fill="#A30134" d="M137 52.984c0-1.642 1.572-2.984 3.507-2.984v.586c-1.58 0-2.842 1.07-2.842 2.398 0 1.367 1.263 2.431 2.842 2.431 1.566 0 2.828-1.064 2.828-2.43 0-1.329-1.262-2.4-2.828-2.4V50c1.932 0 3.493 1.342 3.493 2.984 0 1.673-1.561 3.016-3.493 3.016-1.935 0-3.507-1.343-3.507-3.016"/><path fill="#A30134" d="M139.374 52.228h.653c.32 0 .6.035.6.293 0 .36-.486.31-.841.31h-.412v.248h.443l.723.921h.429l-.767-.921c.45-.01.798-.157.798-.552a.473.473 0 0 0-.28-.43c-.193-.087-.405-.097-.616-.097H139v2h.374v-1.772zM10.206 59.5a8.726 8.726 0 0 1-4.008-.972c-2.667-1.431-4.552-3.883-5.49-7.104C-1.277 44.6.97 34.132 6.717 23.42c6.324-11.79 17.87-20.56 24.94-21.926 3.097-.597 4.927.294 5.918 1.149 5.49 4.74.97 15.177-3.787 23.098-.695 1.157-2.164 1.51-3.282.792-1.116-.718-1.46-2.24-.766-3.396C34.592 15.06 36.56 8.19 34.523 6.43c-.168-.142-.773-.32-1.992-.088-5.91 1.142-16.255 9.419-21.646 19.472C5.825 35.243 3.675 44.51 5.273 50c.574 1.975 1.583 3.325 3.083 4.131 2.761 1.42 6.694-.72 10.766-5.885a2.328 2.328 0 0 1 3.351-.354c1.02.862 1.173 2.414.342 3.47-5.053 6.414-9.399 8.138-12.61 8.138m126.727-43.09c-.136.01-1.138.31-2.803 2.024-3.043 3.127-7.615 12.865-9.672 21.306 5.408-6.521 10.45-14.171 12.298-18.875.879-2.111.551-4.123.177-4.455M101.95 44.374c.077.013.153.024.23.035 3.5.513 7.994-2.321 9.524-5.67.46-1.005.834-2.367.012-3.147-.725-.687-1.226-.724-1.545-.694-1.865.186-4.34 3.247-5.22 4.478l-.311.43c-.669.917-1.74 2.394-2.69 4.568m-56.598-11.67c-3.53 0-8.289 4.134-11.285 8.732-2.463 3.78-3.52 8.21-2.975 10.865.175.848.493 1.476.854 1.678 1.593.903 5.875-1.984 7.69-4.695 2.652-3.997 5.234-8.363 6.142-10.385l.4-.876c1.233-2.665 1.704-4.04 1.108-4.786a3.628 3.628 0 0 0-1.934-.533m59.145 26.317c-.756 0-1.542-.084-2.224-.325-3.942-1.397-5.458-4.024-6.038-5.98-.339-1.15-.646-2.295-.151-5.128-.752-.495-1.947-1.29-2.51-1.958a6.692 6.692 0 0 1-1.174-2.042c-.362.538-1.64 2.547-2.004 3.075-7.208 10.482-10.137 12.13-12.54 11.39-1.01-.31-1.821-1.064-2.284-2.12-.452-1.036-.533-2.517-.363-4.238-2.87 3.659-6.386 5.829-8.72 6.562-1.626.512-3.21.373-4.587-.399-1.204-.673-1.999-1.745-2.3-3.096-.753-3.38 1.81-7.456 4.498-11.344.302-.432.546-.787.701-1.037.565-.908 2.061-3.328 1.897-4.169-.25-.631-2.031-1.894-3.407-2.812-4.045 10.158-12.254 22.385-18.013 23.019-2.024.231-3.785-.65-4.843-2.398a6.514 6.514 0 0 1-.198-.345c-3.04 2.547-7.21 4.533-10.576 2.63-1.633-.921-2.749-2.645-3.23-4.98-.928-4.52.747-10.4 3.849-14.883 6.727-9.724 14.434-12.947 19.845-9.18.101.069.198.145.287.233 3.463 3.306 1.418 7.729.067 10.654l-.38.83c-.97 2.163-3.17 5.867-5.206 9.052a2.324 2.324 0 0 1-.245.546c-.383.638-.526 1.615-.345 2.378.088.381.223.536.251.553 0 0 .06.022.22.007 2.874-.319 12.8-13.311 15.614-24.513.33-1.318 1.63-2.11 2.906-1.765 1.274.34 2.036 1.687 1.707 3.004-.03.124-.064.25-.096.373 2.917 1.909 5.932 3.883 6.465 6.622.545 2.797-1.247 5.693-2.556 7.806-.185.298-.479.728-.838 1.247-3.363 4.859-3.823 6.623-3.748 7.26.144.07.395.138.878-.013 1.6-.5 7.235-3.588 16.293-21.366.602-1.184 2.004-1.653 3.163-1.062 1.159.592 1.651 2.03 1.112 3.244-3.01 6.764-5.445 14.446-5.81 17.958 2.568-2.473 7.185-8.995 11.464-15.843.781-1.286 1.68-3.383 1.68-3.383 1.172-6.939 3.68-8.971 4.706-9.262 1.336-.378 2.289.186 3.07 1.277.912 1.273.932 3.068.048 4.68-1.015 1.86-3.053 5.297-5.187 8.755-.263 2 .446 3.462 1.786 4.122 1.285-2.77 3.082-5.382 3.405-5.823l.284-.394c1.455-2.034 4.62-6.056 8.599-6.451 1.304-.13 3.258.11 5.217 1.97 2.243 2.127 2.646 5.45 1.077 8.885-2.32 5.088-8.724 9.294-14.503 8.447-.309-.045-.609-.095-.898-.152-.058.763-.01 1.487.18 2.135.24.807.786 2.065 3.024 2.756 2.64.816 9.378-2.428 15.015-8.227.671-10.576 6.84-25.627 11.938-30.868 4.439-4.56 5.907-3.584 7.31-2.596 2.949 2.077 4.531 6.925 3.07 10.43-1.87 4.767-9.332 16.25-17.61 25.158l.008.335c.074 2.148.528 3.74 1.285 4.511 1.006.575 2.616-.597 4.803-3.49l.093-.122a2.329 2.329 0 0 1 3.345-.418c1.034.84 1.216 2.39.403 3.462l-.089.119c-4.102 5.42-7.927 6.913-11.371 4.435a2.972 2.972 0 0 1-.197-.157c-1.187-1.06-2.031-2.54-2.525-4.422-4.816 4.445-10.877 6.839-14.797 6.84m61.928-32.128c-3.836 1.658-7.544 1.526-7.674.929-.129-.597-.259-2.124 3.966-3.716 4.228-1.591 9.69-.796 9.69-.796s-2.147 1.924-5.982 3.583m-3.837-8.492c1.104-1.129 3.77-2.587 6.697-3.052 2.926-.465 7.672-.864 8.387 1.393.653 2.056-1.777 3.782-2.21 4.07-1.13-.57-2.146-.82-2.146-.82V20c-4.753-1.233-11.573.789-11.573.789-.586.132-.26-1.26.845-2.388m4.096-8.095c1.69-1.128 6.436-2.257 8.842-1.592 2.406.663 1.626 2.92 1.626 2.92-5.46-1.196-11.9.994-11.9.994-1.104.066-.259-1.195 1.432-2.322m10.508 11.671c2.589-2.803 4.187-4.77 3.73-7.69-.24-1.543-2.275-2.123-2.275-2.123s3.055-3.384-.066-5.972c0 0 1.431-3.914-.584-5.506s-5.072-.333-5.786 2.986c0 0 0 .53.324.132 0 0 1.496-1.394 2.406-.995.91.397.195 1.857 0 2.123 0 0-4.617-.332-7.932 1.327-3.164 1.581-6.306 4.644-3.445 7.099 0 0-8.128 3.649-3.837 8.027 0 0-8.712 3.915-6.307 8.162 2.406 4.246 16.319-.797 21.001-4.977.054-.047.113-.092.169-.138.357.724.542 1.96-.56 3.79-1.558 2.586-4.354 4.509-9.037 5.969-3.076.96.05 1.002 2.212.464 2.925-.73 9.688-2.72 11.117-8.625.42-1.734-.164-3.165-1.13-4.053"/><g transform="translate(153 32)"><mask id="b" fill="#fff"><use xlink:href="#a"/></mask><path fill="#A30134" d="M3.314 28.975c-.105 0-.288.075-.318-.034-.602-2.124-2.116-5.29-2.116-5.29.589-.38 2.569 1.74 2.938 2.344.077.125.266.475.322.603l.68-.845C11.118 13.973 14.4 8.3 16.605 5.435 13.452 6.03 4.254 6.82.63 2.839c-.475-.521.527-2.759 1-2.238 3.455 3.794 14.994 3.093 18.4 1.829.401-.149.85-.078 1.19.187.341.265.363 1.635.33 2.07-.046.61-1.149-1.812-15.232 21.754l-.792.99c-.606.756-1.32 1.543-2.211 1.543" mask="url(#b)"/></g><path fill="#A30134" d="M163.46 46.752c-.07 0-.525.283-.588.244-.395-.244-9.28-6.332-9.869-10.605-.026-.19.116-.363.317-.388a.36.36 0 0 1 .41.299c.547 3.963 10.116 9.4 10.21 9.458.17.105-.065.678-.175.837a.375.375 0 0 1-.305.155m3.945-4.426c-.065 0-.16.698-.22.673-.24-.096-5.613-2.827-8.123-6.428-.126-.18-.054-.413.159-.518.215-.107.49-.046.615.134 2.372 3.399 8.006 4.993 8.063 5.016.225.09.02.718-.087.907a.467.467 0 0 1-.407.216m-6.742 11.194c-.032 0-.575.489-.609.48-.135-.04-2.858-1.48-4.993-4.477a.328.328 0 0 1 .088-.464.355.355 0 0 1 .482.086c1.996 2.805 5.388 3.48 5.13 3.721-.136.128.287.238.234.414a.344.344 0 0 1-.332.24"/><path fill="#A30134" d="M170 39s-7.92 1.671-14.112 1.245c-3.247-.224-1.929.494 1.109.693 2.755.18 8.486-.018 11.914-.786M164.923 46s-4.073 1.312-9.323.892c-2.752-.22-1.635.487.94.682 2.335.178 5.555.823 8.46.067M159.641 55c-.811-.092-1.576-.197-2.26-.254-2.414-.202-3.46-.93-.881-.703 1.253.11 2.435.105 3.5.035"/></g></svg>