<svg xmlns="http://www.w3.org/2000/svg" viewBox="0 0 343.66 92.3" width="200" aria-label="Schlotzsky's logo"><defs><style>.cls-1,.cls-2{fill:#313131}.cls-2{fill-rule:evenodd}.cls-3{fill:#f3734d}</style></defs><g id="Layer_3" data-name="Layer 3"><path class="cls-1" d="M241.19 120c4.11 3.19 6.5 4 11.62 3.94a13 13 0 0 0 9.27-3.42 9.55 9.55 0 0 0 2.83-6.93c0-7.77-5.48-8.9-9.48-9.73-2.53-.53-4.52-.94-4.51-2.71a1.05 1.05 0 0 1 .33-.84 3.84 3.84 0 0 1 2.53-.66 7 7 0 0 1 4.51 1.68l.17.16.16-.17 5.06-5.25.17-.18-.18-.17a15.62 15.62 0 0 0-10.08-4.14c-5.35 0-11.63 2.57-11.71 10 .05 7.93 5.77 9.15 9.94 10 2.28.48 4.08.87 4.06 2.19a1.67 1.67 0 0 1-.46 1.28c-.75.75-2.25.86-3.38.82a7 7 0 0 1-5.86-2.26l-.19-.2-.17.22-4.67 6-.15.19ZM324.46 86.22a4.71 4.71 0 0 1 3 4.44c0 1.92-1.46 4.63-2.53 6.62l-.36.66-.12.22.23.11 4.67 2.14.19.09.11-.18.5-.74c2.15-3.21 4.81-7.19 4.79-11.25a8.12 8.12 0 0 0-4-6.63l-.12-.06-.12.07-6.22 4.08-.41.27Z" transform="translate(-58.5 -81.07)"/><path class="cls-2" d="M266.63 11.49h-9.88l-.07.15-6.59 16.4-7.74-16.41-.07-.14H229.24l-.06.04-10.91 6.69V0l-.26.02-9.14.78-.22.02v41.29H218.27V22.52l9.45 19.45.07.14h11.24l-.18-.35-10.6-21.2 6.27-4.34 10.65 21.95-6.56 13.31-.15.31.34.04 9.53.97.17.02.08-.16 18.27-40.83.15-.34h-.37z"/><path class="cls-1" d="M331.4 119.82c4.1 3.19 7.07 4.19 12.2 4.13a12.72 12.72 0 0 0 9.14-3.42 9.42 9.42 0 0 0 2.76-6.93c0-7.77-5.44-8.91-9.44-9.74-2.53-.52-4.53-.93-4.56-2.7.06-1.45 2.21-1.52 2.87-1.5a7.56 7.56 0 0 1 4.71 1.69l.17.14.16-.16 5-5.25.18-.18-.19-.17a16.13 16.13 0 0 0-10.27-4.14 12.35 12.35 0 0 0-8.93 3.2 9.15 9.15 0 0 0-2.59 6.76c0 7.94 5.7 9.16 9.88 10 2.29.49 4.1.87 4.12 2.2a1.73 1.73 0 0 1-.54 1.28 5 5 0 0 1-3.3.81 8.41 8.41 0 0 1-6.44-2.65l-.2-.21-.17.23-4.66 6.22-.15.19Z" transform="translate(-58.5 -81.07)"/><path class="cls-2" d="M144.08 94.37c-1.86-1.86-4.59-2.79-8.1-2.78a10.72 10.72 0 0 0-6.95 2.6V81.07h-.26l-9.14.78h-.22v41.29H129v-17.9c.05-3.25 1.62-5 4.42-5a4 4 0 0 1 3 1.06 5.33 5.33 0 0 1 1.28 3.94v17.94h9.63v-18.72c-.04-4.65-1.09-7.95-3.25-10.09Z" transform="translate(-58.5 -81.07)"/><path class="cls-1" d="M87.18 86.39a20.5 20.5 0 0 0-13-4.72 16.46 16.46 0 0 0-11.5 4.38 11.14 11.14 0 0 0-3.32 8.11c0 8.9 6.56 11 11.85 12.71 3.37 1.07 6 1.93 6 4.21a2.55 2.55 0 0 1-.81 1.92 6.11 6.11 0 0 1-4.14 1.34 9.3 9.3 0 0 1-7.42-3l-.19-.22-.18.24-5.83 7.58-.14.18.17.15a20.92 20.92 0 0 0 14 4.72c5 0 9.22-1.47 12-4.23a12.68 12.68 0 0 0 3.58-9.23c0-9.12-6.61-11.15-11.91-12.77-3.34-1-6-1.85-6-4.14 0-2 2.4-3 4-3.06 3 .07 4.76 1.08 7 3l.19.16.16-.19 5.44-6.81.15-.19ZM117.67 95.34a16.86 16.86 0 0 0-10.85-3.75c-9.82 0-16.71 6.87-16.76 16.76C90.11 116 96 124 106.82 124c3.62.06 8.79-1.31 11.26-4l.14-.15-.13-.17-5-6.41-.17-.21-.19.18a7.62 7.62 0 0 1-5.73 2.06 6.78 6.78 0 0 1-5-1.92 8.63 8.63 0 0 1-2.36-6.2 6.8 6.8 0 0 1 2-4.87 7.23 7.23 0 0 1 5.11-2.07 8.73 8.73 0 0 1 5.87 2.08l.2.17.16-.22 4.66-6.61.13-.18ZM150.51 82.11v41.07h9.62V81.07h-.26l-9.14.78h-.22ZM171.6 107.77a7.34 7.34 0 1 1 7.34 7.34 7.5 7.5 0 0 1-7.34-7.34Zm7.34 16.23a17.36 17.36 0 0 0 12.29-5 15.8 15.8 0 0 0 0-22.4 17.64 17.64 0 0 0-24.61 0 15.75 15.75 0 0 0 0 22.41 17.34 17.34 0 0 0 12.32 4.99Z" transform="translate(-58.5 -81.07)"/><path class="cls-2" d="M241.34 114.33H228l13-21.4.22-.37h-31.9v-9.25l-.33.13-9.14 3.5-.16.06v5.56h-3.06v.2l-1.56 8-.05.3h4.71v10.83c0 7.81 1.47 12 9 12.1.06 0 .25 0 .35-.09s5.63-9.28 5.63-9.28a1.49 1.49 0 0 1-.68.14 5.36 5.36 0 0 1-3.78-1.07 3.15 3.15 0 0 1-.85-2.38v-10.68h17.2l-13.57 22-.23.37h26.47l.05-.18 2.34-8.16.09-.31Z" transform="translate(-58.5 -81.07)"/><path class="cls-1" d="M318 118.24a5.13 5.13 0 1 1 5.14 5.08 5.05 5.05 0 0 1-5.14-5.08Zm5.14 4.23a4.22 4.22 0 1 0-4.12-4.23 4.09 4.09 0 0 0 4.08 4.23Zm-1.14-1.29h-.88v-5.84h2.22c1.38 0 2.06.51 2.06 1.66a1.53 1.53 0 0 1-1.51 1.61l1.66 2.57h-1l-1.54-2.53h-1Zm1.06-3.28c.75 0 1.42-.06 1.42-1 0-.73-.66-.86-1.28-.86H322v1.81ZM125.68 138.7h4.61a.73.73 0 0 1 .68.68v33a.69.69 0 0 1-.68.68h-4.61a.66.66 0 0 1-.68-.68v-33a.69.69 0 0 1 .68-.68ZM134.43 138.7h16.48a.69.69 0 0 1 .68.68v4a.66.66 0 0 1-.68.68h-4.77a.53.53 0 0 0-.48.53v27.76a.71.71 0 0 1-.73.68h-4.57a.66.66 0 0 1-.68-.68v-27.77a.58.58 0 0 0-.54-.53h-4.71a.68.68 0 0 1-.73-.68v-4a.71.71 0 0 1 .73-.67ZM156.11 138.46a2.85 2.85 0 0 1 2.91 2.87c0 2.52-1.84 5.3-4 7.24a1.17 1.17 0 0 1-1.12.29l-.48-.14a.69.69 0 0 1-.2-1 4.71 4.71 0 0 0 1.22-2.67 2.72 2.72 0 0 0-.59-1.85 3 3 0 0 1-.63-1.89 2.83 2.83 0 0 1 2.89-2.85ZM174.48 140.26a.72.72 0 0 1 .3.92l-2 3.45a.67.67 0 0 1-1 .29 5.3 5.3 0 0 0-2.87-.77c-1.85 0-3 1.11-3 2.62v.2c0 2.38.58 3.06 4.62 6.95 4.47 4.18 5.68 6.32 5.68 10.35v.39c0 5.5-3.5 8.7-8.94 8.7a12.61 12.61 0 0 1-7.29-2.18.73.73 0 0 1-.29-1l2-3.45a.65.65 0 0 1 .92-.29 7.51 7.51 0 0 0 4 1.22c2.24 0 3.4-1.27 3.4-3v-.44c0-2.77-.82-3.45-5-7.73-3.54-3.69-5.15-5.25-5.15-9.43v-.39c0-4.91 3.16-8.26 8.51-8.26a10.91 10.91 0 0 1 6.11 1.85ZM194 138.7h2.33a.84.84 0 0 1 .83.54l9 32.91a.69.69 0 0 1-.68.87h-4.28a.87.87 0 0 1-.87-.58l-1.12-4.38a1 1 0 0 0-.93-.68H192a1 1 0 0 0-.87.68l-1.13 4.38a.87.87 0 0 1-.87.58h-4.57a.7.7 0 0 1-.68-.87l9.33-32.91a.91.91 0 0 1 .79-.54Zm-1.51 23.73a.38.38 0 0 0 .39.48h4.57a.38.38 0 0 0 .39-.48l-2.31-9.43a.35.35 0 0 0-.34-.25.37.37 0 0 0-.34.25Z" transform="translate(-58.5 -81.07)"/><path class="cls-3" d="M217.75 138.7h.68a.86.86 0 0 1 .68.34l7.83 14a.36.36 0 0 0 .58 0l7.88-14a.71.71 0 0 1 .63-.34h.68a.68.68 0 0 1 .68.58l2.67 33a.7.7 0 0 1-.73.77h-4.47a.68.68 0 0 1-.68-.58L232.87 155a.34.34 0 0 0-.63-.15l-4.43 7.49a.61.61 0 0 1-.58.34.74.74 0 0 1-.58-.34l-4.43-7.49a.34.34 0 0 0-.63.15l-1.26 17.4a.68.68 0 0 1-.68.58h-4.48a.71.71 0 0 1-.73-.77l2.63-33a.72.72 0 0 1 .68-.51ZM242.74 148.52c0-6.27 4.28-10.16 10.35-10.16s10.36 3.89 10.36 10.16v14.68c0 6.27-4.23 10.16-10.36 10.16s-10.35-3.89-10.35-10.16Zm6.08 14.68c0 3.11 1.79 4.62 4.27 4.62s4.28-1.51 4.28-4.62v-14.68c0-3.11-1.8-4.62-4.28-4.62s-4.27 1.51-4.27 4.62ZM268.07 138.7h4.62a.7.7 0 0 1 .68.68v24.26c0 2.72 1.45 4.18 3.88 4.18s4-1.46 4-4.18v-24.26a.69.69 0 0 1 .68-.68h4.62a.69.69 0 0 1 .68.68v24.26c0 5.88-4.13 9.72-10 9.72s-9.86-3.84-9.86-9.72v-24.26a.69.69 0 0 1 .7-.68ZM290.62 138.7h16.48a.69.69 0 0 1 .68.68v4a.66.66 0 0 1-.68.68h-4.76a.53.53 0 0 0-.49.53v27.76a.71.71 0 0 1-.73.68h-4.57a.67.67 0 0 1-.68-.68v-27.77a.57.57 0 0 0-.53-.53h-4.72a.68.68 0 0 1-.73-.68v-4a.71.71 0 0 1 .73-.67ZM311.33 138.7h4.57a.73.73 0 0 1 .68.68V153a.46.46 0 0 0 .49.49h6.47a.45.45 0 0 0 .46-.49v-13.62a.74.74 0 0 1 .73-.68h4.57a.69.69 0 0 1 .68.68v33a.66.66 0 0 1-.68.68h-4.57a.71.71 0 0 1-.73-.68v-13.45a.5.5 0 0 0-.48-.54h-6.47a.5.5 0 0 0-.49.54v13.41a.69.69 0 0 1-.68.68h-4.62a.67.67 0 0 1-.68-.68v-33a.71.71 0 0 1 .75-.64ZM335.15 138.7H350a.69.69 0 0 1 .68.68v4a.66.66 0 0 1-.68.68h-9.09a.48.48 0 0 0-.44.48v10.26a.46.46 0 0 0 .44.49h5.83a.74.74 0 0 1 .73.68v3.5a.72.72 0 0 1-.73.73h-5.83a.48.48 0 0 0-.44.49v11.66a.71.71 0 0 1-.73.68h-4.57a.67.67 0 0 1-.68-.68v-33a.7.7 0 0 1 .66-.65ZM354.06 138.7h4.62a.69.69 0 0 1 .68.68v24.26c0 2.72 1.46 4.18 3.89 4.18s4-1.46 4-4.18v-24.26a.69.69 0 0 1 .68-.68h4.62a.69.69 0 0 1 .68.68v24.26c0 5.88-4.13 9.72-10 9.72s-9.87-3.84-9.87-9.72v-24.26a.7.7 0 0 1 .7-.68ZM378.27 138.7h4.62a.73.73 0 0 1 .68.68v27.81a.47.47 0 0 0 .49.49h8a.69.69 0 0 1 .68.68v4a.66.66 0 0 1-.68.68h-13.74a.68.68 0 0 1-.73-.68v-33a.7.7 0 0 1 .68-.66ZM395.36 167.68h2.56a.11.11 0 0 1 .11.1v.62a.11.11 0 0 1-.11.11h-.74a.09.09 0 0 0-.07.08v4.31a.11.11 0 0 1-.11.11h-.71a.1.1 0 0 1-.11-.11v-4.31a.1.1 0 0 0-.08-.08h-.74a.1.1 0 0 1-.11-.11v-.62a.1.1 0 0 1 .11-.1ZM398.7 167.68h.1a.14.14 0 0 1 .11 0l1.21 2.17h.05l1.23-2.17a.1.1 0 0 1 .1 0h.1a.1.1 0 0 1 .11.09l.41 5.12a.1.1 0 0 1-.11.12h-.7a.11.11 0 0 1-.1-.09l-.21-2.71c0-.05-.06-.06-.09 0l-.69 1.16a.09.09 0 0 1-.09.06.1.1 0 0 1-.09-.06l-.69-1.16a.05.05 0 0 0-.1 0l-.19 2.71a.12.12 0 0 1-.11.09h-.69a.11.11 0 0 1-.12-.12l.41-5.12a.11.11 0 0 1 .15-.09Z" transform="translate(-58.5 -81.07)"/></g></svg>