<svg xmlns="http://www.w3.org/2000/svg" width="355" height="71.199997" viewBox="0 0 355 71.199998"><path style="fill:#12283b;fill-opacity:1;fill-rule:nonzero;stroke:none" d="m31.917125 1051.5239-12.769-30.0074h-6.0445l-12.7685 30.0074h6.68212l2.72413-6.6821h12.59862l2.72413 6.6821h6.853zm-11.9185-12.4707h-7.9165l3.9585-9.6627 3.958 9.6627zm42.045 7.6611-4.17088-4.2139c-2.34137 2.129-4.42687 3.4889-7.83162 3.4889-5.10788 0-8.64063-4.2554-8.64063-9.3629v-.085c0-5.1075 3.61813-9.2779 8.64063-9.2779 2.9795 0 5.32037 1.2769 7.61862 3.3628l4.17138-4.81c-2.767-2.7246-6.12938-4.5968-11.7475-4.5968-9.15088 0-15.53513 6.9375-15.53513 15.4073v.085c0 8.5546 6.51213 15.3222 15.27975 15.3222 5.74613 0 9.15138-2.0435 12.21538-5.3198m31.83637 0-4.17137-4.2139c-2.34088 2.129-4.42675 3.4889-7.832 3.4889-5.1075 0-8.64013-4.2554-8.64013-9.3629v-.085c0-5.1075 3.61763-9.2779 8.64013-9.2779 2.98 0 5.32125 1.2769 7.61913 3.3628l4.17137-4.81c-2.76713-2.7247-6.12938-4.5968-11.7475-4.5968-9.151 0-15.53575 6.9375-15.53575 15.4073v.085c0 8.5546 6.51225 15.3222 15.28038 15.3222 5.74599 0 9.15037-2.0435 12.21574-5.3198m36.007375-10.0879v-.085c0-8.4693-6.5975-15.3219-15.79125-15.3219s-15.876245 6.9375-15.876245 15.4073v.085c0 8.4692 6.597495 15.3222 15.791245 15.3222 9.1925 0 15.87625-6.936 15.87625-15.4077m-6.8525.085c0 5.1073-3.66125 9.2773-8.93875 9.2773-5.2775 0-9.02375-4.2553-9.02375-9.3628v-.085c0-5.1075 3.66-9.2779 8.93875-9.2779 5.2775 0 9.02375 4.2559 9.02375 9.3632v.086zm39.71 14.812-7.2775-10.6422c3.7875-1.4037 6.38375-4.4262 6.38375-9.2358v-.085c0-6.128-4.21375-9.8312-11.23625-9.8312h-13.62v29.7945h6.55375v-9.5337h5.15125l6.38375 9.5337h7.66125zm-7.53375-19.5362c0 2.5098-1.83 4.2139-5.0225 4.2139h-6.64v-8.5557h6.5125c3.1925 0 5.15 1.4468 5.15 4.2563v.085" transform="translate(0 -981.16216)"/><path style="fill:#e29c16;fill-opacity:1;fill-rule:nonzero;stroke:none" d="M154.50238 1007.1612c0 .3925 1.6675.3593 3.33499.3593 6.27875 0 12.525-.5552 18.44376-1.9615 7.88125-1.8647 10.0075-4.6435 14.42125-7.12933 8.99374-5.06838 20.37375-4.186 20.37375-5.03613 0-.229-.16375-.2945-3.335-1.11237-.295-1.20888-1.865-1.99363-3.435-1.99363-3.69375 0-9.74625 4.28375-15.17375 4.28375-.58875 0-1.145-.066-1.73375-.16412-2.19-4.08738-7.19375-7.71775-13.37375-8.50288-3.565-.4575-6.115-.88237-8.1425-1.24175-7.1625-1.30862-9.02625-3.17237-9.84375-3.17237-.16375 0-.22875.16362-.22875.2945 0 1.373 2.4525 5.23237 6.34375 9.582 2.55125 2.84425 6.76875 6.96437 6.76875 8.92673 0 1.0791-2.38625 2.3878-6.9325 4.3169-5.29625 2.2569-7.4875 2.2236-7.4875 2.5509" transform="translate(0 -981.16216)"/><path style="fill:#12283b;fill-opacity:1;fill-rule:nonzero;stroke:none" d="M203.66113 1051.5239v-29.7945h-6.555v11.7915h-14.91001v-11.7915h-6.55374v29.7945h6.55374v-11.9605h14.91001v11.9605h6.555zm38.77499-14.8975v-.085c0-8.4692-6.5975-15.3219-15.79124-15.3219-9.1925 0-15.87375 6.9375-15.87375 15.4073v.085c0 8.4692 6.59625 15.3222 15.79125 15.3222 9.19125 0 15.87374-6.936 15.87374-15.4077m-6.85374.085c0 5.1074-3.65875 9.2774-8.9375 9.2774-5.27626 0-9.02376-4.2554-9.02376-9.3629v-.085c0-5.1075 3.66251-9.2779 8.94126-9.2779 5.27499 0 9.02 4.2559 9.02 9.3633v.085zm35.2425-8.938v-6.0445h-24.6875v6.0445h9.0675v23.75h6.555v-23.75h9.065zm28.98374 23.75v-5.8325h-16.17374v-6.2549h14.0475v-5.8326h-14.0475v-6.0429h15.96125v-5.8316h-22.47251v29.7945h22.685zm27.1075 0v-5.9595h-13.445v-23.835h-6.5525v29.7945h19.9975zm27.74875-8.811v-.085c0-5.1929-3.40375-7.3633-9.44875-8.938-5.14875-1.3184-6.4275-1.958-6.4275-3.9155v-.084c0-1.4473 1.32-2.5966 3.8325-2.5966 2.51 0 5.1075 1.1063 7.74375 2.9365l3.40625-4.937c-3.0225-2.4259-6.72375-3.7882-11.06625-3.7882-6.085 0-10.4275 3.5758-10.4275 8.98v.085c0 5.9175 3.87375 7.5753 9.875 9.1085 4.98125 1.2769 6.00125 2.1289 6.00125 3.789v.083c0 1.7482-1.61625 2.8102-4.29875 2.8102-3.40375 0-6.21375-1.4039-8.895-3.6183l-3.87375 4.6411c3.57375 3.191 8.13 4.7657 12.64125 4.7657 6.42625 0 10.9375-3.3203 10.9375-9.2358" transform="translate(0 -981.16216)"/></svg>