<svg xmlns="http://www.w3.org/2000/svg" height="67.722626" width="354.33188" xml:space="preserve"><path style="fill:#dd1b2d;fill-opacity:1;fill-rule:nonzero;stroke:none" d="M1435.59 609.895s0-21.055.02-31.075c2.91 5.743 22.07 38.196 60.54 38.196h11.92v-53.625h-12.19c-35.29 0-54.84-25.957-54.84-58.286V385.777h-62.95v224.118h57.5M2093.31 582.707v27.188h57.48v-303.43h-63.09v79.312h-65.18c-66.21 0-117.75 51.739-117.75 115.571 0 66.007 54.06 115.668 114.24 115.668 48.85 0 74.3-34.309 74.3-34.309zm-5.61-81.867c0 33.996-28.12 61.351-62.54 61.351-33.92 0-61.5-25.851-62.5-59.488-1.01-34.289 26.25-63.215 62.5-63.215l62.54.024v61.328" transform="matrix(.13 0 0 -.13 -38.308125 106.02925)"/><path style="fill:#dd1b2d;fill-opacity:1;fill-rule:evenodd;stroke:none" d="M1315.57 692.238V638.41h-62.95v53.828h62.95zm0-82.343V385.777h-62.95v224.118h62.95" transform="matrix(.13 0 0 -.13 -38.308125 106.02925)"/><path style="fill:#dd1b2d;fill-opacity:1;fill-rule:nonzero;stroke:none" d="M1120.78 385.777v101.25h-113.2v-101.25h-63.725l.071 178.239c0 70.742 60.894 128.222 136.284 128.222h104.3V385.777h-63.73zm-40.57 252.633c-40.05 0-72.61-30.594-72.61-68.504v-32.004h113.17l.01 100.508h-40.57" transform="matrix(.13 0 0 -.13 -38.308125 106.02925)"/><path style="fill:#dd1b2d;fill-opacity:1;fill-rule:evenodd;stroke:none" d="M1859.91 609.895V385.777h-62.95v224.118h62.95zm0 82.343V638.41h-62.95v53.828h62.95M2556.33 609.895V385.777h-62.95v224.118h62.95zm0 82.343V638.41h-62.95v53.828h62.95M2206.33 609.895h62.93v-125.25c0-34.137 25.12-52.34 49.55-52.34 23.6 0 51.02 15.64 51.02 52.332v125.258h62.93V385.699h-57.5v27.149l-.96-1.09c-18.28-20.754-44-33.164-73.71-33.164-48.3 0-94.2 39.527-94.2 96.824l-.06 134.477" transform="matrix(.13 0 0 -.13 -38.308125 106.02925)"/><path style="fill:#dd1b2d;fill-opacity:1;fill-rule:nonzero;stroke:none" d="M1673.34 692.238V439.512h82.04v-53.586l-145.77-.149v306.461h63.73M2789.65 412.957v-27.168h57.48v306.449h-63.08v-82.343h-65.18c-66.21 0-117.73-51.747-117.73-115.582 0-65.997 54.04-115.653 114.22-115.653 48.84 0 74.29 34.297 74.29 34.297zm-5.6 81.863c0-33.98-28.13-61.328-62.54-61.328-33.91 0-61.49 25.844-62.48 59.477-1.04 34.289 26.23 63.207 62.48 63.207l62.54-.02V494.82M3018.68 378.594c-70 0-126.78 53.379-126.78 119.215 0 65.847 56.72 119.234 126.72 119.234 70.04 0 122.5-53.438 122.5-119.234 0-6.485-.24-12.754-1.1-20.211l-187.79-.024c9.36-27.793 34.14-47.703 66.39-47.703 29.84 0 48.05 9.246 63.05 26.746l45.29-29.422c-24.57-29.933-62.27-48.601-108.28-48.601zm-66.29 139.933h128.45c-9.12 27.774-30.11 47.219-62.22 47.219-32.19 0-57.11-19.836-66.23-47.219" transform="matrix(.13 0 0 -.13 -38.308125 106.02925)"/><path style="fill:#3c60a5;fill-opacity:1;fill-rule:nonzero;stroke:none" d="M577.012 692.25c63.277 0 114.566-51.305 114.566-114.566V463.113H577.012c-63.274 0-114.571 51.289-114.571 114.571 0 63.261 51.297 114.566 114.571 114.566zm191.89-306.48H577.004c-105.996 0-191.91 85.918-191.91 191.894 0 106 85.914 191.918 191.91 191.918 105.98 0 191.898-85.918 191.898-191.918V385.77zM577.359 848.234H306.465V577.332c0-149.629 121.285-270.879 270.894-270.879 149.61 0 270.899 121.25 270.899 270.879 0 149.609-121.289 270.902-270.899 270.902" transform="matrix(.13 0 0 -.13 -38.308125 106.02925)"/></svg>