<?xml version="1.0" encoding="UTF-8" standalone="no"?>
<!-- Created with Inkscape (http://www.inkscape.org/) by Marsupilami -->
<svg
   xmlns:svg="http://www.w3.org/2000/svg"
   xmlns="http://www.w3.org/2000/svg"
   version="1.0"
   width="825"
   height="768"
   viewBox="0 0 102.2575 95.220001"
   id="svg2463"
   xml:space="preserve"><defs
     id="defs2466" /><g
     transform="translate(-793.70125,-81.49625)"
     style="display:inline"
     id="layer1"><path
       d="M 634.961,764.108 L 634.961,700.517 C 635.001,700.559 675.588,713.103 675.588,713.103 L 716.763,700.523 L 716.767,764.108 L 675.919,776.693 L 634.961,764.108 z "
       transform="matrix(1.25,0,0,-1.25,0,1052.3625)"
       style="fill:#e60004;fill-opacity:1;fill-rule:nonzero;stroke:none"
       id="path2658" /><path
       d="M 675.919,769.407 L 641.916,759.029 L 641.916,710.011 L 675.477,720.389 L 709.812,710.018 L 709.812,759.029 L 675.919,769.407 z "
       transform="matrix(1.25,0,0,-1.25,0,1052.3625)"
       style="fill:#ffffff;fill-opacity:1;fill-rule:nonzero;stroke:none;display:inline"
       id="path2660" /><path
       d="M 50.65625,61.40625 L 8.6875,74.375 L 8.6875,76.59375 L 50.65625,63.625 L 93.5625,76.59375 L 93.5625,74.375 L 50.65625,61.40625 z M 50.65625,65.125 L 8.6875,78.25 L 8.6875,83.34375 L 50.65625,70.375 L 93.5625,83.34375 L 93.5625,78.25 L 50.65625,65.125 z "
       transform="translate(793.70125,81.49625)"
       style="fill:#1b1c20;fill-opacity:1;fill-rule:nonzero;stroke:none"
       id="path2662" /><path
       d="M 55.46875,22.21875 C 53.0475,22.2275 51.038749,24.387499 51.0625,27.0625 C 51.03875,27.6275 51.17375,29.166251 52.3125,30.5 C 52.77,30.90125 53.802502,31.853749 55.46875,31.875 C 57.9175,31.85375 59.909999,29.726249 59.90625,27.0625 C 59.95375,24.43375 57.958752,22.227499 55.46875,22.21875 z M 16.84375,24.4375 L 16.84375,56.84375 L 24.84375,56.84375 L 24.84375,46.21875 C 27.616249,46.31 28.67,46.195 30.09375,45.6875 C 31.48375,45.328748 32.31375,44.8625 32.84375,44.4375 C 36.46875,41.713751 36.63125,36.7875 36.5625,35.46875 C 36.631252,31.584999 35.2475,29.28625 34.21875,28 C 31.216249,24.6325 27.31875,24.59875 26.21875,24.5625 C 25.26125,24.462501 24.15375,24.475 23.03125,24.4375 L 16.84375,24.4375 z M 62.5,27.46875 L 62.5,34.21875 L 60.3125,34.21875 L 60.3125,41.40625 L 62.5,41.40625 L 62.5,56.84375 L 70.25,56.84375 L 70.25,41.40625 L 72.875,41.40625 L 72.875,34.21875 L 70.25,34.21875 L 70.25,27.46875 L 62.5,27.46875 z M 76.03125,27.46875 L 76.03125,34.21875 L 73.84375,34.21875 L 73.84375,41.40625 L 76.03125,41.40625 L 76.03125,56.84375 L 83.90625,56.84375 L 83.90625,41.40625 L 86.375,41.40625 L 86.375,34.21875 L 83.90625,34.21875 L 83.90625,27.46875 L 76.03125,27.46875 z M 24.84375,31.59375 C 25.432499,31.573749 27.305,31.45375 28,33.40625 C 28.185,33.737498 28.41875,34.27125 28.4375,35.1875 C 28.41875,36.782501 27.80875,38.24875 26.34375,38.78125 C 25.83375,38.9325 25.34875,38.98375 24.84375,39.0625 L 24.84375,31.59375 z M 50.65625,33.40625 C 49.14875,33.69 47.847501,33.918748 46.65625,35.0625 C 45.6225,36.0175 45.330001,36.785 45,37.8125 L 45,34.09375 L 37.125,34.09375 L 37.125,56.84375 L 44.84375,56.84375 L 45.125,46.5 C 45.14875,44.94625 45.268749,43.755 46.5,42.90625 C 47.32625,42.24875 48.058751,42.251249 48.3125,42.21875 C 49.485,42.25125 50.1125,42.676248 50.65625,43.0625 L 50.65625,33.40625 z M 51.46875,34.09375 L 51.46875,56.84375 L 59.34375,56.84375 L 59.34375,34.09375 L 51.46875,34.09375 z "
       transform="translate(793.70125,81.49625)"
       style="fill:#1b1c20;fill-opacity:1;fill-rule:nonzero;stroke:none"
       id="path2666" /></g></svg>
