<svg viewBox="0 0 720 720" xmlns="http://www.w3.org/2000/svg" xml:space="preserve" style="fill-rule:evenodd;clip-rule:evenodd;stroke-linejoin:round;stroke-miterlimit:2"><path style="fill:none" d="M-120.919-5.088h434.205v331.59h-434.205z" transform="matrix(1.6582 0 0 2.17136 200.508 11.0486)"/><path d="M301.41 460.495H138.608V82.876H623.36v377.619H460.558c11.413-39.862 9.234-77.339-6.505-97.471-18.268-23.365-54.802-23.365-73.069 23.366-18.268-46.731-54.802-46.731-73.069-23.366-15.74 20.132-17.918 57.609-6.505 97.471Z" style="fill:#0057b8" transform="matrix(1.4853 0 0 .95334 -205.8720486 -79.00942454)"/><path d="M460.558 82.876H623.36v377.619H138.608V82.876H301.41c1.798 6.421 3.976 12.889 6.505 19.357 12.787 35.048 45.668 70.096 73.069 93.461 27.401-23.365 60.282-58.413 73.069-93.461 2.528-6.468 4.706-12.936 6.505-19.357Z" style="fill:gold" transform="matrix(1.4853 0 0 .95334 -205.8720486 280.9920752)"/><path d="M320.523 140.656c-2.111 5.888-4.667 11.819-7.634 17.75-15.007 32.14-53.595 64.28-85.752 85.707-32.157-21.427-70.745-53.567-85.751-85.707-2.967-5.931-5.524-11.862-7.634-17.75h186.771ZM133.752 140.656c-13.394-36.555-10.837-70.922 7.634-89.383 21.438-21.427 64.313-21.427 85.751 21.426 21.438-42.853 64.314-42.853 85.752-21.426 18.471 18.461 21.028 52.828 7.634 89.383H133.752Z" style="fill:#fff" transform="matrix(1.26562 0 0 1.0396 72.52961638 213.77436936)"/></svg>