<?xml version="1.0" encoding="UTF-8" standalone="no"?>
<!DOCTYPE svg PUBLIC "-//W3C//DTD SVG 1.1//EN" "http://www.w3.org/Graphics/SVG/1.1/DTD/svg11.dtd">
<svg width="100%" height="100%" viewBox="0 0 720 720" version="1.1" xmlns="http://www.w3.org/2000/svg" xmlns:xlink="http://www.w3.org/1999/xlink" xml:space="preserve" xmlns:serif="http://www.serif.com/" style="fill-rule:evenodd;clip-rule:evenodd;stroke-linejoin:round;stroke-miterlimit:2;">
    <g id="UA" transform="matrix(1.6582,0,0,2.17136,200.508,11.0486)">
        <rect x="-120.919" y="-5.088" width="434.205" height="331.59" style="fill:none;"/>
        <g transform="matrix(0.895726,0,0,0.439054,-245.073,-41.4754)">
            <path d="M301.41,460.495L138.608,460.495L138.608,82.876L623.36,82.876L623.36,460.495L460.558,460.495C471.971,420.633 469.792,383.156 454.053,363.024C435.785,339.659 399.251,339.659 380.984,386.39C362.716,339.659 326.182,339.659 307.915,363.024C292.175,383.156 289.997,420.633 301.41,460.495Z" style="fill:rgb(0,87,184);"/>
        </g>
        <g transform="matrix(0.895726,0,0,0.439054,-245.073,124.32)">
            <path d="M460.558,82.876L623.36,82.876L623.36,460.495L138.608,460.495L138.608,82.876L301.41,82.876C303.208,89.297 305.386,95.765 307.915,102.233C320.702,137.281 353.583,172.329 380.984,195.694C408.385,172.329 441.266,137.281 454.053,102.233C456.581,95.765 458.759,89.297 460.558,82.876Z" style="fill:rgb(255,215,0);"/>
        </g>
        <g transform="matrix(0.763251,0,0,0.478781,-77.1791,93.3635)">
            <path d="M320.523,140.656C318.412,146.544 315.856,152.475 312.889,158.406C297.882,190.546 259.294,222.686 227.137,244.113C194.98,222.686 156.392,190.546 141.386,158.406C138.419,152.475 135.862,146.544 133.752,140.656L320.523,140.656Z" style="fill:white;"/>
        </g>
        <g transform="matrix(0.763251,0,0,0.478781,-77.1791,93.3635)">
            <path d="M133.752,140.656C120.358,104.101 122.915,69.734 141.386,51.273C162.824,29.846 205.699,29.846 227.137,72.699C248.575,29.846 291.451,29.846 312.889,51.273C331.36,69.734 333.917,104.101 320.523,140.656L133.752,140.656Z" style="fill:white;"/>
        </g>
    </g>
</svg>
