<?xml version="1.0" encoding="UTF-8" standalone="no"?>
<!DOCTYPE svg PUBLIC "-//W3C//DTD SVG 1.1//EN" "http://www.w3.org/Graphics/SVG/1.1/DTD/svg11.dtd">
<svg width="100%" height="100%" viewBox="0 0 694 481" version="1.1" xmlns="http://www.w3.org/2000/svg" xmlns:xlink="http://www.w3.org/1999/xlink" xml:space="preserve" xmlns:serif="http://www.serif.com/" style="fill-rule:evenodd;clip-rule:evenodd;stroke-linejoin:round;stroke-miterlimit:2;">
    <g transform="matrix(1,0,0,1,-2380.31,-119.807)">
        <g transform="matrix(1.6582,0,0,2.17136,2567.76,11.0486)">
            <g transform="matrix(1.24324,0,0,1.24324,-23.3962,-39.091)">
                <g transform="matrix(0.603062,0,0,0.460542,-1663,-5.08834)">
                    <path d="M3189.29,360L3189.65,361.024C3190.01,361.844 3191.06,362.564 3191.02,363.338C3190.99,364.112 3189.9,365.045 3189.45,365.668C3189.09,366.157 3188.32,366.607 3188.31,367.077C3188.29,367.546 3188.79,368.312 3189.35,368.485C3189.98,368.681 3191.42,368.273 3192.1,368.25C3192.53,368.236 3193.38,367.914 3193.4,368.351C3193.43,368.896 3192.81,370.537 3192.26,371.52C3191.54,372.839 3189.7,374.809 3189.04,376.265C3188.49,377.497 3188.73,379.554 3188.34,380.255C3188.07,380.738 3186.96,380.107 3186.7,380.473C3186.43,380.839 3186.58,381.817 3186.76,382.452C3186.95,383.117 3187.69,383.718 3187.84,384.464C3188,385.308 3187.94,386.593 3187.77,387.515C3187.61,388.385 3187.37,389.536 3186.83,389.997C3186.29,390.458 3185.31,390.221 3184.54,390.28C3183.47,390.362 3181.82,390.502 3180.46,390.487C3178.27,390.463 3173.45,390.123 3171.4,390.136C3170.32,390.143 3169.17,390.466 3168.19,390.564C3167.3,390.653 3166.33,390.885 3165.51,390.724C3164.68,390.564 3164.09,389.741 3163.26,389.603C3162.3,389.443 3160.82,389.304 3159.74,389.763C3158.59,390.251 3157.1,391.396 3156.38,392.526C3155.66,393.657 3155.8,395.612 3155.42,396.547C3155.16,397.188 3154.71,397.853 3154.08,398.133C3153.36,398.448 3152.06,398.078 3151.15,398.438C3149.94,398.916 3148.07,400.401 3146.82,401.001C3145.81,401.482 3144.64,401.549 3143.64,402.039C3142.62,402.537 3141.3,403.188 3140.71,403.991C3140.13,404.779 3140.2,405.886 3140.1,406.859C3139.98,408.12 3140.35,410.139 3139.98,411.558C3139.62,412.959 3138.24,414.421 3137.91,415.372C3137.7,415.966 3137.52,417.009 3137.97,417.263C3138.41,417.517 3139.97,416.572 3140.59,416.897C3141.21,417.222 3141.92,418.575 3141.69,419.216C3141.45,419.857 3139.66,420.121 3139.19,420.741C3138.74,421.332 3138.95,422.202 3138.88,422.938C3138.79,423.975 3139.47,426.308 3138.64,426.965C3137.81,427.623 3135.48,426.879 3133.91,426.883C3132.2,426.887 3130.17,427.013 3128.37,426.99C3126.62,426.967 3124.37,426.912 3123.13,426.744C3122.37,426.641 3121.71,426.116 3120.95,425.985C3120.03,425.826 3118.28,425.399 3117.59,425.787C3116.89,426.175 3117.19,427.523 3116.79,428.313C3116.18,429.543 3114.72,431.896 3113.92,433.166C3113.32,434.117 3112.47,435.255 3112,435.935C3111.69,436.374 3111.46,437.078 3111.07,437.248C3110.68,437.418 3109.98,437.304 3109.64,436.954C3109.22,436.512 3108.84,435.154 3108.54,434.599C3108.34,434.248 3108.22,433.527 3107.83,433.626C3107.23,433.78 3105.89,434.916 3104.89,435.527C3103.83,436.181 3102.46,436.74 3101.45,437.549C3100.43,438.354 3099.66,439.425 3098.78,440.379C3097.83,441.414 3096.36,442.672 3095.73,443.762C3095.2,444.698 3095.32,446.008 3095.05,446.921C3094.81,447.72 3094.79,448.939 3094.1,449.237C3093.42,449.535 3091.44,449.369 3090.94,448.711C3090.44,448.053 3090.97,446.315 3091.1,445.289C3091.22,444.36 3091.96,443.166 3091.73,442.552C3091.51,441.938 3090.47,441.513 3089.73,441.604C3088.61,441.745 3086.54,442.708 3084.99,443.394C3083.42,444.096 3081.44,444.85 3080.26,445.815C3079.19,446.683 3078.45,448.14 3077.89,449.184C3077.41,450.084 3077.42,451.773 3076.89,452.08C3076.35,452.387 3075.1,451.725 3074.68,451.027C3074.22,450.272 3074.92,448.219 3074.15,447.553C3073.38,446.886 3071.42,446.921 3070.05,447.026C3068.11,447.174 3064.61,447.534 3062.56,448.439C3060.65,449.281 3059.31,451.059 3057.75,452.453C3055.63,454.361 3051.73,457.804 3049.79,459.888C3048.37,461.416 3046.88,463.485 3046.11,464.955C3045.51,466.096 3045.8,467.621 3045.19,468.705C3044.57,469.789 3043.47,470.706 3042.4,471.459C3041.08,472.392 3038.45,473.902 3037.25,474.304C3036.6,474.524 3035.41,474.169 3035.23,473.873C3035.05,473.576 3035.76,472.883 3036.18,472.525C3036.96,471.851 3038.8,470.822 3039.92,469.83C3041.02,468.855 3042.2,467.665 3042.89,466.569C3043.51,465.576 3043.85,464.228 3044.07,463.254C3044.26,462.429 3044.36,461.556 3044.24,460.72C3044.11,459.885 3043.72,458.555 3043.35,458.24C3042.97,457.926 3042.29,458.454 3041.97,458.833C3041.01,459.956 3038.78,463.579 3037.61,464.978C3036.85,465.877 3035.9,466.687 3034.89,467.231C3033.89,467.775 3032.39,468.127 3031.57,468.242C3031.01,468.318 3030.33,467.651 3029.92,467.919C3029.52,468.188 3029.12,469.153 3029.12,469.851C3029.1,470.966 3029.51,473.04 3029.83,474.612C3030.16,476.215 3030.78,477.822 3031.09,479.464C3031.46,481.429 3031.58,484.266 3032.04,486.402C3032.47,488.405 3033.13,490.356 3033.83,492.28C3034.75,494.807 3037.08,499.222 3037.58,501.565C3037.91,503.14 3036.36,505.057 3036.81,506.335C3037.26,507.612 3038.95,508.555 3040.3,509.231C3041.75,509.955 3043.8,510.509 3045.5,510.679C3047.17,510.846 3048.92,510.761 3050.52,510.253C3052.23,509.714 3053.93,508.266 3055.72,507.442C3057.54,506.605 3059.39,505.274 3061.43,505.227C3063.91,505.171 3068.44,507.201 3070.63,507.101C3072.17,507.031 3073.03,504.949 3074.55,504.631C3076.24,504.276 3078.78,504.745 3080.76,504.972C3082.68,505.191 3085.68,505.27 3086.47,505.994C3087.27,506.718 3086.2,508.493 3085.53,509.316C3084.87,510.14 3083,509.908 3082.47,510.935C3081.87,512.085 3082.05,514.45 3081.96,516.216C3081.86,518.147 3082.82,521.114 3081.87,522.519C3080.92,523.925 3078.08,524.379 3076.25,524.649C3074.47,524.911 3072.13,524.535 3070.88,524.138C3069.98,523.851 3069.51,522.235 3068.75,522.264C3068,522.292 3067.16,523.769 3066.37,524.308C3065.63,524.807 3064.87,525.58 3063.98,525.501C3063.03,525.415 3061.71,524.463 3060.66,523.797C3059.23,522.888 3057.47,520.585 3055.38,520.049C3053.11,519.467 3049.36,519.68 3047.03,520.305C3044.9,520.876 3042.73,522.477 3041.41,523.797C3040.23,524.973 3039.58,526.63 3039.11,528.226C3038.62,529.894 3038.59,532.464 3038.47,533.806C3038.4,534.626 3039.2,536.304 3038.39,536.276C3037.58,536.248 3035.3,534.004 3033.62,533.635C3031.93,533.266 3030.02,533.77 3028.25,534.061C3026.18,534.402 3023.12,534.703 3021.18,535.68C3019.33,536.613 3018.17,538.533 3016.63,539.921C3015.08,541.326 3012.59,542.683 3011.84,544.108C3011.15,545.395 3012.74,547.757 3012.1,548.469C3011.46,549.182 3009.28,547.893 3008,548.382C3006.44,548.978 3004.78,551.365 3002.76,552.046C3000.44,552.831 2996.56,553.456 2994.04,553.092C2991.69,552.752 2989.11,550.912 2987.68,549.865C2986.65,549.119 2986.5,547.46 2985.41,546.812C2984.26,546.129 2981.93,546.289 2980.78,545.765C2979.85,545.339 2978.92,544.311 2978.52,543.672C2978.2,543.18 2977.82,542.189 2978.34,541.932C2979.01,541.607 2981.24,542.006 2982.48,541.723C2983.67,541.454 2985.18,541.274 2985.82,540.235C2986.53,539.059 2986.59,536.541 2986.79,534.667C2987.05,532.159 2987.62,527.571 2987.39,525.189C2987.22,523.462 2986.38,521.745 2985.4,520.376C2984.42,519.007 2983.03,517.809 2981.53,516.977C2980,516.129 2977.92,516.027 2976.22,515.29C2974.12,514.381 2971.26,512.86 2968.92,511.522C2966.61,510.205 2964.24,507.955 2962.18,507.267C2960.42,506.675 2958.46,507.446 2956.59,507.394C2954.7,507.341 2952.06,507.383 2950.81,506.949C2949.95,506.648 2948.79,505.655 2949.1,504.79C2949.58,503.446 2951.99,500.617 2953.69,498.888C2955.37,497.182 2957.16,495.456 2959.32,494.417C2961.78,493.231 2965.86,492.478 2968.46,491.775C2970.6,491.196 2972.76,490.755 2974.91,490.195C2977.2,489.592 2980.86,489.243 2982.26,488.162C2983.47,487.231 2982.5,484.565 2983.33,483.71C2984.15,482.855 2985.91,483.278 2987.2,483.032C2988.55,482.774 2990.78,483.145 2991.45,482.161C2992.13,481.177 2991.36,478.774 2991.26,477.128C2991.17,475.513 2991.91,473.241 2990.87,472.289C2989.84,471.337 2986.87,471.757 2985.07,471.418C2983.38,471.101 2981.75,470.374 2980.03,470.257C2977.44,470.079 2972.73,470.257 2969.49,470.353C2966.51,470.442 2963.55,470.964 2960.58,470.837C2956.81,470.676 2950.84,469.886 2946.84,469.386C2943.41,468.957 2939.09,468.717 2936.58,467.837C2934.66,467.166 2933.05,465.671 2931.76,464.105C2930.37,462.42 2929.56,459.335 2928.23,457.725C2927.05,456.302 2925.46,455.189 2923.77,454.442C2922.07,453.688 2919.95,453.534 2918.01,453.203C2915.47,452.769 2911.72,451.649 2908.53,451.84C2905.25,452.037 2901.65,453.303 2898.3,454.386C2894.41,455.649 2888.34,457.483 2885.14,459.419C2882.6,460.957 2880.46,464.516 2879.14,466C2878.47,466.753 2876.94,467.349 2877.2,468.323C2877.56,469.646 2881.11,472.259 2881.27,473.937C2881.43,475.614 2879.78,477.569 2878.17,478.389C2876.27,479.357 2871.66,479.744 2869.85,479.744C2868.9,479.744 2868.11,477.832 2867.33,478.389C2866.53,478.969 2865.55,481.942 2865.01,483.228C2864.62,484.155 2864.78,485.74 2864.12,486.105C2863.45,486.47 2861.7,486.219 2861,485.418C2860.14,484.44 2859.64,481.18 2858.99,480.238C2858.62,479.7 2857.3,479.146 2857.09,479.762C2856.49,481.454 2855.29,487.87 2855.4,490.388C2855.48,492.076 2856.8,494.029 2857.77,494.87C2858.65,495.632 2860.61,494.439 2861.21,495.434C2861.84,496.477 2861.97,499.306 2861.55,501.129C2861.12,502.952 2859.57,506.288 2858.67,506.372C2857.77,506.457 2857.03,503.189 2856.13,501.636C2855.19,500.001 2854.68,497.664 2853.03,496.562C2851.2,495.334 2847.86,494.113 2845.12,494.269C2842.33,494.428 2838.31,496.569 2836.28,497.517C2835.03,498.099 2834.07,500.268 2832.94,499.952C2831.81,499.636 2830.63,496.073 2829.51,495.622C2828.4,495.171 2826.99,496.279 2826.27,497.246C2825.53,498.223 2825.95,500.749 2825.09,501.486C2824.24,502.223 2822.4,502.033 2821.12,501.666C2819.56,501.215 2817.16,500.219 2815.71,498.779C2813.98,497.065 2811.8,493.141 2810.75,491.382C2810.16,490.4 2808.62,488.691 2809.4,488.225C2810.18,487.759 2813.85,488.525 2815.44,488.586C2816.61,488.63 2818.16,489.097 2818.96,488.586C2819.76,488.074 2820.25,486.624 2820.22,485.518C2820.19,484.331 2818.22,482.782 2818.78,481.459C2819.34,480.136 2822.03,478.692 2823.56,477.58C2824.97,476.556 2827.2,476.227 2827.98,474.783C2828.76,473.34 2827,470.153 2828.25,468.92C2829.5,467.687 2834.03,468.495 2835.47,467.386C2836.87,466.304 2836.2,463.806 2836.85,462.264C2837.48,460.778 2839.24,459.304 2839.38,458.134C2839.5,457.021 2837.83,456.355 2837.65,455.248C2837.42,453.8 2837.69,451.314 2837.99,449.451C2838.29,447.616 2838.15,445.258 2839.46,444.072C2840.78,442.886 2844.81,442.045 2845.88,442.334C2846.95,442.624 2845.87,444.651 2845.88,445.809C2845.89,447.357 2845.17,451.612 2845.95,451.623C2846.73,451.634 2849.6,446.288 2850.56,445.876C2851.51,445.464 2851.06,449.184 2851.69,449.15C2852.33,449.117 2853.25,445.297 2854.37,445.676C2855.48,446.054 2857.62,452.659 2858.38,451.422C2859.13,450.186 2858.49,441.911 2858.91,438.258C2859.25,435.285 2860.37,431.576 2860.91,429.504C2861.24,428.251 2862.41,426.788 2862.18,425.829C2861.95,424.871 2859.65,424.61 2859.54,423.753C2859.42,422.897 2861.1,421.507 2861.49,420.691C2861.76,420.126 2862.34,419.274 2861.88,418.853C2861.37,418.389 2858.83,418.51 2858.42,417.906C2858.01,417.303 2859.03,416.098 2859.43,415.234C2859.84,414.324 2860.51,413.418 2860.93,412.449C2861.46,411.224 2862.74,409.155 2862.6,407.883C2862.46,406.612 2860.97,404.848 2860.09,404.82C2859.22,404.792 2858.08,407.326 2857.37,407.716C2856.88,407.98 2856.03,407.662 2855.81,407.159C2855.5,406.482 2856,404.533 2855.53,403.651C2855.05,402.769 2853.64,402.602 2852.97,401.869C2852.29,401.136 2852.12,399.642 2851.46,399.252C2850.8,398.862 2849.44,400.2 2849.01,399.53C2848.58,398.861 2848.74,396.462 2848.89,395.235C2849.02,394.167 2849.54,393.183 2849.91,392.173C2850.37,390.904 2851.09,388.816 2851.67,387.625C2852.14,386.686 2853.27,386.06 2853.44,385.026C2853.62,383.882 2852.82,381.561 2852.79,380.757C2852.78,380.516 2853.31,380.435 2853.25,380.2C2853.14,379.749 2852.47,378.785 2852.15,378.047C2851.76,377.174 2851.36,375.729 2850.93,374.959C2850.61,374.368 2850.26,373.248 2849.62,373.428C2848.76,373.665 2846.85,376.565 2845.79,376.384C2844.72,376.204 2843.95,373.765 2843.23,372.345C2842.43,370.795 2841.86,368.306 2841.03,367.085C2840.39,366.132 2839.28,365.558 2838.26,365.023C2837.18,364.453 2835.38,364.013 2834.52,363.669C2834.03,363.473 2833.47,362.574 2833.11,362.96C2832.38,363.744 2830.81,367.88 2830.14,368.374C2829.47,368.868 2829.28,366.774 2829.11,365.925C2828.94,365.076 2829.21,364.158 2829.11,363.283C2829.01,362.363 2829,360.856 2828.55,360L3189.29,360ZM2884.41,503.12C2884.2,502.871 2883.82,502.854 2883.56,503.001C2883,503.319 2881.55,504.095 2881.04,505.03C2880.52,505.965 2880.09,507.596 2880.48,508.61C2880.87,509.625 2882.52,510.997 2883.38,511.117C2884.23,511.236 2885.22,510.222 2885.62,509.326C2886.03,508.431 2886.01,506.78 2885.81,505.746C2885.61,504.718 2884.78,503.578 2884.41,503.12Z" style="fill:rgb(255,215,0);"/>
                </g>
                <g transform="matrix(0.603062,0,0,0.460542,-1663,-5.08834)">
                    <path d="M2708.8,359.957C2709.1,359.511 2709.51,359.06 2709.63,358.679C2709.8,358.19 2709.87,357.593 2709.63,357.133C2709.38,356.631 2708.82,355.623 2708.12,355.672C2707.09,355.743 2704.76,357.281 2703.47,357.562C2702.47,357.782 2701.42,357.524 2700.41,357.362C2699.11,357.153 2696.86,356.828 2695.66,356.309C2694.69,355.886 2694.19,354.575 2693.23,354.246C2692.28,353.918 2691.03,354.289 2689.93,354.338C2688.74,354.391 2687.17,355.063 2686.04,354.567C2684.91,354.07 2684.05,352.183 2683.15,351.359C2682.4,350.669 2681.63,349.793 2680.62,349.622C2679.4,349.415 2677.04,350.081 2675.8,350.111C2674.91,350.133 2673.87,350.341 2673.17,349.806C2672.43,349.246 2672.19,347.616 2671.39,346.75C2670.43,345.701 2668.64,343.878 2667.36,343.512C2666.16,343.165 2664.76,344.021 2663.76,344.55C2662.8,345.054 2662.29,346.222 2661.31,346.689C2660.16,347.239 2658.04,348.074 2656.85,347.85C2655.66,347.626 2654.92,346.307 2654.16,345.345C2653.17,344.092 2652.03,341.985 2650.92,340.334C2649.66,338.446 2647.73,335.664 2646.55,334.016C2645.68,332.804 2644.74,331.647 2643.86,330.448C2642.97,329.242 2641.93,327.694 2641.22,326.781C2640.73,326.143 2640.07,325.6 2639.61,324.972C2639.17,324.364 2638.48,323.017 2638.48,323.017C2638.48,323.017 2637.97,318.292 2638.02,316.619C2638.06,315.379 2638.5,313.848 2638.81,312.981C2639.02,312.386 2639.24,311.486 2639.87,311.413C2640.51,311.339 2641.78,312.897 2642.67,312.533C2643.55,312.169 2644.43,310.389 2645.19,309.23C2646.11,307.817 2647.33,305.608 2648.21,304.053C2649,302.678 2649.62,301.083 2650.51,299.898C2651.36,298.766 2652.71,297.75 2653.57,296.946C2654.26,296.302 2654.76,295.15 2655.71,295.075C2656.72,294.994 2658.43,295.873 2659.65,296.463C2660.84,297.043 2662.18,298.381 2663.01,298.613C2663.58,298.773 2664.5,298.434 2664.62,297.851C2664.74,297.209 2664.38,295.635 2663.77,294.761C2662.89,293.507 2659.89,291.432 2659.33,290.327C2658.97,289.601 2660.06,288.868 2660.41,288.133C2660.78,287.349 2661.47,286.541 2661.58,285.625C2661.74,284.172 2661.47,281.484 2661.4,279.414C2661.33,277.329 2660.99,274.651 2661.14,273.116C2661.24,272.075 2661.69,271.043 2662.32,270.205C2663.2,269.02 2665.09,267.257 2666.46,266.007C2667.75,264.827 2669.24,263.873 2670.55,262.704C2672.55,260.907 2676.02,257.302 2678.48,255.225C2680.63,253.407 2683,251.871 2685.3,250.239C2687.72,248.519 2690.83,246.304 2693,244.903C2694.71,243.794 2697.15,242.584 2698.3,241.834C2698.91,241.442 2699.59,240.916 2699.92,240.401C2700.22,239.924 2699.75,238.952 2700.28,238.744C2700.89,238.497 2702.51,238.916 2703.63,238.923C2704.8,238.93 2706.18,239.337 2707.26,238.788C2708.34,238.24 2709.26,236.531 2710.11,235.631C2710.83,234.863 2711.83,234.22 2712.35,233.392C2712.85,232.583 2713.03,231.602 2713.19,230.663C2713.39,229.461 2713.91,227.531 2713.54,226.184C2713.16,224.837 2711.43,223.601 2710.95,222.58C2710.59,221.815 2710.43,220.633 2710.67,220.061C2710.9,219.49 2711.72,219.229 2712.35,219.152C2713.2,219.047 2715.11,219.723 2715.78,219.431C2716.42,219.15 2716.72,217.987 2716.34,217.402C2715.83,216.64 2713.52,215.999 2712.74,214.86C2711.96,213.721 2711.98,212.009 2711.66,210.568C2711.27,208.791 2711.02,205.635 2710.41,204.2C2709.97,203.186 2708.43,202.857 2707.98,201.954C2707.53,201.051 2707.76,199.796 2707.72,198.782C2707.68,197.812 2708.36,196.536 2707.76,195.871C2707.15,195.205 2704.62,195.268 2704.1,194.789C2703.64,194.368 2704.2,193.453 2704.62,192.997C2705.09,192.487 2706.77,192.269 2706.94,191.728C2707.1,191.187 2705.91,190.441 2705.63,189.75C2705.35,189.072 2705.05,188.189 2705.26,187.586C2705.46,186.982 2706.48,186.615 2706.86,186.13C2707.19,185.709 2707.6,185.204 2707.53,184.675C2707.44,183.959 2706.62,182.817 2706.3,181.838C2705.98,180.855 2705.75,179.69 2705.59,178.778C2705.45,177.981 2705.08,177.008 2705.33,176.363C2705.58,175.717 2706.36,175.137 2707.08,174.905C2708.07,174.589 2710.08,174.103 2711.24,174.467C2712.39,174.832 2712.84,176.588 2714.01,177.092C2715.33,177.663 2717.96,178.096 2719.18,177.893C2720.15,177.732 2720.62,176.426 2721.34,175.875C2722.01,175.364 2722.79,174.955 2723.51,174.585C2724.22,174.224 2725.1,174.169 2725.71,173.652C2726.36,173.092 2727,171.98 2727.43,171.226C2727.8,170.57 2727.98,169.717 2728.27,169.127C2728.52,168.618 2728.66,167.942 2729.16,167.68C2729.87,167.307 2731.46,167.027 2732.56,166.887C2733.63,166.752 2734.74,166.809 2735.78,166.841C2736.8,166.871 2737.99,166.903 2738.82,167.074C2739.49,167.214 2740.04,167.774 2740.73,167.867C2741.88,168.022 2744.05,168.03 2745.72,168.007C2747.39,167.984 2749.52,167.891 2750.76,167.727C2751.57,167.619 2752.32,167.114 2753.12,167.025C2753.91,166.936 2754.76,166.975 2755.53,167.192C2756.4,167.435 2757.41,168.159 2758.33,168.482C2759.21,168.791 2760.13,168.976 2761.05,169.13C2762.31,169.339 2764.62,169.495 2765.86,169.736C2766.76,169.911 2767.56,170.49 2768.47,170.576C2769.63,170.685 2771.46,170.21 2772.81,170.389C2774.11,170.562 2775.36,171.261 2776.54,171.649C2777.66,172.015 2779.15,172.259 2779.9,172.717C2780.47,173.069 2780.46,174.024 2781.02,174.397C2781.67,174.832 2782.88,175.035 2783.82,175.33C2784.78,175.633 2785.82,176.107 2786.8,176.216C2787.76,176.323 2789.15,175.664 2789.69,175.983C2790.24,176.302 2789.66,177.569 2790.07,178.129C2790.47,178.689 2791.35,179.151 2792.12,179.342C2793,179.56 2794.46,179.272 2795.34,179.435C2796.07,179.571 2796.7,180.035 2797.39,180.322C2798.14,180.633 2799.06,180.872 2799.82,181.301C2800.66,181.776 2801.38,182.953 2802.43,183.167C2803.91,183.47 2807.27,182.656 2808.73,183.121C2809.91,183.499 2810.71,185.084 2811.15,185.955C2811.52,186.669 2810.98,187.666 2811.39,188.346C2811.79,189.026 2813.37,189.357 2813.6,190.037C2813.84,190.717 2812.89,191.592 2812.79,192.428C2812.65,193.497 2812.27,195.684 2812.79,196.452C2813.3,197.219 2814.96,197.122 2815.88,197.035C2816.75,196.951 2817.41,196.11 2818.27,195.927C2819.13,195.742 2820.18,195.635 2821.07,195.927C2821.98,196.228 2822.99,197.287 2823.75,197.734C2824.34,198.083 2825.41,198.143 2825.62,198.609C2825.82,199.076 2825.27,199.927 2824.97,200.534C2824.63,201.224 2823.61,202.125 2823.57,202.749C2823.54,203.374 2824.29,204.139 2824.76,204.279C2825.23,204.42 2826,204.039 2826.38,203.592C2826.83,203.066 2827.12,201.958 2827.45,201.127C2827.8,200.251 2827.98,198.875 2828.49,198.337C2828.95,197.838 2829.91,197.668 2830.49,197.897C2831.07,198.127 2831.5,199.257 2831.96,199.713C2832.35,200.089 2832.77,200.52 2833.3,200.631C2834.13,200.805 2836.16,201.023 2836.96,200.758C2837.61,200.542 2837.73,199.569 2838.07,199.038C2838.39,198.549 2838.62,197.955 2839.03,197.573C2839.44,197.191 2840.12,196.894 2840.52,196.745C2840.81,196.639 2841.29,196.437 2841.45,196.682C2841.61,196.926 2841.33,197.723 2841.48,198.21C2841.63,198.709 2842.05,199.399 2842.37,199.675C2842.63,199.901 2843.21,199.568 2843.39,199.866C2843.6,200.243 2843.52,201.299 2843.68,201.936C2843.82,202.54 2843.9,203.745 2844.31,203.688C2844.72,203.63 2845.36,201.975 2846.14,201.591C2846.93,201.207 2848.06,201.4 2849.02,201.385C2850.09,201.368 2851.41,201.333 2852.55,201.489C2853.66,201.642 2854.72,202.061 2855.81,202.318C2857.1,202.62 2859.11,203.191 2860.27,203.303C2861.1,203.384 2862.05,203.442 2862.76,202.992C2863.47,202.534 2863.82,200.953 2864.57,200.556C2865.32,200.158 2866.54,200.106 2867.27,200.608C2867.99,201.109 2868.54,202.543 2868.93,203.562C2869.31,204.569 2869.39,205.668 2869.6,206.724C2869.83,207.846 2870.03,209.286 2870.28,210.296C2870.49,211.142 2870.62,212.231 2871.08,212.784C2871.52,213.324 2872.3,213.673 2873,213.613C2873.97,213.53 2875.9,212.861 2876.88,212.286C2877.73,211.793 2878.24,210.777 2878.91,210.163C2879.52,209.597 2880.26,208.841 2880.86,208.604C2881.38,208.4 2882.04,208.482 2882.53,208.739C2883.08,209.022 2883.61,209.818 2884.15,210.305C2884.68,210.776 2885.16,211.424 2885.77,211.658C2886.39,211.892 2887.28,211.877 2887.84,211.709C2888.38,211.548 2888.62,210.848 2889.14,210.647C2889.87,210.369 2891.16,210.136 2892.19,210.037C2893.4,209.922 2895.22,209.633 2896.36,209.957C2897.43,210.263 2898.22,211.312 2899.01,211.984C2899.76,212.612 2900.71,213.183 2901.14,213.989C2901.56,214.795 2901.35,215.887 2901.55,216.82C2901.74,217.764 2901.79,219.002 2902.32,219.651C2902.84,220.3 2903.94,220.26 2904.67,220.713C2905.47,221.204 2906.47,222.708 2907.09,222.6C2907.71,222.492 2907.87,220.857 2908.39,220.064C2908.96,219.199 2910.07,218.451 2910.51,217.41C2911,216.269 2911.22,214.637 2911.34,213.217C2911.5,211.132 2911.25,207.661 2911.51,204.901C2911.8,201.923 2912.34,197.413 2913.05,195.347C2913.47,194.105 2915.33,193.125 2915.77,192.504C2915.94,192.262 2915.96,191.698 2915.67,191.62C2915.32,191.525 2914.11,192.065 2913.66,191.929C2913.24,191.803 2912.81,191.221 2912.97,190.809C2913.15,190.325 2914.13,189.602 2914.74,189.031C2915.47,188.358 2916.49,187.575 2917.3,186.77C2918.1,185.961 2918.97,184.818 2919.58,184.18C2920,183.737 2920.52,183.201 2920.93,182.943C2921.24,182.742 2921.97,182.892 2922.01,182.634C2922.05,182.376 2921.26,181.842 2921.16,181.397C2921.06,180.953 2921.19,180.366 2921.43,179.967C2921.68,179.568 2922.13,179.136 2922.63,179.001C2923.24,178.833 2924.33,178.962 2925.1,178.962C2925.82,178.962 2926.68,178.769 2927.27,179.001C2927.86,179.233 2928.16,179.974 2928.66,180.354C2929.16,180.73 2929.72,181.352 2930.28,181.281C2930.84,181.21 2931.55,180.399 2932.02,179.928C2932.46,179.496 2932.57,178.675 2933.14,178.46C2934.08,178.111 2936.45,177.79 2937.62,177.836C2938.53,177.871 2939.32,178.47 2940.19,178.732C2941.18,179.031 2942.53,179.511 2943.56,179.629C2944.51,179.737 2945.48,179.24 2946.41,179.444C2947.51,179.686 2949.07,180.521 2950.18,181.082C2951.18,181.588 2951.95,182.657 2953.05,182.814C2954.18,182.974 2955.76,182.384 2956.95,182.041C2958.06,181.72 2959.27,181.471 2960.18,180.758C2961.1,180.042 2962.08,178.703 2962.45,177.748C2962.78,176.902 2962.26,175.693 2962.41,175.027C2962.52,174.516 2963.19,174.256 2963.32,173.749C2963.47,173.103 2962.76,171.777 2963.36,171.152C2963.96,170.526 2965.89,169.956 2966.9,169.997C2967.86,170.036 2968.58,170.939 2969.42,171.399C2970.48,171.976 2971.87,173.027 2973.25,173.46C2974.7,173.914 2976.7,174.175 2978.12,174.12C2979.38,174.071 2980.67,173.731 2981.79,173.131C2983.05,172.45 2984.6,170.726 2985.7,170.038C2986.53,169.527 2987.52,169.07 2988.42,169.008C2989.33,168.946 2990.23,169.502 2991.14,169.667C2992.11,169.84 2993.31,169.915 2994.2,170.045C2994.96,170.157 2995.91,169.961 2996.47,170.446C2997.04,170.932 2997.02,172.8 2997.57,172.958C2998.12,173.116 2998.96,171.755 2999.79,171.396C3000.79,170.96 3002.36,169.912 3003.61,170.341C3004.95,170.801 3006.77,173.205 3007.86,174.159C3008.6,174.811 3009.41,175.377 3010.12,176.066C3010.89,176.813 3011.89,177.825 3012.45,178.637C3012.92,179.328 3013.39,180.201 3013.45,180.937C3013.51,181.67 3012.86,182.32 3012.83,183.055C3012.79,184.138 3012.72,186.355 3013.19,187.437C3013.63,188.433 3014.97,188.722 3015.68,189.545C3016.42,190.399 3017.78,192.013 3017.62,192.564C3017.46,193.116 3015.1,192.373 3014.74,192.852C3014.38,193.331 3014.9,194.744 3015.46,195.44C3016.37,196.567 3018.99,198.268 3020.21,199.61C3021.26,200.76 3022.82,202.414 3022.8,203.492C3022.77,204.571 3021.21,205.577 3020.06,206.081C3018.7,206.68 3015.76,206.56 3014.6,207.087C3013.8,207.45 3012.91,208.386 3013.09,209.244C3013.29,210.175 3015.17,211.679 3015.78,212.673C3016.26,213.444 3016.78,214.302 3016.76,215.208C3016.75,216.285 3015.99,218.126 3015.7,219.135C3015.5,219.848 3014.54,220.718 3015.05,221.262C3015.57,221.821 3018.39,221.78 3018.81,222.489C3019.23,223.198 3018.19,224.614 3017.58,225.515C3016.95,226.442 3014.8,227.519 3015.05,228.051C3015.29,228.583 3018.02,228.815 3019.05,228.705C3019.91,228.616 3020.41,227.45 3021.26,227.397C3022.57,227.315 3025.67,227.533 3026.91,228.215C3028,228.814 3027.88,230.791 3028.71,231.487C3029.54,232.182 3030.8,232.532 3031.9,232.386C3033.12,232.223 3034.68,230.9 3036.07,230.505C3037.42,230.122 3039.21,229.585 3040.24,230.014C3041.28,230.444 3041.83,232.007 3042.28,233.082C3042.71,234.14 3042.39,235.532 3042.89,236.459C3043.39,237.386 3044.24,238.317 3045.26,238.645C3046.38,239.003 3049.01,238.294 3049.59,238.605C3050.17,238.916 3049.09,239.916 3048.76,240.511C3048.42,241.106 3047.51,241.498 3047.57,242.179C3047.64,243.119 3048.68,244.813 3049.19,246.15C3049.78,247.679 3050.5,249.738 3051.06,251.352C3051.58,252.84 3052.64,254.796 3052.57,255.833C3052.51,256.701 3050.92,256.758 3050.63,257.579C3050.3,258.505 3050.48,260.196 3050.62,261.392C3050.75,262.538 3050.91,263.919 3051.44,264.753C3051.96,265.562 3053.15,265.778 3053.81,266.393C3054.45,266.985 3055.06,267.683 3055.43,268.445C3055.81,269.206 3055.53,270.376 3056.09,270.959C3056.64,271.543 3057.95,272.039 3058.76,271.943C3059.58,271.847 3060.27,270.937 3060.99,270.383C3061.83,269.729 3062.62,268.279 3063.82,268.019C3065.57,267.641 3069.92,267.714 3071.5,268.114C3072.44,268.352 3072.69,269.653 3073.3,270.414C3074.16,271.496 3075.84,273.744 3076.67,274.606C3077.1,275.057 3077.67,275.73 3078.28,275.583C3079.06,275.394 3080.33,273.435 3081.36,273.471C3082.39,273.508 3083.8,274.944 3084.45,275.804C3085.04,276.584 3084.84,278.156 3085.25,278.627C3085.63,279.053 3086.48,278.922 3086.97,278.627C3087.92,278.054 3089.75,276.137 3090.95,275.193C3091.98,274.385 3092.97,273.448 3094.18,272.96C3095.51,272.424 3097.84,271.977 3098.95,271.973C3099.66,271.971 3100.14,273.016 3100.84,272.937C3101.6,272.852 3102.65,271.996 3103.51,271.46C3104.48,270.864 3105.61,269.969 3106.61,269.365C3107.55,268.799 3108.64,267.945 3109.53,267.835C3110.37,267.731 3111.33,268.101 3111.93,268.709C3112.65,269.444 3113.05,271.177 3113.86,272.243C3114.7,273.333 3116.43,274.257 3116.93,275.253C3117.38,276.134 3116.79,277.309 3116.89,278.216C3116.98,279.063 3117.1,279.95 3117.52,280.693C3117.95,281.453 3118.75,282.151 3119.46,282.781C3120.45,283.655 3122.23,285.015 3123.44,285.938C3124.52,286.759 3125.92,287.67 3126.74,288.318C3127.33,288.778 3128.01,289.187 3128.4,289.824C3128.78,290.463 3128.79,291.758 3129.08,292.155C3129.27,292.432 3129.77,292.298 3130.1,292.204C3130.66,292.042 3131.72,291.321 3132.43,291.184C3133.07,291.06 3134.13,291.983 3134.37,291.378C3134.65,290.666 3134.13,288.002 3134.13,286.91C3134.13,286.209 3133.73,285.096 3134.37,284.821C3135.15,284.489 3137.91,284.311 3138.79,284.918C3139.67,285.525 3139.09,287.614 3139.66,288.464C3140.23,289.294 3141.25,289.852 3142.24,290.018C3143.61,290.248 3146.57,289.811 3147.88,289.847C3148.64,289.868 3149.56,289.774 3150.11,290.235C3150.67,290.697 3150.54,292.077 3151.23,292.615C3151.96,293.182 3153.58,293.239 3154.49,293.635C3155.27,293.979 3156.11,294.477 3156.67,294.995C3157.18,295.472 3157.18,296.487 3157.84,296.744C3158.6,297.043 3160.37,297.359 3161.24,296.792C3162.1,296.226 3162.41,293.951 3163.03,293.344C3163.5,292.89 3164.52,292.689 3164.98,293.15C3165.49,293.66 3165.56,295.44 3166.09,296.404C3166.62,297.359 3167.15,298.568 3168.18,298.929C3169.58,299.419 3172.86,298.894 3174.48,299.343C3175.8,299.709 3177.21,300.846 3177.9,301.623C3178.45,302.244 3178.02,303.437 3178.62,304.006C3179.49,304.818 3181.54,305.819 3183.08,306.493C3184.61,307.164 3186.64,308.116 3187.85,308.047C3188.9,307.987 3189.56,306.666 3190.33,306.078C3191.04,305.541 3192.2,303.937 3192.51,304.524C3192.82,305.111 3191.95,308.116 3192.2,309.601C3192.42,310.989 3193.41,312.141 3193.96,313.435C3194.54,314.808 3195.39,316.442 3195.71,317.84C3196.01,319.133 3196.42,320.61 3195.89,321.818C3195.36,323.027 3193.55,323.909 3192.53,325.09C3191.47,326.313 3190.05,328.111 3189.52,329.157C3189.19,329.816 3189.91,330.889 3189.34,331.368C3188.76,331.869 3187.09,331.839 3185.98,332.163C3184.73,332.532 3182.49,333.003 3181.83,333.578C3181.31,334.024 3181.61,335.06 3182.01,335.612C3182.54,336.349 3183.9,337.36 3185.01,337.999C3186.16,338.662 3187.86,339.134 3188.9,339.591C3189.71,339.944 3190.52,340.784 3191.29,340.74C3192.06,340.696 3193.07,339.06 3193.5,339.325C3193.93,339.591 3194.27,341.609 3193.85,342.332C3193.44,343.054 3192.06,343.562 3191.02,343.658C3189.92,343.76 3188.42,342.568 3187.25,342.942C3186.08,343.315 3184.74,344.847 3183.99,345.899C3183.3,346.871 3183.09,348.157 3182.76,349.256C3182.44,350.316 3181.68,351.675 3181.99,352.491C3182.3,353.306 3183.66,353.75 3184.62,354.149C3185.59,354.554 3187.11,354.233 3187.8,354.921C3188.5,355.608 3188.47,357.257 3188.78,358.274C3188.95,358.842 3189.1,359.435 3189.29,360L2828.55,360L2828.4,359.673C2827.8,358.9 2826.14,358.717 2825.5,358.642C2825.13,358.599 2824.91,359.276 2824.53,359.222C2823.94,359.136 2822.67,358.723 2821.95,358.126C2821.01,357.342 2819.99,355.344 2818.86,354.517C2817.81,353.745 2816.17,354.026 2815.19,353.164C2814.11,352.218 2813.3,349.898 2812.42,348.846C2811.72,348.022 2810.86,347.277 2809.88,346.851C2808.75,346.368 2806.58,346.411 2805.69,345.949C2805.03,345.611 2805.26,344.08 2804.53,344.08C2803.58,344.08 2801.47,345.444 2800.01,345.949C2798.62,346.429 2796.9,346.507 2795.76,347.109C2794.71,347.662 2794.09,349.193 2793.18,349.558C2792.3,349.914 2791.17,349.771 2790.35,349.3C2789.52,348.827 2788.82,346.915 2788.22,346.722C2787.62,346.529 2787.39,347.934 2786.74,348.14C2785.95,348.387 2784.44,348.602 2783.51,348.204C2782.59,347.807 2782.15,345.637 2781.19,345.755C2780.24,345.873 2779.03,348.054 2777.78,348.913C2776.52,349.773 2775.12,350.484 2773.65,350.911C2772.11,351.363 2770.02,351.416 2768.5,351.62C2767.17,351.798 2765.53,351.278 2764.5,352.136C2763.43,353.027 2763.11,355.506 2762.05,356.97C2761.39,357.888 2760.68,359.05 2759.78,360L2759.76,360.034C2759.15,360.751 2758.44,361.345 2757.61,361.675C2755.3,362.588 2750.83,362.187 2748.2,362.448C2746.06,362.659 2743.94,363.059 2741.81,363.238C2739.6,363.422 2737.26,363.584 2734.99,363.553C2732.42,363.518 2728.26,362.486 2726.39,363.028C2724.91,363.455 2724.71,365.603 2723.76,366.805C2722.77,368.064 2721.13,369.813 2720.41,370.581C2720.11,370.897 2719.82,371.54 2719.4,371.412C2718.81,371.231 2717.56,370.298 2716.88,369.493C2716.16,368.643 2715.56,367.431 2715.08,366.313C2714.59,365.191 2714.46,363.42 2713.96,362.761C2713.57,362.249 2712.71,362.401 2712.07,362.36C2711.23,362.308 2709.55,362.733 2708.95,362.446C2708.38,362.178 2708.35,361.254 2708.46,360.642C2708.5,360.436 2708.62,360.217 2708.77,360L2708.8,359.957Z" style="fill:rgb(0,87,184);"/>
                </g>
            </g>
        </g>
    </g>
</svg>
