<svg viewBox="0 0 694 481" xmlns="http://www.w3.org/2000/svg" xml:space="preserve" style="fill-rule:evenodd;clip-rule:evenodd;stroke-linejoin:round;stroke-miterlimit:2"><path d="m3189.29 360 .36 1.024c.36.82 1.41 1.54 1.37 2.314-.03.774-1.12 1.707-1.57 2.33-.36.489-1.13.939-1.14 1.409-.02.469.48 1.235 1.04 1.408.63.196 2.07-.212 2.75-.235.43-.014 1.28-.336 1.3.101.03.545-.59 2.186-1.14 3.169-.72 1.319-2.56 3.289-3.22 4.745-.55 1.232-.31 3.289-.7 3.99-.27.483-1.38-.148-1.64.218-.27.366-.12 1.344.06 1.979.19.665.93 1.266 1.08 2.012.16.844.1 2.129-.07 3.051-.16.87-.4 2.021-.94 2.482-.54.461-1.52.224-2.29.283-1.07.082-2.72.222-4.08.207-2.19-.024-7.01-.364-9.06-.351-1.08.007-2.23.33-3.21.428-.89.089-1.86.321-2.68.16-.83-.16-1.42-.983-2.25-1.121-.96-.16-2.44-.299-3.52.16-1.15.488-2.64 1.633-3.36 2.763-.72 1.131-.58 3.086-.96 4.021-.26.641-.71 1.306-1.34 1.586-.72.315-2.02-.055-2.93.305-1.21.478-3.08 1.963-4.33 2.563-1.01.481-2.18.548-3.18 1.038-1.02.498-2.34 1.149-2.93 1.952-.58.788-.51 1.895-.61 2.868-.12 1.261.25 3.28-.12 4.699-.36 1.401-1.74 2.863-2.07 3.814-.21.594-.39 1.637.06 1.891.44.254 2-.691 2.62-.366.62.325 1.33 1.678 1.1 2.319-.24.641-2.03.905-2.5 1.525-.45.591-.24 1.461-.31 2.197-.09 1.037.59 3.37-.24 4.027-.83.658-3.16-.086-4.73-.082-1.71.004-3.74.13-5.54.107-1.75-.023-4-.078-5.24-.246-.76-.103-1.42-.628-2.18-.759-.92-.159-2.67-.586-3.36-.198-.7.388-.4 1.736-.8 2.526-.61 1.23-2.07 3.583-2.87 4.853-.6.951-1.45 2.089-1.92 2.769-.31.439-.54 1.143-.93 1.313-.39.17-1.09.056-1.43-.294-.42-.442-.8-1.8-1.1-2.355-.2-.351-.32-1.072-.71-.973-.6.154-1.94 1.29-2.94 1.901-1.06.654-2.43 1.213-3.44 2.022-1.02.805-1.79 1.876-2.67 2.83-.95 1.035-2.42 2.293-3.05 3.383-.53.936-.41 2.246-.68 3.159-.24.799-.26 2.018-.95 2.316-.68.298-2.66.132-3.16-.526s.03-2.396.16-3.422c.12-.929.86-2.123.63-2.737-.22-.614-1.26-1.039-2-.948-1.12.141-3.19 1.104-4.74 1.79-1.57.702-3.55 1.456-4.73 2.421-1.07.868-1.81 2.325-2.37 3.369-.48.9-.47 2.589-1 2.896-.54.307-1.79-.355-2.21-1.053-.46-.755.24-2.808-.53-3.474-.77-.667-2.73-.632-4.1-.527-1.94.148-5.44.508-7.49 1.413-1.91.842-3.25 2.62-4.81 4.014-2.12 1.908-6.02 5.351-7.96 7.435-1.42 1.528-2.91 3.597-3.68 5.067-.6 1.141-.31 2.666-.92 3.75-.62 1.084-1.72 2.001-2.79 2.754-1.32.933-3.95 2.443-5.15 2.845-.65.22-1.84-.135-2.02-.431-.18-.297.53-.99.95-1.348.78-.674 2.62-1.703 3.74-2.695 1.1-.975 2.28-2.165 2.97-3.261.62-.993.96-2.341 1.18-3.315.19-.825.29-1.698.17-2.534-.13-.835-.52-2.165-.89-2.48-.38-.314-1.06.214-1.38.593-.96 1.123-3.19 4.746-4.36 6.145-.76.899-1.71 1.709-2.72 2.253-1 .544-2.5.896-3.32 1.011-.56.076-1.24-.591-1.65-.323-.4.269-.8 1.234-.8 1.932-.02 1.115.39 3.189.71 4.761.33 1.603.95 3.21 1.26 4.852.37 1.965.49 4.802.95 6.938.43 2.003 1.09 3.954 1.79 5.878.92 2.527 3.25 6.942 3.75 9.285.33 1.575-1.22 3.492-.77 4.77.45 1.277 2.14 2.22 3.49 2.896 1.45.724 3.5 1.278 5.2 1.448 1.67.167 3.42.082 5.02-.426 1.71-.539 3.41-1.987 5.2-2.811 1.82-.837 3.67-2.168 5.71-2.215 2.48-.056 7.01 1.974 9.2 1.874 1.54-.07 2.4-2.152 3.92-2.47 1.69-.355 4.23.114 6.21.341 1.92.219 4.92.298 5.71 1.022.8.724-.27 2.499-.94 3.322-.66.824-2.53.592-3.06 1.619-.6 1.15-.42 3.515-.51 5.281-.1 1.931.86 4.898-.09 6.303-.95 1.406-3.79 1.86-5.62 2.13-1.78.262-4.12-.114-5.37-.511-.9-.287-1.37-1.903-2.13-1.874-.75.028-1.59 1.505-2.38 2.044-.74.499-1.5 1.272-2.39 1.193-.95-.086-2.27-1.038-3.32-1.704-1.43-.909-3.19-3.212-5.28-3.748-2.27-.582-6.02-.369-8.35.256-2.13.571-4.3 2.172-5.62 3.492-1.18 1.176-1.83 2.833-2.3 4.429-.49 1.668-.52 4.238-.64 5.58-.07.82.73 2.498-.08 2.47-.81-.028-3.09-2.272-4.77-2.641-1.69-.369-3.6.135-5.37.426-2.07.341-5.13.642-7.07 1.619-1.85.933-3.01 2.853-4.55 4.241-1.55 1.405-4.04 2.762-4.79 4.187-.69 1.287.9 3.649.26 4.361-.64.713-2.82-.576-4.1-.087-1.56.596-3.22 2.983-5.24 3.664-2.32.785-6.2 1.41-8.72 1.046-2.35-.34-4.93-2.18-6.36-3.227-1.03-.746-1.18-2.405-2.27-3.053-1.15-.683-3.48-.523-4.63-1.047-.93-.426-1.86-1.454-2.26-2.093-.32-.492-.7-1.483-.18-1.74.67-.325 2.9.074 4.14-.209 1.19-.269 2.7-.449 3.34-1.488.71-1.176.77-3.694.97-5.568.26-2.508.83-7.096.6-9.478-.17-1.727-1.01-3.444-1.99-4.813-.98-1.369-2.37-2.567-3.87-3.399-1.53-.848-3.61-.95-5.31-1.687-2.1-.909-4.96-2.43-7.3-3.768-2.31-1.317-4.68-3.567-6.74-4.255-1.76-.592-3.72.179-5.59.127-1.89-.053-4.53-.011-5.78-.445-.86-.301-2.02-1.294-1.71-2.159.48-1.344 2.89-4.173 4.59-5.902 1.68-1.706 3.47-3.432 5.63-4.471 2.46-1.186 6.54-1.939 9.14-2.642 2.14-.579 4.3-1.02 6.45-1.58 2.29-.603 5.95-.952 7.35-2.033 1.21-.931.24-3.597 1.07-4.452.82-.855 2.58-.432 3.87-.678 1.35-.258 3.58.113 4.25-.871.68-.984-.09-3.387-.19-5.033-.09-1.615.65-3.887-.39-4.839-1.03-.952-4-.532-5.8-.871-1.69-.317-3.32-1.044-5.04-1.161-2.59-.178-7.3 0-10.54.096-2.98.089-5.94.611-8.91.484-3.77-.161-9.74-.951-13.74-1.451-3.43-.429-7.75-.669-10.26-1.549-1.92-.671-3.53-2.166-4.82-3.732-1.39-1.685-2.2-4.77-3.53-6.38-1.18-1.423-2.77-2.536-4.46-3.283-1.7-.754-3.82-.908-5.76-1.239-2.54-.434-6.29-1.554-9.48-1.363-3.28.197-6.88 1.463-10.23 2.546-3.89 1.263-9.96 3.097-13.16 5.033-2.54 1.538-4.68 5.097-6 6.581-.67.753-2.2 1.349-1.94 2.323.36 1.323 3.91 3.936 4.07 5.614.16 1.677-1.49 3.632-3.1 4.452-1.9.968-6.51 1.355-8.32 1.355-.95 0-1.74-1.912-2.52-1.355-.8.58-1.78 3.553-2.32 4.839-.39.927-.23 2.512-.89 2.877-.67.365-2.42.114-3.12-.687-.86-.978-1.36-4.238-2.01-5.18-.37-.538-1.69-1.092-1.9-.476-.6 1.692-1.8 8.108-1.69 10.626.08 1.688 1.4 3.641 2.37 4.482.88.762 2.84-.431 3.44.564.63 1.043.76 3.872.34 5.695-.43 1.823-1.98 5.159-2.88 5.243-.9.085-1.64-3.183-2.54-4.736-.94-1.635-1.45-3.972-3.1-5.074-1.83-1.228-5.17-2.449-7.91-2.293-2.79.159-6.81 2.3-8.84 3.248-1.25.582-2.21 2.751-3.34 2.435-1.13-.316-2.31-3.879-3.43-4.33-1.11-.451-2.52.657-3.24 1.624-.74.977-.32 3.503-1.18 4.24-.85.737-2.69.547-3.97.18-1.56-.451-3.96-1.447-5.41-2.887-1.73-1.714-3.91-5.638-4.96-7.397-.59-.982-2.13-2.691-1.35-3.157.78-.466 4.45.3 6.04.361 1.17.044 2.72.511 3.52 0 .8-.512 1.29-1.962 1.26-3.068-.03-1.187-2-2.736-1.44-4.059s3.25-2.767 4.78-3.879c1.41-1.024 3.64-1.353 4.42-2.797.78-1.443-.98-4.63.27-5.863 1.25-1.233 5.78-.425 7.22-1.534 1.4-1.082.73-3.58 1.38-5.122.63-1.486 2.39-2.96 2.53-4.13.12-1.113-1.55-1.779-1.73-2.886-.23-1.448.04-3.934.34-5.797.3-1.835.16-4.193 1.47-5.379 1.32-1.186 5.35-2.027 6.42-1.738 1.07.29-.01 2.317 0 3.475.01 1.548-.71 5.803.07 5.814.78.011 3.65-5.335 4.61-5.747.95-.412.5 3.308 1.13 3.274.64-.033 1.56-3.853 2.68-3.474 1.11.378 3.25 6.983 4.01 5.746.75-1.236.11-9.511.53-13.164.34-2.973 1.46-6.682 2-8.754.33-1.253 1.5-2.716 1.27-3.675-.23-.958-2.53-1.219-2.64-2.076-.12-.856 1.56-2.246 1.95-3.062.27-.565.85-1.417.39-1.838-.51-.464-3.05-.343-3.46-.947-.41-.603.61-1.808 1.01-2.672.41-.91 1.08-1.816 1.5-2.785.53-1.225 1.81-3.294 1.67-4.566-.14-1.271-1.63-3.035-2.51-3.063-.87-.028-2.01 2.506-2.72 2.896-.49.264-1.34-.054-1.56-.557-.31-.677.19-2.626-.28-3.508-.48-.882-1.89-1.049-2.56-1.782-.68-.733-.85-2.227-1.51-2.617-.66-.39-2.02.948-2.45.278-.43-.669-.27-3.068-.12-4.295.13-1.068.65-2.052 1.02-3.062.46-1.269 1.18-3.357 1.76-4.548.47-.939 1.6-1.565 1.77-2.599.18-1.144-.62-3.465-.65-4.269-.01-.241.52-.322.46-.557-.11-.451-.78-1.415-1.1-2.153-.39-.873-.79-2.318-1.22-3.088-.32-.591-.67-1.711-1.31-1.531-.86.237-2.77 3.137-3.83 2.956-1.07-.18-1.84-2.619-2.56-4.039-.8-1.55-1.37-4.039-2.2-5.26-.64-.953-1.75-1.527-2.77-2.062-1.08-.57-2.88-1.01-3.74-1.354-.49-.196-1.05-1.095-1.41-.709-.73.784-2.3 4.92-2.97 5.414-.67.494-.86-1.6-1.03-2.449-.17-.849.1-1.767 0-2.642-.1-.92-.11-2.427-.56-3.283h360.74Zm-304.88 143.12c-.21-.249-.59-.266-.85-.119-.56.318-2.01 1.094-2.52 2.029-.52.935-.95 2.566-.56 3.58.39 1.015 2.04 2.387 2.9 2.507.85.119 1.84-.895 2.24-1.791.41-.895.39-2.546.19-3.58-.2-1.028-1.03-2.168-1.4-2.626Z" style="fill:gold" transform="matrix(1.24324 0 0 1.24324 -3279.68754342 -207.37511753)"/><path d="M2708.8 359.957c.3-.446.71-.897.83-1.278.17-.489.24-1.086 0-1.546-.25-.502-.81-1.51-1.51-1.461-1.03.071-3.36 1.609-4.65 1.89-1 .22-2.05-.038-3.06-.2-1.3-.209-3.55-.534-4.75-1.053-.97-.423-1.47-1.734-2.43-2.063-.95-.328-2.2.043-3.3.092-1.19.053-2.76.725-3.89.229-1.13-.497-1.99-2.384-2.89-3.208-.75-.69-1.52-1.566-2.53-1.737-1.22-.207-3.58.459-4.82.489-.89.022-1.93.23-2.63-.305-.74-.56-.98-2.19-1.78-3.056-.96-1.049-2.75-2.872-4.03-3.238-1.2-.347-2.6.509-3.6 1.038-.96.504-1.47 1.672-2.45 2.139-1.15.55-3.27 1.385-4.46 1.161-1.19-.224-1.93-1.543-2.69-2.505-.99-1.253-2.13-3.36-3.24-5.011-1.26-1.888-3.19-4.67-4.37-6.318-.87-1.212-1.81-2.369-2.69-3.568-.89-1.206-1.93-2.754-2.64-3.667-.49-.638-1.15-1.181-1.61-1.809-.44-.608-1.13-1.955-1.13-1.955s-.51-4.725-.46-6.398c.04-1.24.48-2.771.79-3.638.21-.595.43-1.495 1.06-1.568.64-.074 1.91 1.484 2.8 1.12.88-.364 1.76-2.144 2.52-3.303.92-1.413 2.14-3.622 3.02-5.177.79-1.375 1.41-2.97 2.3-4.155.85-1.132 2.2-2.148 3.06-2.952.69-.644 1.19-1.796 2.14-1.871 1.01-.081 2.72.798 3.94 1.388 1.19.58 2.53 1.918 3.36 2.15.57.16 1.49-.179 1.61-.762.12-.642-.24-2.216-.85-3.09-.88-1.254-3.88-3.329-4.44-4.434-.36-.726.73-1.459 1.08-2.194.37-.784 1.06-1.592 1.17-2.508.16-1.453-.11-4.141-.18-6.211-.07-2.085-.41-4.763-.26-6.298.1-1.041.55-2.073 1.18-2.911.88-1.185 2.77-2.948 4.14-4.198 1.29-1.18 2.78-2.134 4.09-3.303 2-1.797 5.47-5.402 7.93-7.479 2.15-1.818 4.52-3.354 6.82-4.986 2.42-1.72 5.53-3.935 7.7-5.336 1.71-1.109 4.15-2.319 5.3-3.069.61-.392 1.29-.918 1.62-1.433.3-.477-.17-1.449.36-1.657.61-.247 2.23.172 3.35.179 1.17.007 2.55.414 3.63-.135 1.08-.548 2-2.257 2.85-3.157.72-.768 1.72-1.411 2.24-2.239.5-.809.68-1.79.84-2.729.2-1.202.72-3.132.35-4.479-.38-1.347-2.11-2.583-2.59-3.604-.36-.765-.52-1.947-.28-2.519.23-.571 1.05-.832 1.68-.909.85-.105 2.76.571 3.43.279.64-.281.94-1.444.56-2.029-.51-.762-2.82-1.403-3.6-2.542-.78-1.139-.76-2.851-1.08-4.292-.39-1.777-.64-4.933-1.25-6.368-.44-1.014-1.98-1.343-2.43-2.246-.45-.903-.22-2.158-.26-3.172-.04-.97.64-2.246.04-2.911-.61-.666-3.14-.603-3.66-1.082-.46-.421.1-1.336.52-1.792.47-.51 2.15-.728 2.32-1.269.16-.541-1.03-1.287-1.31-1.978-.28-.678-.58-1.561-.37-2.164.2-.604 1.22-.971 1.6-1.456.33-.421.74-.926.67-1.455-.09-.716-.91-1.858-1.23-2.837-.32-.983-.55-2.148-.71-3.06-.14-.797-.51-1.77-.26-2.415.25-.646 1.03-1.226 1.75-1.458.99-.316 3-.802 4.16-.438 1.15.365 1.6 2.121 2.77 2.625 1.32.571 3.95 1.004 5.17.801.97-.161 1.44-1.467 2.16-2.018.67-.511 1.45-.92 2.17-1.29.71-.361 1.59-.416 2.2-.933.65-.56 1.29-1.672 1.72-2.426.37-.656.55-1.509.84-2.099.25-.509.39-1.185.89-1.447.71-.373 2.3-.653 3.4-.793 1.07-.135 2.18-.078 3.22-.046 1.02.03 2.21.062 3.04.233.67.14 1.22.7 1.91.793 1.15.155 3.32.163 4.99.14 1.67-.023 3.8-.116 5.04-.28.81-.108 1.56-.613 2.36-.702.79-.089 1.64-.05 2.41.167.87.243 1.88.967 2.8 1.29.88.309 1.8.494 2.72.648 1.26.209 3.57.365 4.81.606.9.175 1.7.754 2.61.84 1.16.109 2.99-.366 4.34-.187 1.3.173 2.55.872 3.73 1.26 1.12.366 2.61.61 3.36 1.068.57.352.56 1.307 1.12 1.68.65.435 1.86.638 2.8.933.96.303 2 .777 2.98.886.96.107 2.35-.552 2.89-.233.55.319-.03 1.586.38 2.146.4.56 1.28 1.022 2.05 1.213.88.218 2.34-.07 3.22.093.73.136 1.36.6 2.05.887.75.311 1.67.55 2.43.979.84.475 1.56 1.652 2.61 1.866 1.48.303 4.84-.511 6.3-.046 1.18.378 1.98 1.963 2.42 2.834.37.714-.17 1.711.24 2.391.4.68 1.98 1.011 2.21 1.691.24.68-.71 1.555-.81 2.391-.14 1.069-.52 3.256 0 4.024.51.767 2.17.67 3.09.583.87-.084 1.53-.925 2.39-1.108.86-.185 1.91-.292 2.8 0 .91.301 1.92 1.36 2.68 1.807.59.349 1.66.409 1.87.875.2.467-.35 1.318-.65 1.925-.34.69-1.36 1.591-1.4 2.215-.03.625.72 1.39 1.19 1.53.47.141 1.24-.24 1.62-.687.45-.526.74-1.634 1.07-2.465.35-.876.53-2.252 1.04-2.79.46-.499 1.42-.669 2-.44.58.23 1.01 1.36 1.47 1.816.39.376.81.807 1.34.918.83.174 2.86.392 3.66.127.65-.216.77-1.189 1.11-1.72.32-.489.55-1.083.96-1.465.41-.382 1.09-.679 1.49-.828.29-.106.77-.308.93-.063.16.244-.12 1.041.03 1.528.15.499.57 1.189.89 1.465.26.226.84-.107 1.02.191.21.377.13 1.433.29 2.07.14.604.22 1.809.63 1.752.41-.058 1.05-1.713 1.83-2.097.79-.384 1.92-.191 2.88-.206 1.07-.017 2.39-.052 3.53.104 1.11.153 2.17.572 3.26.829 1.29.302 3.3.873 4.46.985.83.081 1.78.139 2.49-.311.71-.458 1.06-2.039 1.81-2.436.75-.398 1.97-.45 2.7.052.72.501 1.27 1.935 1.66 2.954.38 1.007.46 2.106.67 3.162.23 1.122.43 2.562.68 3.572.21.846.34 1.935.8 2.488.44.54 1.22.889 1.92.829.97-.083 2.9-.752 3.88-1.327.85-.493 1.36-1.509 2.03-2.123.61-.566 1.35-1.322 1.95-1.559.52-.204 1.18-.122 1.67.135.55.283 1.08 1.079 1.62 1.566.53.471 1.01 1.119 1.62 1.353.62.234 1.51.219 2.07.051.54-.161.78-.861 1.3-1.062.73-.278 2.02-.511 3.05-.61 1.21-.115 3.03-.404 4.17-.08 1.07.306 1.86 1.355 2.65 2.027.75.628 1.7 1.199 2.13 2.005.42.806.21 1.898.41 2.831.19.944.24 2.182.77 2.831.52.649 1.62.609 2.35 1.062.8.491 1.8 1.995 2.42 1.887.62-.108.78-1.743 1.3-2.536.57-.865 1.68-1.613 2.12-2.654.49-1.141.71-2.773.83-4.193.16-2.085-.09-5.556.17-8.316.29-2.978.83-7.488 1.54-9.554.42-1.242 2.28-2.222 2.72-2.843.17-.242.19-.806-.1-.884-.35-.095-1.56.445-2.01.309-.42-.126-.85-.708-.69-1.12.18-.484 1.16-1.207 1.77-1.778.73-.673 1.75-1.456 2.56-2.261.8-.809 1.67-1.952 2.28-2.59.42-.443.94-.979 1.35-1.237.31-.201 1.04-.051 1.08-.309.04-.258-.75-.792-.85-1.237-.1-.444.03-1.031.27-1.43.25-.399.7-.831 1.2-.966.61-.168 1.7-.039 2.47-.039.72 0 1.58-.193 2.17.039.59.232.89.973 1.39 1.353.5.376 1.06.998 1.62.927.56-.071 1.27-.882 1.74-1.353.44-.432.55-1.253 1.12-1.468.94-.349 3.31-.67 4.48-.624.91.035 1.7.634 2.57.896.99.299 2.34.779 3.37.897.95.108 1.92-.389 2.85-.185 1.1.242 2.66 1.077 3.77 1.638 1 .506 1.77 1.575 2.87 1.732 1.13.16 2.71-.43 3.9-.773 1.11-.321 2.32-.57 3.23-1.283.92-.716 1.9-2.055 2.27-3.01.33-.846-.19-2.055-.04-2.721.11-.511.78-.771.91-1.278.15-.646-.56-1.972.04-2.597.6-.626 2.53-1.196 3.54-1.155.96.039 1.68.942 2.52 1.402 1.06.577 2.45 1.628 3.83 2.061 1.45.454 3.45.715 4.87.66 1.26-.049 2.55-.389 3.67-.989 1.26-.681 2.81-2.405 3.91-3.093.83-.511 1.82-.968 2.72-1.03.91-.062 1.81.494 2.72.659.97.173 2.17.248 3.06.378.76.112 1.71-.084 2.27.401.57.486.55 2.354 1.1 2.512.55.158 1.39-1.203 2.22-1.562 1-.436 2.57-1.484 3.82-1.055 1.34.46 3.16 2.864 4.25 3.818.74.652 1.55 1.218 2.26 1.907.77.747 1.77 1.759 2.33 2.571.47.691.94 1.564 1 2.3.06.733-.59 1.383-.62 2.118-.04 1.083-.11 3.3.36 4.382.44.996 1.78 1.285 2.49 2.108.74.854 2.1 2.468 1.94 3.019-.16.552-2.52-.191-2.88.288-.36.479.16 1.892.72 2.588.91 1.127 3.53 2.828 4.75 4.17 1.05 1.15 2.61 2.804 2.59 3.882-.03 1.079-1.59 2.085-2.74 2.589-1.36.599-4.3.479-5.46 1.006-.8.363-1.69 1.299-1.51 2.157.2.931 2.08 2.435 2.69 3.429.48.771 1 1.629.98 2.535-.01 1.077-.77 2.918-1.06 3.927-.2.713-1.16 1.583-.65 2.127.52.559 3.34.518 3.76 1.227.42.709-.62 2.125-1.23 3.026-.63.927-2.78 2.004-2.53 2.536.24.532 2.97.764 4 .654.86-.089 1.36-1.255 2.21-1.308 1.31-.082 4.41.136 5.65.818 1.09.599.97 2.576 1.8 3.272.83.695 2.09 1.045 3.19.899 1.22-.163 2.78-1.486 4.17-1.881 1.35-.383 3.14-.92 4.17-.491 1.04.43 1.59 1.993 2.04 3.068.43 1.058.11 2.45.61 3.377.5.927 1.35 1.858 2.37 2.186 1.12.358 3.75-.351 4.33-.04.58.311-.5 1.311-.83 1.906-.34.595-1.25.987-1.19 1.668.07.94 1.11 2.634 1.62 3.971.59 1.529 1.31 3.588 1.87 5.202.52 1.488 1.58 3.444 1.51 4.481-.06.868-1.65.925-1.94 1.746-.33.926-.15 2.617-.01 3.813.13 1.146.29 2.527.82 3.361.52.809 1.71 1.025 2.37 1.64.64.592 1.25 1.29 1.62 2.052.38.761.1 1.931.66 2.514.55.584 1.86 1.08 2.67.984.82-.096 1.51-1.006 2.23-1.56.84-.654 1.63-2.104 2.83-2.364 1.75-.378 6.1-.305 7.68.095.94.238 1.19 1.539 1.8 2.3.86 1.082 2.54 3.33 3.37 4.192.43.451 1 1.124 1.61.977.78-.189 2.05-2.148 3.08-2.112 1.03.037 2.44 1.473 3.09 2.333.59.78.39 2.352.8 2.823.38.426 1.23.295 1.72 0 .95-.573 2.78-2.49 3.98-3.434 1.03-.808 2.02-1.745 3.23-2.233 1.33-.536 3.66-.983 4.77-.987.71-.002 1.19 1.043 1.89.964.76-.085 1.81-.941 2.67-1.477.97-.596 2.1-1.491 3.1-2.095.94-.566 2.03-1.42 2.92-1.53.84-.104 1.8.266 2.4.874.72.735 1.12 2.468 1.93 3.534.84 1.09 2.57 2.014 3.07 3.01.45.881-.14 2.056-.04 2.963.09.847.21 1.734.63 2.477.43.76 1.23 1.458 1.94 2.088.99.874 2.77 2.234 3.98 3.157 1.08.821 2.48 1.732 3.3 2.38.59.46 1.27.869 1.66 1.506.38.639.39 1.934.68 2.331.19.277.69.143 1.02.049.56-.162 1.62-.883 2.33-1.02.64-.124 1.7.799 1.94.194.28-.712-.24-3.376-.24-4.468 0-.701-.4-1.814.24-2.089.78-.332 3.54-.51 4.42.097.88.607.3 2.696.87 3.546.57.83 1.59 1.388 2.58 1.554 1.37.23 4.33-.207 5.64-.171.76.021 1.68-.073 2.23.388.56.462.43 1.842 1.12 2.38.73.567 2.35.624 3.26 1.02.78.344 1.62.842 2.18 1.36.51.477.51 1.492 1.17 1.749.76.299 2.53.615 3.4.048.86-.566 1.17-2.841 1.79-3.448.47-.454 1.49-.655 1.95-.194.51.51.58 2.29 1.11 3.254.53.955 1.06 2.164 2.09 2.525 1.4.49 4.68-.035 6.3.414 1.32.366 2.73 1.503 3.42 2.28.55.621.12 1.814.72 2.383.87.812 2.92 1.813 4.46 2.487 1.53.671 3.56 1.623 4.77 1.554 1.05-.06 1.71-1.381 2.48-1.969.71-.537 1.87-2.141 2.18-1.554.31.587-.56 3.592-.31 5.077.22 1.388 1.21 2.54 1.76 3.834.58 1.373 1.43 3.007 1.75 4.405.3 1.293.71 2.77.18 3.978-.53 1.209-2.34 2.091-3.36 3.272-1.06 1.223-2.48 3.021-3.01 4.067-.33.659.39 1.732-.18 2.211-.58.501-2.25.471-3.36.795-1.25.369-3.49.84-4.15 1.415-.52.446-.22 1.482.18 2.034.53.737 1.89 1.748 3 2.387 1.15.663 2.85 1.135 3.89 1.592.81.353 1.62 1.193 2.39 1.149.77-.044 1.78-1.68 2.21-1.415.43.266.77 2.284.35 3.007-.41.722-1.79 1.23-2.83 1.326-1.1.102-2.6-1.09-3.77-.716-1.17.373-2.51 1.905-3.26 2.957-.69.972-.9 2.258-1.23 3.357-.32 1.06-1.08 2.419-.77 3.235.31.815 1.67 1.259 2.63 1.658.97.405 2.49.084 3.18.772.7.687.67 2.336.98 3.353.17.568.32 1.161.51 1.726h-360.74l-.15-.327c-.6-.773-2.26-.956-2.9-1.031-.37-.043-.59.634-.97.58-.59-.086-1.86-.499-2.58-1.096-.94-.784-1.96-2.782-3.09-3.609-1.05-.772-2.69-.491-3.67-1.353-1.08-.946-1.89-3.266-2.77-4.318-.7-.824-1.56-1.569-2.54-1.995-1.13-.483-3.3-.44-4.19-.902-.66-.338-.43-1.869-1.16-1.869-.95 0-3.06 1.364-4.52 1.869-1.39.48-3.11.558-4.25 1.16-1.05.553-1.67 2.084-2.58 2.449-.88.356-2.01.213-2.83-.258-.83-.473-1.53-2.385-2.13-2.578-.6-.193-.83 1.212-1.48 1.418-.79.247-2.3.462-3.23.064-.92-.397-1.36-2.567-2.32-2.449-.95.118-2.16 2.299-3.41 3.158-1.26.86-2.66 1.571-4.13 1.998-1.54.452-3.63.505-5.15.709-1.33.178-2.97-.342-4 .516-1.07.891-1.39 3.37-2.45 4.834-.66.918-1.37 2.08-2.27 3.03l-.02.034c-.61.717-1.32 1.311-2.15 1.641-2.31.913-6.78.512-9.41.773-2.14.211-4.26.611-6.39.79-2.21.184-4.55.346-6.82.315-2.57-.035-6.73-1.067-8.6-.525-1.48.427-1.68 2.575-2.63 3.777-.99 1.259-2.63 3.008-3.35 3.776-.3.316-.59.959-1.01.831-.59-.181-1.84-1.114-2.52-1.919-.72-.85-1.32-2.062-1.8-3.18-.49-1.122-.62-2.893-1.12-3.552-.39-.512-1.25-.36-1.89-.401-.84-.052-2.52.373-3.12.086-.57-.268-.6-1.192-.49-1.804.04-.206.16-.425.31-.642l.03-.043Z" style="fill:#0057b8" transform="matrix(1.24324 0 0 1.24324 -3279.68754342 -207.37511753)"/></svg>