<?xml version="1.0" encoding="UTF-8" standalone="no"?>
<!DOCTYPE svg PUBLIC "-//W3C//DTD SVG 1.1//EN" "http://www.w3.org/Graphics/SVG/1.1/DTD/svg11.dtd">
<svg width="100%" height="100%" viewBox="0 0 449 539" version="1.1" xmlns="http://www.w3.org/2000/svg" xmlns:xlink="http://www.w3.org/1999/xlink" xml:space="preserve" xmlns:serif="http://www.serif.com/" style="fill-rule:evenodd;clip-rule:evenodd;stroke-linejoin:round;stroke-miterlimit:2;">
    <g transform="matrix(1,0,0,1,-979.249,-988.92)">
        <g transform="matrix(1.6582,0,0,2.17136,1043.84,909.018)">
            <g transform="matrix(1,0,0,1,38.251,12.7521)">
                <g transform="matrix(0.457108,0,0,0.494868,-487.708,-475.219)">
                    <path d="M1489.31,1034.94L1007.92,1034.94C988.58,1034.94 970.028,1040.37 956.349,1050.01C942.671,1059.66 934.986,1072.75 934.986,1086.39C934.986,1170.09 934.986,1336.12 934.986,1433.51C934.986,1475.57 983.316,1509.66 1042.93,1509.66L1489.31,1509.66L1489.31,1034.94Z" style="fill:rgb(128,128,128);"/>
                </g>
                <g transform="matrix(0.457108,0,0,0.494868,-493.739,-479.825)">
                    <path d="M1489.31,1034.94L1007.92,1034.94C988.58,1034.94 970.028,1040.37 956.349,1050.01C942.671,1059.66 934.986,1072.75 934.986,1086.39C934.986,1170.09 934.986,1336.12 934.986,1433.51C934.986,1475.57 983.316,1509.66 1042.93,1509.66L1489.31,1509.66L1489.31,1034.94Z" style="fill:rgb(153,153,153);"/>
                </g>
                <g transform="matrix(0.457108,0,0,0.494868,-499.77,-484.43)">
                    <path d="M1489.31,1034.94L1007.92,1034.94C988.58,1034.94 970.028,1040.37 956.349,1050.01C942.671,1059.66 934.986,1072.75 934.986,1086.39C934.986,1170.09 934.986,1336.12 934.986,1433.51C934.986,1475.57 983.316,1509.66 1042.93,1509.66L1489.31,1509.66L1489.31,1034.94Z" style="fill:rgb(179,179,179);"/>
                </g>
                <g transform="matrix(0.457108,0,0,0.494868,-504.594,-488.114)">
                    <path d="M1489.31,1034.94L1007.92,1034.94C988.58,1034.94 970.028,1040.37 956.349,1050.01C942.671,1059.66 934.986,1072.75 934.986,1086.39C934.986,1170.09 934.986,1336.12 934.986,1433.51C934.986,1475.57 983.316,1509.66 1042.93,1509.66L1489.31,1509.66L1489.31,1034.94Z" style="fill:rgb(204,204,204);"/>
                </g>
                <g transform="matrix(0.603062,0,0,0.460542,-638.752,-432.107)">
                    <path d="M1321.35,1076.33C1321.35,1048.11 1298.43,1025.19 1270.21,1025.19L1018.66,1025.19C990.434,1025.19 967.52,1048.11 967.52,1076.33L967.52,1178.61C967.52,1206.84 990.434,1229.75 1018.66,1229.75L1270.21,1229.75C1298.43,1229.75 1321.35,1206.84 1321.35,1178.61L1321.35,1076.33Z" style="fill:rgb(128,128,128);"/>
                </g>
                <g transform="matrix(0.224478,0,0,0.171427,-161.216,23.905)">
                    <path d="M1321.35,1076.33C1321.35,1048.11 1298.43,1025.19 1270.21,1025.19L1018.66,1025.19C990.434,1025.19 967.52,1048.11 967.52,1076.33L967.52,1178.61C967.52,1206.84 990.434,1229.75 1018.66,1229.75L1270.21,1229.75C1298.43,1229.75 1321.35,1206.84 1321.35,1178.61L1321.35,1076.33Z" style="fill:rgb(128,128,128);"/>
                </g>
                <g transform="matrix(1,0,0,1,0.279687,1.13687e-13)">
                    <g transform="matrix(0.500304,0,0,0.0237856,-523.785,115.77)">
                        <path d="M1321.35,1076.33C1321.35,1048.11 1319.92,1025.19 1318.16,1025.19L970.703,1025.19C968.946,1025.19 967.52,1048.11 967.52,1076.33L967.52,1178.61C967.52,1206.84 968.946,1229.75 970.703,1229.75L1318.16,1229.75C1319.92,1229.75 1321.35,1206.84 1321.35,1178.61L1321.35,1076.33Z" style="fill:rgb(128,128,128);"/>
                    </g>
                    <g transform="matrix(0.500304,0,0,0.0237856,-523.785,125.451)">
                        <path d="M1321.35,1076.33C1321.35,1048.11 1319.92,1025.19 1318.16,1025.19L970.703,1025.19C968.946,1025.19 967.52,1048.11 967.52,1076.33L967.52,1178.61C967.52,1206.84 968.946,1229.75 970.703,1229.75L1318.16,1229.75C1319.92,1229.75 1321.35,1206.84 1321.35,1178.61L1321.35,1076.33Z" style="fill:rgb(128,128,128);"/>
                    </g>
                    <g transform="matrix(0.500304,0,0,0.0237856,-523.785,144.814)">
                        <path d="M1321.35,1076.33C1321.35,1048.11 1319.92,1025.19 1318.16,1025.19L970.703,1025.19C968.946,1025.19 967.52,1048.11 967.52,1076.33L967.52,1178.61C967.52,1206.84 968.946,1229.75 970.703,1229.75L1318.16,1229.75C1319.92,1229.75 1321.35,1206.84 1321.35,1178.61L1321.35,1076.33Z" style="fill:rgb(128,128,128);"/>
                    </g>
                    <g transform="matrix(0.500304,0,0,0.0237856,-523.785,154.495)">
                        <path d="M1321.35,1076.33C1321.35,1048.11 1319.92,1025.19 1318.16,1025.19L970.703,1025.19C968.946,1025.19 967.52,1048.11 967.52,1076.33L967.52,1178.61C967.52,1206.84 968.946,1229.75 970.703,1229.75L1318.16,1229.75C1319.92,1229.75 1321.35,1206.84 1321.35,1178.61L1321.35,1076.33Z" style="fill:rgb(128,128,128);"/>
                    </g>
                    <g transform="matrix(0.500304,0,0,0.0237856,-523.785,164.177)">
                        <path d="M1321.35,1076.33C1321.35,1048.11 1319.92,1025.19 1318.16,1025.19L970.703,1025.19C968.946,1025.19 967.52,1048.11 967.52,1076.33L967.52,1178.61C967.52,1206.84 968.946,1229.75 970.703,1229.75L1318.16,1229.75C1319.92,1229.75 1321.35,1206.84 1321.35,1178.61L1321.35,1076.33Z" style="fill:rgb(128,128,128);"/>
                    </g>
                    <g transform="matrix(0.506892,0,0,0.0237856,-531.323,215.266)">
                        <path d="M1321.35,1076.33C1321.35,1048.11 1319.94,1025.19 1318.2,1025.19L970.662,1025.19C968.928,1025.19 967.52,1048.11 967.52,1076.33L967.52,1178.61C967.52,1206.84 968.928,1229.75 970.662,1229.75L1318.2,1229.75C1319.94,1229.75 1321.35,1206.84 1321.35,1178.61L1321.35,1076.33Z" style="fill:rgb(128,128,128);"/>
                    </g>
                    <g transform="matrix(0.500304,0,0,0.0237856,-523.785,135.133)">
                        <path d="M1321.35,1076.33C1321.35,1048.11 1319.92,1025.19 1318.16,1025.19L970.703,1025.19C968.946,1025.19 967.52,1048.11 967.52,1076.33L967.52,1178.61C967.52,1206.84 968.946,1229.75 970.703,1229.75L1318.16,1229.75C1319.92,1229.75 1321.35,1206.84 1321.35,1178.61L1321.35,1076.33Z" style="fill:rgb(128,128,128);"/>
                    </g>
                </g>
                <g transform="matrix(1,0,0,1,1.20612,1.13687e-13)">
                    <g transform="matrix(0.251643,0,0,0.0237856,-285.292,193.99)">
                        <path d="M1321.35,1076.33C1321.35,1048.11 1318.51,1025.19 1315.02,1025.19L973.849,1025.19C970.356,1025.19 967.52,1048.11 967.52,1076.33L967.52,1178.61C967.52,1206.84 970.356,1229.75 973.849,1229.75L1315.02,1229.75C1318.51,1229.75 1321.35,1206.84 1321.35,1178.61L1321.35,1076.33Z" style="fill:rgb(128,128,128);"/>
                    </g>
                    <g transform="matrix(0.251643,0,0,0.0237856,-285.292,202.666)">
                        <path d="M1321.35,1076.33C1321.35,1048.11 1318.51,1025.19 1315.02,1025.19L973.849,1025.19C970.356,1025.19 967.52,1048.11 967.52,1076.33L967.52,1178.61C967.52,1206.84 970.356,1229.75 973.849,1229.75L1315.02,1229.75C1318.51,1229.75 1321.35,1206.84 1321.35,1178.61L1321.35,1076.33Z" style="fill:rgb(128,128,128);"/>
                    </g>
                    <g transform="matrix(0.251643,0,0,0.0237856,-285.292,185.313)">
                        <path d="M1321.35,1076.33C1321.35,1048.11 1318.51,1025.19 1315.02,1025.19L973.849,1025.19C970.356,1025.19 967.52,1048.11 967.52,1076.33L967.52,1178.61C967.52,1206.84 970.356,1229.75 973.849,1229.75L1315.02,1229.75C1318.51,1229.75 1321.35,1206.84 1321.35,1178.61L1321.35,1076.33Z" style="fill:rgb(128,128,128);"/>
                    </g>
                    <g transform="matrix(0.251643,0,0,0.0237856,-285.292,176.636)">
                        <path d="M1321.35,1076.33C1321.35,1048.11 1318.51,1025.19 1315.02,1025.19L973.849,1025.19C970.356,1025.19 967.52,1048.11 967.52,1076.33L967.52,1178.61C967.52,1206.84 970.356,1229.75 973.849,1229.75L1315.02,1229.75C1318.51,1229.75 1321.35,1206.84 1321.35,1178.61L1321.35,1076.33Z" style="fill:rgb(128,128,128);"/>
                    </g>
                </g>
            </g>
        </g>
    </g>
</svg>
