<svg viewBox="0 0 449 539" xmlns="http://www.w3.org/2000/svg" xml:space="preserve" style="fill-rule:evenodd;clip-rule:evenodd;stroke-linejoin:round;stroke-miterlimit:2"><path d="M1489.31 1034.94h-481.39c-19.34 0-37.892 5.43-51.571 15.07-13.678 9.65-21.363 22.74-21.363 36.38v347.12c0 42.06 48.33 76.15 107.944 76.15h446.38v-474.72Z" style="fill:gray" transform="matrix(.75798 0 0 1.07454 -680.6985974 -1084.08412798)"/><path d="M1489.31 1034.94h-481.39c-19.34 0-37.892 5.43-51.571 15.07-13.678 9.65-21.363 22.74-21.363 36.38v347.12c0 42.06 48.33 76.15 107.944 76.15h446.38v-474.72Z" style="fill:#999" transform="matrix(.75798 0 0 1.07454 -690.6992016 -1094.08541214)"/><path d="M1489.31 1034.94h-481.39c-19.34 0-37.892 5.43-51.571 15.07-13.678 9.65-21.363 22.74-21.363 36.38v347.12c0 42.06 48.33 76.15 107.944 76.15h446.38v-474.72Z" style="fill:#b3b3b3" transform="matrix(.75798 0 0 1.07454 -700.6998058 -1104.08452494)"/><path d="M1489.31 1034.94h-481.39c-19.34 0-37.892 5.43-51.571 15.07-13.678 9.65-21.363 22.74-21.363 36.38v347.12c0 42.06 48.33 76.15 107.944 76.15h446.38v-474.72Z" style="fill:#ccc" transform="matrix(.75798 0 0 1.07454 -708.6989626 -1112.08381518)"/><path d="M1321.35 1076.33c0-28.22-22.92-51.14-51.14-51.14h-251.55c-28.226 0-51.14 22.92-51.14 51.14v102.28c0 28.23 22.914 51.14 51.14 51.14h251.55c28.22 0 51.14-22.91 51.14-51.14v-102.28Z" style="fill:gray" transform="matrix(1 0 0 1 -931.1597582 -990.47245566)"/><path d="M1321.35 1076.33c0-28.22-22.92-51.14-51.14-51.14h-251.55c-28.226 0-51.14 22.92-51.14 51.14v102.28c0 28.23 22.914 51.14 51.14 51.14h251.55c28.22 0 51.14-22.91 51.14-51.14v-102.28Z" style="fill:gray" transform="matrix(.37223 0 0 .37223 -139.309563 -.30623934)"/><path d="M1321.35 1076.33c0-28.22-1.43-51.14-3.19-51.14H970.703c-1.757 0-3.183 22.92-3.183 51.14v102.28c0 28.23 1.426 51.14 3.183 51.14h347.457c1.76 0 3.19-22.91 3.19-51.14v-102.28Z" style="fill:gray" transform="matrix(.8296 0 0 .05165 -740.05770182 199.16574706)"/><path d="M1321.35 1076.33c0-28.22-1.43-51.14-3.19-51.14H970.703c-1.757 0-3.183 22.92-3.183 51.14v102.28c0 28.23 1.426 51.14 3.183 51.14h347.457c1.76 0 3.19-22.91 3.19-51.14v-102.28Z" style="fill:gray" transform="matrix(.8296 0 0 .05165 -740.05770182 220.18668322)"/><path d="M1321.35 1076.33c0-28.22-1.43-51.14-3.19-51.14H970.703c-1.757 0-3.183 22.92-3.183 51.14v102.28c0 28.23 1.426 51.14 3.183 51.14h347.457c1.76 0 3.19-22.91 3.19-51.14v-102.28Z" style="fill:gray" transform="matrix(.8296 0 0 .05165 -740.05770182 262.2307269)"/><path d="M1321.35 1076.33c0-28.22-1.43-51.14-3.19-51.14H970.703c-1.757 0-3.183 22.92-3.183 51.14v102.28c0 28.23 1.426 51.14 3.183 51.14h347.457c1.76 0 3.19-22.91 3.19-51.14v-102.28Z" style="fill:gray" transform="matrix(.8296 0 0 .05165 -740.05770182 283.25166306)"/><path d="M1321.35 1076.33c0-28.22-1.43-51.14-3.19-51.14H970.703c-1.757 0-3.183 22.92-3.183 51.14v102.28c0 28.23 1.426 51.14 3.183 51.14h347.457c1.76 0 3.19-22.91 3.19-51.14v-102.28Z" style="fill:gray" transform="matrix(.8296 0 0 .05165 -740.05770182 304.27477058)"/><path d="M1321.35 1076.33c0-28.22-1.41-51.14-3.15-51.14H970.662c-1.734 0-3.142 22.92-3.142 51.14v102.28c0 28.23 1.408 51.14 3.142 51.14H1318.2c1.74 0 3.15-22.91 3.15-51.14v-102.28Z" style="fill:gray" transform="matrix(.84053 0 0 .05165 -752.55721342 415.20738162)"/><path d="M1321.35 1076.33c0-28.22-1.43-51.14-3.19-51.14H970.703c-1.757 0-3.183 22.92-3.183 51.14v102.28c0 28.23 1.426 51.14 3.183 51.14h347.457c1.76 0 3.19-22.91 3.19-51.14v-102.28Z" style="fill:gray" transform="matrix(.8296 0 0 .05165 -740.05770182 241.20979074)"/><g><path d="M1321.35 1076.33c0-28.22-2.84-51.14-6.33-51.14H973.849c-3.493 0-6.329 22.92-6.329 51.14v102.28c0 28.23 2.836 51.14 6.329 51.14h341.171c3.49 0 6.33-22.91 6.33-51.14v-102.28Z" style="fill:gray" transform="matrix(.41727 0 0 .05165 -343.05239802 369.00952626)"/><path d="M1321.35 1076.33c0-28.22-2.84-51.14-6.33-51.14H973.849c-3.493 0-6.329 22.92-6.329 51.14v102.28c0 28.23 2.836 51.14 6.329 51.14h341.171c3.49 0 6.33-22.91 6.33-51.14v-102.28Z" style="fill:gray" transform="matrix(.41727 0 0 .05165 -343.05239802 387.84824562)"/><path d="M1321.35 1076.33c0-28.22-2.84-51.14-6.33-51.14H973.849c-3.493 0-6.329 22.92-6.329 51.14v102.28c0 28.23 2.836 51.14 6.329 51.14h341.171c3.49 0 6.33-22.91 6.33-51.14v-102.28Z" style="fill:gray" transform="matrix(.41727 0 0 .05165 -343.05239802 350.16863554)"/><path d="M1321.35 1076.33c0-28.22-2.84-51.14-6.33-51.14H973.849c-3.493 0-6.329 22.92-6.329 51.14v102.28c0 28.23 2.836 51.14 6.329 51.14h341.171c3.49 0 6.33-22.91 6.33-51.14v-102.28Z" style="fill:gray" transform="matrix(.41727 0 0 .05165 -343.05239802 331.32774482)"/></g></svg>