<svg viewBox="0 0 460 510" xmlns="http://www.w3.org/2000/svg" xml:space="preserve" style="fill-rule:evenodd;clip-rule:evenodd;stroke-linejoin:round;stroke-miterlimit:2"><path d="M2260.22 1492.36c0-133.53-108.25-241.78-241.78-241.78s-241.78 108.25-241.78 241.78h483.56Z" style="fill:#a3dfa4" transform="matrix(.37514 0 0 .84839 -391.6485808 -940.79065657)"/><path d="M2260.22 1495.9c4.42 0 8-1.58 8-3.54 0-80.87-39.55-152.54-100.14-196.96-41.77-30.61-93.88-48.35-149.64-48.35-55.76 0-107.86 17.74-149.64 48.35-60.58 44.42-100.13 116.09-100.13 196.96 0 1.96 3.58 3.54 7.99 3.54h483.56Zm-8.02-7.07h-467.52c1.13-77.92 39.25-146.84 97.82-189.77 38.25-28.04 84.88-44.94 135.94-44.94 51.07 0 97.69 16.9 135.95 44.94 58.56 42.93 96.69 111.85 97.81 189.77Z" style="fill:#c3c3c3" transform="matrix(.37514 0 0 .84839 -391.6485808 -940.79065657)"/><circle cx="2023.65" cy="1190.13" r="94.059" style="fill:#f8cca8" transform="matrix(.62554 0 0 .62555 -900.32296206 -657.00560547)"/><path d="M1930.38 1202.08c-.53-3.91-.79-7.9-.79-11.95 0-51.91 42.15-94.06 94.06-94.06 51.91 0 94.06 42.15 94.06 94.06 0 4.05-.26 8.04-.78 11.95-5.85-46.28-45.42-82.11-93.28-82.11s-87.42 35.83-93.27 82.11Z" style="fill:#6c5ff1" transform="matrix(.62554 0 0 .62555 -900.32370563 -668.24263146)"/><circle cx="2153.19" cy="986.616" r="16.795" style="fill:#6c5ff1" transform="matrix(.74737 0 0 .74737 -1243.67875807 -724.81886)"/><g><path d="M2260.22 1492.36c0-133.53-108.25-241.78-241.78-241.78s-241.78 108.25-241.78 241.78h483.56Z" style="fill:#fcfb59" transform="matrix(.39364 0 0 .89022 -696.36611493 -958.5549334)"/><path d="M2260.22 1495.73c4.21 0 7.63-1.51 7.63-3.37 0-80.84-39.53-152.48-100.09-196.87-41.69-30.56-93.67-48.28-149.32-48.28-55.65 0-107.63 17.72-149.32 48.28-60.55 44.39-100.08 116.03-100.08 196.87 0 1.86 3.41 3.37 7.62 3.37h483.56Zm-7.64-6.74h-468.27c1.07-78.01 39.23-147.04 97.87-190.02 38.33-28.1 85.09-45.02 136.26-45.02 51.18 0 97.93 16.92 136.27 45.02 58.63 42.98 96.8 112.01 97.87 190.02Z" style="fill:#c3c3c3" transform="matrix(.39364 0 0 .89022 -696.36611493 -958.5549334)"/><circle cx="2023.65" cy="1190.13" r="94.059" style="fill:#dd8a47" transform="matrix(.65639 0 0 .6564 -1230.12325536 -660.77642724)"/><path d="M1920.49 1273.25c-.52-3.91-.78-74.72-.78-78.77 0-51.91 52.03-98.41 103.94-98.41s106.32 47.69 106.32 99.6c0 4.05-11.33 68.53-11.86 72.44-5.85-46.28-46.6-148.14-94.46-148.14-47.86 0-97.31 107-103.16 153.28Z" style="fill:#161525" transform="matrix(.62554 0 0 .62555 -1167.70315918 -636.33316084)"/><circle cx="2153.19" cy="986.616" r="16.795" style="fill:#161525" transform="matrix(.74737 0 0 .74737 -1511.05815078 -692.90937935)"/></g><g><path d="M2260.22 1492.36c0-133.53-108.25-241.78-241.78-241.78s-241.78 108.25-241.78 241.78h483.56Z" style="fill:#920d0d" transform="matrix(.50195 0 0 1.13516 -768.43694464 -1187.21203706)"/><path d="M2260.22 1495.01c3.31 0 5.98-1.19 5.98-2.65 0-80.68-39.4-152.19-99.85-196.49-41.32-30.3-92.74-47.93-147.91-47.93-55.16 0-106.58 17.63-147.91 47.93-60.44 44.3-99.84 115.81-99.84 196.49 0 1.46 2.67 2.65 5.97 2.65h483.56Zm-5.99-5.29h-471.58c.85-78.47 39.19-147.92 98.12-191.12 38.7-28.37 86.02-45.37 137.67-45.37 51.66 0 98.98 17 137.68 45.37 58.93 43.2 97.27 112.65 98.11 191.12Z" style="fill:#c3c3c3" transform="matrix(.50195 0 0 1.13516 -768.43694464 -1187.21203706)"/><path d="M2116.93 1178.18c.52 3.91.78 7.9.78 11.95 0 51.91-42.15 94.06-94.06 94.06-51.91 0-94.06-42.15-94.06-94.06 0-4.05.26-8.04.79-11.95 5.85 46.29 45.41 82.12 93.27 82.12s87.43-35.83 93.28-82.12Z" style="fill:#f8cca8" transform="matrix(.83699 0 0 .837 -1449.05342564 -807.50197114)"/><path d="M1930.38 1178.18c5.85-46.28 45.41-82.11 93.27-82.11s87.43 35.83 93.28 82.11c-5.85 46.29-45.42 82.12-93.28 82.12s-87.42-35.83-93.27-82.12Z" style="fill:#f8cca8" transform="matrix(.83699 0 0 .837 -1449.05342564 -807.50197114)"/><path d="M1930.38 1202.08c-.53-3.91-.79-7.9-.79-11.95 0-51.91 42.15-94.06 94.06-94.06 51.91 0 94.06 42.15 94.06 94.06 0 4.05-.26 8.04-.78 11.95-5.85-46.28-45.42-82.11-93.28-82.11s-87.42 35.83-93.27 82.11Z" style="fill:#a1a19d" transform="matrix(.83699 0 0 .837 -1449.05342564 -809.5017937)"/></g></svg>