<?xml version="1.0" encoding="UTF-8" standalone="no"?>
<!DOCTYPE svg PUBLIC "-//W3C//DTD SVG 1.1//EN" "http://www.w3.org/Graphics/SVG/1.1/DTD/svg11.dtd">
<svg width="100%" height="100%" viewBox="0 0 457 674" version="1.1" xmlns="http://www.w3.org/2000/svg" xmlns:xlink="http://www.w3.org/1999/xlink" xml:space="preserve" xmlns:serif="http://www.serif.com/" style="fill-rule:evenodd;clip-rule:evenodd;stroke-linecap:round;stroke-linejoin:round;stroke-miterlimit:1.5;">
    <g transform="matrix(1,0,0,1,-76.1616,-940.356)">
        <g transform="matrix(1.6582,0,0,2.17136,200.508,920.812)">
            <g transform="matrix(0.639692,0,0,0.632031,-139.049,-704.678)">
                <ellipse cx="349.009" cy="1606.57" rx="161.555" ry="13.514" style="fill:rgb(212,224,212);"/>
            </g>
        </g>
        <g transform="matrix(1.6582,0,0,2.17136,200.508,920.812)">
            <g transform="matrix(-0.741669,-0.0819316,-0.0863376,0.455798,548.933,-430.34)">
                <path d="M431.746,1627.85C432.066,1636.64 432.707,1654.21 430.435,1659.82C428.88,1663.67 420.607,1663.67 418.117,1661.53C415.627,1659.39 416.065,1651.88 415.496,1646.98C414.841,1641.35 412.181,1631.05 414.186,1627.72C416.19,1624.39 423.746,1626.12 427.523,1626.99" style="fill:rgb(252,221,166);"/>
            </g>
        </g>
        <g transform="matrix(1.6582,0,0,2.17136,200.508,920.812)">
            <g transform="matrix(0.749389,0,0,0.460542,-184.209,-471.125)">
                <path d="M415.322,1645.86C415.008,1639.81 411.318,1630.79 414.186,1627.72C417.054,1624.65 413.912,1623.69 432.532,1627.46L431.746,1627.85C431.918,1632.59 431.682,1639.27 432.043,1645.68C429.181,1646.47 426.002,1646.18 423.506,1646.22C421.358,1646.25 418.434,1645.96 417.07,1645.9C416.487,1645.87 415.322,1645.86 415.322,1645.86Z" style="fill:rgb(252,221,166);"/>
            </g>
        </g>
        <g transform="matrix(1.6582,0,0,2.17136,200.508,920.812)">
            <g transform="matrix(0.603062,0,0,0.460542,-120.919,-471.125)">
                <path d="M338.169,1390.66C337.526,1399.25 335.787,1407.82 336.185,1416.43C336.598,1425.37 339.593,1434.94 340.649,1444.28C341.717,1453.74 341.926,1463.53 342.595,1473.15C343.298,1483.26 344.183,1494.34 344.866,1504.94C345.568,1515.86 346.906,1527.41 346.812,1538.67C346.704,1551.62 345.028,1571.25 344.217,1582.63C343.638,1590.75 342.969,1598.88 341.946,1606.95C340.811,1615.93 338.757,1628.42 337.405,1636.47C336.349,1642.77 336.865,1651.77 333.837,1655.29C330.81,1658.8 323.511,1659.83 319.241,1657.56C314.97,1655.29 310.09,1647.83 308.212,1641.66C305.833,1633.85 305.627,1621.05 304.968,1610.68C304.266,1599.63 303.779,1584.52 303.995,1575.33C304.151,1568.69 306.476,1562.18 306.266,1555.54C306.05,1548.73 303.625,1541.53 302.698,1534.46C301.13,1522.51 298.373,1497.05 296.859,1483.86C295.767,1474.34 294.859,1461.69 293.615,1455.31C292.939,1451.84 290.696,1444.01 289.399,1445.58C288.101,1447.15 286.429,1458.26 285.831,1464.72C284.641,1477.56 283.236,1508.48 282.262,1522.62C281.644,1531.6 281.691,1540.7 279.992,1549.54C278.154,1559.11 274.249,1569.9 271.234,1580.03C268.098,1590.57 264.638,1602.95 261.178,1612.79C258.041,1621.72 253.529,1632.09 250.474,1639.07C248.156,1644.36 246.068,1652.04 242.852,1654.64C239.822,1657.08 233.244,1657.93 231.174,1654.64C228.255,1649.99 226.88,1636.12 225.336,1626.74C223.768,1617.23 221.065,1606.95 221.768,1597.55C222.47,1588.14 228.369,1579.67 229.553,1570.3C230.904,1559.6 229.973,1545.65 229.877,1533.32C229.769,1519.4 228.904,1500.16 228.904,1486.78C228.904,1475.53 229.098,1464.26 229.877,1453.04C230.742,1440.58 233.297,1421.47 234.094,1412.01C234.534,1406.78 234.411,1401.53 234.657,1396.29C245.436,1400.84 256.092,1400.06 266.931,1400.69C281.214,1401.53 308.483,1402.99 320.356,1401.32C327.208,1400.36 333.038,1396.22 338.169,1390.66Z" style="fill:rgb(129,164,236);"/>
            </g>
        </g>
        <g transform="matrix(1.6582,0,0,2.17136,200.508,920.812)">
            <g transform="matrix(0.603062,0,0,0.460542,-68.2253,-477.82)">
                <path d="M216.339,1634.81C222.76,1630.79 254.411,1629.53 260.809,1635.13C267.208,1640.73 251.212,1660.94 254.731,1668.4C258.25,1675.87 274.192,1678.05 281.925,1679.92C292.03,1682.37 296.259,1690.62 294.402,1694.96C293.75,1696.48 296.587,1699.28 295.044,1699.89C292.05,1701.06 282.677,1701.87 276.436,1701.98C266.761,1702.16 246.444,1701.34 236.992,1700.94C231.224,1700.69 223.51,1701.63 219.726,1699.59C216.156,1697.67 214.376,1692.76 214.287,1688.71C214.18,1683.86 217.753,1675.38 219.086,1670.48C220.104,1666.73 222.583,1663.15 222.285,1659.28C221.827,1653.33 209.919,1638.84 216.339,1634.81Z" style="fill:rgb(24,30,41);"/>
            </g>
        </g>
        <g transform="matrix(1.6582,0,0,2.17136,200.508,920.812)">
            <g transform="matrix(0.603062,0,0,0.460542,-120.919,-471.125)">
                <path d="M234.657,1396.29C235.276,1372.98 235.215,1344.62 236.689,1326.38C237.766,1313.03 252.366,1292.59 243.5,1286.8C234.634,1281.02 197.818,1291.13 183.492,1291.67C174.832,1292 158.732,1294.8 157.543,1290.05C156.353,1285.29 169.714,1271.83 176.356,1263.12C184.195,1252.85 194.683,1237.28 204.576,1228.42C213.566,1220.36 228.471,1214.47 235.716,1209.93C239.986,1207.25 244.274,1204.07 248.042,1201.17C251.587,1198.44 256.038,1195.45 258.318,1192.54C260.265,1190.05 260.889,1186.74 261.719,1183.7C262.966,1179.12 262.81,1167.98 265.801,1165.08C268.791,1162.17 275.049,1165.79 279.661,1166.27C284.423,1166.76 290.021,1167.47 294.371,1168.05C298.178,1168.56 303.045,1169.18 305.766,1169.75C307.468,1170.11 309.923,1169.89 310.697,1171.45C312.101,1174.27 312.913,1182.62 314.187,1186.68C315.188,1189.88 317.149,1193.41 318.339,1195.82C319.239,1197.64 319.659,1199.97 321.328,1201.13C323.598,1202.71 328.355,1204.06 331.957,1205.28C336.524,1206.83 344.8,1207.64 348.731,1210.43C352.39,1213.04 354.317,1217.74 355.54,1222.06C356.786,1226.46 355.912,1231.91 356.204,1236.84C356.592,1243.37 357.588,1253.6 357.865,1261.25C358.124,1268.42 358.003,1276.93 357.865,1282.76C357.758,1287.25 356.041,1291.83 357.035,1296.21C358.114,1300.97 361.996,1306.71 364.342,1311.32C366.497,1315.56 368.521,1319.88 371.11,1323.86C373.926,1328.19 378.14,1333.41 381.24,1337.32C383.952,1340.73 387.136,1344.04 389.71,1347.28C392.149,1350.35 397.516,1353.78 396.686,1356.75C395.855,1359.71 389.559,1365.51 384.728,1365.05C379.773,1364.58 372.438,1357.85 366.958,1353.92C361.653,1350.12 356.052,1345.9 351.845,1341.47C347.856,1337.27 344.131,1332.42 341.714,1327.35C339.297,1322.28 338.071,1307.46 337.342,1311.06C336.613,1314.66 337.134,1338.52 337.342,1348.95C337.506,1357.19 338.42,1367.02 338.587,1373.65C338.714,1378.69 338.414,1385.94 338.344,1388.78C338.329,1389.41 338.169,1390.66 338.169,1390.66C333.038,1396.22 327.208,1400.36 320.356,1401.32C308.483,1402.99 281.214,1401.53 266.931,1400.69C256.092,1400.06 245.436,1400.84 234.657,1396.29Z" style="fill:rgb(56,0,51);"/>
            </g>
        </g>
        <g transform="matrix(1.6582,0,0,2.17136,200.508,920.812)">
            <g transform="matrix(0.743024,0,0,0.567427,-122.729,-609.056)">
                <path d="M280.413,1263.52L70.333,1294.34L64.657,1428.44L284.467,1393.98L280.413,1263.52Z" style="fill:rgb(247,246,245);stroke:rgb(157,144,144);stroke-width:0.81px;"/>
            </g>
        </g>
        <g transform="matrix(1.6582,0,0,2.17136,200.508,920.812)">
            <g transform="matrix(0.603062,0,0,0.460542,-120.919,-471.125)">
                <path d="M370.587,1495.15C370.764,1481.16 373.515,1461.47 371.749,1453.19C370.771,1448.61 363.788,1448.23 359.991,1445.49C353.166,1440.55 338.932,1430.91 330.798,1423.59C323.492,1417.02 315.475,1406.88 311.183,1401.59C308.761,1398.6 307.08,1396.44 305.045,1391.81C309.926,1388.14 314.853,1384.53 319.932,1381.12C319.932,1381.12 320.899,1382.24 321.468,1382.7C323.496,1384.35 328.405,1388.44 332.097,1391C338.311,1395.32 351.515,1403.93 358.753,1408.61C364.287,1412.18 371.776,1417.61 375.526,1419.07C377.385,1419.79 379.273,1421.37 381.258,1417.36C384.412,1418.39 387.402,1420.04 390.676,1420.59C395.096,1421.34 402.895,1422.03 407.777,1421.82C411.917,1421.65 417.308,1420.03 419.964,1419.37C421.272,1419.04 422.647,1418.61 423.716,1417.86C424.631,1417.62 424.532,1418.22 424.83,1417.99C428.008,1415.59 436.929,1408.46 442.788,1403.46C448.742,1398.38 454.282,1392.41 460.558,1387.52C467.339,1382.23 476.743,1375.98 483.476,1371.74C489.113,1368.18 488.855,1368.24 500.96,1362.05C502.043,1364.82 501.795,1367.9 502.999,1370.56C504.208,1373.23 503.318,1372.47 508.212,1378.05C506.558,1381.45 505.316,1385.17 502.883,1388.07C499.947,1391.57 494.927,1395.66 490.594,1399.03C485.307,1403.14 477.252,1408.48 471.163,1412.73C465.483,1416.69 458.79,1420.98 454.057,1424.52C450.124,1427.46 444.874,1429.55 442.764,1433.99C440.189,1439.4 439.747,1449.28 438.612,1456.99C437.169,1466.79 435.617,1480.86 434.106,1492.79C415.436,1496.77 391.982,1496.87 370.587,1495.15Z" style="fill:rgb(249,147,147);"/>
            </g>
        </g>
        <g transform="matrix(1.6582,0,0,2.17136,200.508,920.812)">
            <g transform="matrix(0.603062,0,0,0.460542,-120.919,-471.125)">
                <path d="M397.51,1398.82C397.51,1398.82 398.182,1398.84 398.518,1398.86C402.663,1399.1 414.374,1400.36 422.383,1400.25C421.637,1404.08 421.308,1408.83 421.53,1411.76C421.693,1413.92 423.531,1415.54 423.716,1417.86C422.217,1417.96 421.272,1419.04 419.964,1419.37C417.308,1420.03 411.917,1421.65 407.777,1421.82C402.895,1422.03 395.096,1421.34 390.676,1420.59C387.402,1420.04 384.412,1418.39 381.258,1417.36C381.258,1417.36 382.251,1416.68 382.447,1416.15C383.153,1414.25 384.043,1408.73 385.491,1405.95C386.815,1403.41 389.135,1400.66 391.138,1399.47C392.974,1398.38 395.381,1399.52 397.51,1398.82Z" style="fill:rgb(252,221,166);"/>
            </g>
        </g>
        <g transform="matrix(1.6582,0,0,2.17136,200.508,920.812)">
            <g transform="matrix(0.700509,0,0,0.567331,-160.142,-619.444)">
                <ellipse cx="403.355" cy="1381.75" rx="35.464" ry="30.923" style="fill:rgb(252,221,166);"/>
            </g>
        </g>
        <g transform="matrix(1.6582,0,0,2.17136,200.508,920.812)">
            <g transform="matrix(0.603062,0,0,0.539005,-120.919,-574.763)">
                <path d="M424.809,1382.43C426.65,1384.64 438.37,1387.06 442.964,1387.73C446.098,1388.19 450.776,1388.5 452.375,1386.44C453.975,1384.38 452.692,1379.06 452.56,1375.37C452.406,1371.06 452.591,1365.19 451.453,1360.61C450.331,1356.09 448.808,1350.98 445.732,1347.87C442.657,1344.77 437.546,1343.07 433,1341.97C426.541,1340.4 415.654,1339.08 406.981,1338.46C398.33,1337.85 388.19,1336.28 380.962,1338.28C374.153,1340.16 368.089,1344.99 363.617,1350.46C359.065,1356.02 355.805,1365.43 353.652,1371.68C351.859,1376.88 349.008,1384.99 350.7,1387.91C352.391,1390.84 360.223,1389.34 363.801,1389.21C366.676,1389.1 374.008,1388.79 372.169,1387.09C367.521,1382.8 368.035,1379.6 370.898,1374.7C373.42,1370.38 375.733,1362.93 380.593,1359.31C386.117,1355.2 401.328,1344.1 404.042,1350C406.704,1355.78 426.05,1362.24 430.696,1366.33C432.761,1368.14 432.859,1371.9 431.916,1374.48C430.935,1377.16 422.968,1380.23 424.809,1382.43Z" style="fill:rgb(223,104,8);"/>
            </g>
        </g>
        <g transform="matrix(1.6582,0,0,2.17136,200.508,920.812)">
            <g transform="matrix(0.603062,0,0,0.460542,-120.919,-471.125)">
                <path d="M500.96,1362.05C501.438,1361.4 502.36,1361.32 502.717,1360.66C503.841,1358.61 505.825,1351.93 507.7,1349.7C509.141,1347.99 511.758,1347.65 513.968,1347.29C516.396,1346.9 519.712,1346.3 522.269,1347.36C524.91,1348.45 528.18,1351.12 529.814,1353.85C531.449,1356.58 532.604,1360.38 532.076,1363.72C531.546,1367.07 529.09,1371.41 526.632,1373.95C524.185,1376.48 520.321,1378.33 517.332,1378.93C514.478,1379.52 510.216,1377.75 508.696,1377.61C508.479,1377.58 508.212,1378.05 508.212,1378.05C506.554,1375.49 504.208,1373.23 502.999,1370.56C501.795,1367.9 502.043,1364.82 500.96,1362.05Z" style="fill:rgb(252,221,166);"/>
            </g>
        </g>
        <g transform="matrix(1.6582,0,0,2.17136,200.508,920.812)">
            <g transform="matrix(0.628618,0,0,0.480058,-133.665,-507.113)">
                <path d="M436.734,1507.06C436.734,1507.06 436.19,1512.12 435.799,1514.63C435.271,1518.01 433.679,1523.06 433.568,1527.37C433.44,1532.41 434.205,1539.08 435.026,1544.87C435.899,1551.04 438.018,1557.81 438.81,1564.39C439.673,1571.56 439.473,1580.52 440.204,1587.89C440.892,1594.83 442.328,1602.49 443.191,1608.6C443.941,1613.91 443.158,1619.95 445.382,1624.53C447.606,1629.11 456.369,1633.26 456.535,1636.08C456.701,1638.9 448.747,1640.35 446.378,1641.46C445.093,1642.06 443.709,1642.46 442.318,1642.74C438.901,1643.43 431.41,1645.05 425.873,1645.61C419.826,1646.22 411.652,1646.58 406.036,1646.39C401.374,1646.23 393.635,1646.36 392.175,1644.48C390.714,1642.59 395.983,1638.4 397.273,1635.08C399.185,1630.15 402.239,1621.33 403.646,1614.92C404.964,1608.92 405.16,1601.62 405.717,1596.6C406.154,1592.67 406.969,1588.76 406.992,1584.81C407.018,1580.16 406.806,1572.45 405.877,1568.72C405.255,1566.22 402.531,1561.9 401.416,1562.42C400.3,1562.94 399.871,1568.68 399.185,1571.82C398.229,1576.2 397.103,1583.14 395.68,1588.71C393.821,1595.99 389.255,1606.28 388.032,1615.48C386.758,1625.06 389.493,1640.97 388.032,1646.23C387.247,1649.05 382.202,1646.99 379.269,1647.02C374.968,1647.08 367.905,1646.64 362.221,1646.55C356.008,1646.44 347.086,1646.55 341.987,1646.39C338.527,1646.28 332.082,1647.37 331.631,1645.59C331.18,1643.81 337.047,1639.23 339.279,1635.71C342.784,1630.19 349.343,1620.31 352.662,1612.45C355.875,1604.84 356.998,1596.51 359.194,1588.55C361.956,1578.54 366.55,1564.6 369.232,1552.38C371.914,1540.17 374.192,1522.44 375.286,1515.26C375.585,1513.3 375.798,1509.34 375.798,1509.34C396.324,1510.97 418.824,1510.89 436.734,1507.06Z" style="fill:rgb(10,29,69);"/>
            </g>
        </g>
        <g transform="matrix(1.6582,0,0,2.17136,200.508,920.812)">
            <g transform="matrix(0.603062,0,0,0.460542,-120.919,-471.125)">
                <path d="M293.126,1185.29C295.794,1185.26 298.528,1185.39 301.109,1184.71C304.922,1183.71 311.734,1182.4 316.004,1179.28C320.389,1176.09 324.707,1170.84 327.421,1165.53C330.276,1159.95 331.893,1152.09 333.13,1145.81C334.291,1139.92 334.857,1133.88 334.842,1127.87C334.818,1117.81 334.09,1095.52 332.984,1085.43C332.306,1079.24 331.012,1072.84 328.21,1067.37C325.407,1061.9 321.221,1056.02 316.169,1052.63C311.118,1049.24 304.256,1047.46 297.901,1047.03C290.254,1046.51 278.283,1047.55 270.29,1049.52C263.045,1051.31 255.205,1055.12 249.946,1058.86C245.265,1062.18 241.162,1066.73 238.736,1071.94C236.106,1077.58 234.964,1086.43 234.168,1092.7C233.462,1098.26 233.419,1103.93 233.961,1109.51C234.757,1117.71 237.144,1133.66 238.943,1141.9C240.223,1147.76 241.538,1153.87 244.756,1158.92C247.974,1163.97 252.943,1168.79 258.25,1172.21C264.962,1176.53 279.217,1182.69 285.03,1184.87C287.56,1185.82 290.446,1185.31 293.126,1185.29Z" style="fill:rgb(252,221,166);"/>
            </g>
        </g>
        <g transform="matrix(1.6582,0,0,2.17136,200.508,920.812)">
            <g transform="matrix(0.603062,0,0,0.460542,-120.919,-471.125)">
                <path d="M261.145,1117.42C261.259,1118.19 261.37,1119.11 260.933,1119.76C260.454,1120.46 259.179,1121.33 258.275,1121.67C257.411,1121.99 256.306,1122.24 255.512,1121.78C254.52,1121.19 252.542,1119.75 252.323,1118.16C251.951,1115.45 253.315,1107.85 253.28,1105.51C253.271,1104.91 252.434,1103.62 252.111,1104.13C251.278,1105.44 248.886,1113.02 248.284,1113.38C247.682,1113.73 248.538,1108.63 248.497,1106.26C248.444,1103.17 248.497,1095.57 247.965,1094.88C247.434,1094.19 246.07,1101.15 245.308,1102.11C244.805,1102.74 244.187,1100.78 243.395,1100.62C242.509,1100.45 240.786,1100.23 239.994,1101.05C239.055,1102.02 238.053,1104.54 237.761,1106.47C237.195,1110.22 236.592,1118.24 236.592,1123.58C236.592,1128.58 237.673,1135.07 237.761,1138.52C237.811,1140.44 238.063,1144.73 237.124,1144.26C236.185,1143.78 232.982,1138.85 232.128,1135.64C231.189,1132.12 231.898,1124.68 231.49,1123.1C231.192,1121.95 230.463,1125.57 229.683,1126.19C228.917,1126.8 226.825,1127.8 226.814,1126.82C226.796,1125.26 229.178,1120.26 229.577,1116.83C230.297,1110.64 230.442,1097.41 231.134,1089.69C231.711,1083.26 231.961,1075.46 233.729,1070.49C235.217,1066.3 238.277,1062.61 241.742,1059.83C246.134,1056.31 253.591,1052.08 260.077,1049.34C266.676,1046.55 274.028,1043.95 281.335,1043.09C288.642,1042.23 297.057,1042.18 303.922,1044.15C310.786,1046.12 318.204,1050.93 322.522,1054.92C326.208,1058.32 328.479,1063.47 329.83,1068.07C331.18,1072.66 330.981,1080.88 330.627,1082.49C330.272,1084.09 328.547,1079.37 327.704,1077.7C326.774,1075.86 325.799,1071.21 325.047,1071.46C324.294,1071.7 323.806,1079.94 323.186,1079.16C322.566,1078.39 323.076,1067.71 321.326,1066.81C319.577,1065.9 313.842,1073.92 312.69,1073.72C311.539,1073.52 315.768,1065.52 314.418,1065.61C313.067,1065.7 306.224,1073.96 304.586,1074.25C302.947,1074.54 305.228,1067.36 304.586,1067.34C303.944,1067.32 301.508,1074.29 300.733,1074.12C299.958,1073.94 302.269,1067.48 299.936,1066.28C296.636,1064.57 284.324,1063.42 280.937,1063.88C279.17,1064.13 281.244,1068.36 279.608,1069.07C277.305,1070.06 270.13,1068.76 267.119,1069.86C264.59,1070.79 261.977,1073.05 261.539,1075.71C260.83,1080.01 263.244,1090.17 262.867,1095.64C262.561,1100.09 259.567,1104.9 259.28,1108.53C259.041,1111.55 260.87,1115.55 261.145,1117.42Z" style="fill:rgb(58,23,4);"/>
            </g>
        </g>
        <g transform="matrix(1.6582,0,0,2.17136,200.508,920.812)">
            <g transform="matrix(0.603062,0,0,0.460542,-119.11,-470.665)">
                <path d="M216.339,1634.81C222.76,1630.79 254.411,1629.53 260.809,1635.13C267.208,1640.73 251.212,1660.94 254.731,1668.4C258.25,1675.87 274.192,1678.05 281.925,1679.92C292.03,1682.37 296.259,1690.62 294.402,1694.96C293.75,1696.48 296.587,1699.28 295.044,1699.89C292.05,1701.06 282.677,1701.87 276.436,1701.98C266.761,1702.16 246.444,1701.34 236.992,1700.94C231.224,1700.69 223.51,1701.63 219.726,1699.59C216.156,1697.67 214.376,1692.76 214.287,1688.71C214.18,1683.86 217.753,1675.38 219.086,1670.48C220.104,1666.73 222.583,1663.15 222.285,1659.28C221.827,1653.33 209.919,1638.84 216.339,1634.81Z" style="fill:rgb(24,30,41);"/>
            </g>
        </g>
        <g transform="matrix(1.6582,0,0,2.17136,200.508,920.812)">
            <g transform="matrix(0.603062,0,0,0.460542,-121.401,-473.151)">
                <path d="M342.934,1650.3C345.594,1650.08 348.266,1650.52 350.932,1650.62C355.304,1650.78 366.822,1648.86 369.168,1651.26C371.514,1653.66 365.169,1661.07 365.009,1665.01C364.868,1668.48 366.994,1671.68 368.208,1674.93C369.541,1678.5 372.847,1682.5 373.007,1686.45C373.167,1690.39 372.314,1696.74 369.168,1698.61C366.022,1700.47 359.153,1697.74 354.131,1697.65C348.479,1697.54 340.321,1697.97 335.256,1697.97C331.415,1697.97 325.125,1700.05 323.738,1697.65C322.352,1695.25 325.018,1687.52 326.937,1683.57C328.79,1679.76 333.069,1676.74 335.256,1673.97C337.014,1671.74 340.096,1669.77 340.055,1666.93C340.001,1663.25 334.456,1654.67 334.936,1651.9C335.399,1649.22 340.268,1650.51 342.934,1650.3Z" style="fill:rgb(8,121,23);"/>
            </g>
        </g>
        <g transform="matrix(1.6582,0,0,2.17136,200.508,920.812)">
            <g transform="matrix(0.603062,0,0,0.460542,-120.919,-471.125)">
                <path d="M431.911,1645.75C431.904,1645.78 431.897,1645.81 431.891,1645.84L431.897,1645.81L431.911,1645.75ZM419.505,1662.63C419.551,1662.63 419.597,1662.63 419.644,1662.63C419.597,1662.63 419.551,1662.63 419.505,1662.63ZM420.203,1662.62L420.118,1662.62L420.203,1662.62L420.231,1662.62L420.203,1662.62ZM419.095,1662.62C419.138,1662.62 419.181,1662.62 419.224,1662.62C419.181,1662.62 419.138,1662.62 419.095,1662.62ZM418.804,1662.61C418.86,1662.61 418.916,1662.61 418.972,1662.61C418.916,1662.61 418.86,1662.61 418.804,1662.61ZM424.212,1662.17L424.096,1662.2L424.212,1662.17L424.28,1662.16L424.212,1662.17ZM424.492,1662.12L424.371,1662.14L424.492,1662.12L424.632,1662.09L424.492,1662.12ZM415.747,1662.08L415.742,1662.08L415.693,1662.06C415.711,1662.07 415.729,1662.07 415.747,1662.08ZM426.246,1661.67C426.202,1661.68 426.159,1661.69 426.116,1661.71C426.159,1661.69 426.202,1661.68 426.246,1661.67ZM414.769,1661.62C414.79,1661.64 414.811,1661.65 414.833,1661.66C414.811,1661.65 414.79,1661.64 414.769,1661.62ZM414.657,1661.55L414.62,1661.53C414.632,1661.54 414.644,1661.54 414.657,1661.55ZM426.815,1661.48L426.75,1661.51L426.815,1661.48ZM427.061,1661.4L427.121,1661.38C427.101,1661.38 427.081,1661.39 427.061,1661.4ZM414.374,1661.34C414.391,1661.35 414.408,1661.36 414.425,1661.38L414.408,1661.36L414.374,1661.34ZM427.708,1661.14C427.679,1661.16 427.649,1661.17 427.62,1661.18C427.669,1661.16 427.717,1661.14 427.765,1661.12L427.708,1661.14ZM427.951,1661.04L427.915,1661.06L427.951,1661.04ZM428.097,1660.97C428.079,1660.98 428.061,1660.99 428.042,1661C428.061,1660.99 428.079,1660.98 428.097,1660.97ZM428.572,1660.74C428.537,1660.76 428.501,1660.78 428.466,1660.8C428.502,1660.78 428.537,1660.76 428.572,1660.74ZM413.806,1660.69L413.825,1660.72L413.806,1660.69ZM428.861,1660.58C428.794,1660.62 428.726,1660.66 428.656,1660.7C428.726,1660.66 428.794,1660.62 428.861,1660.58ZM413.662,1660.47C413.697,1660.53 413.732,1660.58 413.769,1660.64C413.733,1660.58 413.697,1660.53 413.662,1660.47ZM429.002,1660.5L428.973,1660.52L429.002,1660.5L429.016,1660.49L429.002,1660.5ZM429.41,1660.24C429.301,1660.31 429.186,1660.39 429.066,1660.46C429.186,1660.39 429.301,1660.31 429.41,1660.24ZM429.926,1659.82L429.892,1659.85C429.756,1659.98 429.606,1660.1 429.443,1660.21C429.619,1660.09 429.781,1659.96 429.926,1659.82ZM413.459,1660.12C413.468,1660.13 413.476,1660.15 413.484,1660.16C413.476,1660.15 413.468,1660.13 413.459,1660.12ZM413.271,1659.73L413.266,1659.72L413.243,1659.67C413.252,1659.69 413.261,1659.71 413.271,1659.73ZM430.037,1659.72C430.055,1659.7 430.072,1659.68 430.09,1659.66L430.058,1659.7L430.037,1659.72ZM412.992,1659.03L412.985,1659.01L412.965,1658.95C412.974,1658.98 412.983,1659 412.992,1659.03ZM430.769,1658.72L430.79,1658.68L430.769,1658.72ZM430.85,1658.56L430.86,1658.54L430.85,1658.56ZM412.759,1658.3C412.776,1658.36 412.793,1658.41 412.811,1658.47C412.793,1658.41 412.776,1658.36 412.759,1658.3ZM431.176,1657.68L431.162,1657.73C431.158,1657.74 431.153,1657.76 431.149,1657.77L431.142,1657.8C431.154,1657.76 431.165,1657.72 431.176,1657.68ZM431.249,1657.4L431.243,1657.43L431.249,1657.4L431.257,1657.37L431.249,1657.4ZM412.49,1657.21L412.501,1657.26L412.49,1657.21L412.469,1657.11L412.49,1657.21ZM431.371,1656.79C431.348,1656.93 431.322,1657.07 431.293,1657.21L431.282,1657.26C431.316,1657.1 431.345,1656.95 431.371,1656.79ZM431.443,1656.26C431.426,1656.41 431.406,1656.57 431.383,1656.71C431.406,1656.57 431.426,1656.41 431.443,1656.26ZM431.476,1655.93L431.48,1655.88L431.476,1655.93ZM412.161,1655.31C412.183,1655.47 412.206,1655.63 412.231,1655.79C412.206,1655.63 412.183,1655.47 412.161,1655.31ZM431.522,1655.23C431.516,1655.36 431.509,1655.5 431.5,1655.62C431.509,1655.5 431.516,1655.37 431.522,1655.23ZM412.14,1655.16L412.137,1655.14L412.118,1655C412.126,1655.06 412.133,1655.11 412.14,1655.16ZM431.529,1655.05L431.528,1655.07L431.529,1655.05L431.531,1655L431.529,1655.05ZM411.985,1653.86C412.004,1654.04 412.025,1654.23 412.046,1654.41C412.024,1654.23 412.004,1654.04 411.985,1653.86ZM431.495,1650.62C431.496,1650.8 431.498,1650.97 431.5,1651.15C431.498,1650.97 431.496,1650.8 431.495,1650.62ZM411.664,1649.81L411.669,1649.89L411.664,1649.81L411.653,1649.66L411.664,1649.81ZM411.596,1648.89L411.603,1648.98L411.596,1648.89L411.584,1648.74L411.596,1648.89ZM431.679,1647.06C431.63,1647.43 431.593,1647.8 431.566,1648.17C431.593,1647.8 431.63,1647.43 431.679,1647.06ZM411.523,1648.08L411.532,1648.17L411.523,1648.08L411.519,1648.04L411.523,1648.08ZM411.457,1647.53C411.476,1647.66 411.493,1647.8 411.51,1647.96C411.493,1647.8 411.476,1647.66 411.457,1647.53ZM411.414,1647.25C411.418,1647.27 411.422,1647.3 411.426,1647.32C411.422,1647.3 411.418,1647.27 411.414,1647.25ZM411.347,1646.91L411.362,1646.98L411.347,1646.91L411.336,1646.86L411.347,1646.91ZM431.765,1646.49C431.739,1646.64 431.715,1646.8 431.693,1646.95L431.712,1646.83C431.728,1646.71 431.746,1646.6 431.765,1646.49ZM431.844,1646.06L431.838,1646.09L431.844,1646.06L431.856,1646L431.844,1646.06ZM431.87,1645.93L431.857,1646L431.87,1645.93L431.881,1645.88L431.87,1645.93ZM427.241,1661.33L427.181,1661.35L427.241,1661.33ZM414.273,1661.24C414.135,1661.11 414.005,1660.96 413.882,1660.8C414.015,1660.97 414.156,1661.13 414.306,1661.27L414.273,1661.24ZM412.082,1654.71C412.088,1654.76 412.094,1654.81 412.1,1654.86L412.082,1654.71ZM411.929,1653.29C411.884,1652.82 411.845,1652.35 411.811,1651.89C411.849,1652.39 411.892,1652.91 411.942,1653.43L411.929,1653.29ZM431.955,1645.69C434.481,1646.66 438.976,1644.38 439.552,1646.86C440.13,1649.35 435.553,1656.67 435.393,1660.61C435.252,1664.09 437.378,1667.28 438.592,1670.53C439.925,1674.11 443.231,1678.1 443.391,1682.05C443.551,1686 442.698,1692.34 439.552,1694.21C436.406,1696.07 429.537,1693.34 424.515,1693.25C418.863,1693.14 410.705,1693.57 405.64,1693.57C401.799,1693.57 395.509,1695.65 394.122,1693.25C392.736,1690.85 395.402,1683.12 397.322,1679.17C399.174,1675.36 403.454,1672.35 405.64,1669.57C407.398,1667.34 410.48,1665.37 410.439,1662.53C410.385,1658.86 405.202,1650.28 405.32,1647.5C405.405,1645.48 409.264,1646.71 411.146,1645.86L411.384,1645.87C411.825,1645.87 412.775,1645.88 413.318,1645.9C415.013,1645.96 418.648,1646.25 421.316,1646.22C424.417,1646.18 428.367,1646.47 431.925,1645.68L431.955,1645.69Z" style="fill:rgb(8,121,23);"/>
            </g>
        </g>
        <g transform="matrix(1.6582,0,0,2.17136,200.508,920.812)">
            <g transform="matrix(0.622582,0,0,0.475448,-324.383,-461.566)">
                <path d="M619.036,1213.17C600.379,1213.17 585.232,1228.32 585.232,1246.98C585.232,1265.63 600.379,1280.78 619.036,1280.78C637.693,1280.78 652.84,1265.63 652.84,1246.98C652.84,1228.32 637.693,1213.17 619.036,1213.17ZM614.954,1274.48C610.432,1273.82 606.263,1272.06 602.723,1269.49L614.954,1257.24L614.954,1274.48ZM635.52,1269.36C631.944,1272 627.713,1273.81 623.117,1274.48L623.117,1257.14L635.52,1269.36ZM614.954,1219.47L614.954,1245.68L596.888,1263.78C593.339,1259.11 591.232,1253.29 591.232,1246.98C591.232,1233.02 601.542,1221.44 614.954,1219.47ZM623.117,1219.47C636.53,1221.44 646.84,1233.02 646.84,1246.98C646.84,1253.21 644.784,1258.97 641.312,1263.61L623.117,1245.68L623.117,1219.47Z" style="fill:rgb(15,165,56);"/>
            </g>
        </g>
        <g transform="matrix(1.6582,0,0,2.17136,200.508,920.812)">
            <g transform="matrix(0.603062,0,0,0.460542,-120.919,-471.125)">
                <path d="M305.045,1391.81C304.333,1391.31 304.234,1390.13 303.433,1389.96C302.057,1389.68 298.931,1390.67 296.79,1390.1C293.708,1389.29 287.546,1387.18 284.943,1385.08C282.742,1383.3 281.56,1380.28 281.169,1377.48C280.768,1374.6 281.436,1370.54 282.535,1367.82C283.591,1365.2 285.592,1362.97 287.76,1361.17C290.199,1359.14 293.818,1356.35 297.167,1355.65C300.515,1354.95 305.082,1356 307.85,1356.96C310.186,1357.77 312.537,1359.28 313.774,1361.42C315.213,1363.91 316.062,1369.38 316.486,1371.9C316.744,1373.43 315.777,1375.1 316.32,1376.55C316.894,1378.09 318.813,1379.53 319.932,1381.12C314.872,1384.55 309.925,1388.14 305.045,1391.81Z" style="fill:rgb(252,221,166);"/>
            </g>
        </g>
        <g transform="matrix(1.6582,0,0,2.17136,200.508,920.812)">
            <g transform="matrix(0.675195,-0.219829,0.287858,0.515628,-526.394,-525.355)">
                <path d="M104.759,1369.1C105.837,1368.82 106.923,1368.59 108.017,1368.41C109.11,1368.23 109.767,1368.14 109.985,1368.14C110.142,1368.14 110.22,1368.2 110.22,1368.33C110.22,1368.56 110.157,1368.8 110.032,1369.05C109.782,1369.77 109.657,1370.46 109.657,1371.11C109.66,1371.92 110.129,1373.03 111.065,1374.44C112.002,1375.85 112.47,1377.15 112.47,1378.36C112.47,1380.75 111.325,1383.05 109.036,1385.27C106.747,1387.49 104.376,1388.6 101.923,1388.6C100.86,1388.6 99.892,1388.32 99.017,1387.76C98.142,1387.19 97.704,1386.59 97.704,1385.95C97.704,1385.58 98.138,1384.86 99.005,1383.82C99.872,1382.77 100.493,1382.25 100.868,1382.25C101.368,1382.25 101.813,1382.89 102.204,1384.17C102.595,1385.45 103.267,1386.09 104.22,1386.09C105.173,1386.09 106.067,1385.65 106.903,1384.77C107.739,1383.88 108.157,1382.93 108.157,1381.92C108.158,1380.93 107.627,1379.62 106.564,1377.98C105.501,1376.34 104.798,1374.97 104.454,1373.86C102.642,1376.78 100.345,1379.77 97.563,1382.83L97.024,1382.83L97.024,1380.72C100.852,1376.65 103.431,1372.77 104.759,1369.1Z" style="fill:rgb(0,87,184);fill-rule:nonzero;"/>
                <path d="M142.048,1382.83C139.985,1384.79 138.259,1386.23 136.868,1387.16C135.477,1388.09 134.227,1388.55 133.118,1388.55C131.884,1388.55 130.935,1388.06 130.27,1387.08C129.606,1386.09 129.274,1384.76 129.274,1383.07C127.556,1384.96 126.017,1386.35 124.657,1387.25C123.298,1388.15 121.97,1388.6 120.673,1388.6C119.485,1388.6 118.532,1388.11 117.813,1387.12C117.095,1386.14 116.735,1384.8 116.735,1383.11C116.735,1379.86 117.829,1375.29 120.017,1369.38L126.277,1368.13C123.703,1375.62 122.413,1380.43 122.407,1382.55C122.407,1384.05 122.97,1384.8 124.095,1384.8C124.907,1384.8 125.915,1384.14 127.118,1382.82C128.321,1381.5 129.071,1380.35 129.368,1379.36L132.438,1369.38L138.818,1368.09C137.346,1372.79 136.335,1376.1 135.787,1378C135.238,1379.91 134.964,1381.25 134.964,1382.01C134.964,1383.48 135.465,1384.22 136.465,1384.22C137.279,1384.22 138.483,1383.47 140.078,1381.99L142.048,1380.14L142.048,1382.83Z" style="fill:rgb(0,87,184);fill-rule:nonzero;"/>
                <path d="M153.236,1372.12C154.36,1370.76 155.422,1369.76 156.421,1369.11C157.42,1368.46 158.529,1368.14 159.747,1368.14C161.324,1368.14 162.608,1368.74 163.6,1369.95C164.591,1371.16 165.087,1372.76 165.087,1374.72C165.087,1378.18 163.895,1381.35 161.512,1384.23C159.129,1387.11 156.538,1388.55 153.741,1388.55C152.959,1388.55 152.342,1388.47 151.889,1388.29C151.436,1388.12 150.842,1387.72 150.107,1387.1C148.983,1392.05 148.257,1396.02 147.93,1399.01L141.977,1400.06C143.087,1392.75 144.501,1385.34 146.22,1377.84C144.157,1380.54 142.767,1382.21 142.048,1382.83L141.509,1382.83L141.509,1380.72C144.477,1377.52 146.923,1373.63 148.845,1369.05L154.143,1368.09L153.236,1372.12ZM150.525,1384.66C151.338,1386 152.238,1386.68 153.223,1386.68C154.802,1386.68 156.198,1385.48 157.41,1383.08C158.622,1380.68 159.227,1378.34 159.227,1376.06C159.227,1374.86 158.982,1373.88 158.49,1373.14C157.998,1372.4 157.361,1372.03 156.58,1372.03C155.971,1372.03 155.331,1372.3 154.659,1372.85C153.988,1373.4 153.48,1374.03 153.136,1374.76C152.793,1375.49 152.402,1376.76 151.965,1378.57L150.525,1384.66Z" style="fill:rgb(0,87,184);fill-rule:nonzero;"/>
                <g transform="matrix(1,1.66533e-16,1.66533e-16,1,23.1951,0.0639891)">
                    <path d="M153.236,1372.12C154.36,1370.76 155.422,1369.76 156.421,1369.11C157.42,1368.46 158.529,1368.14 159.747,1368.14C161.324,1368.14 162.608,1368.74 163.6,1369.95C164.591,1371.16 165.087,1372.76 165.087,1374.72C165.087,1378.18 163.895,1381.35 161.512,1384.23C159.129,1387.11 156.538,1388.55 153.741,1388.55C152.959,1388.55 152.342,1388.47 151.889,1388.29C151.436,1388.12 150.842,1387.72 150.107,1387.1C148.983,1392.05 148.257,1396.02 147.93,1399.01L141.977,1400.06C143.087,1392.75 144.501,1385.34 146.22,1377.84C144.157,1380.54 142.767,1382.21 142.048,1382.83L141.509,1382.83L141.509,1380.72C144.477,1377.52 146.923,1373.63 148.845,1369.05L154.143,1368.09L153.236,1372.12ZM150.525,1384.66C151.338,1386 152.238,1386.68 153.223,1386.68C154.802,1386.68 156.198,1385.48 157.41,1383.08C158.622,1380.68 159.227,1378.34 159.227,1376.06C159.227,1374.86 158.982,1373.88 158.49,1373.14C157.998,1372.4 157.361,1372.03 156.58,1372.03C155.971,1372.03 155.331,1372.3 154.659,1372.85C153.988,1373.4 153.48,1374.03 153.136,1374.76C152.793,1375.49 152.402,1376.76 151.965,1378.57L150.525,1384.66Z" style="fill:rgb(0,87,184);fill-rule:nonzero;"/>
                </g>
                <path d="M211.118,1382.83C210.321,1383.54 209.548,1384.03 208.798,1384.32C208.048,1384.61 207.454,1384.76 207.017,1384.76C205.892,1384.76 204.774,1384.32 203.665,1383.44C201.415,1386.85 198.837,1388.55 195.931,1388.55C194.118,1388.55 192.649,1387.87 191.524,1386.51C190.399,1385.15 189.837,1383.35 189.837,1381.1C189.837,1377.54 191.102,1374.48 193.634,1371.92C196.165,1369.37 199.188,1368.09 202.704,1368.09C204.032,1368.09 205.005,1368.24 205.622,1368.52C206.239,1368.81 206.618,1369.15 206.759,1369.54C206.899,1369.93 206.97,1370.43 206.97,1371.02C206.97,1373.94 206.173,1377.53 204.579,1381.78C205.376,1382.51 206.212,1382.88 207.087,1382.88C208.134,1382.88 209.477,1381.97 211.118,1380.14L211.118,1382.83ZM203.384,1369.73C203.149,1369.64 202.813,1369.59 202.376,1369.59C200.345,1369.59 198.755,1370.65 197.606,1372.78C196.458,1374.9 195.884,1377.39 195.884,1380.23C195.884,1381.81 196.134,1383.04 196.634,1383.91C197.134,1384.79 197.829,1385.22 198.72,1385.22C199.829,1385.22 201.032,1384.2 202.329,1382.15C200.86,1380.31 200.126,1378.33 200.126,1376.2C200.126,1373.7 201.212,1371.54 203.384,1369.73Z" style="fill:rgb(0,87,184);fill-rule:nonzero;"/>
                <path d="M228.626,1382.83C224.704,1386.68 221.681,1388.6 219.556,1388.6C218.602,1388.6 217.798,1388.2 217.142,1387.39C216.485,1386.59 216.157,1385.59 216.157,1384.4C216.157,1382.2 217.337,1379.25 219.696,1375.54C218.54,1376.14 217.274,1376.55 215.899,1376.79C214.884,1378.66 213.29,1380.68 211.118,1382.83L210.579,1382.83L210.579,1380.72C211.798,1379.46 212.899,1378.1 213.884,1376.65C212.54,1376.05 211.868,1375.17 211.868,1374C211.868,1372.79 212.278,1371.51 213.099,1370.14C213.919,1368.77 215.048,1368.09 216.485,1368.09C217.704,1368.09 218.313,1368.72 218.313,1369.97C218.313,1370.95 217.962,1372.36 217.259,1374.18C219.852,1373.9 222.118,1371.92 224.056,1368.23L226.188,1368.14L224.009,1374.14C223.102,1376.67 222.517,1378.39 222.251,1379.31C221.985,1380.22 221.852,1381.03 221.852,1381.73C221.852,1382.39 222.005,1382.91 222.31,1383.3C222.614,1383.69 223.024,1383.89 223.54,1383.89C224.102,1383.89 224.642,1383.7 225.157,1383.31C225.673,1382.93 226.829,1381.87 228.626,1380.14L228.626,1382.83Z" style="fill:rgb(0,87,184);fill-rule:nonzero;"/>
                <path d="M242.126,1382.83C240.157,1384.79 238.454,1386.23 237.017,1387.16C235.579,1388.09 234.212,1388.55 232.915,1388.55C231.571,1388.55 230.481,1387.99 229.645,1386.85C228.81,1385.72 228.392,1384.23 228.392,1382.39C228.392,1380.76 228.792,1378.62 229.594,1375.95L230.588,1372.4L228.79,1372.5L229.541,1368.82L231.769,1368.72L233.97,1361.41L240.231,1360.13L237.808,1368.28L241.118,1368.09L240.344,1371.7L236.708,1371.98L235.147,1377.23C234.605,1379.06 234.333,1380.51 234.333,1381.59C234.333,1382.32 234.517,1382.92 234.885,1383.38C235.253,1383.85 235.726,1384.08 236.305,1384.08C237.103,1384.08 237.893,1383.82 238.676,1383.31C239.458,1382.81 240.608,1381.75 242.126,1380.14L242.126,1382.83Z" style="fill:rgb(0,87,184);fill-rule:nonzero;"/>
                <path d="M122.571,1430.83C120.509,1432.79 118.782,1434.23 117.392,1435.16C116.001,1436.09 114.751,1436.55 113.642,1436.55C112.407,1436.55 111.458,1436.06 110.794,1435.08C110.13,1434.09 109.798,1432.76 109.798,1431.07C108.079,1432.96 106.54,1434.35 105.181,1435.25C103.821,1436.15 102.493,1436.6 101.196,1436.6C100.009,1436.6 99.056,1436.11 98.337,1435.12C97.618,1434.14 97.259,1432.8 97.259,1431.11C97.259,1427.86 98.352,1423.29 100.54,1417.38L106.8,1416.13C104.226,1423.62 102.936,1428.43 102.931,1430.55C102.931,1432.05 103.493,1432.8 104.618,1432.8C105.431,1432.8 106.438,1432.14 107.642,1430.82C108.845,1429.5 109.595,1428.35 109.892,1427.36L112.962,1417.38L119.342,1416.09C117.869,1420.79 116.858,1424.1 116.31,1426C115.762,1427.91 115.488,1429.25 115.488,1430.01C115.488,1431.48 115.988,1432.22 116.989,1432.22C117.802,1432.22 119.006,1431.47 120.601,1429.99L122.571,1428.14L122.571,1430.83Z" style="fill:rgb(255,215,0);fill-rule:nonzero;"/>
                <path d="M145.563,1430.79C142.017,1434.66 139.071,1436.6 136.727,1436.6C135.602,1436.6 134.657,1436.2 133.892,1435.41C133.126,1434.63 132.743,1433.65 132.743,1432.5C132.743,1431.95 132.837,1431.13 133.024,1430.04C133.212,1428.94 133.306,1428.33 133.306,1428.18C133.306,1427.47 132.899,1427.1 132.087,1427.07C131.274,1427.05 130.868,1426.73 130.868,1426.12C130.868,1425.59 130.981,1425.22 131.208,1425.01C131.435,1424.8 131.86,1424.69 132.485,1424.69C134.204,1424.65 135.485,1424.29 136.329,1423.63C137.173,1422.96 137.595,1422.18 137.595,1421.27C137.595,1420.63 137.364,1420.1 136.903,1419.69C136.442,1419.27 135.852,1419.07 135.134,1419.07C134.743,1419.07 134.368,1419.11 134.009,1419.21C133.634,1419.3 133.274,1419.44 132.931,1419.63C132.571,1419.83 132.196,1420.09 131.806,1420.4C131.431,1420.73 131.032,1421.13 130.61,1421.6C130.204,1422.05 129.759,1422.59 129.274,1423.22C129.024,1423.54 128.712,1425.08 128.337,1427.83C128.149,1429.26 128.024,1430.57 127.962,1431.77C127.899,1432.9 127.892,1434.17 127.938,1435.59L122.618,1436.48C122.415,1435.29 122.313,1433.84 122.313,1432.12C122.313,1427.43 122.946,1422.96 124.212,1418.69C125.477,1414.43 127.548,1410.04 130.423,1405.54C132.657,1404.64 134.587,1403.93 136.212,1403.42C137.837,1402.91 138.743,1402.66 138.931,1402.66C139.306,1402.66 139.673,1403.04 140.032,1403.79C140.392,1404.54 140.571,1405.33 140.571,1406.15C140.571,1407.54 140.11,1409.06 139.188,1410.71C138.267,1412.36 136.837,1414.35 134.899,1416.68C136.227,1416.29 137.329,1416.09 138.204,1416.09C139.657,1416.09 140.845,1416.46 141.767,1417.2C142.688,1417.95 143.149,1418.89 143.149,1420.03C143.149,1422.62 140.813,1424.53 136.142,1425.75C137.97,1426.17 138.884,1427.24 138.884,1428.96L138.743,1431.07C138.743,1432.02 139.188,1432.5 140.079,1432.5C140.704,1432.5 141.415,1432.19 142.212,1431.58C143.009,1430.97 144.126,1429.81 145.563,1428.09L145.563,1430.79ZM130.188,1419.49L131.735,1417.78C136.313,1412.62 138.602,1408.99 138.602,1406.88C138.602,1405.91 138.181,1405.43 137.337,1405.43C136.368,1405.43 135.255,1406.57 133.997,1408.85C132.739,1411.13 131.47,1414.68 130.188,1419.49Z" style="fill:rgb(255,215,0);fill-rule:nonzero;"/>
                <path d="M163.071,1430.83C159.149,1434.68 156.126,1436.6 154.001,1436.6C153.048,1436.6 152.243,1436.2 151.587,1435.39C150.931,1434.59 150.602,1433.59 150.602,1432.4C150.602,1430.2 151.782,1427.25 154.142,1423.54C152.985,1424.14 151.72,1424.55 150.345,1424.79C149.329,1426.66 147.735,1428.68 145.563,1430.83L145.024,1430.83L145.024,1428.72C146.243,1427.46 147.345,1426.1 148.329,1424.65C146.985,1424.05 146.313,1423.17 146.313,1422C146.313,1420.79 146.724,1419.51 147.544,1418.14C148.364,1416.77 149.493,1416.09 150.931,1416.09C152.149,1416.09 152.759,1416.72 152.759,1417.97C152.759,1418.95 152.407,1420.36 151.704,1422.18C154.298,1421.9 156.563,1419.92 158.501,1416.23L160.634,1416.14L158.454,1422.14C157.548,1424.67 156.962,1426.39 156.696,1427.31C156.431,1428.22 156.298,1429.03 156.298,1429.73C156.298,1430.39 156.45,1430.91 156.755,1431.3C157.06,1431.69 157.47,1431.89 157.985,1431.89C158.548,1431.89 159.087,1431.7 159.602,1431.31C160.118,1430.93 161.274,1429.87 163.071,1428.14L163.071,1430.83Z" style="fill:rgb(255,215,0);fill-rule:nonzero;"/>
                <path d="M188.102,1430.83C185.602,1433.21 183.813,1434.76 182.735,1435.47C181.657,1436.19 180.626,1436.55 179.642,1436.55C177.173,1436.55 176.009,1434.37 176.149,1430.01C174.587,1432.25 173.145,1433.9 171.825,1434.96C170.505,1436.02 169.142,1436.55 167.735,1436.55C166.36,1436.55 165.192,1435.91 164.231,1434.62C163.27,1433.33 162.79,1431.75 162.79,1429.87C162.79,1427.53 163.435,1425.29 164.724,1423.17C166.013,1421.04 167.665,1419.33 169.681,1418.01C171.696,1416.7 173.477,1416.04 175.024,1416.04C176.977,1416.04 178.345,1416.94 179.126,1418.74L183.916,1416.09L185.231,1416.09L183.164,1422.96C182.099,1426.41 181.567,1428.78 181.567,1430.06C181.567,1431.4 182.043,1432.08 182.996,1432.08C183.605,1432.08 184.276,1431.75 185.01,1431.1C185.744,1430.45 186.775,1429.47 188.102,1428.14L188.102,1430.83ZM170.946,1432.12C172.509,1432.12 173.981,1430.79 175.364,1428.13C176.747,1425.46 177.438,1423.01 177.438,1420.76C177.438,1419.88 177.243,1419.2 176.852,1418.7C176.462,1418.21 175.938,1417.97 175.282,1417.97C173.72,1417.97 172.239,1419.29 170.841,1421.95C169.442,1424.61 168.743,1427.05 168.743,1429.29C168.743,1430.13 168.95,1430.81 169.364,1431.34C169.778,1431.86 170.306,1432.12 170.946,1432.12Z" style="fill:rgb(255,215,0);fill-rule:nonzero;"/>
                <path d="M199.142,1406.97C199.142,1410.72 197.759,1412.6 194.993,1412.6C193.649,1412.6 192.501,1412.19 191.548,1411.38C192.454,1410.01 193.157,1408.46 193.657,1406.74C194.892,1407.51 195.884,1407.89 196.634,1407.89C197.477,1407.89 198.313,1407.58 199.142,1406.97ZM199.61,1430.83C195.954,1434.68 193.22,1436.6 191.407,1436.6C190.407,1436.6 189.563,1436.09 188.876,1435.06C188.188,1434.04 187.845,1432.76 187.845,1431.21C187.845,1427.88 188.97,1423.27 191.22,1417.38L197.173,1416.14L197.454,1416.14L195.11,1423.47C194.142,1426.51 193.657,1428.67 193.657,1429.97C193.657,1430.48 193.77,1430.9 193.997,1431.22C194.224,1431.54 194.509,1431.7 194.852,1431.7C195.462,1431.7 196.075,1431.48 196.692,1431.03C197.31,1430.59 198.282,1429.62 199.61,1428.14L199.61,1430.83Z" style="fill:rgb(255,215,0);fill-rule:nonzero;"/>
                <path d="M222.626,1430.83C219.017,1434.65 215.923,1436.55 213.345,1436.55C212.298,1436.55 211.454,1436.18 210.813,1435.45C210.173,1434.72 209.852,1433.73 209.852,1432.5C209.852,1430.83 210.54,1428.27 211.915,1424.83C212.649,1422.99 213.017,1421.82 213.017,1421.32C213.017,1420.82 212.821,1420.57 212.431,1420.57C212.212,1420.57 211.923,1420.68 211.563,1420.9C211.235,1421.11 210.852,1421.42 210.415,1421.81C210.024,1422.17 209.587,1422.61 209.102,1423.12C208.681,1423.56 208.227,1424.06 207.743,1424.62L206.431,1426.15C205.852,1426.85 205.493,1427.59 205.352,1428.37C205.118,1429.7 204.962,1430.92 204.884,1432.03C204.837,1432.86 204.813,1433.97 204.813,1435.38L199.634,1436.6C199.462,1434.49 199.376,1432.92 199.376,1431.89C199.376,1429.37 199.669,1426.99 200.255,1424.74C200.841,1422.49 201.782,1419.96 203.079,1417.15L208.798,1416.04C207.595,1419.28 206.806,1421.83 206.431,1423.68C208.991,1420.83 211.024,1418.85 212.53,1417.74C214.035,1416.64 215.372,1416.09 216.542,1416.09C217.338,1416.09 218.001,1416.39 218.531,1416.99C219.061,1417.59 219.326,1418.35 219.326,1419.25C219.326,1420.75 218.655,1423.22 217.311,1426.65C216.39,1429.01 215.929,1430.55 215.929,1431.25C215.929,1432.19 216.313,1432.66 217.08,1432.66C218.224,1432.66 220.072,1431.15 222.626,1428.14L222.626,1430.83Z" style="fill:rgb(255,215,0);fill-rule:nonzero;"/>
                <path d="M240.134,1430.83C238.149,1432.79 236.368,1434.23 234.79,1435.16C233.212,1436.09 231.47,1436.55 229.563,1436.55C227.438,1436.55 225.724,1435.87 224.419,1434.51C223.114,1433.15 222.462,1431.36 222.462,1429.15C222.462,1425.83 223.61,1422.84 225.907,1420.16C228.204,1417.48 230.751,1416.14 233.548,1416.14C235.001,1416.14 236.165,1416.51 237.04,1417.26C237.915,1418.01 238.352,1419 238.352,1420.22C238.352,1423.45 234.915,1426.08 228.04,1428.09C228.665,1431.14 230.298,1432.66 232.938,1432.66C233.97,1432.66 234.954,1432.38 235.892,1431.83C236.829,1431.27 238.243,1430.04 240.134,1428.14L240.134,1430.83ZM227.852,1426.5C231.852,1425.37 233.852,1423.29 233.852,1420.26C233.852,1418.76 233.306,1418.01 232.212,1418.01C231.181,1418.01 230.196,1418.8 229.259,1420.37C228.321,1421.94 227.852,1423.98 227.852,1426.5Z" style="fill:rgb(255,215,0);fill-rule:nonzero;"/>
            </g>
        </g>
    </g>
</svg>
