<svg viewBox="0 0 457 674" xmlns="http://www.w3.org/2000/svg" xml:space="preserve" style="fill-rule:evenodd;clip-rule:evenodd;stroke-linecap:round;stroke-linejoin:round;stroke-miterlimit:1.5"><ellipse cx="349.009" cy="1606.57" rx="161.555" ry="13.514" style="fill:#d4e0d4" transform="matrix(1.06074 0 0 1.37237 -106.2246518 -1549.65362208)"/><path d="M431.746 1627.85c.32 8.79.961 26.36-1.311 31.97-1.555 3.85-9.828 3.85-12.318 1.71s-2.052-9.65-2.621-14.55c-.655-5.63-3.315-15.93-1.31-19.26 2.004-3.33 9.56-1.6 13.337-.73" style="fill:#fcdda6" transform="matrix(-1.22984 -.1779 -.14317 .9897 1034.5871006 -953.9670624)"/><path d="M415.322 1645.86c-.314-6.05-4.004-15.07-1.136-18.14 2.868-3.07-.274-4.03 18.346-.26l-.786.39c.172 4.74-.064 11.42.297 17.83-2.862.79-6.041.5-8.537.54-2.148.03-5.072-.26-6.436-.32-.583-.03-1.748-.04-1.748-.04Z" style="fill:#fcdda6" transform="matrix(1.24264 0 0 1 -181.1089638 -1042.52598)"/><path d="M338.169 1390.66c-.643 8.59-2.382 17.16-1.984 25.77.413 8.94 3.408 18.51 4.464 27.85 1.068 9.46 1.277 19.25 1.946 28.87.703 10.11 1.588 21.19 2.271 31.79.702 10.92 2.04 22.47 1.946 33.73-.108 12.95-1.784 32.58-2.595 43.96-.579 8.12-1.248 16.25-2.271 24.32-1.135 8.98-3.189 21.47-4.541 29.52-1.056 6.3-.54 15.3-3.568 18.82-3.027 3.51-10.326 4.54-14.596 2.27-4.271-2.27-9.151-9.73-11.029-15.9-2.379-7.81-2.585-20.61-3.244-30.98-.702-11.05-1.189-26.16-.973-35.35.156-6.64 2.481-13.15 2.271-19.79-.216-6.81-2.641-14.01-3.568-21.08-1.568-11.95-4.325-37.41-5.839-50.6-1.092-9.52-2-22.17-3.244-28.55-.676-3.47-2.919-11.3-4.216-9.73-1.298 1.57-2.97 12.68-3.568 19.14-1.19 12.84-2.595 43.76-3.569 57.9-.618 8.98-.571 18.08-2.27 26.92-1.838 9.57-5.743 20.36-8.758 30.49-3.136 10.54-6.596 22.92-10.056 32.76-3.137 8.93-7.649 19.3-10.704 26.28-2.318 5.29-4.406 12.97-7.622 15.57-3.03 2.44-9.608 3.29-11.678 0-2.919-4.65-4.294-18.52-5.838-27.9-1.568-9.51-4.271-19.79-3.568-29.19.702-9.41 6.601-17.88 7.785-27.25 1.351-10.7.42-24.65.324-36.98-.108-13.92-.973-33.16-.973-46.54 0-11.25.194-22.52.973-33.74.865-12.46 3.42-31.57 4.217-41.03.44-5.23.317-10.48.563-15.72 10.779 4.55 21.435 3.77 32.274 4.4 14.283.84 41.552 2.3 53.425.63 6.852-.96 12.682-5.1 17.813-10.66Z" style="fill:#81a4ec" transform="matrix(1 0 0 1 -76.1614858 -1042.52598)"/><path d="M216.339 1634.81c6.421-4.02 38.072-5.28 44.47.32 6.399 5.6-9.597 25.81-6.078 33.27 3.519 7.47 19.461 9.65 27.194 11.52 10.105 2.45 14.334 10.7 12.477 15.04-.652 1.52 2.185 4.32.642 4.93-2.994 1.17-12.367 1.98-18.608 2.09-9.675.18-29.992-.64-39.444-1.04-5.768-.25-13.482.69-17.266-1.35-3.57-1.92-5.35-6.83-5.439-10.88-.107-4.85 3.466-13.33 4.799-18.23 1.018-3.75 3.497-7.33 3.199-11.2-.458-5.95-12.366-20.44-5.946-24.47Z" style="fill:#181e29" transform="matrix(1 0 0 1 11.21520754 -1057.0632352)"/><path d="M234.657 1396.29c.619-23.31.558-51.67 2.032-69.91 1.077-13.35 15.677-33.79 6.811-39.58-8.866-5.78-45.682 4.33-60.008 4.87-8.66.33-24.76 3.13-25.949-1.62-1.19-4.76 12.171-18.22 18.813-26.93 7.839-10.27 18.327-25.84 28.22-34.7 8.99-8.06 23.895-13.95 31.14-18.49 4.27-2.68 8.558-5.86 12.326-8.76 3.545-2.73 7.996-5.72 10.276-8.63 1.947-2.49 2.571-5.8 3.401-8.84 1.247-4.58 1.091-15.72 4.082-18.62 2.99-2.91 9.248.71 13.86 1.19 4.762.49 10.36 1.2 14.71 1.78 3.807.51 8.674 1.13 11.395 1.7 1.702.36 4.157.14 4.931 1.7 1.404 2.82 2.216 11.17 3.49 15.23 1.001 3.2 2.962 6.73 4.152 9.14.9 1.82 1.32 4.15 2.989 5.31 2.27 1.58 7.027 2.93 10.629 4.15 4.567 1.55 12.843 2.36 16.774 5.15 3.659 2.61 5.586 7.31 6.809 11.63 1.246 4.4.372 9.85.664 14.78.388 6.53 1.384 16.76 1.661 24.41.259 7.17.138 15.68 0 21.51-.107 4.49-1.824 9.07-.83 13.45 1.079 4.76 4.961 10.5 7.307 15.11 2.155 4.24 4.179 8.56 6.768 12.54 2.816 4.33 7.03 9.55 10.13 13.46 2.712 3.41 5.896 6.72 8.47 9.96 2.439 3.07 7.806 6.5 6.976 9.47-.831 2.96-7.127 8.76-11.958 8.3-4.955-.47-12.29-7.2-17.77-11.13-5.305-3.8-10.906-8.02-15.113-12.45-3.989-4.2-7.714-9.05-10.131-14.12-2.417-5.07-3.643-19.89-4.372-16.29-.729 3.6-.208 27.46 0 37.89.164 8.24 1.078 18.07 1.245 24.7.127 5.04-.173 12.29-.243 15.13-.015.63-.175 1.88-.175 1.88-5.131 5.56-10.961 9.7-17.813 10.66-11.873 1.67-39.142.21-53.425-.63-10.839-.63-21.495.15-32.274-4.4Z" style="fill:#380033" transform="matrix(1 0 0 1 -76.1614858 -1042.52598)"/><path d="m280.413 1263.52-210.08 30.82-5.676 134.1 219.81-34.46-4.054-130.46Z" style="fill:#f7f6f5;stroke:#9d9090;stroke-width:.81px" transform="matrix(1.23208 0 0 1.23209 -79.1628278 -1342.02383616)"/><path d="M370.587 1495.15c.177-13.99 2.928-33.68 1.162-41.96-.978-4.58-7.961-4.96-11.758-7.7-6.825-4.94-21.059-14.58-29.193-21.9-7.306-6.57-15.323-16.71-19.615-22-2.422-2.99-4.103-5.15-6.138-9.78 4.881-3.67 9.808-7.28 14.887-10.69 0 0 .967 1.12 1.536 1.58 2.028 1.65 6.937 5.74 10.629 8.3 6.214 4.32 19.418 12.93 26.656 17.61 5.534 3.57 13.023 9 16.773 10.46 1.859.72 3.747 2.3 5.732-1.71 3.154 1.03 6.144 2.68 9.418 3.23 4.42.75 12.219 1.44 17.101 1.23 4.14-.17 9.531-1.79 12.187-2.45 1.308-.33 2.683-.76 3.752-1.51.915-.24.816.36 1.114.13 3.178-2.4 12.099-9.53 17.958-14.53 5.954-5.08 11.494-11.05 17.77-15.94 6.781-5.29 16.185-11.54 22.918-15.78 5.637-3.56 5.379-3.5 17.484-9.69 1.083 2.77.835 5.85 2.039 8.51 1.209 2.67.319 1.91 5.213 7.49-1.654 3.4-2.896 7.12-5.329 10.02-2.936 3.5-7.956 7.59-12.289 10.96-5.287 4.11-13.342 9.45-19.431 13.7-5.68 3.96-12.373 8.25-17.106 11.79-3.933 2.94-9.183 5.03-11.293 9.47-2.575 5.41-3.017 15.29-4.152 23-1.443 9.8-2.995 23.87-4.506 35.8-18.67 3.98-42.124 4.08-63.519 2.36Z" style="fill:#f99393" transform="matrix(1 0 0 1 -76.1614858 -1042.52598)"/><path d="M397.51 1398.82s.672.02 1.008.04c4.145.24 15.856 1.5 23.865 1.39-.746 3.83-1.075 8.58-.853 11.51.163 2.16 2.001 3.78 2.186 6.1-1.499.1-2.444 1.18-3.752 1.51-2.656.66-8.047 2.28-12.187 2.45-4.882.21-12.681-.48-17.101-1.23-3.274-.55-6.264-2.2-9.418-3.23 0 0 .993-.68 1.189-1.21.706-1.9 1.596-7.42 3.044-10.2 1.324-2.54 3.644-5.29 5.647-6.48 1.836-1.09 4.243.05 6.372-.65Z" style="fill:#fcdda6" transform="matrix(1 0 0 1 -76.1614858 -1042.52598)"/><ellipse cx="403.355" cy="1381.75" rx="35.464" ry="30.923" style="fill:#fcdda6" transform="matrix(1.16158 0 0 1.23188 -141.2010644 -1364.57992384)"/><path d="M424.809 1382.43c1.841 2.21 13.561 4.63 18.155 5.3 3.134.46 7.812.77 9.411-1.29 1.6-2.06.317-7.38.185-11.07-.154-4.31.031-10.18-1.107-14.76-1.122-4.52-2.645-9.63-5.721-12.74-3.075-3.1-8.186-4.8-12.732-5.9-6.459-1.57-17.346-2.89-26.019-3.51-8.651-.61-18.791-2.18-26.019-.18-6.809 1.88-12.873 6.71-17.345 12.18-4.552 5.56-7.812 14.97-9.965 21.22-1.793 5.2-4.644 13.31-2.952 16.23 1.691 2.93 9.523 1.43 13.101 1.3 2.875-.11 10.207-.42 8.368-2.12-4.648-4.29-4.134-7.49-1.271-12.39 2.522-4.32 4.835-11.77 9.695-15.39 5.524-4.11 20.735-15.21 23.449-9.31 2.662 5.78 22.008 12.24 26.654 16.33 2.065 1.81 2.163 5.57 1.22 8.15-.981 2.68-8.948 5.75-7.107 7.95Z" style="fill:#df6808" transform="matrix(1 0 0 1.17037 -76.1614858 -1267.56138768)"/><path d="M500.96 1362.05c.478-.65 1.4-.73 1.757-1.39 1.124-2.05 3.108-8.73 4.983-10.96 1.441-1.71 4.058-2.05 6.268-2.41 2.428-.39 5.744-.99 8.301.07 2.641 1.09 5.911 3.76 7.545 6.49 1.635 2.73 2.79 6.53 2.262 9.87-.53 3.35-2.986 7.69-5.444 10.23-2.447 2.53-6.311 4.38-9.3 4.98-2.854.59-7.116-1.18-8.636-1.32-.217-.03-.484.44-.484.44-1.658-2.56-4.004-4.82-5.213-7.49-1.204-2.66-.956-5.74-2.039-8.51Z" style="fill:#fcdda6" transform="matrix(1 0 0 1 -76.1614858 -1042.52598)"/><path d="M436.734 1507.06s-.544 5.06-.935 7.57c-.528 3.38-2.12 8.43-2.231 12.74-.128 5.04.637 11.71 1.458 17.5.873 6.17 2.992 12.94 3.784 19.52.863 7.17.663 16.13 1.394 23.5.688 6.94 2.124 14.6 2.987 20.71.75 5.31-.033 11.35 2.191 15.93 2.224 4.58 10.987 8.73 11.153 11.55.166 2.82-7.788 4.27-10.157 5.38-1.285.6-2.669 1-4.06 1.28-3.417.69-10.908 2.31-16.445 2.87-6.047.61-14.221.97-19.837.78-4.662-.16-12.401-.03-13.861-1.91-1.461-1.89 3.808-6.08 5.098-9.4 1.912-4.93 4.966-13.75 6.373-20.16 1.318-6 1.514-13.3 2.071-18.32.437-3.93 1.252-7.84 1.275-11.79.026-4.65-.186-12.36-1.115-16.09-.622-2.5-3.346-6.82-4.461-6.3-1.116.52-1.545 6.26-2.231 9.4-.956 4.38-2.082 11.32-3.505 16.89-1.859 7.28-6.425 17.57-7.648 26.77-1.274 9.58 1.461 25.49 0 30.75-.785 2.82-5.83.76-8.763.79-4.301.06-11.364-.38-17.048-.47-6.213-.11-15.135 0-20.234-.16-3.46-.11-9.905.98-10.356-.8-.451-1.78 5.416-6.36 7.648-9.88 3.505-5.52 10.064-15.4 13.383-23.26 3.213-7.61 4.336-15.94 6.532-23.9 2.762-10.01 7.356-23.95 10.038-36.17 2.682-12.21 4.96-29.94 6.054-37.12.299-1.96.512-5.92.512-5.92 20.526 1.63 43.026 1.55 60.936-2.28Z" style="fill:#0a1d45" transform="matrix(1.04237 0 0 1.04238 -97.296903 -1120.66888368)"/><path d="M293.126 1185.29c2.668-.03 5.402.1 7.983-.58 3.813-1 10.625-2.31 14.895-5.43 4.385-3.19 8.703-8.44 11.417-13.75 2.855-5.58 4.472-13.44 5.709-19.72 1.161-5.89 1.727-11.93 1.712-17.94-.024-10.06-.752-32.35-1.858-42.44-.678-6.19-1.972-12.59-4.774-18.06-2.803-5.47-6.989-11.35-12.041-14.74-5.051-3.39-11.913-5.17-18.268-5.6-7.647-.52-19.618.52-27.611 2.49-7.245 1.79-15.085 5.6-20.344 9.34-4.681 3.32-8.784 7.87-11.21 13.08-2.63 5.64-3.772 14.49-4.568 20.76-.706 5.56-.749 11.23-.207 16.81.796 8.2 3.183 24.15 4.982 32.39 1.28 5.86 2.595 11.97 5.813 17.02 3.218 5.05 8.187 9.87 13.494 13.29 6.712 4.32 20.967 10.48 26.78 12.66 2.53.95 5.416.44 8.096.42Z" style="fill:#fcdda6" transform="matrix(1 0 0 1 -76.1614858 -1042.52598)"/><path d="M261.145 1117.42c.114.77.225 1.69-.212 2.34-.479.7-1.754 1.57-2.658 1.91-.864.32-1.969.57-2.763.11-.992-.59-2.97-2.03-3.189-3.62-.372-2.71.992-10.31.957-12.65-.009-.6-.846-1.89-1.169-1.38-.833 1.31-3.225 8.89-3.827 9.25-.602.35.254-4.75.213-7.12-.053-3.09 0-10.69-.532-11.38-.531-.69-1.895 6.27-2.657 7.23-.503.63-1.121-1.33-1.913-1.49-.886-.17-2.609-.39-3.401.43-.939.97-1.941 3.49-2.233 5.42-.566 3.75-1.169 11.77-1.169 17.11 0 5 1.081 11.49 1.169 14.94.05 1.92.302 6.21-.637 5.74-.939-.48-4.142-5.41-4.996-8.62-.939-3.52-.23-10.96-.638-12.54-.298-1.15-1.027 2.47-1.807 3.09-.766.61-2.858 1.61-2.869.63-.018-1.56 2.364-6.56 2.763-9.99.72-6.19.865-19.42 1.557-27.14.577-6.43.827-14.23 2.595-19.2 1.488-4.19 4.548-7.88 8.013-10.66 4.392-3.52 11.849-7.75 18.335-10.49 6.599-2.79 13.951-5.39 21.258-6.25 7.307-.86 15.722-.91 22.587 1.06 6.864 1.97 14.282 6.78 18.6 10.77 3.686 3.4 5.957 8.55 7.308 13.15 1.35 4.59 1.151 12.81.797 14.42-.355 1.6-2.08-3.12-2.923-4.79-.93-1.84-1.905-6.49-2.657-6.24-.753.24-1.241 8.48-1.861 7.7-.62-.77-.11-11.45-1.86-12.35-1.749-.91-7.484 7.11-8.636 6.91-1.151-.2 3.078-8.2 1.728-8.11-1.351.09-8.194 8.35-9.832 8.64-1.639.29.642-6.89 0-6.91-.642-.02-3.078 6.95-3.853 6.78-.775-.18 1.536-6.64-.797-7.84-3.3-1.71-15.612-2.86-18.999-2.4-1.767.25.307 4.48-1.329 5.19-2.303.99-9.478-.31-12.489.79-2.529.93-5.142 3.19-5.58 5.85-.709 4.3 1.705 14.46 1.328 19.93-.306 4.45-3.3 9.26-3.587 12.89-.239 3.02 1.59 7.02 1.865 8.89Z" style="fill:#3a1704" transform="matrix(1 0 0 1 -76.1614858 -1042.52598)"/><path d="M216.339 1634.81c6.421-4.02 38.072-5.28 44.47.32 6.399 5.6-9.597 25.81-6.078 33.27 3.519 7.47 19.461 9.65 27.194 11.52 10.105 2.45 14.334 10.7 12.477 15.04-.652 1.52 2.185 4.32.642 4.93-2.994 1.17-12.367 1.98-18.608 2.09-9.675.18-29.992-.64-39.444-1.04-5.768-.25-13.482.69-17.266-1.35-3.57-1.92-5.35-6.83-5.439-10.88-.107-4.85 3.466-13.33 4.799-18.23 1.018-3.75 3.497-7.33 3.199-11.2-.458-5.95-12.366-20.44-5.946-24.47Z" style="fill:#181e29" transform="matrix(1 0 0 1 -73.161802 -1041.5271544)"/><path d="M342.934 1650.3c2.66-.22 5.332.22 7.998.32 4.372.16 15.89-1.76 18.236.64s-3.999 9.81-4.159 13.75c-.141 3.47 1.985 6.67 3.199 9.92 1.333 3.57 4.639 7.57 4.799 11.52.16 3.94-.693 10.29-3.839 12.16-3.146 1.86-10.015-.87-15.037-.96-5.652-.11-13.81.32-18.875.32-3.841 0-10.131 2.08-11.518-.32-1.386-2.4 1.28-10.13 3.199-14.08 1.853-3.81 6.132-6.83 8.319-9.6 1.758-2.23 4.84-4.2 4.799-7.04-.054-3.68-5.599-12.26-5.119-15.03.463-2.68 5.332-1.39 7.998-1.6Z" style="fill:#087917" transform="matrix(1 0 0 1 -76.9607382 -1046.92515536)"/><path d="M431.911 1645.75c-.007.03-.014.06-.02.09l.006-.03.014-.06Zm-12.406 16.88h.139-.139Zm.698-.01h-.085.113-.028Zm-1.108 0h.129-.129Zm-.291-.01h.168-.168Zm5.408-.44-.116.03.116-.03.068-.01-.068.01Zm.28-.05-.121.02.121-.02.14-.03-.14.03Zm-8.745-.04h-.005l-.049-.02c.018.01.036.01.054.02Zm10.499-.41c-.044.01-.087.02-.13.04.043-.02.086-.03.13-.04Zm-11.477-.05c.021.02.042.03.064.04-.022-.01-.043-.02-.064-.04Zm-.112-.07-.037-.02c.012.01.024.01.037.02Zm12.158-.07-.065.03.065-.03Zm.246-.08.06-.02c-.02 0-.04.01-.06.02Zm-12.687-.06c.017.01.034.02.051.04l-.017-.02-.034-.02Zm13.334-.2c-.029.02-.059.03-.088.04.049-.02.097-.04.145-.06l-.057.02Zm.243-.1-.036.02.036-.02Zm.146-.07c-.018.01-.036.02-.055.03.019-.01.037-.02.055-.03Zm.475-.23c-.035.02-.071.04-.106.06.036-.02.071-.04.106-.06Zm-14.766-.05.019.03-.019-.03Zm15.055-.11c-.067.04-.135.08-.205.12.07-.04.138-.08.205-.12Zm-15.199-.11c.035.06.07.11.107.17-.036-.06-.072-.11-.107-.17Zm15.34.03-.029.02.029-.02.014-.01-.014.01Zm.408-.26c-.109.07-.224.15-.344.22.12-.07.235-.15.344-.22Zm.516-.42-.034.03c-.136.13-.286.25-.449.36.176-.12.338-.25.483-.39Zm-16.467.3c.009.01.017.03.025.04-.008-.01-.016-.03-.025-.04Zm-.188-.39-.005-.01-.023-.05c.009.02.018.04.028.06Zm16.766-.01c.018-.02.035-.04.053-.06l-.032.04-.021.02Zm-17.045-.69-.007-.02-.02-.06c.009.03.018.05.027.08Zm17.777-.31.021-.04-.021.04Zm.081-.16.01-.02-.01.02Zm-18.091-.26c.017.06.034.11.052.17-.018-.06-.035-.11-.052-.17Zm18.417-.62-.014.05c-.004.01-.009.03-.013.04l-.007.03c.012-.04.023-.08.034-.12Zm.073-.28-.006.03.006-.03.008-.03-.008.03Zm-18.759-.19.011.05-.011-.05-.021-.1.021.1Zm18.881-.42c-.023.14-.049.28-.078.42l-.011.05c.034-.16.063-.31.089-.47Zm.072-.53c-.017.15-.037.31-.06.45.023-.14.043-.3.06-.45Zm.033-.33.004-.05-.004.05Zm-19.315-.62c.022.16.045.32.07.48-.025-.16-.048-.32-.07-.48Zm19.361-.08c-.006.13-.013.27-.022.39.009-.12.016-.25.022-.39Zm-19.382-.07-.003-.02-.019-.14c.008.06.015.11.022.16Zm19.389-.11-.001.02.001-.02.002-.05-.002.05Zm-19.544-1.19c.019.18.04.37.061.55-.022-.18-.042-.37-.061-.55Zm19.51-3.24c.001.18.003.35.005.53-.002-.18-.004-.35-.005-.53Zm-19.831-.81.005.08-.005-.08-.011-.15.011.15Zm-.068-.92.007.09-.007-.09-.012-.15.012.15Zm20.083-1.83c-.049.37-.086.74-.113 1.11.027-.37.064-.74.113-1.11Zm-20.156 1.02.009.09-.009-.09-.004-.04.004.04Zm-.066-.55c.019.13.036.27.053.43-.017-.16-.034-.3-.053-.43Zm-.043-.28c.004.02.008.05.012.07-.004-.02-.008-.05-.012-.07Zm-.067-.34.015.07-.015-.07-.011-.05.011.05Zm20.418-.42c-.026.15-.05.31-.072.46l.019-.12c.016-.12.034-.23.053-.34Zm.079-.43-.006.03.006-.03.012-.06-.012.06Zm.026-.13-.013.07.013-.07.011-.05-.011.05Zm-4.629 15.4-.06.02.06-.02Zm-12.968-.09c-.138-.13-.268-.28-.391-.44.133.17.274.33.424.47l-.033-.03Zm-2.191-6.53.018.15-.018-.15Zm-.153-1.42c-.045-.47-.084-.94-.118-1.4.038.5.081 1.02.131 1.54l-.013-.14Zm20.026-7.6c2.526.97 7.021-1.31 7.597 1.17.578 2.49-3.999 9.81-4.159 13.75-.141 3.48 1.985 6.67 3.199 9.92 1.333 3.58 4.639 7.57 4.799 11.52.16 3.95-.693 10.29-3.839 12.16-3.146 1.86-10.015-.87-15.037-.96-5.652-.11-13.81.32-18.875.32-3.841 0-10.131 2.08-11.518-.32-1.386-2.4 1.28-10.13 3.2-14.08 1.852-3.81 6.132-6.82 8.318-9.6 1.758-2.23 4.84-4.2 4.799-7.04-.054-3.67-5.237-12.25-5.119-15.03.085-2.02 3.944-.79 5.826-1.64l.238.01c.441 0 1.391.01 1.934.03 1.695.06 5.33.35 7.998.32 3.101-.04 7.051.25 10.609-.54l.03.01Z" style="fill:#087917" transform="matrix(1 0 0 1 -76.1614858 -1042.52598)"/><path d="M619.036 1213.17c-18.657 0-33.804 15.15-33.804 33.81 0 18.65 15.147 33.8 33.804 33.8 18.657 0 33.804-15.15 33.804-33.8 0-18.66-15.147-33.81-33.804-33.81Zm-4.082 61.31c-4.522-.66-8.691-2.42-12.231-4.99l12.231-12.25v17.24Zm20.566-5.12c-3.576 2.64-7.807 4.45-12.403 5.12v-17.34l12.403 12.22Zm-20.566-49.89v26.21l-18.066 18.1c-3.549-4.67-5.656-10.49-5.656-16.8 0-13.96 10.31-25.54 23.722-27.51Zm8.163 0c13.413 1.97 23.723 13.55 23.723 27.51 0 6.23-2.056 11.99-5.528 16.63l-18.195-17.93v-26.21Z" style="fill:#0fa538" transform="matrix(1.03237 0 0 1.03237 -413.5454906 -1021.76994976)"/><path d="M305.045 1391.81c-.712-.5-.811-1.68-1.612-1.85-1.376-.28-4.502.71-6.643.14-3.082-.81-9.244-2.92-11.847-5.02-2.201-1.78-3.383-4.8-3.774-7.6-.401-2.88.267-6.94 1.366-9.66 1.056-2.62 3.057-4.85 5.225-6.65 2.439-2.03 6.058-4.82 9.407-5.52 3.348-.7 7.915.35 10.683 1.31 2.336.81 4.687 2.32 5.924 4.46 1.439 2.49 2.288 7.96 2.712 10.48.258 1.53-.709 3.2-.166 4.65.574 1.54 2.493 2.98 3.612 4.57-5.06 3.43-10.007 7.02-14.887 10.69Z" style="fill:#fcdda6" transform="matrix(1 0 0 1 -76.1614858 -1042.52598)"/><path d="M104.759 1369.1c1.078-.28 2.164-.51 3.258-.69 1.093-.18 1.75-.27 1.968-.27.157 0 .235.06.235.19 0 .23-.063.47-.188.72-.25.72-.375 1.41-.375 2.06.003.81.472 1.92 1.408 3.33.937 1.41 1.405 2.71 1.405 3.92 0 2.39-1.145 4.69-3.434 6.91-2.289 2.22-4.66 3.33-7.113 3.33-1.063 0-2.031-.28-2.906-.84-.875-.57-1.313-1.17-1.313-1.81 0-.37.434-1.09 1.301-2.13.867-1.05 1.488-1.57 1.863-1.57.5 0 .945.64 1.336 1.92.391 1.28 1.063 1.92 2.016 1.92.953 0 1.847-.44 2.683-1.32.836-.89 1.254-1.84 1.254-2.85.001-.99-.53-2.3-1.593-3.94-1.063-1.64-1.766-3.01-2.11-4.12-1.812 2.92-4.109 5.91-6.891 8.97h-.539v-2.11c3.828-4.07 6.407-7.95 7.735-11.62ZM142.048 1382.83c-2.063 1.96-3.789 3.4-5.18 4.33-1.391.93-2.641 1.39-3.75 1.39-1.234 0-2.183-.49-2.848-1.47-.664-.99-.996-2.32-.996-4.01-1.718 1.89-3.257 3.28-4.617 4.18-1.359.9-2.687 1.35-3.984 1.35-1.188 0-2.141-.49-2.86-1.48-.718-.98-1.078-2.32-1.078-4.01 0-3.25 1.094-7.82 3.282-13.73l6.26-1.25c-2.574 7.49-3.864 12.3-3.87 14.42 0 1.5.563 2.25 1.688 2.25.812 0 1.82-.66 3.023-1.98 1.203-1.32 1.953-2.47 2.25-3.46l3.07-9.98 6.38-1.29c-1.472 4.7-2.483 8.01-3.031 9.91-.549 1.91-.823 3.25-.823 4.01 0 1.47.501 2.21 1.501 2.21.814 0 2.018-.75 3.613-2.23l1.97-1.85v2.69Z" style="fill:#0057b8;fill-rule:nonzero" transform="matrix(1.1196 -.47733 .47733 1.11961 -748.5201308 -1160.2788328)"/><path d="M153.236 1372.12c1.124-1.36 2.186-2.36 3.185-3.01.999-.65 2.108-.97 3.326-.97 1.577 0 2.861.6 3.853 1.81.991 1.21 1.487 2.81 1.487 4.77 0 3.46-1.192 6.63-3.575 9.51s-4.974 4.32-7.771 4.32c-.782 0-1.399-.08-1.852-.26-.453-.17-1.047-.57-1.782-1.19-1.124 4.95-1.85 8.92-2.177 11.91l-5.953 1.05c1.11-7.31 2.524-14.72 4.243-22.22-2.063 2.7-3.453 4.37-4.172 4.99h-.539v-2.11c2.968-3.2 5.414-7.09 7.336-11.67l5.298-.96-.907 4.03Zm-2.711 12.54c.813 1.34 1.713 2.02 2.698 2.02 1.579 0 2.975-1.2 4.187-3.6 1.212-2.4 1.817-4.74 1.817-7.02 0-1.2-.245-2.18-.737-2.92-.492-.74-1.129-1.11-1.91-1.11-.609 0-1.249.27-1.921.82-.671.55-1.179 1.18-1.523 1.91-.343.73-.734 2-1.171 3.81l-1.44 6.09Z" style="fill:#0057b8;fill-rule:nonzero" transform="matrix(1.1196 -.47733 .47733 1.11961 -748.5201308 -1160.2788328)"/><path d="M153.236 1372.12c1.124-1.36 2.186-2.36 3.185-3.01.999-.65 2.108-.97 3.326-.97 1.577 0 2.861.6 3.853 1.81.991 1.21 1.487 2.81 1.487 4.77 0 3.46-1.192 6.63-3.575 9.51s-4.974 4.32-7.771 4.32c-.782 0-1.399-.08-1.852-.26-.453-.17-1.047-.57-1.782-1.19-1.124 4.95-1.85 8.92-2.177 11.91l-5.953 1.05c1.11-7.31 2.524-14.72 4.243-22.22-2.063 2.7-3.453 4.37-4.172 4.99h-.539v-2.11c2.968-3.2 5.414-7.09 7.336-11.67l5.298-.96-.907 4.03Zm-2.711 12.54c.813 1.34 1.713 2.02 2.698 2.02 1.579 0 2.975-1.2 4.187-3.6 1.212-2.4 1.817-4.74 1.817-7.02 0-1.2-.245-2.18-.737-2.92-.492-.74-1.129-1.11-1.91-1.11-.609 0-1.249.27-1.921.82-.671.55-1.179 1.18-1.523 1.91-.343.73-.734 2-1.171 3.81l-1.44 6.09Z" style="fill:#0057b8;fill-rule:nonzero" transform="matrix(1.1196 -.47733 .47733 1.11961 -722.52015951 -1171.27885802)"/><path d="M211.118 1382.83c-.797.71-1.57 1.2-2.32 1.49-.75.29-1.344.44-1.781.44-1.125 0-2.243-.44-3.352-1.32-2.25 3.41-4.828 5.11-7.734 5.11-1.813 0-3.282-.68-4.407-2.04-1.125-1.36-1.687-3.16-1.687-5.41 0-3.56 1.265-6.62 3.797-9.18 2.531-2.55 5.554-3.83 9.07-3.83 1.328 0 2.301.15 2.918.43.617.29.996.63 1.137 1.02.14.39.211.89.211 1.48 0 2.92-.797 6.51-2.391 10.76.797.73 1.633 1.1 2.508 1.1 1.047 0 2.39-.91 4.031-2.74v2.69Zm-7.734-13.1c-.235-.09-.571-.14-1.008-.14-2.031 0-3.621 1.06-4.77 3.19-1.148 2.12-1.722 4.61-1.722 7.45 0 1.58.25 2.81.75 3.68.5.88 1.195 1.31 2.086 1.31 1.109 0 2.312-1.02 3.609-3.07-1.469-1.84-2.203-3.82-2.203-5.95 0-2.5 1.086-4.66 3.258-6.47Z" style="fill:#0057b8;fill-rule:nonzero" transform="matrix(1.1196 -.47733 .47733 1.11961 -748.5201308 -1160.2788328)"/><path d="M228.626 1382.83c-3.922 3.85-6.945 5.77-9.07 5.77-.954 0-1.758-.4-2.414-1.21-.657-.8-.985-1.8-.985-2.99 0-2.2 1.18-5.15 3.539-8.86-1.156.6-2.422 1.01-3.797 1.25-1.015 1.87-2.609 3.89-4.781 6.04h-.539v-2.11c1.219-1.26 2.32-2.62 3.305-4.07-1.344-.6-2.016-1.48-2.016-2.65 0-1.21.41-2.49 1.231-3.86.82-1.37 1.949-2.05 3.386-2.05 1.219 0 1.828.63 1.828 1.88 0 .98-.351 2.39-1.054 4.21 2.593-.28 4.859-2.26 6.797-5.95l2.132-.09-2.179 6c-.907 2.53-1.492 4.25-1.758 5.17-.266.91-.399 1.72-.399 2.42 0 .66.153 1.18.458 1.57.304.39.714.59 1.23.59.562 0 1.102-.19 1.617-.58.516-.38 1.672-1.44 3.469-3.17v2.69Z" style="fill:#0057b8;fill-rule:nonzero" transform="matrix(1.1196 -.47733 .47733 1.11961 -748.5201308 -1160.2788328)"/><path d="M242.126 1382.83c-1.969 1.96-3.672 3.4-5.109 4.33-1.438.93-2.805 1.39-4.102 1.39-1.344 0-2.434-.56-3.27-1.7-.835-1.13-1.253-2.62-1.253-4.46 0-1.63.4-3.77 1.202-6.44l.994-3.55-1.798.1.751-3.68 2.228-.1 2.201-7.31 6.261-1.28-2.423 8.15 3.31-.19-.774 3.61-3.636.28-1.561 5.25c-.542 1.83-.814 3.28-.814 4.36 0 .73.184 1.33.552 1.79.368.47.841.7 1.42.7.798 0 1.588-.26 2.371-.77.782-.5 1.932-1.56 3.45-3.17v2.69Z" style="fill:#0057b8;fill-rule:nonzero" transform="matrix(1.1196 -.47733 .47733 1.11961 -748.5201308 -1160.2788328)"/><path d="M122.571 1430.83c-2.062 1.96-3.789 3.4-5.179 4.33-1.391.93-2.641 1.39-3.75 1.39-1.235 0-2.184-.49-2.848-1.47-.664-.99-.996-2.32-.996-4.01-1.719 1.89-3.258 3.28-4.617 4.18-1.36.9-2.688 1.35-3.985 1.35-1.187 0-2.14-.49-2.859-1.48-.719-.98-1.078-2.32-1.078-4.01 0-3.25 1.093-7.82 3.281-13.73l6.26-1.25c-2.574 7.49-3.864 12.3-3.869 14.42 0 1.5.562 2.25 1.687 2.25.813 0 1.82-.66 3.024-1.98 1.203-1.32 1.953-2.47 2.25-3.46l3.07-9.98 6.38-1.29c-1.473 4.7-2.484 8.01-3.032 9.91-.548 1.91-.822 3.25-.822 4.01 0 1.47.5 2.21 1.501 2.21.813 0 2.017-.75 3.612-2.23l1.97-1.85v2.69Z" style="fill:gold;fill-rule:nonzero" transform="matrix(1.1196 -.47733 .47733 1.11961 -748.5201308 -1160.2788328)"/><path d="M145.563 1430.79c-3.546 3.87-6.492 5.81-8.836 5.81-1.125 0-2.07-.4-2.835-1.19-.766-.78-1.149-1.76-1.149-2.91 0-.55.094-1.37.281-2.46.188-1.1.282-1.71.282-1.86 0-.71-.407-1.08-1.219-1.11-.813-.02-1.219-.34-1.219-.95 0-.53.113-.9.34-1.11.227-.21.652-.32 1.277-.32 1.719-.04 3-.4 3.844-1.06.844-.67 1.266-1.45 1.266-2.36 0-.64-.231-1.17-.692-1.58-.461-.42-1.051-.62-1.769-.62-.391 0-.766.04-1.125.14-.375.09-.735.23-1.078.42-.36.2-.735.46-1.125.77-.375.33-.774.73-1.196 1.2-.406.45-.851.99-1.336 1.62-.25.32-.562 1.86-.937 4.61-.188 1.43-.313 2.74-.375 3.94-.063 1.13-.07 2.4-.024 3.82l-5.32.89c-.203-1.19-.305-2.64-.305-4.36 0-4.69.633-9.16 1.899-13.43 1.265-4.26 3.336-8.65 6.211-13.15 2.234-.9 4.164-1.61 5.789-2.12s2.531-.76 2.719-.76c.375 0 .742.38 1.101 1.13.36.75.539 1.54.539 2.36 0 1.39-.461 2.91-1.383 4.56-.921 1.65-2.351 3.64-4.289 5.97 1.328-.39 2.43-.59 3.305-.59 1.453 0 2.641.37 3.563 1.11.921.75 1.382 1.69 1.382 2.83 0 2.59-2.336 4.5-7.007 5.72 1.828.42 2.742 1.49 2.742 3.21l-.141 2.11c0 .95.445 1.43 1.336 1.43.625 0 1.336-.31 2.133-.92.797-.61 1.914-1.77 3.351-3.49v2.7Zm-15.375-11.3 1.547-1.71c4.578-5.16 6.867-8.79 6.867-10.9 0-.97-.421-1.45-1.265-1.45-.969 0-2.082 1.14-3.34 3.42-1.258 2.28-2.527 5.83-3.809 10.64Z" style="fill:gold;fill-rule:nonzero" transform="matrix(1.1196 -.47733 .47733 1.11961 -748.5201308 -1160.2788328)"/><path d="M163.071 1430.83c-3.922 3.85-6.945 5.77-9.07 5.77-.953 0-1.758-.4-2.414-1.21-.656-.8-.985-1.8-.985-2.99 0-2.2 1.18-5.15 3.54-8.86-1.157.6-2.422 1.01-3.797 1.25-1.016 1.87-2.61 3.89-4.782 6.04h-.539v-2.11c1.219-1.26 2.321-2.62 3.305-4.07-1.344-.6-2.016-1.48-2.016-2.65 0-1.21.411-2.49 1.231-3.86.82-1.37 1.949-2.05 3.387-2.05 1.218 0 1.828.63 1.828 1.88 0 .98-.352 2.39-1.055 4.21 2.594-.28 4.859-2.26 6.797-5.95l2.133-.09-2.18 6c-.906 2.53-1.492 4.25-1.758 5.17-.265.91-.398 1.72-.398 2.42 0 .66.152 1.18.457 1.57.305.39.715.59 1.23.59.563 0 1.102-.19 1.617-.58.516-.38 1.672-1.44 3.469-3.17v2.69Z" style="fill:gold;fill-rule:nonzero" transform="matrix(1.1196 -.47733 .47733 1.11961 -748.5201308 -1160.2788328)"/><path d="M188.102 1430.83c-2.5 2.38-4.289 3.93-5.367 4.64-1.078.72-2.109 1.08-3.093 1.08-2.469 0-3.633-2.18-3.493-6.54-1.562 2.24-3.004 3.89-4.324 4.95-1.32 1.06-2.683 1.59-4.09 1.59-1.375 0-2.543-.64-3.504-1.93-.961-1.29-1.441-2.87-1.441-4.75 0-2.34.645-4.58 1.934-6.7 1.289-2.13 2.941-3.84 4.957-5.16 2.015-1.31 3.796-1.97 5.343-1.97 1.953 0 3.321.9 4.102 2.7l4.79-2.65h1.315l-2.067 6.87c-1.065 3.45-1.597 5.82-1.597 7.1 0 1.34.476 2.02 1.429 2.02.609 0 1.28-.33 2.014-.98.734-.65 1.765-1.63 3.092-2.96v2.69Zm-17.156 1.29c1.563 0 3.035-1.33 4.418-3.99 1.383-2.67 2.074-5.12 2.074-7.37 0-.88-.195-1.56-.586-2.06-.39-.49-.914-.73-1.57-.73-1.562 0-3.043 1.32-4.441 3.98-1.399 2.66-2.098 5.1-2.098 7.34 0 .84.207 1.52.621 2.05.414.52.942.78 1.582.78Z" style="fill:gold;fill-rule:nonzero" transform="matrix(1.1196 -.47733 .47733 1.11961 -748.5201308 -1160.2788328)"/><path d="M199.142 1406.97c0 3.75-1.383 5.63-4.149 5.63-1.344 0-2.492-.41-3.445-1.22.906-1.37 1.609-2.92 2.109-4.64 1.235.77 2.227 1.15 2.977 1.15.843 0 1.679-.31 2.508-.92Zm.468 23.86c-3.656 3.85-6.39 5.77-8.203 5.77-1 0-1.844-.51-2.531-1.54-.688-1.02-1.031-2.3-1.031-3.85 0-3.33 1.125-7.94 3.375-13.83l5.953-1.24h.281l-2.344 7.33c-.968 3.04-1.453 5.2-1.453 6.5 0 .51.113.93.34 1.25.227.32.512.48.855.48.61 0 1.223-.22 1.84-.67.618-.44 1.59-1.41 2.918-2.89v2.69Z" style="fill:gold;fill-rule:nonzero" transform="matrix(1.1196 -.47733 .47733 1.11961 -748.5201308 -1160.2788328)"/><path d="M222.626 1430.83c-3.609 3.82-6.703 5.72-9.281 5.72-1.047 0-1.891-.37-2.532-1.1-.64-.73-.961-1.72-.961-2.95 0-1.67.688-4.23 2.063-7.67.734-1.84 1.102-3.01 1.102-3.51s-.196-.75-.586-.75c-.219 0-.508.11-.868.33-.328.21-.711.52-1.148.91-.391.36-.828.8-1.313 1.31-.421.44-.875.94-1.359 1.5l-1.312 1.53c-.579.7-.938 1.44-1.079 2.22-.234 1.33-.39 2.55-.468 3.66-.047.83-.071 1.94-.071 3.35l-5.179 1.22c-.172-2.11-.258-3.68-.258-4.71 0-2.52.293-4.9.879-7.15.586-2.25 1.527-4.78 2.824-7.59l5.719-1.11c-1.203 3.24-1.992 5.79-2.367 7.64 2.56-2.85 4.593-4.83 6.099-5.94 1.505-1.1 2.842-1.65 4.012-1.65.796 0 1.459.3 1.989.9.53.6.795 1.36.795 2.26 0 1.5-.671 3.97-2.015 7.4-.921 2.36-1.382 3.9-1.382 4.6 0 .94.384 1.41 1.151 1.41 1.144 0 2.992-1.51 5.546-4.52v2.69Z" style="fill:gold;fill-rule:nonzero" transform="matrix(1.1196 -.47733 .47733 1.11961 -748.5201308 -1160.2788328)"/><path d="M240.134 1430.83c-1.985 1.96-3.766 3.4-5.344 4.33-1.578.93-3.32 1.39-5.227 1.39-2.125 0-3.839-.68-5.144-2.04-1.305-1.36-1.957-3.15-1.957-5.36 0-3.32 1.148-6.31 3.445-8.99 2.297-2.68 4.844-4.02 7.641-4.02 1.453 0 2.617.37 3.492 1.12.875.75 1.312 1.74 1.312 2.96 0 3.23-3.437 5.86-10.312 7.87.625 3.05 2.258 4.57 4.898 4.57 1.032 0 2.016-.28 2.954-.83.937-.56 2.351-1.79 4.242-3.69v2.69Zm-12.282-4.33c4-1.13 6-3.21 6-6.24 0-1.5-.546-2.25-1.64-2.25-1.031 0-2.016.79-2.953 2.36-.938 1.57-1.407 3.61-1.407 6.13Z" style="fill:gold;fill-rule:nonzero" transform="matrix(1.1196 -.47733 .47733 1.11961 -748.5201308 -1160.2788328)"/></svg>