<svg xmlns="http://www.w3.org/2000/svg" width="539.773" height="144.571" overflow="visible" xml:space="preserve"><g fill-rule="evenodd" clip-rule="evenodd" fill="#006254"><path d="M428.544 4.731h44.145l-5.218 25.661c13.485-21.097 28.928-27.177 47.848-28.484 6.524-.211 14.572.653 21.747 1.739l-8.487 33.71c-6.955-1.74-14.347-3.044-20.871-3.044-26.095-.432-45.454 17.171-52.198 42.394l-15.223 57.855h-45.668C405.927 91.286 420.936 44.1 428.544 4.731z"/><path d="M303.025 62.396c7.611-3.696 34.146-3.293 51.325-5.47 19.79-2.391 47.399-13.264 46.746-29.793-1.084-17.615-16.734-21.608-31.304-19.649-34.362 5-56.762 27.511-66.767 54.912zm-4.251 11.236c-.87 7.61-1.837 15.696-1.187 21.79 2.83 21.527 21.703 31.594 41.93 32.25 16.84.398 37.374-9.68 48.542-22.225 2.109-2.373 4.535-1.6 5.965.293 1.093 1.441.662 4.711-.346 5.707-17.54 17.414-35.569 27.24-60.642 27.457-28.488.217-64.154-10.646-68.503-40.219-.653-3.48-.653-7.4-.218-11.531C269.969 32.37 319.991 2.775 369.139.164c23.487-1.304 57.413 4.787 55.456 30.23-1.957 26.75-42.407 36.103-68.722 36.753-22.183.654-49.488.556-57.099 6.485z"/><path d="m274.238 104.563-7.386 28.266c-12.397 2.613-28.497 5.004-43.286 4.57-43.929-.867-76.116-21.1-74.159-62.856 2.389-48.056 50.021-72.633 95.909-73.285 15.224 0 29.139 1.518 44.581 5.216l-13.702 27.183c-10.003-2.827-23.486-5.436-36.971-4.131-21.095 1.521-40.45 12.829-46.104 35.013-7.393 27.836 8.698 47.418 37.189 47.418 15.004.001 29.578-3.04 43.929-7.394z"/><path d="M88.513 1.688c36.753 0 64.434 8.442 67.074 38.959 1.015 11.739-3.259 22.208-6.521 34.607l-15.318 59.531c-29.358 0-53.281.65-79.813 2.824C29.36 137.61 0 132.395 0 101.077.513 49.9 79.813 54.536 113.522 54.536c7.178-20.443-9.57-28.707-33.056-28.707-21.312 0-38.864 6.089-56.045 11.744l6.025-27.62c16.747-5.437 38.276-8.265 58.067-8.265zm20.007 73.291c-18.517 0-70.849-4.367-70.849 23.924 0 14.133 14.789 16.242 27.186 16.242 32.573 0 37.653-11.373 43.663-40.166zM521.717 108.249c-4.992 0-9.343 1.957-12.606 5.227-3.472 3.697-5.438 8.256-5.438 13.037 0 4.793 1.966 9.141 5.227 12.621 3.475 3.48 8.039 5.438 12.817 5.438 4.784 0 9.357-1.957 12.841-5.438 3.486-3.48 5.215-7.828 5.215-12.621 0-4.992-1.729-9.557-5.215-12.82-3.483-3.487-8.057-5.444-12.841-5.444zm16.327 18.263c0 4.354-1.743 8.273-4.79 11.314-3.044 3.047-7.397 4.787-11.537 4.787-4.342 0-8.476-1.74-11.52-4.787-3.041-3.041-4.775-7.172-4.775-11.314 0-4.336 1.734-8.473 4.775-11.742a16.298 16.298 0 0 1 11.52-4.775c4.359 0 8.493 1.734 11.537 5.004 3.047 3.041 4.79 6.949 4.79 11.513zm-15.881-10.869h-7.397v20.889h2.833v-9.357h5.221l4.556 9.357h3.272l-4.79-9.574c3.047-.445 5.007-2.619 5.007-5.438-.001-4.131-2.831-5.877-8.702-5.877zm-.446 1.963c4.14 0 6.316 1.084 6.316 3.697 0 3.258-1.957 4.131-6.316 4.131h-4.119v-7.828h4.119z"/></g></svg>