<svg xmlns="http://www.w3.org/2000/svg" width="1329.9602" height="282.55847"><defs><linearGradient id="a"><stop style="stop-color:#fff;stop-opacity:1" offset="0"/><stop style="stop-color:#fff;stop-opacity:0" offset="1"/></linearGradient></defs><path style="fill:#009539" d="M-427.29818 546.98766c-15.50634-3.23351-30.28264-13.73905-36.05778-25.63608-4.70846-9.6996-5.99374-17.00897-5.34451-30.394.32012-6.6.85169-13.125 1.18125-14.5.45395-1.89398.12065-1.63942-1.37494 1.05015-4.32984 7.7865-13.66131 14.31286-24.25946 16.96689l-4.62805 1.15898 9.87805 24.62802c5.43293 13.54541 9.87805 24.76494 9.87805 24.93228 0 .16734-9.3347.18263-20.74378.034l-20.74377-.27032-11.00623-31.19099c-6.05342-17.15504-11.23574-31.40957-11.51627-31.67672-.28053-.26715-3.42567 13.8813-6.9892 31.44099l-6.47915 31.92672h-19.2608c-15.96994 0-19.2608-.24257-19.2608-1.41971 0-.78084 2.69776-14.61834 5.99502-30.75 3.29727-16.13166 6.22055-30.45529 6.49619-31.83029.28331-1.41326-.62843-.32653-2.09744 2.5-3.12203 6.00712-10.40029 13.78583-15.89377 16.9866-8.91424 5.19388-12.65565 5.86486-36 6.45615l-22 .55725-2.75446 13.5c-1.51495 7.425-3.23435 15.8625-3.82089 18.75l-1.06645 5.25h-19.4291c-10.686 0-19.41116-.3375-19.38923-.75.0219-.4125 5.57004-27.975 12.32913-61.25l12.28925-60.5H-606.52557l6.62338 3.13821c3.64286 1.72601 8.476 4.81194 10.74031 6.85761 5.49207 4.96175 10.28075 14.84371 11.04443 22.79133l.59698 6.21285 4.05661-19.5 4.05661-19.5h38.44084c38.17654 0 38.48443.0165 44.78024 2.40536 13.52199 5.13065 22.38853 17.50143 22.51593 31.41471l.0634 6.91937 1.69724-3.99632c3.32824-7.83665 10.13829-17.29122 17.0921-23.72938 12.67187-11.73225 28.44855-17.51374 47.79193-17.51374 24.76132 0 42.0461 9.36091 50.61945 27.41396 7.88248 16.59824 8.35123 34.22096 1.44562 54.34725-3.97512 11.58541-8.32257 18.4524-17.56507 27.74483-8.73553 8.78271-16.86726 13.68736-29 17.49134-8.99099 2.81894-26.09094 3.5516-35.77261 1.5327zm29.15716-32.83498c14.38532-9.51975 23.01412-42.19061 15.0077-56.82305-5.91102-10.80291-21.85382-11.67519-31.7897-1.7393-7.93464 7.93464-13.30551 23.40088-13.4972 38.86725-.13873 11.19294 2.63491 17.33798 9.39465 20.81403 6.25656 3.2173 15.04345 2.74652 20.88455-1.11893zm-113.09033-39.04752c7.05433-3.73609 9.57244-13.80187 4.75353-19.00156-2.42533-2.61697-2.60493-2.64602-16.35977-2.64602h-13.90751l-2.14102 10.75c-1.17755 5.9125-2.14066 11.36462-2.14023 12.11583.001 2.16143 25.37234 1.12407 29.795-1.21825zm-112.25391-.23373c4.67218-2.2171 6.83938-5.95472 6.84206-11.80006.002-4.09097-.44501-5.27092-2.74583-7.25-2.56455-2.20594-3.56342-2.36379-14.9577-2.36379h-12.20963l-2.23461 10.28225c-1.22903 5.65524-2.2346 10.83024-2.2346 11.5 0 1.96634 23.27635 1.65498 27.54031-.3684zm444.95969 72.17346c-19.48384-3.80589-31.60319-12.65606-37.09319-27.08731-3.55731-9.35088-2.678-17.82261 5.96814-57.5 4.25471-19.525 7.98469-36.5125 8.28885-37.75.54981-2.23697.66533-2.25 19.94461-2.25 10.66537 0 19.39438.3375 19.39779.75.003.4125-3.68662 18.66247-8.20005 40.55548-7.90896 38.36343-8.15372 39.95416-6.7562 43.90941 2.30362 6.5197 5.57466 8.28511 15.35103 8.28511 7.27408 0 8.72574-.31672 12.302-2.68402 2.45085-1.62233 4.86692-4.39123 6.10802-7 1.55181-3.26185 18.189-79.26508 18.189-83.0923 0-.39802 9-.72368 20-.72368 15.33363 0 19.99987.29165 19.99945 1.25-.001 2.47557-17.92762 84.34515-19.33922 88.32125-6.21329 17.50118-18.547 29.04376-36.22318 33.8997-8.18646 2.24896-29.00295 2.86152-37.93705 1.11636zm125.63086-.0589c-26.83065-6.11419-43.65375-29.31326-41.75517-57.58042 1.26031-18.76439 9.40628-38.31315 21.15138-50.75927 11.71034-12.40928 23.47178-18.0752 41.75224-20.11359 23.88292-2.6631 46.62795 5.7125 55.79563 20.54613 1.1485 1.85831 2.42614 3.37874 2.83921 3.37874.41307 0 1.5767-4.5 2.58585-10l1.83481-10h104.91519l-.54137 2.75c-.29776 1.5125-.87155 4.55-1.27509 6.75l-.73372 4 4.55988-4.18744c9.77352-8.97525 23.57989-13.44556 41.7403-13.51491 13.50049-.0516 22.60846 1.81039 31.16531 6.37115 10.72513 5.71643 17.34865 15.8205 18.50778 28.23329l.61612 6.59791h-35.9366l-1.42631-4.75c-1.80523-6.01195-5.71481-8.24689-14.4263-8.24689-7.34311 0-12.58689 2.36788-13.95088 6.29966-1.97333 5.68824 1.65756 7.9391 21.17958 13.12966 15.51787 4.12593 23.18447 7.75956 28.97346 13.73214 6.7215 6.93468 8.80118 12.58061 8.77977 23.83543-.0156 8.2009-.38755 10.29386-2.72 15.30531-3.64668 7.83519-13.17302 17.59553-21.04088 21.55773-22.73412 11.44872-58.15093 8.91956-74.4781-5.31858-7.62394-6.64848-12.20618-17.2566-12.23108-28.3156l-.0119-5.27114 19.75.27114 19.75.27114.28592 3.5c.72806 8.91227 4.73963 12.2033 15.09575 12.38432 7.50635.1312 12.30933-1.50069 14.56958-4.95026 3.95887-6.04201.62103-10.19992-10.86133-13.52983-3.89946-1.13086-10.22857-2.96561-14.0647-4.07722-13.40597-3.88473-23.27299-10.65243-27.52826-18.88138-2.48061-4.79706-4.19802-14.83606-3.39605-19.85131l.65471-4.09432h-14.06879c-7.73784 0-14.28299.34657-14.54478.77016-.26179.42359-4.67585 21.3463-9.80902 46.49491l-9.33303 45.72476-19.75.005c-15.15143.004-19.74325-.28597-19.72103-1.24492.0159-.6875 4.20579-21.39764 9.31079-46.02254s9.06697-44.9874 8.80436-45.25c-.2626-.26251-6.52364-.47737-13.91343-.47737H30.76912l.2507 6.25c.13789 3.4375.18408 7.4875.10264 9l-.14806 2.75h-38v-5.35212c0-5.90788-2.3098-10.34115-7.32333-14.05593-2.26059-1.67498-4.25378-2.08603-10-2.06225-13.69526.0567-21.00753 6.74965-27.2808 24.9703-2.32456 6.75165-2.7654 9.71648-2.82511 19-.0631 9.81402.18454 11.44551 2.29713 15.13211 3.33352 5.81722 8.7165 8.61789 16.56388 8.61789 11.10914 0 16.88065-3.92004 21.6518-14.70601l2.01002-4.54399h19.9532c10.97427 0 19.95321.17837 19.95321.39639 0 1.27727-6.15974 15.20694-8.52331 19.27464-4.11598 7.08362-16.91649 19.34082-24.16274 23.13717-12.824 6.71857-34.76283 9.77843-48.18309 6.72021zm-295.77128-3.82494c.74993-2.98796 24.64042-119.55535 24.64042-120.22648 0-.26234 14.77802-.47699 32.84004-.47699 29.57214 0 33.61858.19912 40.66383 2.00099 24.52998 6.27371 36.92595 26.22976 33.54834 54.00885-3.364 27.66716-16.93951 49.15848-37.12936 58.77932-15.27317 7.27794-16.93622 7.50498-58.30049 7.95917l-36.87764.40494.61486-2.4498zm75.16906-32.761c10.33594-5.31736 16.93331-19.95204 16.95745-37.61603.0119-8.72796-.27906-10.56641-2.04788-12.93822-4.57744-6.13787-6.5591-6.86119-19.75755-7.21166l-12.18066-.32344-5.9229 29.32344c-3.25759 16.12789-6.1367 29.93405-6.39801 30.68034-.38772 1.10732 1.8106 1.29126 11.95154 1 10.96099-.31481 13.013-.65855 17.39801-2.91443zm542.6973 32.80753c2.45856-3.79938 44.87726-77.85529 45.45026-79.3485.4526-1.17952-3.5181-1.4015-25.06921-1.4015-14.08385 0-25.60699-.18352-25.60699-.40782 0-.2243 10.34547-18.3368 22.98993-40.25l22.98997-39.84218 26.2511-.5 26.2512-.5 33.1135-57.5 33.1136-57.5 27.1453-.26607c14.93-.14634 27.1454-.0744 27.1454.15978 0 .63061-66.0025 114.89387-67.2115 116.35629-.7778.94085-7.3982 1.25-26.7682 1.25h-25.7349l-9.0837 15.75-9.0838 15.75 25.818.5 25.8179.5-22.7654 39.5-22.7654 39.5 133.9706.25363c82.2743.15576 133.8425.61335 133.6385 1.18585-.1826.51272-6.4029 11.76109-13.8227 24.99637l-13.4907 24.06415H267.74441l1.45596-2.25zm140.07156-81.5c.2286-.4125 6.3698-10.9875 13.6471-23.5l13.2316-22.75 48.1619.00048 48.1619.00049 12.5 21.15409c6.875 11.63476 13.0769 22.20954 13.7819 23.49952l1.282 2.34542h-75.591c-41.575 0-75.4039-.3375-75.1754-.75zm184.6291-6.39257c-2.358-4.04659-8.4811-14.48601-13.6069-23.19871-5.1258-8.71271-9.3197-16.02521-9.3197-16.25 0-.2248 12.375-.40872 27.5-.40872s27.5.18761 27.5.41691c0 .81134-25.2601 44.10363-26.5136 45.44052-1.0509 1.12092-2.0197.0755-5.5598-6zm-675.9266-47.59711c0-.40683 16.53538-28.30683 36.74528-62l36.74528-61.26032h18.68733c16.93354 0 18.73593.16424 19.20512 1.75.28478.9625 5.1003 26.275 10.70115 56.25 5.60086 29.975 10.4795 54.83382 10.84143 55.24182.36192.408 5.7312-24.117 11.93171-54.5s11.49952-56.02932 11.77557-56.99182c.45585-1.58941 2.28514-1.75 19.93452-1.75 10.68793 0 19.43164.3375 19.43044.75-.002.70903-23.40337 116.21942-24.51346 121l-.52247 2.25H15.12676l-1.75025-10-1.75024-10-21.07592.0145-21.07592.0144-5.5 9.97108-5.5 9.97108-20.25.0145c-11.1375.008-20.25-.3184-20.25-.72522zm89.63513-49.01032c-.2748-.9625-1.49823-7.9375-2.71872-15.5-1.2205-7.5625-2.48849-13.73898-2.81775-13.72552-.50762.0208-15.95796 27.4702-16.93199 30.08178-.18384.49292 4.89175.89374 11.31738.89374 10.6196 0 11.60651-.15488 11.15108-1.75zm94.36487 48.4927c0-1.03882 22.83419-113.27263 24.51447-120.4927l.52363-2.25 34.23095.0174c36.01058.0183 42.62913.63227 52.13331 4.83642 6.33087 2.80044 13.10003 9.43642 16.32454 16.00336 2.431 4.9509 2.76172 6.74648 2.69703 14.64286-.0559 6.82518-.6164 10.38865-2.31943 14.74665-4.31111 11.03198-15.81602 20.56423-26.97322 22.34834-2.2722.36334-4.13128.9499-4.13128 1.30347 0 .35357 4.275 11.31856 9.5 24.36665s9.5 24.18542 9.5 24.74963c0 .67667-7.01481.93384-20.60942.75555l-20.60942-.27029-11.12269-31.71789c-6.11749-17.44483-11.40818-31.39483-11.75711-31-.34893.39484-3.49444 14.78039-6.99004 31.96789l-6.35561 31.25h-19.27786c-14.81528 0-19.27785-.29105-19.27785-1.2573zm83.01923-69.75251c7.43607-3.7936 9.5082-13.61661 4.02834-19.09647l-2.95244-2.95243-13.29756.27935-13.29757.27936-2.21443 10.5c-1.21794 5.775-2.23044 11.0625-2.25 11.75-.0267.93791 3.22009 1.25 13.00427 1.25 11.08761 0 13.62964-.30089 16.97939-2.00981zm269.98077 45.38613c0-1.17466 28.4187-50.37632 29.0972-50.37632.6064 0 29.9028 49.5526 29.9028 50.57826 0 .23196-13.275.42174-29.5.42174s-29.5-.28066-29.5-.62368z" transform="translate(703.98574 -265.61567)"/></svg>