<svg xmlns="http://www.w3.org/2000/svg" width="764" height="768" viewBox="-2.89227357 -2.89227357 102.19366614 102.68158114"><path d="M96.40625 84.107037c-1.18625-.5825-2.7275-.97875-4.30875-.97875-4.29 0-7.0175 2.665-7.0175 6.87125 0 4.37125 2.74875 6.76625 6.9125 6.76625 1.52 0 3.2475-.375 4.26875-.9375l-.6875-2.935c-.97875.64625-2.165 1.06125-3.43501 1.06125-2.35249 0-3.72749-1.56125-3.72749-4.03875 0-2.45625 1.4575-3.97625 3.70624-3.97625 1.16626 0 2.31126.35375 3.29001.9375l.99875-2.77zm-15.2775-.66625H77.8175v13.0125h3.31125v-13.0125zM69.815 91.894537l-5.41375-8.45375h-3.58v13.0125h3.10125v-8.43125l5.40125 8.43125h3.59375v-13.0125H69.815v8.45375zm-18.97125-5.96875c-2.2075 0-3.45625 1.665-3.45625 4.10125 0 2.49875 1.29 4.205 3.51875 4.205 2.18625 0 3.45625-1.68625 3.45625-4.12125 0-2.49875-1.3125-4.185-3.51875-4.185m0 10.97125c-3.85125 0-6.7875-2.39375-6.7875-6.78625 0-4.1225 2.95625-6.85 6.82875-6.85 3.8725 0 6.80875 2.3725 6.80875 6.76625 0 4.1225-2.97875 6.87-6.85 6.87m-9.14625-12.79c-1.18625-.5825-2.7275-.97875-4.30876-.97875-4.28999 0-7.01749 2.665-7.01749 6.87125 0 4.37125 2.74875 6.76625 6.9125 6.76625 1.52125 0 3.2475-.375 4.26875-.9375l-.6875-2.935c-.97875.64625-2.165 1.06125-3.435 1.06125-2.3525 0-3.7275-1.56125-3.7275-4.03875 0-2.45625 1.4575-3.97625 3.70625-3.97625 1.16625 0 2.31125.35375 3.28999.9375l.99876-2.77zm-20.00875 5.6c1.41625-.10375 2.18625-.68625 2.18625-1.93625 0-1.14375-.79125-1.70625-2.45625-1.70625H20.0575v3.685l1.63125-.0425zm-1.63125 6.74625h-3.31v-13.0125h5.225c3.45625 0 5.2675 1.6025 5.2675 4.1225 0 1.74875-.91626 3.08125-2.66376 3.7475l2.90625 5.1425H24.18l-2.6025-4.37125-1.52.125v4.24625zm-13.395-10.45125-1.72875 5.1H8.3275l-1.665-5.1zm6.64125 10.45125H10.015l-.95875-2.76875h-4.83l-.93626 2.76875H0l4.6225-13.0125H8.765l4.53875 13.0125z" style="fill:#000;fill-opacity:1;fill-rule:nonzero;stroke:none"/><path d="m71.30488 38.934407 17.78625-10.2575-38.01-21.9450001.005 20.5287501 20.21875 11.67375zm-45.32125 0 20.21875-11.67375V6.7344069L8.20738 28.670657l17.77625 10.26375zM5.76488 50.608157l15.33875-8.85-15.33875-8.84875v17.69875zm63.0975 13.0825v-20.52625l-20.21875-11.66625-17.77625 10.25625 37.995 21.93625zm4.885 0 17.77625-10.26v-20.53l-17.78125 10.26875.005 20.52125zm-47.75875 1.415 17.7825-10.26375-17.7875-10.2675-17.7775 10.26375 17.7825 10.2675zm44.31 5.05-21.65375-12.49875-21.65875 12.5025c-.62.3575-1.385.3575-2.00625 0l-23.1025-13.33125c-.6175-.36-.9975-1.02-.9975-1.73375v-26.675c0-.73.3975-1.4025 1.03625-1.75625l45.73-26.39375009c.62125-.36 1.3875-.35875 2.00875.001L95.40238 26.681657c.62125.35875 1.00374 1.02125 1.00374 1.7375l.003 26.6775c-.001.7125-.38125 1.37125-.99751 1.73l-23.09624 13.33125c-.625.36-1.39375.36125-2.01625-.003" style="fill:#00b0b9;fill-opacity:1;fill-rule:nonzero;stroke:none"/></svg>