<svg xmlns="http://www.w3.org/2000/svg" xml:space="preserve" width="160mm" height="41.9883mm" style="shape-rendering:geometricPrecision;text-rendering:geometricPrecision;image-rendering:optimizeQuality;fill-rule:evenodd;clip-rule:evenodd" viewBox="0 0 16000 4198.83"><path d="M14577.8 4198.83c13.76 0 89.93-12.76 109.95-15.84 374.17-57.4 648.29-222.72 799.3-679.4 102.79-310.88 512.95-1570.97 512.95-1570.97h-435.31l-348.3 1189.82h-69.96l-263.5-1189.82h-452.26l440.63 1560.31h237.42s-9.53 31.07-16.7 55.56c-50.65 173.75-320.4 291.28-570.16 324.06l55.94 326.28zm-4273.88-706.81V2283.94c46.6-15.52 161.47-34.16 291.91-34.16 68.35 0 176.63 5.15 232.49 11.34v-352.33c-43.46-12.43-161.08-16.1-269.74-16.1-273.27 0-534.13 71.42-670.77 136.63v1462.7h416.11zm4123.18-.7 14.85-315.36c-16.38 3.67-61.3 13.68-103.5 13.68-140.99 0-182.58-91.56-182.58-217.07V1263.02l-416.12 187.59v1602.22c0 229.52 113.98 458.77 443.4 458.77 130.65 0 227.23-17.11 243.95-20.28zm-855.49 0 14.84-315.36c-16.37 3.67-61.25 13.68-103.53 13.68-140.99 0-182.58-91.56-182.58-217.07V1263.02l-416.12 187.59v1602.22c0 229.52 114.02 458.77 443.44 458.77 130.65 0 227.18-17.11 243.95-20.28zm-1492.73.7V1930.47l416.12 2.15v1559.4h-416.12zm204.96-1744.18c-127.29 0-223.58-49.69-223.58-229.79 0-164.56 86.98-232.92 223.58-232.92 139.74 0 229.78 52.8 229.78 229.82 0 170.78-83.84 232.89-229.78 232.89zM9272.31 2538.6v-34.21c0-211.11-93.44-307.37-321.12-307.37-232.89 0-325.25 127.29-331.45 341.58h652.57zm-190.4 645.9c234.02 0 378.83-51.53 451.11-73.72l40.38 310.54c-60.71 27.94-259.75 111.02-517.57 111.02-565.17 0-858.39-289.7-858.39-848.66 0-565.35 280.42-794.11 764.35-794.11 527.64 0 695.6 291.89 695.6 785.65 0 52.77-3.15 127.33-9.35 155.27H8613.53c0 281.81 207.52 354.01 468.38 354.01zm-1873.49 307.52v-686.38h98.92l502.67 686.38h465.77l-646.29-906.69 588.22-652.71h-454.79l-466.07 525.18h-88.43V1263.02l-416.12 187.59v2041.41h416.12zm4276.9 19.58c165.56 0 273.16-25.64 291-30.24l18.62-319.9c-14.3 5.99-94.53 28.29-145.76 28.29-191.15 0-251.73-135.87-251.73-315.99v-571.17h444.77v-369.97h-444.77v-332.9l-411.23 187.57v1203.5c0 357.62 186.69 520.81 499.1 520.81zm-5389.04-672.81c-74.75-11.89-213.06-31.9-327.62-31.9-269.84 0-292.57 111.71-292.57 209.15 0 158.11 71.71 216.5 303.39 216.5 151.26 0 260.85-24.11 316.8-39.65v-354.1zm-341.67 692c-524.68 0-672.16-164.4-672.16-504.68 0-347.24 151.98-502.27 658.35-502.27 159.26 0 308.31 23.83 355.48 30.28v-103.59c0-124.94-66.08-216.27-398.58-216.27-264.24 0-413.5 75.15-465.52 95.51l-32.14-322.95c68.63-27.04 287.9-117.27 615.82-117.27 493.08 0 690.28 210.26 690.28 615.09v906.97c-117.97 52.82-421.39 119.18-751.53 119.18zm-1663.86-336.04c323.68 0 422.97-183.76 422.97-482.8 0-290.01-103.82-474.35-422.97-474.35-93.15 0-177.45 18.4-276.81 49.45v858.24c72.18 23.66 174.78 49.46 276.81 49.46zm-692.94-1744.14 416.13-187.59v694.86c108.67-34.17 194.44-68.31 411.84-68.31 471.34 0 700.27 251.02 700.27 822.4 0 669.47-262.85 820.37-866.8 820.37-288.79 0-537.22-49.73-661.44-105.61V1450.61zM1874.95 76.73C1766.21 23.04 1597.88 0 1435.53 0 700.22 0 0 414.53 0 1112.64c0 246.6 78.29 510.25 214.98 746.46 154.5 267.08 368.79 511.28 624.54 684.8 194.09 131.72 418.9 223.6 651.14 223.6 193.43 0 323.3-53.03 368.31-90.09-19.46 3.09-66.25 9.96-124.03 9.96-611.07 0-1026.92-543.98-1182.7-939.13-60-152.26-104.65-335.26-104.65-516.91 0-743.23 665.4-1151.32 1315.3-1151.32 36.41 0 73.02 1.18 109.82 3.71 2.84.22 4.65-1.57 4.65-3.49 0-1.25-.76-2.57-2.41-3.5zm112.93 1104.31c-321.08 0-588.28 239.09-588.28 557.58 0 295.25 241.71 575.33 594.52 575.33 81.54 0 162.78-18.17 237.27-51.92 12.76-5.8 29.49-11.27 40.45-20.11 9.03-7.26 13.29-20.03 19.36-30.26 94.14-157.73 199.47-518.86 214.7-721.21 1.55-20.77-4.24-28.28-16.6-44.99-83.35-112.84-245.56-264.42-501.42-264.42zm530.47 25.03c0 27.3-.59 86.14-1.27 112.97-119.61-210.52-352.15-331.55-592.77-331.55-351.15 0-672.05 307.78-672.05 714.78 0 400.15 322.01 688.93 683.22 688.93 98.89 0 197.74-21.73 288.2-65.52-38.83 59.31-82.31 115.75-130.89 167.43-21.76 23.16-44.35 52.33-74.47 63.4-34.28 12.61-106.24 41.35-234.46 41.35-429.21 0-721.23-318.16-858.15-522.81C789.17 1871 671.25 1597.49 671.25 1304.9c0-583.51 485.22-884.23 1017.85-884.23 579.72 0 829.25 460.99 829.25 785.4z" style="fill:#2b2a29;fill-rule:nonzero"/></svg>