<svg xmlns="http://www.w3.org/2000/svg" width="110.76033" height="18.656446" viewBox="0 0 29.305337 4.9361848"><path style="fill:#1ca18a;fill-opacity:1;fill-rule:nonzero;stroke:none;stroke-width:.352778" d="M314.20551 97.757143c-.15847-.05788-.23977-.232887-.1819-.389986.0579-.158471.23151-.239776.38999-.181899-.32935-.119888-.69453.04961-.81442.378961-.11989.330729.0496.694531.38033.815799l3.12264 1.135503-2.68855.978409c-.32935.11989-.69453-.0496-.81442-.37896-.11989-.330731.0496-.694533.38033-.8158-.5016.183278-.76067.73863-.57877 1.24023.18328.50161.73725.7593 1.23885.5774l2.93385-1.06798c.29352-.106106.44648-.432704.339-.727602-.0593-.163989-.18742-.283877-.339-.338998zm0 0" transform="translate(-288.773798 -96.371221)"/><path style="fill:#61c799;fill-opacity:1;fill-rule:nonzero;stroke:none;stroke-width:.352778" d="m317.10215 98.163666-2.68855-.978408c-.32935-.119888-.69453.04961-.81442.378961-.11989.330729.0496.694531.38033.814419-.5016-.181899-.76067-.737249-.57877-1.238857.18328-.501604.73863-.760677 1.24023-.577398l2.93247 1.067982c.29352.106108.44648.432703.339.727604-.0606.163985-.18742.283877-.339.338998l-3.36793 1.225074c-.15847.05788-.23977.232889-.1819.389989.0579.15847.23289.23978.38999.1819-.32935.11989-.69453-.0496-.81442-.37896-.11989-.330731.0496-.694533.38033-.814425l3.12264-1.136879" transform="translate(-288.773798 -96.371221)"/><path style="fill:#0c2e21;fill-opacity:1;fill-rule:nonzero;stroke:none;stroke-width:.352778" d="M289.88865 98.781027h-.45062v.775836h.47543c.2756 0 .42581-.144695.42581-.39412 0-.22462-.16261-.381716-.45062-.381716m-.0827-1.063847h-.36794v.650434h.38861c.2632 0 .38172-.130912.38172-.338998 0-.201193-.15021-.311436-.40239-.311436m-.89986-.421679h.92742c.55673 0 .93155.223241.93155.676617 0 .300412-.21773.501604-.48231.563616v.0083c.41066.05512.62287.347267.62287.666972 0 .496094-.40101.771701-.93706.771701h-1.06247zm6.88468 1.508951h.88332c-.0234-.220487-.19292-.402386-.44097-.402386-.26045 0-.42306.192924-.44235.402386m1.40698.220486c0 .0441 0 .09095-.007.14194h-1.40422c0 .260449.22048.485069.4892.485069.17363 0 .29628-.07442.37896-.197061l.43821.159854c-.14745.246669-.41065.43546-.8213.43546-.56362 0-1.0046-.409277-1.0046-1.025262 0-.540191.35416-.993564.96877-.993564.62287 0 .96187.465776.96187.993564m14.4818-.421679c-.0124-.133671-.0992-.212217-.21635-.212217-.12678 0-.19293.08268-.19293.165364 0 .106109.0579.173634.37759.283877.39825.129533.54432.330729.54432.602202 0 .347264-.26459.607715-.72898.607715-.48094 0-.70969-.252182-.73036-.618739h.4768c.0124.148827.0909.256314.26458.256314.13505 0 .21635-.09095.21635-.201192 0-.130916-.0896-.209462-.37344-.30317-.35554-.114378-.54019-.292143-.54019-.588423 0-.338995.2756-.563616.68212-.563616.41755 0 .65044.241156.68902.571885zm-2.50665.201193h.88332c-.0234-.220487-.19293-.402386-.44097-.402386-.26045 0-.42168.192924-.44235.402386m1.40835.220486c0 .0441 0 .09095-.008.14194h-1.40284c0 .260449.22048.485069.48782.485069.17364 0 .29628-.07442.37896-.197061l.43822.159854c-.14745.246669-.40928.43546-.82131.43546-.56362 0-1.00459-.409277-1.00459-1.025262 0-.540191.35415-.993564.97014-.993564.62287 0 .96187.465776.96187.993564m-3.99631-1.879643h.53192v1.186491h.0152c.13092-.209462.34313-.296277.55673-.296277.42168 0 .71658.279739.71658.864027v1.08314h-.53192v-1.051443c0-.281122-.13367-.425813-.35416-.425813-.23289 0-.40239.16123-.40239.480934v.996322h-.53206Zm-1.35461 2.415699c.2632 0 .47955-.216351.47955-.527787 0-.32384-.20808-.536057-.4768-.536057-.31833 0-.48369.267339-.48369.531922 0 .260449.14883.531922.48094.531922m.98116.362426c0 .7028-.31557 1.07349-1.01286 1.07349-.45889 0-.78272-.21635-.90675-.58015l.48783-.17777c.04.1819.17363.32384.45062.32384.31832 0 .48369-.20119.48369-.567753v-.241156h-.011c-.12678.150206-.31144.272849-.60358.272849-.48783 0-.89021-.383092-.89021-.993563 0-.56775.38998-.997698.91363-.997698.30042 0 .47818.15434.57189.288008h.0193v-.228756h.49747zm-2.2779.05926h-.52779v-.235645h-.0124c-.15297.224621-.34589.299025-.55122.299025-.3073 0-.68626-.188781-.68626-.830946v-1.120349h.53192v1.052823c0 .275608.13091.425814.33624.425814.23151 0 .37759-.16123.37759-.476801v-1.001836h.53192zm-2.68442-1.142393h-1.0349v1.142393h-.56362v-2.687175h.56362v1.055578h1.0349v-1.055578h.56362v2.687175h-.56362zm-2.51078-.288011c-.0675-.01242-.14608-.02343-.25218-.02343-.31558 0-.47267.197062-.47267.536057v.917776h-.5333v-1.887915h.5209v.292146h.0124c.10198-.184658.29904-.347268.55122-.347268.0744 0 .12264.0041.17363.01655zm-4.57509.654569-.12127.118512v.657323h-.53192v-2.837381h.53192v1.588876l.59807-.63941h.64768l-.75655.777216.87092 1.110699h-.64354zm-2.02021.377581c.25219 0 .47267-.220486.47267-.538812 0-.332108-.20532-.54846-.46853-.54846-.33211 0-.4892.271473-.4892.544326 0 .275608.15434.542946.48506.542946m.97703.398254h-.51265v-.235645h-.0152c-.12265.161231-.3073.299025-.6146.299025-.36656 0-.8599-.29489-.8599-1.008715 0-.607716.41755-.993566.89848-.993566.29628 0 .47405.146074.57602.29628h.0152v-.245294h.51263zm0 0" transform="translate(-288.773798 -96.371221)"/></svg>