<svg xmlns="http://www.w3.org/2000/svg" width="300" height="300" xml:space="preserve"><defs><clipPath id="b"><path d="M0 0h612v792H0V0z"/></clipPath><clipPath id="c"><path d="M0 0h612v792H0V0"/></clipPath><linearGradient x1="0" y1="0" x2="1" y2="0" id="a" gradientUnits="userSpaceOnUse" gradientTransform="matrix(503 115.5 115.5 -503 70.485 891.021)" spreadMethod="pad"><stop style="stop-color:#fff;stop-opacity:1" offset="0"/><stop style="stop-color:#4fadc6;stop-opacity:1" offset="1"/></linearGradient></defs><g clip-path="url(#b)" transform="matrix(1.25 0 0 -1.25 0 300)"><g clip-path="url(#c)"><path d="M40.746 538.87h50.38v-50.38h-50.38v50.38" style="fill:#4cadc7;fill-opacity:1;fill-rule:nonzero;stroke:none" transform="matrix(4.48668 0 0 4.48668 -175.804 -2185.313)"/><path d="M42.057 502.94c1.41 2.51 2.273 4.1 3.724 6.375 4.334 6.51 5.05 8.668 9.744 14.708.499.475 2.417 3.002 2.89 3.377-2.752.236-5.903-.862-6.85-1.22-3.748-1.799-5.784-4.333-6.146-5.06-.492-.839-.728-2.034-.355-2.762.237-.494.835-1.197 2.161-1.197-.734-.863-1.563-.863-2.416-.863-1.426 0-2.16.863-2.534 1.685-.343.978-.1 2.18.255 3.02 1.208 2.884 5.05 5.177 6.993 5.904 3.724 1.332 5.648 1.808 9.864 1.548.833.864 1.924 1.572 2.54 1.943 1.065.726 2.155.726 2.89.61.715-.118.833-.729.715-1.216-.118-.356-.38-.592-.715-.96-.137.487-.618 1.195-1.583.843-.479-.24-.952-.61-2.16-1.554 1.076-.29 1.837-.63 2.316-1.07.34-.315.564-.61.692-.871.398-.819.852-2.527-.374-4.217-.597-.72-2.043-2.877-6.382-3.605 1.089-.727 3.013-1.806 2.18-5.061-.238-1.196-1.564-4.71-4.933-6.374-1.07-.493-2.653-.728-4.216 0-.834.351-1.45 1.08-1.943 1.664l.972 2.183c-.1-.376-.48-.962-.361-1.32.498-.863 2.062-1.181 3.144-1.233a3.144 3.144 0 0 1 2.03.604c2.224 1.591 4.378 6.196 3.127 7.73-.48.755-1.184 1.08-2.155 1.196-.835 0-1.662-.095-2.416-.726l1.444 2.533c-.1-.35.06-.411.137-.468.404-.304 1.806-.358 2.99 0 3.269 1.077 5.31 4.8 4.956 6.49-.114.406-.48 1.215-2.16 1.683-.493-.352-2.18-2.527-3.625-4.702-2.042-3.003-4.203-6.357-6.022-10.105-1.569-2.885-2.297-4.827-3.604-7.94l-4.814-1.571" style="fill:#fff;fill-opacity:1;fill-rule:nonzero;stroke:none" transform="matrix(4.48668 0 0 4.48668 -175.804 -2185.313)"/><path d="M81.667 519.858c-.138-1.564 1.313-3.442 4.8-3.19 1.57.12 3.27.666 4.976 1.14v-1.453a136.314 136.314 0 0 1-5.567-1.511c-3.469-1.036-4.813-1.429-8.32-2.626-3.368-1.331-9.53-3.553-15.156-6.75-5.22-2.966-7.982-4.997-12.64-8.784-3.77-3.066-5.803-4.933-9.173-8.433v6.257c1.826 1.69 9.528 6.983 14.938 9.862 5.549 2.904 10.125 5.08 16.62 7.73 2.66.963 9.272 2.941 10.741 3.49-.995.234-1.463.267-2.179.826-.528.412-.788.732-1.09 1.331-1.07-1.079-1.568-1.449-2.278-2.039-1.352-.963-3.176-2.065-4.459-1.393-.549.282-.746.692-.971 1.275-1.072-1.331-4.104-4.703-5.43-3.624-.237.135-.454.862-.454 1.331-.735-1.098-1.427-1.824-2.18-2.41-1.146-.907-2.453-.63-2.89-.24-.26.215-.498.69-.36 1.922.198 1.825 2.023 4.667 3.032 5.924 1.37 1.689 2.615 2.688 3.686 2.626.655-.018 1.126-.23 1.363-.834l-.74-1.503c.058.355.024.595-.13.655-.328.194-.728.066-1.123-.208a5.882 5.882 0 0 1-.954-.824 13.777 13.777 0 0 1-1.348-1.709c-.825-1.255-1.269-2.595-.773-3.165.289-.382 1.008-.169 1.684.414.318.275.523.462.91 1.032.844 1.245 1.587 2.896 1.734 3.805l.766 1.58s.317.524.554.999l1.943.251c-.735-1.572-3.013-6.51-2.422-6.867.598-.37 2.28 1.32 3.014 2.158.118 1.221.355 2.058.734 3.021.592 1.437 1.663 3.73 2.99 5.652 1.824 2.545 3.984 5.197 5.43 5.432.472.116 1.07 0 1.207-.729 0-.116.118-.843-.48-2.158-.491-1.096-1.463-2.786-2.173-3.864a34.38 34.38 0 0 0-3.749-4.938c-.354-.358-.87-.924-1.681-1.688l.374 1.923c1.806 1.45 3.232 3.606 4.814 6.274.36.71 1.189 2.293.715 2.627-.354.26-1.806-.937-3.487-3.723-.852-1.313-2.16-4.333-2.042-5.178l-.37-1.929c-.062-.919.196-1.659 1.696-1.368 1.072.178 1.787.646 3.73 2.83.355 1.916.71 3.019 1.445 4.566.728 1.806 1.682 3.391 2.28 4.352 1.163 1.769 1.98 2.454 2.889 3.236.616.55 2.396 1.454 3.15.846.336-.254.237-1.098-.038-1.942-.242-.63-.933-2.312-2.141-3.965-.952-1.312-2.142-2.805-3.25-3.957-.655-.69-1.564-1.819-2.163-2.294l.22 1.685c1.373 1.058 3.35 3.647 4.694 6.022.499.9 1.215 2.293.618 2.39-.854.372-2.89-2.626-3.725-4.08-.852-1.565-1.451-3.31-1.576-4.254l-.235-1.834" style="fill:#fff;fill-opacity:1;fill-rule:evenodd;stroke:none" transform="matrix(4.48668 0 0 4.48668 -175.804 -2185.313)"/></g></g></svg>