<svg baseProfile="basic" xmlns="http://www.w3.org/2000/svg" width="315" height="99" xml:space="preserve"><path fill="#343535" d="M297.212 17.441c-7.93-7.864-19.121-12.7-32.043-12.695-12.912-.004-24.165 4.896-32.146 12.808-4.966 4.917-8.671 11-10.766 17.772-2.051-6.597-5.688-12.447-10.611-17.133-7.92-7.551-19.139-12.065-32.242-12.061h-33.355v50.072c-2.205-4.5-6.003-7.733-10.788-10.043 4.723-3.523 8.459-8.941 8.412-17.036v-.226c.018-6.852-2.815-12.726-7.859-16.684-5.031-3.967-12.122-6.083-20.664-6.083H75.802V56.2c-2.205-4.5-6.003-7.733-10.784-10.04 4.718-3.523 8.451-8.941 8.407-17.036v-.226c.021-6.847-2.811-12.726-7.855-16.68-5.031-3.975-12.122-6.083-20.668-6.083H5.561v84.44h40.267c9.346-.004 17.266-1.872 23.001-5.869 3.048-2.11 5.417-4.868 6.973-8.16v14.029h40.272c9.345-.004 17.266-1.868 23.005-5.869 3.045-2.107 5.413-4.864 6.969-8.156v14.025h33.373c13.108 0 24.317-4.575 32.233-12.178 4.862-4.662 8.463-10.462 10.524-16.981 2.063 6.82 5.755 12.931 10.726 17.854 7.93 7.859 19.126 12.695 32.039 12.691h.018c12.912 0 24.161-4.901 32.143-12.809 7.985-7.908 12.717-18.835 12.713-30.796v-.23c.003-11.959-4.668-22.83-12.605-30.685zm-270.54 8.077h15.584c3.498-.008 6.013.717 7.508 1.799 1.477 1.095 2.168 2.416 2.198 4.571v.23c-.048 2.463-.847 3.758-2.546 4.875-1.725 1.095-4.597 1.738-8.312 1.733H26.672V25.518zm29.787 38.846c-.048 2.494-.843 3.876-2.49 5.022-1.664 1.125-4.449 1.816-8.142 1.808H26.676V57.3H45.25c4.327-.009 7.225.821 8.867 1.994 1.63 1.182 2.303 2.599 2.342 4.84v.23zm40.459-38.846h15.584c3.493-.004 6.018.722 7.503 1.803 1.478 1.09 2.172 2.416 2.207 4.566v.226c-.052 2.472-.852 3.763-2.555 4.883-1.72 1.095-4.592 1.734-8.303 1.721H96.918V25.518zm29.788 38.842c-.043 2.498-.847 3.88-2.49 5.031-1.664 1.125-4.444 1.812-8.142 1.803H96.918V57.3h18.574c4.328-.009 7.225.825 8.868 1.994 1.629 1.182 2.307 2.594 2.346 4.84v.226zm75.077-15.776c-.108 13.352-8.772 22.041-22.38 22.146h-11.778V25.979h11.778c13.573.1 22.275 9.02 22.38 22.38v.225zm85.657 0c-.061 12.908-9.076 23.158-22.271 23.184-13.165-.018-22.445-10.527-22.488-23.409v-.23c.061-12.908 9.076-23.158 22.263-23.188 13.169.017 22.449 10.527 22.497 23.418v.225z"/></svg>