<svg xmlns="http://www.w3.org/2000/svg" width="306" height="44" xml:space="preserve"><path d="M186.808 14.146c0-2.418-3.917-2.607-5.602-2.607h-5.138l-3.496 12.497h3.833l1.095-4.386c3.88-.001 9.308-.385 9.308-5.504zm-4.422 1.779c-.438.86-1.653 1.406-2.612 1.406h-1.347l.842-3.723h1.053c.947 0 2.233.299 2.233 1.447l-.169.87zM164.863 20.476h5.223l.716-2.607h-5.264zM224.252 19.441l-.463-7.903h-5.476l-2.948 12.497h3.074l2.275-8.938.464 8.938h3.622l4.885-8.938-2.022 8.938h3.412l2.948-12.497h-5.559zM192.916 11.538c-3.228 4.074-6.112 8.397-9.309 12.497h4.548l2.402-3.559h4.843l.548 3.559h4.464c-.263-.271-2.408-11.32-2.526-12.497h-4.97zm-.801 6.248 2.527-3.476.506 3.476h-3.033zM209.679 11.538h-4.212l-2.948 12.497h10.235l.673-2.691h-6.023zM115.078 16.752l-.589 2.689h1.6l-.462 1.902c-.258.247-1.326.332-1.686.332-1.694 0-3.243-.541-3.243-2.483 0-3.202 2.862-5.006 5.854-5.006 1.481 0 2.677.441 4.086.704l.463-3.022c-1.603-.078-3.15-.577-4.802-.577-4.847 0-9.688 3.067-9.688 8.233 0 2.98 2.364 4.84 5.307 4.84h2.106c1.681 0 3.472-.319 5.139-.537l1.601-7.076h-5.686zM74.561 14.187c1.084 0 2.045.37 3.074.456l.337-2.896c-1.115-.136-2.292-.455-3.411-.455-4.815 0-9.562 2.996-9.562 8.11 0 3.037 2.632 4.964 5.602 4.964h1.475c.939 0 2.15-.164 3.074-.33l1.011-3.021c-.99.216-2.055.456-3.075.456h-1.474c-1.462 0-2.485-1.263-2.485-2.606-.001-2.889 2.677-4.678 5.434-4.678zM150.753 24.035h10.826l.547-2.691h-6.571l.549-2.233h5.601l.547-2.69h-5.56l.548-2.234h6.613l.674-2.649h-10.783zM151.513 11.538h-12.51l-.548 2.649h4.085l-2.274 9.848h4.086l2.358-9.848h4.085zM87.448 11.291c-4.844 0-9.687 3.136-9.687 8.275 0 3.003 2.938 4.799 5.77 4.799h1.643c3.642 0 6.96-2.256 8.171-5.585.192-.528.505-1.21.505-1.779v-1.406c.001-3.036-3.865-4.304-6.402-4.304zm2.191 5.958c0 .088-.188.69-.225.814-.446 1.532-1.054 2.485-2.626 3.103-.343.135-.819.303-1.193.303h-1.18c-1.437 0-2.485-1.266-2.485-2.606 0-2.619 2.183-4.676 4.802-4.676 1.169 0 1.818.413 2.528 1.284.146.179.184.447.378.909v.869zM134.664 11.538h-5.012c-2.866 4.232-6.072 8.456-9.224 12.497h4.548l2.402-3.559h4.885l.59 3.559 4.389-.004c-.054-.435-.337-1.306-.431-1.735-.504-2.317-2.042-8.725-2.147-10.758zm-5.686 6.248 2.401-3.476.674 3.476h-3.075zM101.601 11.538h-4.044l-2.949 12.497h10.068l.673-2.691h-5.981zM264.434 24.035h4.085l2.948-12.497h-4.084zM285.114 11.538l-6.148 9.351-1.138-9.351h-4.297c.137 3.215 1.487 6.411 1.813 9.601l.335 2.896h4.887c3.064-4.1 5.78-8.488 8.97-12.497h-4.422zM258.494 11.538h-4.084l-2.949 12.497h10.236l.547-2.691h-6.024zM288.736 24.035h10.784l.674-2.691h-6.697l.547-2.233h5.601l.549-2.69h-5.56l.547-2.234h6.613l.673-2.649h-10.782zM244.385 11.291c-4.573 0-9.603 3.041-9.603 7.985 0 3.176 2.587 5.088 5.728 5.088h1.643c3.795 0 8.634-3.306 8.634-7.364v-1.406c0-3.093-3.826-4.303-6.402-4.303zm-1.854 10.178h-1.137c-1.044 0-2.443-1.064-2.443-2.152v-.91c0-1.318 1.503-3.314 2.696-3.847.586-.263 1.384-.373 2.021-.373 1.079 0 2.111.422 2.864 1.903-.037.254.084.593.084.869.001 2.073-1.8 4.51-4.085 4.51z"/><g><path fill="#007AC2" d="M2.469 17.081S2.864 2.758 19.233 2.56h12.276l-2.751 12.133-10.127.036c-3.375.025-4.019 2.798-4.019 2.798s-.197 2.92 3.036 3.252l9.729.004-2.797 12.336-5.677.017C1.941 32.789 2.469 17.081 2.469 17.081zm54.32 0S56.063 2.758 39.694 2.56H34.48l-2.727 12.133 8.544.036c3.374.025 4.018 2.798 4.018 2.798s.197 2.92-3.037 3.252l-10.917.004-4.726 20.521 11.551.011 1.913-8.182.924.002c16.964-.346 16.766-16.054 16.766-16.054z"/></g></svg>