<svg xmlns="http://www.w3.org/2000/svg" width="265.69998" height="87.099998" viewBox="0 0 70.299788 23.045207"><path d="M314.5 235h16c16.1 0 28.9 9.9 28.9 26.6 0 18.2-11 27.5-28.9 27.5h-16zm7.7 47.3h8.1c13.3 0 20.7-6.4 20.7-20.4 0-12.6-8.6-20.1-19.8-20.1h-9.1v40.5zM377.4 240.7h-8.2v-8.2h8.2zm-7.8 8.9h7.3v39.6h-7.3zM390.5 235h16c16.1 0 28.9 9.9 28.9 26.6 0 18.2-11 27.5-28.9 27.5h-16zm7.8 47.3h8.1c13.3 0 20.7-6.4 20.7-20.4 0-12.6-8.6-20.1-19.8-20.1h-9.1v40.5zM453.4 240.7h-8.2v-8.2h8.2zm-7.7 8.9h7.3v39.6h-7.3z" class="st1" style="fill:#646464" transform="matrix(.26458 0 0 .26458 -49.9268764 -57.49396)"/><path d="M242.5 284.7c18-.6 32.2-14.9 32.4-32.6v-15.3h19.8v16.9c-.4 27.5-24.3 49.1-52.2 49.7-28.4-.2-52.5-22-52.8-49.7v-30.3c0-3.1 2-5.1 5-5.1h80.2v18.5H212c-1.6 0-2.6 1-2.6 2.6v12.4c.2 17.9 14.7 32.7 33.1 32.9z" class="st11" style="clip-rule:evenodd;fill:#fc9153;fill-rule:evenodd" transform="matrix(.26458 0 0 .26458 -49.9268764 -57.49396)"/></svg>