<svg xmlns="http://www.w3.org/2000/svg" version="1.1" id="Layer_1" x="0" y="0" viewBox="0 0 641.192 115.61599" xml:space="preserve" width="641.19202" height="115.616"><style type="text/css" id="style2">.st0{fill:#fe6d01}</style><path class="st0" d="M258.9 63.901003c-.4.6-.2 1.3-.2 1.9v29c0 2.7-.3 5.299997-1.1 7.899997-2.4 8.3-9.4 13.3-18.1 12.7-10.7-.7-16.8-7.2-17.5-18.499997-.1-1.1-.1-2.3-.1-3.4v-74.6c0-7.8 2.9-13.9000003 10.3-16.9000003 7.6-3.1 14.8-2.00000002 21 3.6 3.4 3 5.8 7.0000003 8.5 10.6000003 8.3 11.3 17.1 22.3 24.9 34 .8 1.2 1.5 2.4 2.7 3.5v-32.9c0-4.3.7-8.4 2.9-12.1000003 4-6.8 10.3-9.00000001 17.7-8.20000001 8.7.80000001 14.5 6.70000001 15.7 15.50000031.3 2 .4 4 .4 6v74.8c0 7.699997-2.7 13.799997-9.9 16.999997-7.7 3.3-15.1 2.1-21.4-3.6-3.9-3.5-6.8-8-10.1-12.199997-8.7-11.1-18-21.8-25.4-33.9 0-.1-.1-.1-.3-.2z" id="path5" style="fill:#fe6d01"/><path class="st0" d="M528.6 64.101003v2.1c0 10.5-.1 20.9-.2 31.4 0 2.999997-.9 5.799997-2.2 8.399997-3.1 6.3-9.7 9.9-17 9.3-10.4-.8-16.6-7.3-17.3-17.899997 0-.6-.1-1.2-.1-1.8 0-26.2-.1-52.4 0-78.6 0-6.7 3.2-11.8000003 9.2-14.7000003 6.8-3.19999996 13.4-2.70000001 19.8 1.4 1.9 1.2 3.5 2.8 4.8 4.5 10.1 13.6000003 20.5 26.9000003 30.1 40.9000003 1.1 1.6 2.1 3.2 3.4 5.3v-34.2c0-5 1.1-9.8 4.4-13.8000003C568.4.50100269 575-.49899731 582 .80100269c6.6 1.30000001 10.7 5.70000001 12.6 12.00000031.9 3 1.1 6 1.1 9.1v75c0 7.599997-2.8 13.699997-9.9 16.799997-7.4 3.2-14.5 2.2-20.8-3-1-.8-2-1.8-2.8-2.8-10-12.899997-20.7-25.299997-30-38.699997-1.2-1.7-2.3-3.4-3.4-5.1.1-.1 0-.1-.2 0z" id="path7" style="fill:#fe6d01"/><path class="st0" d="M35.4 2.6010027c6.5.1 13.9-.5 21.2.9 20.3 3.8 35.9 14.0000003 43 33.9000003 7.3 20.5 4.9 40-9.6 57C81.1 104.901 69.1 110.401 55.7 112.301c-12.4 1.8-24.9.6-37.3.8-.6 0-1.2-.2-1.8-.3-9.8-1.7-16.6-9.7-16.6-19.599997v-70.6c0-11.1 8.5-19.8000003 19.7-20.0000003 4.9-.1 9.9 0 15.7 0zm1.3 55.3000003v18.2c0 .9-.1 1.7 1.3 1.7 3.9-.1 7.7.2 11.6-.3 10.2-1.2 17-8.9 17.1-19.5.1-10.4-6.7-18.4-16.9-19.7-3.8-.5-7.6-.1-11.4-.3-1.4-.1-1.8.4-1.8 1.8.1 6 .1 12.1.1 18.1z" id="path9" style="fill:#fe6d01"/><path class="st0" d="M375.3 34.801003c6.6-8.5 13.4-16.6 19.8-25.0000003 3.7-4.8 8.1-8.2 14.3-8.90000001 10.8-1.1 21.2 8.90000001 20.4 19.70000031-.4 5-2.4 9.2-5.5 13-6.3 7.5-12.7 14.9-19.1 22.3-.9 1.1-.9 1.7 0 2.7 6.9 7.6 13.6 15.4 20.4 23 3.7 4.2 5.8 8.9 5.6 14.5C430.8 108.101 418.7 117.401 407.6 114.101c-3.8-1.1-6.9-3.4-9.4-6.5-7.2-8.799997-14.6-17.499997-21.6-26.499997-.3-.4-.6-.8-1-1.3-.7.4-.4 1-.4 1.4 0 5.3.1 10.5-.1 15.8-.3 10.699997-7.9 18.199997-18.3 18.099997-10.5 0-18.3-7.5-18.3-18.099997-.1-26.3-.1-52.7 0-79 .1-10.6000003 8-18.10000031 18.4-18.00000032 10.4.10000001 17.9 7.40000002 18.2 18.00000032.3 5.8.2 11.3.2 16.8z" id="path11" style="fill:#fe6d01"/><path class="st0" d="M209.5 47.301003c-.1 7.2.3 16.2-.2 25.1-1.2 22.1-17.7 39.599997-39.7 42.399997-9.8 1.2-19.3.7-28.5-3.1-16.4-6.7-25.4-19.199997-27.9-36.499997-.3-2.2-.4-4.5-.5-6.8 0-16.5-.1-32.9 0-49.4.1-11.0000003 7.8-18.80000031 18.4-18.70000031 10.7.1 18.3 7.90000001 18.3 19.10000031v46.6c0 5.2 1.8 9.4 6.6 11.8 7.5 3.8 15.9-1.5 16.7-10.2.1-1.1.1-2.3.1-3.4v-45.4c0-9.9000003 6.7-17.4000003 16.4-18.40000031 9.6-1 17.8 4.90000001 19.8 14.40000031.3 1.5.4 3 .4 4.6.1 8.7.1 17.4.1 27.9z" id="path13" style="fill:#fe6d01"/><path class="st0" d="M442.7 57.701003c0-13.1-.1-26.1 0-39.2.1-7.6 3.3-13.5000003 10.4-16.5000003 7.3-3.1 14.4-2.30000001 20.5 3.1 3.7 3.2 5.6 7.6000003 5.6 12.4000003.1 26.9.2 53.7 0 80.6-.1 10.099997-8.4 17.599997-18.4 17.299997-10.5-.3-18-7.6-18.1-17.899997-.1-13.3 0-26.5 0-39.8z" id="path15" style="fill:#fe6d01"/><path d="M606.9 26.801003c-.1-4.5 0-8.9 1-13.3 2-9.2000003 9.7-14.40000026 19.2-12.90000031 9.1 1.40000001 14.9 8.90000001 14 18.10000031-.8 7.6-2.9 14.9-5.9 21.9-1.8 4.1-4.5 7.4-8.9 8.9-7.2 2.4-14.7-1.1-17.4-8.3-1.8-4.6-1.9-9.5-2-14.4z" id="path17" style="fill:#f40290"/></svg>