<svg fill="#232527" viewBox="0 0 57.582 9.842" xmlns="http://www.w3.org/2000/svg"><path d="M6.41 0v3.91H1.97V0H.003v9.692H1.97V5.756h4.44v3.936h1.967V0zm11.07 5.55c0 1.576-.782 2.417-2.203 2.417-1.429 0-2.216-.865-2.216-2.484V.008h-1.966V5.55c0 2.727 1.515 4.29 4.156 4.29 2.666 0 4.195-1.593 4.195-4.37V.002H17.48zm22.73 1.11L38.009-.005h-1.604l-2.2 6.665L32.063 0h-2.092l3.377 9.688h1.628l2.205-6.364 2.203 6.364h1.642L44.395 0h-2.039zm7.71-1.14h3.577V3.755H47.92V1.771h5.192V.006H45.98v9.679h7.319V7.92H47.92zm7.72 4.157h1.94V-.002h-1.94zM25.55 2.45l1.402 3.245h-.005l.095.224h-2.974l.094-.224h-.002zm2.223 5.217.87 2.017h2.061l-4.23-9.63-.038-.057h-1.719l-4.27 9.687h2.007l.824-1.876.059-.141z"/></svg>