<svg xmlns="http://www.w3.org/2000/svg" width="149" height="74" viewBox="0 0 149 74.000001"><path d="M0 0c-1.575 1.577-3.349 2.805-5.153 3.752-3.221 1.842-7.014 2.93-11.187 3.086-.302.016-.576.026-.805.026l-1.615-.003h-25.514v-57.048h15.802v.008h.012V-37.9c1.613.003 11.653.012 11.653.012 3.674 0 7.113.811 10.152 2.258-2.14 4.068-3.357 8.691-3.357 13.599C-10.012-13.257-6.13-5.375 0 0m-17.405-24.607c-.226-.007-.439-.016-.677-.016H-28.46v18.222h10.046v-.011c4.364 0 8.868-2.691 8.868-9.055 0-6.217-3.575-8.8-7.859-9.14" style="fill:#83c2ec;fill-opacity:1;fill-rule:nonzero;stroke:none" transform="matrix(1.25 0 0 -1.25 87.78498 9.45812)"/><path d="M0 0c-11.256 0-21.044 6.38-25.952 15.712 7.464 3.552 12.489 10.949 12.489 19.697 0 .154-.01.305-.013.458v.008c0 .025-.001.052-.001.077-.005.266-.011.53-.024.795-.193 6.732-2.586 11.389-5.795 14.596C-14.135 55.866-7.385 58.619 0 58.619c7.967 0 15.197-3.198 20.483-8.373L8.798 40.165l-.059.036C6.343 42.129 3.305 43.283 0 43.283c-7.703 0-13.973-6.267-13.973-13.971 0-7.709 6.27-13.978 13.973-13.978 4.519 0 8.534 2.168 11.089 5.506H1.068v13.29h1.814v.002l6.253-.002h19.806l-.002-.005h.002s.041-.285.094-.731c.106-.754.177-1.521.223-2.293.039-.591.068-1.199.068-1.762 0-.27-.014-.624-.041-1.039-.126-3.691-.928-7.21-2.301-10.434-.313-.773-.657-1.523-1.047-2.232 0 0 0 .012-.004.034C21.014 6.36 11.24 0 0 0" style="fill:#1477c6;fill-opacity:1;fill-rule:nonzero;stroke:none" transform="matrix(1.25 0 0 -1.25 111.90748 73.63684)"/><path d="M0 0c0 .155-.008.306-.011.458v.008c0 .026-.003.051-.003.076-.002.267-.008.533-.022.795-.193 6.734-2.589 11.39-5.796 14.598-6.131-5.377-10.012-13.259-10.012-22.032 0-4.906 1.218-9.531 3.357-13.6C-5.025-16.145 0-8.748 0 0" style="fill:#0b335e;fill-opacity:1;fill-rule:nonzero;stroke:none" transform="matrix(1.25 0 0 -1.25 95.07628 29.37564)"/><path d="m0 0 .066-56.909h15.703L15.704 0H0" style="fill:#83c2ec;fill-opacity:1;fill-rule:nonzero;stroke:none" transform="matrix(1.25 0 0 -1.25 .43502 1.05688)"/></svg>