<svg xmlns="http://www.w3.org/2000/svg" width="160.056" height="24.703712" xml:space="preserve"><defs><clipPath id="c"><path d="M0 0h612v792H0V0z"/></clipPath><clipPath id="b"><path d="M0 0h612v792H0V0z"/></clipPath><clipPath id="a"><path d="M0 0h612v792H0V0z"/></clipPath></defs><g clip-path="url(#a)" transform="matrix(2.21248 0 0 -2.21248 -484.5332775 1385.0152225)"><path d="M0 0c.066.071 4.673 4.934 4.673 4.934H.309S-3.789 1.149-3.97.982v3.952h-4.102V-6.222h4.102v2.396c.035.031.782.687.86.756.072-.087 2.565-3.152 2.565-3.152h5.537S.061-.075 0 0" style="fill:#000;fill-opacity:1;fill-rule:nonzero;stroke:none" transform="translate(245.869 621.0563)"/></g><path d="M0 0v-3.984l-3.548.004L-3.554 0h-4.207v-11.139l4.231.002v4.048h3.494v-4.048l4.341-.002V0H0z" style="fill:#000;fill-opacity:1;fill-rule:nonzero;stroke:none" transform="matrix(2.21248 0 0 -2.21248 150.5312475 -.0000025)"/><g clip-path="url(#b)" transform="matrix(2.21248 0 0 -2.21248 -484.5332775 1385.0152225)"><path d="M0 0v-4.464c0-.455-.329-.825-.733-.825h-2.369c-.405 0-.734.37-.734.825V0c0 .455.329.825.734.825h2.369C-.329.825 0 .455 0 0m1.705 3.397h-7.267c-1.361 0-2.468-1.25-2.468-2.786v-5.548c0-1.539 1.107-2.789 2.468-2.789h7.267c1.36 0 2.468 1.25 2.468 2.789V.611c0 1.536-1.108 2.786-2.468 2.786" style="fill:#000;fill-opacity:1;fill-rule:nonzero;stroke:none" transform="translate(259.2177 622.5907)"/><path d="M0 0v.846c.013.999-.354 1.999-.955 2.609-.379.383-.817.586-1.268.586h-7.611c-1.225 0-2.223-1.433-2.223-3.195v-4.741c0-1.76.998-3.192 2.223-3.192h7.611C-.997-7.087 0-5.655 0-3.895v1.284l-3.993-.009-.092-1.066c-.045-.456-.351-.944-.735-.944h-2.327c-.405 0-.734.36-.734.803V.621c0 .443.329.803.734.803h2.327c.406 0 .735-.36.735-.803V0H0z" style="fill:#000;fill-opacity:1;fill-rule:nonzero;stroke:none" transform="translate(277.3047 621.946)"/></g><g clip-path="url(#c)" transform="matrix(2.21248 0 0 -2.21248 -484.5332775 1385.0152225)"><path d="M0 0h-7.36v-11.136l7.305.003S-1.78-5.615-1.789-5.587C-1.78-5.559 0 0 0 0" style="fill:#000;fill-opacity:1;fill-rule:nonzero;stroke:none" transform="translate(226.3596 625.9838)"/></g><path d="m0 0-3.347-5.574L0-11.133h5.167V0H0z" style="fill:#0099d8;fill-opacity:1;fill-rule:nonzero;stroke:none" transform="matrix(2.21248 0 0 -2.21248 22.04806 .037835)"/></svg>