<svg xmlns="http://www.w3.org/2000/svg" version="1.0" width="744.09448" height="384.09448"><defs><clipPath id="a"><path d="M173.79 64.47h35.95v17.693h-35.95V64.47z"/></clipPath><clipPath id="b"><path d="M173.79 64.47h35.95v17.693h-35.95V64.47z"/></clipPath></defs><path d="M706.76352 615.69069c-8.87063-4.63238-10.25046-17.72145-10.05339-49.557l.19716-48.78826-16.95272-.01972 3.94251-9.02826h13.01021v-23.10293l31.14559-11.55152v33.88563l14.39012.01971-3.74545 10.01396-10.64467-.01972v84.42823c.59138 6.80083 2.9569 10.8024 6.11087 13.71988h-27.40023M245.49295 693.08166c-.9857-2.74003-2.95691-4.49446-5.91373-4.49446-4.13966 0-5.71665 2.12894-5.71665 5.06613 0 6.9979 15.76995 5.71656 15.76995 17.58343 0 6.6234-5.71656 11.39379-13.79865 11.39379-2.75975 0-5.91381-.67024-8.27924-2.22751.59138-2.18809 1.18276-4.35646 1.57698-6.58397h.98561c.59138 3.568 3.54828 5.69694 7.09648 5.69694 3.15397 0 6.11088-1.81358 6.11088-5.38149 0-8.29896-15.57289-5.2829-15.57289-17.78059 0-5.95315 4.13967-10.88127 12.0246-10.88127 3.74535 0 7.09648 1.39955 8.08209 2.48373-.59138 1.65585-.98561 3.37084-1.57699 5.12527h-.78844M399.84115 407.07415c2.36553 6.52481 7.88493 13.26651 3.94251 20.83608-1.77414 7.68786-9.06778 13.91694-16.75555 15.15885-8.08209.7293-15.57289-.63081-21.68367-5.49978-4.13967-22.19619 4.92811-42.73653 22.47211-54.97791l12.0246 24.48276" style="fill:#c6003d;fill-rule:nonzero;stroke:none;stroke-width:.051;stroke-linecap:butt;stroke-linejoin:miter;stroke-miterlimit:4;stroke-dasharray:none" transform="translate(-34.00326 -356.19775)"/><g transform="matrix(19.71242 0 0 -19.71242 -3408.10526 1637.29325)" style="fill:#c6003d;fill-rule:nonzero;stroke:none;stroke-width:.051;stroke-linecap:butt;stroke-linejoin:miter;stroke-miterlimit:4;stroke-dasharray:none" clip-path="url(#a)"><path d="M193.02 77.047c-.2-.681-2.21-.234-2.84.884.83-.092 1.76.642 1.78 1.479l1.06-2.363" style="fill:#c6003d;fill-rule:nonzero;stroke:none"/></g><g transform="matrix(19.71242 0 0 -19.71242 -3408.10526 1637.29325)" style="fill:#c6003d;fill-rule:nonzero;stroke:none;stroke-width:.051;stroke-linecap:butt;stroke-linejoin:miter;stroke-miterlimit:4;stroke-dasharray:none" clip-path="url(#b)"><path d="M193.85 77.135c.09.041.27.133.32.33l-2.16 4.698c-.15.018-.25.031-.44-.1l2.28-4.928" style="fill:#c6003d;fill-rule:nonzero;stroke:none"/></g><path d="M466.272 452.86617c18.13539-27.49891 2.95681-72.62059-36.27086-78.94825l36.27086 78.94825M51.71981 661.18697h684.80938v-5.24348H51.71981v5.24348zM273.2874 703.48975c0-2.01064-1.77414-3.62706-3.74535-3.62706-1.97121 0-3.54819 1.61642-3.54819 3.62706 0 2.01074 1.57698 3.62715 3.54819 3.62715s3.74535-1.61641 3.74535-3.62715M462.32949 512.06252c5.71665-4.80982 15.76995-4.9084 22.27505-1.83329 2.75975 1.37992 5.32234 3.21312 7.09649 5.61807l-12.61598 19.55474c-1.57699-1.26163-2.75975-1.83329-4.73096-2.85833-6.30795-2.7006-12.81305-1.12361-16.5584 2.28667v57.06741c-.19716 9.87595 1.57699 18.8845 6.70217 23.5564h-28.583c-6.11088-4.57333-7.49071-11.88659-8.08209-18.29321l-.19716-75.89276c.19716-6.15031-1.37983-8.85091-3.74535-12.30053l29.56869.11821c2.36544 1.71499 2.5626 4.69162 3.74536 6.97828l5.12518-4.00166M498.40319 530.82872c-.19706-7.21469 1.37992-15.84873-3.35103-22.0779h27.40023c1.97121 1.37992 2.95682 3.66649 3.5482 5.83486 1.57698 1.93187 1.37992 4.69162 1.9713 6.97819l.39422 80.8604c.98561 4.80982 2.95682 9.65907 6.5051 13.44386l-29.37153.05914c-9.65908-9.30428-6.5051-24.60114-7.29355-40.39081l.19706-44.70774M541.9677 531.61726c2.95681-8.2201 12.22166-12.33996 18.92392-16.81471 10.25046-3.76507 21.68367-13.14821 33.1168-5.48006 9.65907 6.28822 18.13548 13.38471 24.24626 23.10293 1.37992 3.76507 2.16837 8.00322 3.15407 12.00488 0 5.38149 1.18267 9.38315.9856 14.76463.39423 5.83486.39423 11.09805 0 16.81471-.39422 9.71822-4.92811 18.41131-12.61598 25.153-11.43322 10.19131-25.82325 21.74282-41.39604 13.83808-13.99581-6.52481-30.35714-19.43644-29.37154-37.1776-.59138-12.57655-1.18276-23.43801.59138-35.67948.59138-3.5482.39423-7.43156 2.36553-10.52638zm28.583 57.18571c1.37982 5.04641 3.94251 11.21634 10.05329 11.9063 3.54829.1183 6.11088-2.85833 8.27925-5.38148 6.30794-12.57655 5.32234-26.29643 5.32234-40.6076-1.97121-10.62496.59138-25.15301-10.84184-31.67782-4.13958-1.4785-7.09648 1.26153-9.65907 3.78478-4.53389 6.7416-4.92812 14.4689-5.32234 23.04379-1.37992 13.71988.19706 25.09385 2.16837 38.93203" style="fill:#c6003d;fill-rule:nonzero;stroke:none;stroke-width:.051;stroke-linecap:butt;stroke-linejoin:miter;stroke-miterlimit:4;stroke-dasharray:none" transform="translate(-34.00326 -356.19775)"/><path d="M642.6981 615.69069c-8.87053-4.63238-10.25045-17.72145-10.05329-49.557l.19706-48.78826-16.75546-.01972 3.74535-9.02826h13.01011v-23.10293l31.34275-11.55152v33.88563l14.19297.01971-3.74536 10.01396-10.44761-.01972v84.42823c.59138 6.80083 2.95691 10.8024 6.11088 13.71988h-27.5974M357.26235 521.26822c-.19716-6.15031-1.37992-8.85091-3.74536-12.30053l29.56861.11821c2.36543 1.71499 2.56259 4.69162 3.74535 6.97828l5.12518-4.00166c5.71666-4.80982 15.76995-4.9084 22.27506-1.83329 2.75974 1.37992 5.32233 3.21312 7.09648 5.61807l-12.61598 19.55474c-1.57699-1.26163-2.75966-1.83329-4.73096-2.85833-6.30794-2.7006-12.81305-1.12361-16.5584 2.28667v57.06741c-.19716 9.87595 1.57699 18.8845 6.70217 23.5564h-28.583c-5.91372-4.57333-7.68777-11.37407-8.08209-18.29321l-.19706-75.89276M133.13216 551.2902l-10.64477 22.15675c-7.49071 13.06936-17.74116 29.09552-33.51111 33.07746-6.11079 2.12894-11.63029.19716-17.54401-.21687L52.31119 637.5518c1.57699 1.53755 3.54829 2.8188 5.5195 3.56791 33.51111 12.81305 47.1127-.96589 80.03243-75.6957l31.34275 66.56886h41.5932l-19.71246-44.92461 11.23615-23.22123 30.75136 67.12081 39.81906.25621-69.78198-153.12602-32.13119 15.94731 25.23187 57.14628-11.039 22.45249-46.127-99.5083-33.70827 17.22864 27.79455 59.92575M261.06574 578.29621c.78845-11.09805 6.89933-21.50623 17.14978-27.10459 10.25046-6.30795 22.0779-8.81139 32.72257-14.31117 1.77415-1.47841 3.94252-3.3117 4.13967-5.71657.19707-2.97662-1.37992-5.26328-3.94251-6.28832-16.16417-3.4299-29.37153 6.6234-41.00182 16.57821 1.37983-7.31336 2.56259-15.31658 6.11088-22.17647 1.57699-1.83329 2.75975-4.35645 4.92812-5.71666 11.43312-5.61798 25.62609-7.21468 38.24207-6.30794 10.44752.68996 20.10669 8.12152 23.65488 17.62286 1.77414 4.45503 1.57699 9.50144 1.97121 14.07468l.19716 61.99553c0 5.36177 2.56259 10.40818 5.71656 14.74492h-29.5686c-3.5482-3.19341-5.32234-7.21478-6.30795-12.24139-8.27924 7.33299-25.62618 18.19454-35.87664 10.97976-10.64467-4.79011-20.50091-20.93457-18.13538-36.13285zm52.43504-21.56538c-.19716-4.2973-3.15397-4.75067-5.32234-4.75067-7.09648 1.02503-13.20736 6.95847-16.75556 13.04963-2.9569 5.42092-3.74535 9.99415-3.94251 14.74492 0 5.12518-.39422 8.92968 1.77414 12.81304 1.18267 2.52316 3.5482 3.66649 6.11079 4.33674 4.53389.92645 8.67347-.33517 12.22176-2.74004 8.47631-4.69152 6.89932-14.07467 7.09648-22.41306l-1.18276-15.04056M542.9533 703.48975c0-2.01064-1.77414-3.62706-3.74535-3.62706-1.97121 0-3.54829 1.61642-3.54829 3.62706 0 2.01074 1.57708 3.62715 3.54829 3.62715 1.97121 0 3.74535-1.61641 3.74535-3.62715M294.77392 686.39912h11.03899c2.36553 0 6.30795-.09858 8.47631 1.04475 2.95691 1.55727 4.33674 3.88336 4.33674 7.41184 0 5.08585-3.15397 8.29897-8.08209 9.324 2.95691 4.96755 6.11088 9.73794 9.26485 14.56748l1.97121 3.21312c-1.57698-.11821-3.15397-.25622-4.73096-.25622-1.57698 0-2.95681.13801-4.5338.25622l-6.30803-10.88127c-.78845-1.39955-2.16837-3.78479-3.35113-5.756h-.39423v16.63727c-1.18276-.11821-2.56259-.25622-3.74535-.25622-1.37983 0-2.56259.13801-3.94251.25622v-35.56119zm7.68786 16.69641c5.5195.51252 8.27925-2.06979 8.27925-7.41184 0-.7294-.19716-1.49813-.39422-2.60203-.78854-4.2973-4.73105-3.88336-7.88503-3.88336v13.89723M349.37732 686.39912c-.19706.72939-.39422 1.51784-.39422 2.22751 0 .7294.19716 1.51784.39422 2.22752-3.35113-.41394-6.70216-.82797-12.0245-.70968v11.13758h5.32234c2.36543 0 4.5338-.21688 6.5051-.47318-.19716.72939-.39432 1.49821-.39432 2.22751 0 .72939.19716 1.51793.39432 2.22752-1.9713-.25622-4.13967-.45337-6.5051-.45337h-5.32234v13.14821c5.32234-.03943 8.67337-.29574 12.0245-.70968-.19706.70968-.39422 1.49813-.39422 2.22752 0 .70967.19716 1.49812.39422 2.22751H329.4678v-35.30497h19.90952M374.60929 693.08166c-1.18277-2.74003-3.15407-4.49446-6.11088-4.49446-3.94251 0-5.71666 2.12894-5.71666 5.06613 0 6.9979 15.76995 5.71656 15.76995 17.58343 0 6.6234-5.51949 11.39379-13.60158 11.39379-2.95681 0-5.91372-.67024-8.27915-2.22751.59138-2.18809 1.18276-4.35646 1.37982-6.58397h.98561c.78854 3.568 3.54829 5.69694 7.09648 5.69694 3.35113 0 6.11088-1.81358 6.11088-5.38149 0-8.29896-15.37573-5.2829-15.37573-17.78059 0-5.95315 3.94251-10.88127 12.0246-10.88127 3.54829 0 6.89933 1.39955 8.08209 2.48373-.59138 1.65585-1.18276 3.37084-1.57699 5.12527h-.78844M404.17789 722.63055c-11.43322 0-19.12108-6.7416-19.12108-18.50999 0-10.3096 7.4907-18.6479 20.50091-18.6479 14.78434 0 19.12108 10.40818 19.12108 18.45084 0 10.11244-7.68787 18.70705-20.50091 18.70705zm-10.44761-16.99205c0 6.72188 2.9569 13.87751 10.84183 13.87751 7.88502 0 11.43322-7.98351 11.43322-16.57812 0-6.68254-3.15397-14.35069-10.84184-14.35069-7.09648 0-11.43321 5.44064-11.43321 17.0513M433.35227 686.39912h11.0389c2.36552 0 6.11088-.09858 8.27925 1.04475 2.9569 1.55727 4.53389 3.88336 4.53389 7.41184 0 5.08585-3.35113 8.29897-8.08209 9.324 2.95681 4.96755 6.11079 9.73794 9.26485 14.56748l1.97121 3.21312c-1.57699-.11821-3.15397-.25622-4.73096-.25622-1.57698 0-3.15406.13801-4.73105.25622l-6.11078-10.88127c-.78854-1.39955-2.16837-3.78479-3.35113-5.756h-.39423v16.63727c-1.37992-.11821-2.56268-.25622-3.94251-.25622-1.18276 0-2.56259.13801-3.74535.25622v-35.56119zm7.68786 16.69641c5.51941.51252 8.08209-2.06979 8.08209-7.41184 0-.7294 0-1.49813-.19716-2.60203-.78854-4.2973-4.73096-3.88336-7.88493-3.88336v13.89723M482.43618 721.96031c-1.18277-.11821-2.56259-.25622-3.94252-.25622-1.18276 0-2.56259.13801-3.74535.25622v-31.87499c-3.74535 0-6.89932.35489-9.65907.7294 0-.7294.19716-1.45869.19716-2.22752 0-.72939-.19716-1.45869-.19716-2.18808h26.61179c0 .72939-.19716 1.45869-.19716 2.18808 0 .76883.19716 1.49812.19716 2.22752-2.95691-.37451-6.11088-.7294-9.26485-.7294v31.87499M515.94729 693.08166c-.9856-2.74003-2.95691-4.49446-5.91372-4.49446-4.13958 0-5.71666 2.12894-5.71666 5.06613 0 6.9979 15.76996 5.71656 15.76996 17.58343 0 6.6234-5.71657 11.39379-13.79865 11.39379-2.75975 0-5.91372-.67024-8.27925-2.22751.59138-2.18809 1.18276-4.35646 1.57699-6.58397h.9856c.59138 3.568 3.54829 5.69694 7.09648 5.69694 3.15398 0 5.91372-1.81358 5.91372-5.38149 0-8.29896-15.37563-5.2829-15.37563-17.78059 0-5.95315 4.13958-10.88127 12.0246-10.88127 3.74535 0 7.09639 1.39955 8.08209 2.48373-.59139 1.65585-.9857 3.37084-1.57708 5.12527h-.78845M579.61839 693.08166c-1.18276-2.74003-3.15397-4.49446-6.11088-4.49446-3.94242 0-5.71656 2.12894-5.71656 5.06613 0 6.9979 15.76995 5.71656 15.76995 17.58343 0 6.6234-5.5195 11.39379-13.60159 11.39379-2.9569 0-5.91372-.67024-8.27924-2.22751.59138-2.18809.9856-4.35646 1.37992-6.58397h.9856c.78845 3.568 3.5482 5.69694 7.09649 5.69694 3.35113 0 6.11078-1.81358 6.11078-5.38149 0-8.29896-15.37563-5.2829-15.37563-17.78059 0-5.95315 4.13957-10.88127 11.82744-10.88127 3.74535 0 7.09648 1.39955 8.27924 2.48373-.59138 1.65585-1.18276 3.37084-1.57698 5.12527h-.78854M592.82575 686.39912c1.37983.11829 2.56259.27602 3.94242.27602 1.37992 0 2.56268-.15773 3.94251-.27602v14.7252c0 2.85833-.19716 7.09648.39422 9.79708.39432 2.54288.78854 4.13958 2.56259 5.95316 1.77415 1.55727 3.74545 2.22751 6.11088 2.22751 4.73096 0 7.29364-1.75443 9.06769-6.2686.9857-2.28667.9857-8.18067.9857-10.72355v-15.7108c.59129.11829 1.37983.15773 1.97121.15773.78845 0 1.57699-.03944 2.16837-.15773v18.45084c-.19716 5.91372 0 11.2952-5.5195 15.04056-2.75975 2.01064-6.30794 2.74003-9.85623 2.74003-6.11079 0-13.0102-1.97121-14.78426-8.7129-.59138-2.01064-.9856-4.2973-.9856-6.36709v-21.15144M636.193 686.39912c1.37992.11829 2.75975.27602 3.94251.27602 1.37983 0 2.56259-.15773 3.94252-.27602v35.56119c-1.37993-.11821-2.56269-.25622-3.94252-.25622-1.18276 0-2.56259.13801-3.94251.25622v-35.56119M670.2955 721.96031c-1.37983-.11821-2.75975-.25622-3.94251-.25622-1.37983 0-2.56259.13801-3.94242.25622v-31.87499c-3.54829 0-6.89933.35489-9.65908.7294.19707-.7294.39423-1.45869.39423-2.22752 0-.72939-.19716-1.45869-.39423-2.18808h26.80886c-.19716.72939-.39422 1.45869-.39422 2.18808 0 .76883.19706 1.49812.39422 2.22752-3.15397-.37451-6.11088-.7294-9.26485-.7294v31.87499M707.3549 686.39912c-.19716.72939-.19716 1.51784-.19716 2.22751 0 .7294 0 1.51784.19716 2.22752-3.15406-.41394-6.70226-.82797-12.0246-.70968v11.13758h5.32234c2.36553 0 4.53389-.21688 6.5051-.47318-.19716.72939-.19716 1.49821-.19716 2.22751 0 .72939 0 1.51793.19716 2.22752-1.97121-.25622-4.13957-.45337-6.5051-.45337h-5.32234v13.14821c5.32234-.03943 8.87054-.29574 12.0246-.70968-.19716.70968-.19716 1.49813-.19716 2.22752 0 .70967 0 1.49812.19716 2.22751h-19.71246v-35.30497h19.71246M732.58677 693.08166c-.98561-2.74003-2.95691-4.49446-5.91372-4.49446-4.13967 0-5.71666 2.12894-5.71666 5.06613 0 6.9979 15.76996 5.71656 15.76996 17.58343 0 6.6234-5.71657 11.39379-13.79866 11.39379-2.75974 0-5.91372-.67024-8.27924-2.22751.59138-2.18809 1.18276-4.35646 1.37983-6.58397h.98569c.78845 3.568 3.5482 5.69694 7.29355 5.69694 3.15397 0 5.91372-1.81358 5.91372-5.38149 0-8.29896-15.37563-5.2829-15.37563-17.78059 0-5.95315 4.13957-10.88127 12.0245-10.88127 3.74536 0 7.09649 1.39955 8.08209 2.48373-.59129 1.65585-.9856 3.37084-1.57698 5.12527h-.78845M52.70551 686.39912c1.37983.11829 2.56259.27602 3.94242.27602 1.18276 0 2.56268-.15773 3.94251-.27602v14.05495c2.56259.09858 5.32234.25631 7.88493.25631 2.56268 0 5.32243-.15773 7.88502-.25631v-14.05495c1.37983.11829 2.56259.27602 3.94242.27602 1.18276 0 2.56268-.15773 3.94251-.27602v35.56119c-1.37983-.11821-2.75975-.25622-3.94251-.25622-1.37983 0-2.56259.13801-3.94242.25622v-17.36666c-2.56259-.09849-5.32234-.25621-7.88502-.25621-2.56259 0-5.32234.15772-7.88493.25621v17.36666c-1.37983-.11821-2.75975-.25622-3.94251-.25622-1.37983 0-2.56259.13801-3.94242.25622v-35.56119M112.63125 722.63055c-11.43322 0-19.31824-6.7416-19.31824-18.50999 0-10.3096 7.68787-18.6479 20.50091-18.6479 14.78435 0 19.12108 10.40818 19.12108 18.45084 0 10.11244-7.68786 18.70705-20.30375 18.70705zm-10.64477-16.99205c0 6.72188 3.15397 13.87751 10.84184 13.87751 7.88502 0 11.63037-7.98351 11.63037-16.57812 0-6.68254-3.15397-14.35069-11.03899-14.35069-7.09648 0-11.43322 5.44064-11.43322 17.0513M152.25315 721.96031c-1.18276-.11821-2.56259-.25622-3.74535-.25622-1.37983 0-2.56259.13801-3.94251.25622v-31.87499c-3.74536 0-6.89933.35489-9.65908.7294.19716-.7294.19716-1.45869.19716-2.22752 0-.72939 0-1.45869-.19716-2.18808H161.518c0 .72939-.19716 1.45869-.19716 2.18808 0 .76883.19716 1.49812.19716 2.22752-2.95681-.37451-6.11088-.7294-9.26485-.7294v31.87499M189.1154 686.39912c0 .72939-.19716 1.51784-.19716 2.22751 0 .7294.19716 1.51784.19716 2.22752-3.15398-.41394-6.70226-.82797-12.0246-.70968v11.13758h5.51949c2.36553 0 4.33674-.21688 6.30795-.47318-.19707.72939-.19707 1.49821-.19707 2.22751 0 .72939 0 1.51793.19707 2.22752-1.97121-.25622-3.94242-.45337-6.30795-.45337h-5.51949v13.14821c5.32234-.03943 8.87062-.29574 12.0246-.70968 0 .70968-.19716 1.49813-.19716 2.22752 0 .70967.19716 1.49812.19716 2.22751h-19.71238v-35.30497h19.71238M206.85656 717.95874c4.53389 0 8.27924-.35488 11.82744-.70968-.19707.70968-.39422 1.49813-.39422 2.22752 0 .70967.19715 1.49812.39422 2.22751h-19.71237v-35.30497c1.37983.11829 2.56259.27602 3.94242.27602 1.37992 0 2.56268-.15773 3.94251-.27602v31.55962M737.90911 606.40612c0-6.34738 5.12519-11.01919 11.23609-11.01919 6.1108 0 11.236 4.67181 11.236 11.01919 0 6.38681-5.1252 11.05871-11.236 11.05871-6.1109 0-11.23609-4.6719-11.23609-11.05871zm11.23609 9.22542c5.1252 0 9.0677-3.90308 9.0677-9.22542 0-5.22376-3.9425-9.18599-9.0677-9.18599-4.9281 0-9.0677 3.96223-9.0677 9.18599 0 5.32234 4.1396 9.22542 9.0677 9.22542zm-2.3655-2.83861h-1.7741v-12.73419h4.7309c2.957 0 4.5339 1.12362 4.5339 3.62706 0 2.28666-1.3799 3.27227-3.3511 3.50886l3.7454 5.59827h-2.1684l-3.3511-5.51941h-2.3655v5.51941zm2.3655-7.15554c1.577 0 3.1539-.1183 3.1539-2.06979 0-1.57708-1.3798-1.87272-2.7597-1.87272h-2.7597v3.94251h2.3655" style="fill:#c6003d;fill-rule:nonzero;stroke:none;stroke-width:.051;stroke-linecap:butt;stroke-linejoin:miter;stroke-miterlimit:4;stroke-dasharray:none" transform="translate(-34.00326 -356.19775)"/></svg>