<svg xmlns="http://www.w3.org/2000/svg" width="1024" height="302" viewBox="-0.8175 -0.8175 98.098455 28.885"><path style="fill:#0000a0;fill-opacity:1;fill-rule:evenodd;stroke:none" d="M38.39625.0507c-.451 0-.651.2678-.81838.651-10.528 24.1797-11.4115 26.0912-11.4115 26.0912h5.96613l1.24162-3.0335h8.98875l1.24625 3.0335h7.017s-.59987-1.242-11.4115-26.0912c-.16737-.3832-.36725-.651-.81837-.651m-3.12488 19.0824 2.59013-6.33 2.59937 6.33h-5.1895zM68.199 14.6454c2.05075-1.219 3.60387-3.3475 3.60387-6.3994 0-2.3963-.9625-4.3724-2.63662-5.7066C67.469 1.1819 65.50662.4477 61.4935.4477h-8.58413v26.3452h6.34275v-9.8068h1.967c2.13913 0 3.218.808 4.11538 2.9458.758 1.8098 1.29275 3.9568 1.99037 6.861h7.07288c-1.0045-2.9873-1.50675-4.4002-2.26-6.5055-1.03238-2.881-2.28325-4.654-3.93875-5.642m-4.05488-3.232c-.76725.5863-1.75775.771-3.53875.771h-1.35325s-.0139-7.0225 0-7.0225h1.35325c1.86 0 2.78538.2031 3.53413.7663.85562.6464 1.23687 1.616 1.23687 2.738 0 1.2235-.42775 2.1238-1.23225 2.7472m-52.20725.1985L1.1625.9095C.837.5909.5115.3647 0 .3647v26.4282h5.53837v-12.637l6.3985 6.3531 6.40325-6.3531v12.637h5.53838V.3647c-.5115 0-.837.2262-1.1625.5448L11.93687 11.6119Zm82.21 2.0361c-2.82725-2.6686-7.95637-3.1258-9.98387-4.6955-.79513-.6141-1.07888-1.5191-.81838-2.3825.32075-1.0711 1.395-1.7729 2.97138-1.7729 2.17162 0 4.12.9834 5.46862 2.5763L95.407 3.6105C93.27262 1.3574 89.86412 0 86.27412 0c-4.18512 0-7.3425 2.0084-8.7515 5.2126-1.09287 2.4886-.71612 5.0834.62775 6.9488 2.59938 3.6105 8.08663 3.7213 10.46275 5.5727.84638.6603 1.32075 1.7268.81388 2.8765-.43713 1.0065-1.53925 1.6898-3.3435 1.736-2.50175.06-4.73388-1.1035-6.37538-3.1396L76.081 22.9745c2.3995 2.8857 5.97087 4.2755 10.28612 4.2755 4.1945 0 7.87738-1.6206 9.37938-5.0743 1.316-3.0195.84162-6.2283-1.59963-8.5277"/></svg>