<svg xmlns="http://www.w3.org/2000/svg" width="415" height="100" xml:space="preserve"><g fill="#005DAA"><g fill-rule="evenodd" clip-rule="evenodd"><path d="m350.529 98 26.191-72.227s-19.576 0-39.154 3.928L312.807 98h37.722zm-4.465-91.737-5.027 13.874c19.697-3.934 39.152-3.934 39.152-3.934l5.027-13.869c.001 0-19.573 0-39.152 3.929zM204.713 94.066a216 216 0 0 0 41.1 3.934h.004c22.313 0 31.482-2.219 43.059-8.131 9.861-5.043 16.344-10.393 19.129-19.609 2.387-7.898-.664-15.352-7.742-20.092-7.08-4.742-13.939-6.984-22.084-11.477-7.123-3.928-11.008-6.887-10.533-11.004 1.002-8.641 10.24-11.484 22.967-11.484 12.4 0 24.539 1.123 36.316 3.27l4.789-13.209a216.335 216.335 0 0 0-41.105-3.929c-22.313 0-31.479 2.22-43.055 8.13-9.865 5.043-16.348 10.393-19.133 19.615-2.387 7.896.664 15.346 7.748 20.088 7.074 4.74 13.93 6.984 22.082 11.482 7.119 3.926 11.008 6.881 10.525 11-1.002 8.643-10.24 11.475-22.963 11.475h-.004a202.035 202.035 0 0 1-36.314-3.27l-4.786 13.211zM190.357 98l24.281-66.971c1.973-5.43 2.1-15.213-3.354-20.561-5.459-5.368-11.959-8.134-23.971-8.134-12.012-.004-21.764 3.151-29.602 6.221-4.213 1.642-10.467 4.849-17.545 9.134-.684-2.714-1.932-5.26-3.926-7.221-5.461-5.368-11.961-8.134-23.97-8.134-12.016-.003-21.76 3.152-29.603 6.221-4.212 1.642-10.468 4.849-17.545 9.134-.683-2.714-1.931-5.26-3.925-7.221C55.738 5.1 49.24 2.334 37.225 2.334L2.542 98H40.27l17.342-47.832C60.756 41.49 69.313 33.229 74.008 29.6c5.977-4.613 32.711-11.959 25.429 8.133L77.587 98h37.729l17.344-47.842c3.146-8.672 11.699-16.93 16.393-20.559 5.975-4.613 32.711-11.959 25.428 8.133L152.631 98h37.726z"/></g><path d="M403.07 3.732h-2.258v5.825h-1.859V3.732h-2.258V2.334h6.375v1.398zM412 9.557h-1.857V4.721l-1.336 3.135h-1.279l-1.336-3.135v4.835h-1.75V2.334h2.154l1.621 3.621 1.613-3.621H412v7.223z"/></g></svg>