<svg xmlns="http://www.w3.org/2000/svg" width="285.99228" height="93.600624" viewBox="0 0 75.668789 24.765166"><path transform="translate(-3.724657 -3.74652) scale(.28222)" style="fill:#045a9d;fill-opacity:1" d="M56.3125 13.75c-2.422266-.03516-4.85625.08125-7.25.3125C36.7125 15.7 25.087499 23.1125 19.25 34.25c-9.7875 18.45-6.85625 44.443748 9.96875 57.90625 9.2375 7.4875 21.712502 9.3375 33.25 8 10.125-.975 19.743747-6.231253 26.03125-14.21875 7.5125-9.2875 10.150003-21.7625 9.0625-33.5-.9625-13.475-8.0875-27.10625-20.375-33.46875-6.35625-3.65625-13.608203-5.113281-20.875-5.21875Zm-.90625 20.15625c5.036626-.0486 10.154687 2.265625 12.9375 6.53125 4.537498 6.549999 4.95 15.05625 4 22.71875-.537502 5.174998-2.775 10.23125-6.625 13.78125-5.724998 5.037497-15.35625 4.775-20.65625-.8125-6.224999-6.062497-6.6625-15.53125-6-23.65625.5125-7.775002 4.80625-16.18125 12.90625-18.15625 1.125-.269531 2.275202-.395035 3.4375-.40625z"/><path d="M173.8 17.77c7.46-6.65 18.18-7.47 27.68-6.35 4.83.89 9.76 2.33 13.57 5.57 4.62 3.65 6.57 9.63 6.98 15.31-6.21 0-12.42-.03-18.63.03-.65-7.46-11.2-9.14-16.05-4.79-1.88 2.46-.08 5.57 2.52 6.51 9.56 4.08 20.9 3.97 29.27 10.76 4.96 3.93 6.18 10.77 5.25 16.73-.55 6.01-4.44 11.39-9.68 14.25-7.05 4.26-15.57 4.93-23.61 4.53-6.93-.34-13.98-2.46-19.28-7.06-4.59-4.02-6.88-10.19-6.88-16.21 6.63-.14 13.26-.16 19.89.01.58 2.92 1.13 6.45 4.19 7.82 5.36 2.61 14.57 2.24 16.01-4.91-.7-1.24-.99-2.89-2.38-3.57-9.68-5-21.65-4.86-30.31-11.95-7.5-6.94-5.73-20.13 1.46-26.68zM78.19 12.62c19.24-.09 38.48-.05 57.73-.02-.06 5.53-.02 11.06-.03 16.59-6.26.02-12.51-.12-18.76.08-.29 16.59.14 33.2-.22 49.78-6.63-.06-13.25.09-19.87-.1-.21-16.57.02-33.15-.12-49.73-6.23-.08-12.47-.04-18.71-.03.11-5.52.11-11.05-.02-16.57ZM140.85 12.58c6.67-.04 13.36.04 20.03-.05.12 22.15.21 44.33.04 66.48-6.71 0-13.41.16-20.11-.11.05-22.11-.02-44.21.04-66.32z" style="fill:#045a9d" transform="matrix(.35278 0 0 .35278 -3.724657 -3.74652)"/></svg>