<svg xmlns="http://www.w3.org/2000/svg" width="1000" height="592.672" xml:space="preserve"><defs><linearGradient id="a"><stop style="stop-color:#00adec;stop-opacity:1" offset="0"/><stop offset=".2" style="stop-color:#00abeb;stop-opacity:1"/><stop offset=".40000001" style="stop-color:#009fe3;stop-opacity:1"/><stop offset=".60000002" style="stop-color:#0095da;stop-opacity:1"/><stop offset=".80000001" style="stop-color:#0082ca;stop-opacity:1"/><stop style="stop-color:#006fb9;stop-opacity:1" offset="1"/></linearGradient></defs><path d="M1210.5563 337.502c0 14.64181-7.6077 19.92762-21.6758 19.92762h-8.796l-29.2973-99.63806 9.9569-.58731c35.1705-.58732 49.8122 50.98682 49.8122 80.29775m409.0965-49.82586c0 8.20871-5.8594 13.48085-13.4807 13.48085-18.1658 0-24.6126-29.88459-28.1364-43.36543h35.1704c2.3356 9.95697 6.4467 19.92761 6.4467 29.88458m-358.096 36.93232c0-64.48132-46.302-82.05968-101.4-82.05968h-13.4808l-18.753-58.0209h-49.2249l49.8122 172.31442v.58732h-21.6895l4.1111 14.6418.5874.58731h90.2547c32.8212 0 59.7828-11.1316 59.7828-48.05027m274.8754-14.06814-76.2002-111.35697 45.1273-.58731-4.6848-14.06816h-109.0078l76.1866 110.76965h-44.54l4.6849 15.24279zm127.7607-42.20448c0-8.78235-1.7619-17.57836-4.1111-25.78706h-86.731c-3.5238-10.54429-7.6213-23.43782-7.6213-34.58308 0-9.36966 5.2721-14.05449 14.0682-14.05449 15.8164 0 21.6895 23.43781 25.787 35.15672h50.3995c-9.3697-31.64651-43.3654-50.98681-75.0119-50.98681-33.4085 0-59.1955 16.99105-59.1955 52.74875 0 46.8893 37.5059 85.5699 84.9825 85.5699 29.8846 0 57.4336-14.06816 57.4336-48.06393m167.0286-8.78235c0 174.06269-263.7301 236.76843-400.8741 236.76843-134.2212 0-399.1259-62.11842-399.1259-235.02015 0-96.70149 88.4928-162.34378 169.3779-195.752236h.5873l76.7738 264.331086c16.4175 56.25896 40.4426 114.86716 109.0077 114.86716 24.0389 0 55.6854-10.54428 55.6854-39.85522 0-16.40374-12.3062-31.64652-29.311-31.64652-14.0544 0-25.787 11.1316-25.787 25.19976 0 17.00471 12.8935 25.19975 28.1363 25.78706-4.6848 9.38332-15.8301 12.89353-25.787 12.89353-46.8893 0-57.4337-94.93956-66.8169-126.58607h84.9825l-36.3313-126.01244h-49.2386l32.2338 110.18235h-36.3313l-49.2248-167.02862c-7.6215-26.37438-17.5921-51.57413-22.2769-78.535817 58.6082-18.165677 120.7266-26.961689 182.2714-26.961689 136.5567 0 402.0487 59.782832 402.0487 237.369386m-22.8505 29.29728c0-14.65547-11.7189-26.9617-26.3743-26.9617-12.3063 0-23.4516 11.14527-23.4516 23.45149 0 2.33558.5874 5.27214 1.1747 7.62139h-1.1747c-25.1997-18.76665-36.9186-85.5699-43.9527-108.43407h-49.2249l32.2339 110.18235-19.3404.5873 5.2722 15.24279h66.8169l-6.4467-22.27686c8.7823 13.48084 22.8504 24.61244 39.8551 24.61244 13.4809 0 24.6125-10.54429 24.6125-24.02513" style="fill:#007cc2;fill-opacity:1;fill-rule:nonzero;stroke:none;stroke-width:13.6584034" transform="matrix(1.25 0 0 -1.25 -1289.0269 620.40213)"/></svg>