<svg height="152.24797" width="998.37561" viewBox="-2.8970622 -2.8970622 233.65808 35.66256" xmlns="http://www.w3.org/2000/svg"><path d="M197.18407 31.824948V-1.9020518h-6.435V20.649948l-13.156-22.5519998h-10.505l.0275 33.7269998h6.1075V9.3499482l13.022 22.4749998h10.939m-92.418-.006 10.449-23.8559998V31.824948h9.5536V-1.9110518h-12.359l-9.0595 21.1089998-9.605004-21.1089998h-12.279V31.824948h6.3374V8.4909482l10.487 23.3339998 6.476104-.006m54.918 0v-5.5912h-15.879v-9.0575h13.772v-5.28h-13.772V3.4377482h15.759v-5.3487h-25.26V31.833048l25.38-.0137m-85.105004 0v-5.5912h-15.879v-9.0575h13.773v-5.28h-13.773V3.4381482h15.76v-5.3487h-25.259V31.833448l25.379-.0137m-44.31.006h9.499V-1.9062518h-9.499zM227.75067 4.2237482v-6.15c-10.366-2.1363-18.14-.59625-21.534 3.15-3.8338 4.2288-3.8338 10.3749998 1.9825 14.2069998 3.27 1.9175 5.7912 2.7775 8.8362 4.13 2.1438.79 4.1812 1.805 4.1812 3.61 0 1.8038-1.8125 3.09-3.8425 3.4275-3.4962.45125-8.555-.325-12.84-1.4538v6.1462c8.12 1.8038 14.698 2.2162 20.449-.265 2.975-1.3875 4.5875-3.325 5.5462-7.005.98375-3.77-.3975-6.0775-1.9775-7.995-1.5788-1.9175-4.5238-3.9088-7.9062-5.1488-3.3838-1.2411998-5.865-2.3149998-6.88-3.4424998-.69625-.7725-1.995-2.8062 1.8725-4.52 2.4738-1.0962 8.2775-.27 12.112 1.3088m-206.550004 0v-6.15c-10.367-2.1356-18.1400004-.59561-21.53500044 3.1506C-4.1679344 5.4525482-4.1679344 11.598748 1.6474656 15.430748c3.2705 1.9175 5.792 2.7775 8.8373004 4.13 2.1426.79 4.1808 1.805 4.1808 3.61 0 1.8038-1.8125 3.09-3.8422 3.4275-3.4961004.45125-8.5543004-.325-12.8400004-1.4538v6.1462c8.1206 1.8038 14.6970004 2.2162 20.4490004-.265 2.9736-1.3875 4.5869-3.325 5.5464-7.005.98287-3.77-.399-6.0775-1.978-7.995-1.5791-1.9175-4.524-3.9088-7.9068-5.1488-3.3839-1.2411998-5.8648004-2.3149998-6.8799004-3.4424998-.69537-.7725-1.9947-2.8062 1.8735-4.52 2.4721004-1.0962 8.2769004-.27 12.1110004 1.3088" fill-rule="evenodd" fill="#231f20" style="fill:#1e1e1e;fill-opacity:1"/></svg>