<svg xmlns="http://www.w3.org/2000/svg" width="1000.874" height="286.965" viewBox="0 0 1000.8741 286.965" overflow="visible" xml:space="preserve" style="overflow:visible"><path d="m223.57725 135.25531-40.429.087c-.603 0-.994-.494-.861-1.081l1.538-6.322h-1.441l-3.873 7.1c-.114.21-.538.461-.775.461l-57.017.072c-.541 0-.938-.449-.879-.982l.59-5.275c-5.828 5.019-13.806 6.117-18.588 6.117h-23.361c-.657 0-1.044-.538-.834-1.163l.854-2.56c-3.848 2.923-9 5.011-15.895 5.011-8.163 0-12.955-3.038-15.038-7.677-4.954 4.823-12.522 7.62-20.152 7.62-2.385 0-4.703-.257-6.907-.738l-2.77 8.549c-.269.834-1.133.938-1.592.192l-16.00600044-25.954c-.298-.481-.108-1.066.415-1.281l23.29700044-9.565c-.082-.19-.158-.38-.227-.565-1.173-3.083-1.464-8.251997-.676-11.591997 1.217-5.142 7.627-17.85 24.697-17.092 3.456.153 8.022 1.573 11.02 3.204l.945-2.132c.099-.296.526-.603.839-.603l54.62-.148c3.639 0 7.63.79 10.672 2.849l.212-1.896c.047-.415.464-.785.879-.785l97.149.055c.409 0 .827.365.876.772l1.189 9.575c3.886-4.112 6.967-6.652 10.896-8.64 3.056-1.543 6.887-1.888 9.454-1.96.467-.015.911-.02 1.338-.017l3.185-9.985c.267-.836 1.13-.943 1.595-.197l15.759 25.507c.298.486.108 1.071-.425 1.284l-27.41 11.033997c-.797.324-1.427-.256-1.173-1.081l.783-2.54c-1.85 1.849-3.807 4.14-5.771 6.7-2.629 3.423-5.957 10.377-6.84 12.999l-.247.716" style="fill:#005542" transform="matrix(3.72881 0 0 3.72881 0 -254.33957)"/><path d="M247.49225 93.795313c-5.226-.197-11.533 6.370997-16.719 13.122997-2.987 3.893-6.522 11.308-7.521 14.283-.294.872-3.432 9.938-3.432 9.938h-14.337l7.237-20.639-4.135-27.034997h12.146l2.256 17.269997s3.587-5.304997 5.636-7.516997c4.031-4.344 6.82-6.643 10.313-8.405 4.266-2.158 11.979-1.363 11.979-1.363l1.876-5.885 9.519 15.403-16.633 6.694 1.815-5.867m-89.218 37.359997 25.544-47.633997h-12.571l-13.938 29.564997c.656-3.473 5.154-29.564997 5.154-29.564997h-11.054s-12.816 26.216997-14.379 29.754997l5.66-29.754997h-12.695l-5.327 47.633997h12.508l13.831-29.819c-.657 3.285-5.177 29.819-5.177 29.819h12.444m30.994-47.633997-25.59 47.561997h11.959l4.125-7.563h9.622l-1.789 7.699h13.613l5.655-47.697997h-17.595m4.928 12.784-2.886 17.454997h-6.465l9.351-17.454997z" style="fill:#fff200" transform="matrix(3.72881 0 0 3.72881 0 -254.33957)"/><path d="M82.10425 83.849313h12.885l-10.421 31.144997c-1.923 5.75-7.055 17.307-21.962 17.307-14.91 0-12.303-11.558-10.38-17.307l10.419-31.144997h12.891l-10.022 29.944997c-.422 1.264-1.037 2.906-1.079 4.167-.066 1.328.417 2.34 2.187 2.34 1.832 0 2.992-1.012 3.73-2.276.822-1.326 1.311-2.967 1.713-4.169l10.039-30.006997m-66.212 51.988997 1.743-5.382c2.918 1.144 6.248 1.787 9.78 1.787 11.832 0 21.419-7.239 21.419-16.17 0-3.839-2.096-7.06-4.734-10.141-2.066-2.414-4.325-5.574-2.979-8.782997 1.362-3.246 4.957-4.537 10.935-1.007l5.25-9.998c-2.229-1.454-6.764-2.979-9.854-3.115-14.14-.63-19.262 9.713-20.205 13.695-.597 2.528-.333 6.790997.506 9.001997.761 1.995 2.163 4.552 4.036 6.509 1.619 1.681 2.269 4.182 1.77 5.364-.733 1.735-3.127 2.644-5.194 2.77-2.303.141-4.851-.269-6.956-1.565l1.925-5.952-17.2510004 7.084 9.8090004 15.902m89.645-33.566h1.787c1.978 0 5.49-.696 6.786-3.919997 1.634-4.081-1.716-4.367-3.527-4.367h-2.172l-2.874 8.286997m-5.314 18.703 3.508.005c2.755 0 5.226-1.049 5.912-4.095.698-3.073-2.01-4.796-6.482-4.584l-2.938 8.674zm-.933-37.325997h15.781c7.223 0 13.406 2.911 10.459 13.278-1.039 3.647997-4.665 8.214997-8.373 9.537997 3.443 1.832 6.877 7.171 4.979 12.858-3.271 9.797-13.765 11.984-20.294 11.984h-18.454l15.902-47.657997z" style="fill:#fff" transform="matrix(3.72881 0 0 3.72881 0 -254.33957)"/></svg>