<svg xmlns="http://www.w3.org/2000/svg" width="288.909" height="141.864"><path d="M709.97 570.754h28.826v28.824H709.97zm-86.468 0h28.82v28.824h-28.82zm-86.475 0h28.825v28.824h-28.825zm-18.348 46.248c0 9.144 1.335 15.08 4.014 17.816 2.264 2.332 6.123 3.768 11.533 4.303 1.605.135 4.356.197 8.239.197v8.012h-69.453v-8.012c5.579 0 9.688-.265 12.348-.8 5.381-1.132 8.773-4.268 10.165-9.409.728-2.664 1.099-6.701 1.099-12.107V512.278c-11.785.333-21.001 4.235-27.654 11.712-6.321 7.154-10.176 18.105-11.578 32.857l-7.506-1.296 1.398-50.085h112.909l1.402 50.085-7.516 1.296c-1.397-14.752-5.285-25.703-11.63-32.857-6.687-7.477-15.947-11.38-27.77-11.712v104.724zm-68.656-46.248h28.825v28.824h-28.825z" style="fill:#e2007a;fill-opacity:1;fill-rule:nonzero;stroke:none" transform="translate(-449.886 -505.466)"/></svg>