<svg version="1.1" id="Layer_1" xmlns="http://www.w3.org/2000/svg" x="0" y="0" viewBox="0 0 720 720" style="enable-background:new 0 0 720 720" xml:space="preserve"><style>.st0{fill:#f26522}.st1{fill:#fff}</style><path class="st0" d="M0 0h720v720H0z"/><path class="st1" d="M514.3 454.24H205.7c-7 0-12.68-5.68-12.68-12.68V132.95c0-7 5.68-12.68 12.68-12.68h308.6c7 0 12.68 5.67 12.68 12.68v308.61c0 7-5.68 12.68-12.68 12.68"/><path class="st0" d="M454.89 225.32h-26.27c-1.13 0-2.04.89-2.04 2V347.2c0 1.09.91 1.99 2.04 1.99h26.27c1.12 0 2.04-.89 2.04-1.99V227.32c0-1.1-.92-2-2.04-2M365.18 225.32H265.1c-1.13 0-2.03.89-2.03 2V347.2c0 1.09.9 1.99 2.03 1.99h26.28c1.12 0 2.05-.89 2.05-1.99v-94.09c0-1.09.9-1.99 2.03-1.99h56.61c15.92 0 20.44 12.19 20.44 20.05v76.02c0 1.09.92 1.99 2.04 1.99h26.26c1.12 0 2.03-.89 2.03-1.99v-85.04c0-7.02-.84-17.1-9.89-25.98-9.47-9.26-18.12-10.85-27.77-10.85"/><path class="st0" d="M346.79 273.06H319.2c-1.13 0-2.05.89-2.05 1.99v72.15c0 1.09.92 1.99 2.05 1.99h27.59c1.11 0 2.03-.89 2.03-1.99v-72.15c0-1.09-.91-1.99-2.03-1.99"/><g><path class="st1" d="M262.48 598.71h-18l-17.29-28.12-17.29 28.12h-16.88l24.66-38.34-23.08-36h17.39l16.02 26.75 15.71-26.75h16.98l-23.34 36.86 25.12 37.48zM269.95 527.17c0-5.05 2.81-7.58 8.44-7.58 5.62 0 8.44 2.53 8.44 7.58 0 2.41-.7 4.28-2.11 5.62-1.41 1.34-3.52 2.01-6.33 2.01-5.62 0-8.44-2.55-8.44-7.63zm16.17 71.54h-15.51v-56.85h15.51v56.85zM510.09 527.17c0-5.05 2.81-7.58 8.44-7.58 5.62 0 8.44 2.53 8.44 7.58 0 2.41-.7 4.28-2.11 5.62-1.41 1.34-3.52 2.01-6.33 2.01-5.62 0-8.44-2.55-8.44-7.63zm16.17 71.54h-15.51v-56.85h15.51v56.85zM334.12 598.71l-3-7.73h-.41c-2.61 3.29-5.3 5.57-8.06 6.84-2.76 1.27-6.36 1.91-10.8 1.91-5.46 0-9.75-1.56-12.89-4.68-3.14-3.12-4.7-7.56-4.7-13.32 0-6.03 2.11-10.48 6.33-13.35 4.22-2.86 10.58-4.45 19.09-4.75l9.86-.3v-2.49c0-5.76-2.95-8.64-8.85-8.64-4.54 0-9.88 1.37-16.02 4.12l-5.14-10.47c6.54-3.42 13.79-5.14 21.76-5.14 7.63 0 13.47 1.66 17.54 4.98 4.07 3.32 6.1 8.37 6.1 15.15v37.88h-10.81zm-4.58-26.34-6 .2c-4.51.14-7.86.95-10.07 2.44-2.2 1.49-3.3 3.76-3.3 6.81 0 4.37 2.51 6.56 7.53 6.56 3.59 0 6.46-1.03 8.62-3.1 2.15-2.07 3.23-4.81 3.23-8.24v-4.67zM408.2 570.18c0 9.25-2.44 16.49-7.32 21.71-4.88 5.22-11.68 7.83-20.39 7.83-5.46 0-10.27-1.2-14.44-3.58-4.17-2.39-7.37-5.82-9.61-10.3-2.24-4.47-3.36-9.69-3.36-15.66 0-9.29 2.42-16.51 7.27-21.66 4.85-5.15 11.66-7.73 20.44-7.73 5.46 0 10.27 1.19 14.44 3.56s7.37 5.78 9.61 10.22c2.24 4.45 3.36 9.65 3.36 15.61zm-39.3 0c0 5.63.92 9.88 2.77 12.76 1.85 2.88 4.86 4.32 9.02 4.32 4.14 0 7.11-1.43 8.92-4.3 1.81-2.86 2.72-7.13 2.72-12.79 0-5.63-.91-9.85-2.74-12.66-1.83-2.81-4.83-4.22-9-4.22-4.14 0-7.12 1.4-8.95 4.19-1.83 2.81-2.74 7.04-2.74 12.7zM467.23 598.71h-15.51v-33.2c0-4.1-.69-7.18-2.06-9.23-1.37-2.05-3.53-3.08-6.48-3.08-3.97 0-6.85 1.46-8.64 4.37-1.8 2.92-2.7 7.71-2.7 14.39v26.74h-15.51v-56.85h11.85l2.09 7.27h.86c1.52-2.61 3.73-4.65 6.61-6.13 2.88-1.47 6.19-2.21 9.91-2.21 8.51 0 14.27 2.78 17.29 8.34h1.37c1.52-2.64 3.77-4.69 6.74-6.15s6.31-2.19 10.04-2.19c6.44 0 11.31 1.65 14.62 4.96 3.3 3.3 4.96 8.6 4.96 15.89v37.07h-15.56v-33.2c0-4.1-.69-7.18-2.06-9.23-1.37-2.05-3.53-3.08-6.48-3.08-3.8 0-6.64 1.36-8.52 4.07s-2.82 7.02-2.82 12.92v28.53z"/></g></svg>