<svg xmlns="http://www.w3.org/2000/svg" version="1.0" width="120" height="100" xml:space="preserve"><path d="m28.671875 1022.4024 79.379875-42.00202c4.71675.45412 9.253.7275 13.96975.7275 55.33725 0 100.33225-28.30563 100.33225-62.95413 0-34.65875-44.995-62.685-100.33225-62.685-55.249 0-99.97075 28.02625-99.97075 62.685 0 23.584 20.59575 44.17487 51.07425 54.79013l-44.453125 49.43852" style="fill:#ed1c24;fill-opacity:1;fill-rule:evenodd;stroke:none" transform="matrix(.5991 0 0 .5991 -13.21043966 -512.5151554)"/><path d="M87.09475 889.595h-19.502l.722625 5.5325h1.904375c2.358375 0 3.17875.2725 3.44725.2725.454125.27375.454125.5475.454125.81625 0 .2725 0 1.36125-.996125 3.44625-.815375 1.09-1.90425 2.90625-3.173875 5.26375 0 0-2.90525 4.53625-5.083 7.71-2.084875-4.53625-6.621-14.33-6.621-14.33-.2735-.27375-.2735-.5475-.454125-1.27-.2735-.82-.542-1.08875-.542-1.08875v-.27375h.2685c0-.27375.727625-.27375 3.17875-.54625h2.358375l-.82025-5.5325H38.19825l.996125 5.26375 1.63575.26875c2.358375.2725 3.17375.82 3.44725.82 0 0 .542.54125 1.8115 3.4475 0 0 9.79975 20.59 10.34175 21.67875-.2685 1.08875-2.084875 16.96337-2.084875 16.96337-.2735 1.81638-.8155 3.17375-1.630875 3.44726-.2735.27337-1.2695.72749-3.994125.72749l-2.3585.2735.8155 5.3515h28.305625l-1.088875-5.3515-1.542875-.2735c-3.447375 0-4.809625-.18062-5.258875-.45412-.273375 0-.546875-.54688-.82025-1.36225v-1.543c0-.542 0-1.63087.273375-2.71975 0 0 1.2695-12.4265 1.543-14.78525.542-.815 14.0625-22.22625 14.0625-22.22625 1.2695-2.085 2.085-2.905 2.358375-3.17375.268625-.27375 1.088875-.5475 2.627-.82l2.17775-.26875-1.088875-5.26375H87.09475" style="fill:#fff;fill-opacity:1;fill-rule:evenodd;stroke:none" transform="matrix(.5991 0 0 .5991 -13.21043966 -512.5151554)"/><path d="m93.715875 907.105-6.079125 1.26875-7.61725 1.63125.727625 4.72125h1.90425c1.8115 0 2.627 0 2.900375.26875 0 0 .2735.27375.2735.5475v1.08875l-1.63575 22.40688v3.44724c.82025 3.17376 2.63175 4.80463 3.994125 5.62013 1.088875.45412 2.358375.7275 3.44725.7275 4.262625 0 7.890625-2.63187 11.069375-7.62213.542-.81537 1.35738-2.17274 2.17275-3.44724-.2685.82037-.2685 1.543-.2685 2.36337v.2685c0 .81537.2685 1.81637.2685 2.63188.2735 1.90425 1.2745 3.44724 2.3585 4.26262 1.36225 1.08887 2.90525 1.543 4.53613 1.543 2.90524 0 5.80562-1.81638 8.16399-5.53225 1.36238-1.543 2.36325-3.44725 3.17875-5.53712l.81538-1.63088-4.53612-2.90037-2.90038 4.53125c-.82025 1.08887-1.08888 1.543-1.08888 1.543l-.1855.27349v-.72762l2.63175-28.57375.27351-2.44625h-10.06838l-.54688 1.90375c-.81537 4.44375-1.35737 7.6175-1.81149 9.795-.82038 3.17375-1.63575 6.07875-2.99313 8.71087-1.2745 2.9005-2.905375 5.80575-4.44825 8.4375-2.085 3.17388-3.44725 3.44738-3.72075 3.44738v-2.08988l2.36325-27.75837v-.5425c0-.815-.273375-1.3625-.7275-1.90375-1.088875-1.00125-1.90425-.7275-2.451125-.7275M137.44125 907.105c-5.625 1.26875-9.795 2.3575-12.51937 2.63125l-2.08501.5425.8155 4.99h1.81638c2.44625 0 3.17375 0 3.4475.27375 0 0 .26875 0 .26875.2675v1.00125l-3.17375 31.02562h10.34125l.27375-1.90424c.815-4.44825 1.26875-7.89551 1.5425-10.25388.81625-3.72075 1.63125-6.89462 2.6325-9.0725 1.08875-2.35875 2.71875-4.99 4.53125-7.6175 2.3625-3.17875 3.45125-3.44625 3.99375-3.44625V916.81125c0 .27375-2.6325 31.02562-2.6325 31.02562h10.255l.2675-1.90424c.5475-6.626 1.09-10.52738 1.3625-12.43163.27375-1.8115 1.08875-4.17 2.085-6.89475 1.08875-2.62625 2.6325-5.25875 4.53625-7.6175 1.27-2.1775 2.905-3.17875 3.99375-3.44625v1.26875L167.29 939.58012v3.17375c.5425 2.45125 1.63125 3.99413 2.9 5.083 1.08875.542 2.35875.99613 3.4475.99613 2.6325 0 4.81-.99613 6.895-3.17387 1.81625-1.81638 3.72-4.17475 5.26375-7.07513l.26875-.54688.82-1.63087-4.7225-3.17387-3.17375 4.80474-.2725.54688c-.26875.2685-.5425.72263-.81625.99612v.27338c.27375-2.63187 1.81625-20.596 1.81625-20.596V914.18c-.54625-2.35875-1.5425-4.175-3.17375-5.5325-1.5425-1.08875-3.17875-1.5425-4.99-1.5425-3.72 0-7.1675 2.3575-10.88875 7.3475-.26875.5425-.54125.81625-.99625 1.3575v-1.63c-.54625-2.6325-1.90375-4.7175-3.72-5.80625-1.3575-.815-2.6325-1.26875-4.2625-1.26875-3.4475 0-6.895 2.085-10.3425 6.80125-.54125.82-.99625 1.63625-1.5425 2.45125.27375-3.17375.815-7.98375.815-7.98375l-2.1725-1.5425-1.00125.27375M194.0475 891.9525c-.815 1.63625-1.08875 4.53625-1.08875 8.2575v7.34875c0 .54125 0 2.9-.26875 10.88375l-.2725 14.06237 1.63.45413 3.4475.542 2.905-13.24225c.99625-5.5325 1.54375-7.6225 1.8125-8.4375 1.90375-7.1675 2.905-11.3375 3.17875-12.7.2675-1.81625.2675-3.4475 0-4.99-.27375-1.3625-1.00125-2.72-2.09-3.99-1.08875-1.08875-2.6325-1.635-4.26375-1.635-2.08375 0-3.98875 1.08875-4.99 3.44625zm-5.0775 46.08462c-1.00125 1.26951-1.54375 2.90525-1.27 4.44825.5425 2.17288 1.27 3.71576 2.9 4.80463 1.27 1.08887 2.90625 1.543 4.44875 1.543 1.905 0 3.4475-.7275 4.53625-2.085 1.08375-1.36225 1.63125-2.90525 1.08375-4.71675-.26875-1.90425-1.08375-3.17875-2.62625-4.53612-1.3625-1.08888-2.99375-1.63575-4.53625-1.63575-2.35875 0-3.995 1.08887-4.53625 2.17774" style="fill:#fff;fill-opacity:1;fill-rule:evenodd;stroke:none" transform="matrix(.5991 0 0 .5991 -13.21043966 -512.5151554)"/></svg>